<?xml version="1.0" encoding="utf-8" standalone="no"?>
<!DOCTYPE svg PUBLIC "-//W3C//DTD SVG 1.1//EN"
  "http://www.w3.org/Graphics/SVG/1.1/DTD/svg11.dtd">
<!-- Created with matplotlib (http://matplotlib.org/) -->
<svg height="345.6pt" version="1.1" viewBox="0 0 460.8 345.6" width="460.8pt" xmlns="http://www.w3.org/2000/svg" xmlns:xlink="http://www.w3.org/1999/xlink">
 <defs>
  <style type="text/css">
*{stroke-linecap:butt;stroke-linejoin:round;}
  </style>
 </defs>
 <g id="figure_1">
  <g id="patch_1">
   <path d="M 0 345.6 
L 460.8 345.6 
L 460.8 0 
L 0 0 
z
" style="fill:#ffffff;"/>
  </g>
  <g id="axes_1">
   <g id="patch_2">
    <path d="M 236.454657 53.568 
C 221.782651 53.568 207.23321 56.247191 193.523595 61.473494 
C 179.813981 66.699797 167.173244 74.385895 156.224552 84.152875 
C 145.275859 93.919855 136.202134 105.604538 129.450695 118.63089 
C 122.699256 131.657242 118.382902 145.807627 116.714421 160.384456 
C 115.04594 174.961285 116.053208 189.721018 119.686569 203.936026 
C 123.31993 218.151035 129.518679 231.583824 137.97723 243.57218 
C 146.435781 255.560536 157.012814 265.904166 169.186899 274.093148 
C 181.360985 282.28213 194.928726 288.179647 209.221257 291.494962 
C 223.513789 294.810277 238.292321 295.488 252.828297 293.494721 
C 267.364273 291.501441 281.414837 286.870462 294.28732 279.830081 
C 307.159803 272.789701 318.63914 263.457545 328.15942 252.293673 
C 337.679701 241.129802 345.081866 228.320732 350.001002 214.49793 
C 354.920139 200.675127 357.27406 186.069533 356.946723 171.401179 
C 356.619386 156.732825 353.616259 142.246778 348.085391 128.657177 
C 342.554523 115.067575 334.58832 102.601464 324.579502 91.873401 
C 314.570684 81.145338 302.686471 72.334561 289.512735 65.875424 
L 236.454657 174.090065 
L 236.454657 53.568 
z
" style="fill:#1f77b4;"/>
   </g>
   <g id="patch_3">
    <path d="M 289.512735 65.875424 
C 281.782834 62.085422 273.669049 59.13454 265.310405 57.07334 
C 256.95176 55.012139 248.396273 53.852461 239.790536 53.614175 
L 236.454657 174.090065 
L 289.512735 65.875424 
z
" style="fill:#ff7f0e;"/>
   </g>
   <g id="patch_4">
    <path d="M 239.790536 53.614175 
C 239.234688 53.598784 238.678741 53.58724 238.122733 53.579544 
C 237.566726 53.571848 237.010671 53.568 236.454611 53.568 
L 236.454657 174.090065 
L 239.790536 53.614175 
z
" style="fill:#2ca02c;"/>
   </g>
   <g id="matplotlib.axis_1"/>
   <g id="matplotlib.axis_2"/>
   <g id="text_1">
    <!-- 目标检测(29.83ms) -->
    <defs>
     <path d="M 83.984375 76.5625 
Q 83.59375 65.234375 83.59375 55.078125 
L 83.59375 9.375 
Q 83.59375 3.515625 83.984375 -8.59375 
L 75.390625 -8.59375 
L 75.390625 -1.5625 
L 24.609375 -1.5625 
L 24.609375 -8.203125 
L 16.40625 -8.203125 
Q 16.796875 2.34375 16.796875 8.59375 
L 16.796875 55.078125 
Q 16.796875 67.96875 16.40625 76.5625 
L 83.984375 76.5625 
z
M 75.390625 4.6875 
L 75.390625 23.046875 
L 24.609375 23.046875 
L 24.609375 4.6875 
z
M 75.390625 29.296875 
L 75.390625 46.875 
L 24.609375 46.875 
L 24.609375 29.296875 
z
M 75.390625 53.125 
L 75.390625 70.3125 
L 24.609375 70.3125 
L 24.609375 53.125 
z
" id="SimHei-76ee"/>
     <path d="M 19.921875 68.75 
Q 19.921875 75 19.53125 80.859375 
L 27.34375 80.859375 
Q 26.953125 75.390625 26.953125 68.75 
L 26.953125 59.375 
Q 33.203125 59.375 40.234375 59.765625 
L 40.234375 52.34375 
Q 33.203125 52.734375 26.953125 52.734375 
L 26.953125 39.453125 
Q 29.6875 41.40625 32.421875 43.75 
Q 37.5 35.546875 41.40625 27.734375 
Q 37.109375 25.78125 33.984375 23.4375 
Q 31.640625 31.25 26.953125 37.890625 
L 26.953125 7.421875 
Q 26.953125 -0.78125 27.34375 -8.984375 
L 19.53125 -8.984375 
Q 19.921875 -0.390625 19.921875 7.421875 
L 19.921875 32.8125 
Q 16.015625 21.875 7.8125 11.71875 
Q 5.46875 14.84375 1.953125 17.578125 
Q 8.59375 24.21875 12.6875 34.171875 
Q 16.796875 44.140625 17.96875 52.734375 
Q 10.546875 52.734375 5.078125 51.953125 
L 5.078125 59.765625 
Q 12.5 59.375 19.921875 59.375 
z
M 80.859375 48.828125 
Q 88.671875 48.828125 94.53125 49.21875 
L 94.53125 41.796875 
Q 88.671875 42.1875 82.421875 42.1875 
L 70.3125 42.1875 
L 70.3125 2.734375 
Q 70.3125 -3.515625 66.796875 -5.46875 
Q 63.28125 -7.421875 54.296875 -8.59375 
Q 53.515625 -3.90625 51.171875 0.390625 
Q 58.984375 0.390625 60.9375 0.96875 
Q 62.890625 1.5625 62.890625 5.46875 
L 62.890625 42.1875 
L 53.125 42.1875 
Q 43.359375 42.1875 39.0625 41.40625 
L 39.0625 49.21875 
Q 44.140625 48.828125 53.125 48.828125 
z
M 76.5625 74.609375 
Q 84.765625 74.609375 89.84375 75 
L 89.84375 67.1875 
Q 82.421875 67.96875 74.21875 67.96875 
L 55.078125 67.96875 
Q 48.828125 67.96875 42.96875 67.1875 
L 42.96875 75 
Q 48.4375 74.609375 55.078125 74.609375 
z
M 82.421875 31.640625 
Q 91.015625 18.359375 96.875 7.8125 
Q 92.578125 5.859375 88.28125 3.125 
Q 83.984375 14.453125 75.390625 26.953125 
Q 79.296875 28.90625 82.421875 31.640625 
z
M 56.25 27.734375 
Q 54.6875 25.390625 50.390625 15.234375 
Q 46.09375 5.078125 43.75 0.78125 
Q 40.234375 2.734375 35.9375 4.296875 
Q 41.015625 12.109375 43.546875 18.546875 
Q 46.09375 25 47.65625 31.25 
Q 51.953125 29.296875 56.25 27.734375 
z
" id="SimHei-6807"/>
     <path d="M 19.53125 71.484375 
Q 19.53125 75.78125 19.140625 80.46875 
L 27.34375 80.46875 
Q 26.5625 75.78125 26.5625 71.484375 
L 26.5625 60.9375 
L 30.46875 60.9375 
Q 32.8125 60.9375 38.671875 61.328125 
L 38.671875 53.90625 
Q 32.03125 54.296875 29.296875 54.296875 
L 26.5625 54.296875 
L 26.5625 36.328125 
Q 29.6875 37.5 32.03125 39.453125 
Q 33.203125 37.5 35.15625 34.171875 
Q 37.109375 30.859375 39.0625 27.34375 
Q 36.328125 26.171875 32.421875 23.4375 
Q 31.25 25.390625 29.875 28.703125 
Q 28.515625 32.03125 26.5625 33.984375 
L 26.5625 4.6875 
Q 26.5625 -2.734375 26.953125 -9.765625 
L 19.140625 -9.765625 
Q 19.53125 -3.515625 19.53125 4.6875 
L 19.53125 35.9375 
Q 17.96875 32.03125 14.84375 25.578125 
Q 11.71875 19.140625 8.984375 14.84375 
Q 6.25 18.75 2.734375 20.703125 
Q 6.25 24.609375 8.59375 29.09375 
Q 10.9375 33.59375 13.078125 38.078125 
Q 15.234375 42.578125 16.59375 46.671875 
Q 17.96875 50.78125 18.75 54.296875 
L 14.84375 54.296875 
Q 12.890625 54.296875 6.640625 53.90625 
L 6.640625 61.328125 
Q 12.5 60.9375 14.84375 60.9375 
L 19.53125 60.9375 
z
M 80.46875 47.265625 
Q 73.046875 53.515625 69.71875 58 
Q 66.40625 62.5 62.109375 69.53125 
Q 58.984375 62.890625 56.25 58.390625 
Q 53.515625 53.90625 50.390625 50 
L 75.78125 50 
L 75.78125 42.96875 
Q 73.046875 43.359375 70.3125 43.359375 
L 58.59375 43.359375 
Q 53.90625 43.359375 49.21875 42.96875 
L 49.21875 48.046875 
L 44.921875 43.75 
Q 42.1875 40.625 39.84375 38.28125 
Q 37.5 41.796875 32.8125 44.140625 
Q 38.671875 48.046875 42.96875 52.921875 
Q 47.265625 57.8125 50.1875 62.296875 
Q 53.125 66.796875 55.265625 71.671875 
Q 57.421875 76.5625 58.203125 80.859375 
Q 63.28125 79.6875 67.578125 78.515625 
Q 66.015625 76.5625 65.625 75.390625 
Q 73.046875 62.109375 81.25 56.828125 
Q 89.453125 51.5625 96.09375 49.21875 
Q 92.1875 45.703125 91.40625 41.015625 
Q 87.5 42.96875 83.984375 45.109375 
Q 80.46875 47.265625 73.046875 53.515625 
z
M 88.671875 34.765625 
Q 84.375 25.78125 81.640625 18.546875 
Q 78.90625 11.328125 75 2.734375 
L 81.640625 2.734375 
Q 87.5 2.734375 93.359375 3.125 
L 93.359375 -3.90625 
Q 88.671875 -3.515625 81.640625 -3.515625 
L 48.828125 -3.515625 
Q 37.890625 -3.515625 34.375 -3.90625 
L 34.375 3.125 
Q 38.28125 2.734375 49.21875 2.734375 
L 67.578125 2.734375 
Q 70.3125 8.203125 72.84375 15.421875 
Q 75.390625 22.65625 76.75 27.140625 
Q 78.125 31.640625 79.296875 37.890625 
Q 84.375 35.9375 88.671875 34.765625 
z
M 46.875 34.375 
Q 49.21875 28.90625 51.75 22.84375 
Q 54.296875 16.796875 56.25 11.328125 
Q 53.125 10.15625 48.4375 7.8125 
Q 46.484375 14.84375 44.921875 18.75 
Q 43.359375 22.65625 39.453125 30.46875 
Q 44.140625 32.8125 46.875 34.375 
z
M 62.5 37.890625 
Q 64.453125 32.421875 66.796875 25.78125 
Q 69.140625 19.140625 70.3125 16.015625 
Q 66.015625 15.234375 62.5 13.28125 
Q 60.9375 19.53125 59.171875 24.609375 
Q 57.421875 29.6875 54.6875 34.765625 
Q 59.375 36.71875 62.5 37.890625 
z
" id="SimHei-68c0"/>
     <path d="M 62.890625 73.828125 
Q 62.5 69.921875 62.5 62.5 
L 62.5 34.765625 
Q 62.5 27.734375 62.890625 21.09375 
L 55.46875 21.09375 
L 55.46875 67.578125 
L 36.71875 67.578125 
L 36.71875 20.703125 
L 29.6875 20.703125 
Q 30.078125 27.734375 30.078125 34.765625 
L 30.078125 62.5 
Q 30.078125 65.625 29.6875 73.828125 
L 62.890625 73.828125 
z
M 92.1875 79.296875 
Q 91.796875 75 91.796875 68.359375 
L 91.796875 0 
Q 91.796875 -5.078125 88.28125 -6.640625 
Q 84.765625 -8.203125 77.734375 -9.375 
Q 76.953125 -5.078125 74.609375 -0.78125 
Q 80.078125 -0.78125 82.21875 -0.390625 
Q 84.375 0 84.375 3.90625 
L 84.375 68.359375 
Q 84.375 74.609375 83.984375 79.296875 
L 92.1875 79.296875 
z
M 51.171875 58.203125 
Q 50.390625 53.125 50 36.328125 
Q 49.609375 19.53125 44.328125 8.59375 
Q 39.0625 -2.34375 32.421875 -9.375 
Q 28.90625 -6.25 25 -5.078125 
Q 34.375 3.90625 38.671875 15.03125 
Q 42.96875 26.171875 43.15625 38.671875 
Q 43.359375 51.171875 42.578125 59.375 
Q 46.875 58.59375 51.171875 58.203125 
z
M 77.34375 66.796875 
Q 76.953125 62.5 76.953125 55.859375 
L 76.953125 28.515625 
Q 76.953125 20.3125 77.34375 13.28125 
L 69.53125 13.28125 
Q 69.921875 17.96875 69.921875 28.515625 
L 69.921875 55.859375 
Q 69.921875 62.5 69.53125 66.796875 
L 77.34375 66.796875 
z
M 26.5625 26.171875 
Q 21.484375 16.796875 17.375 7.609375 
Q 13.28125 -1.5625 11.328125 -6.25 
Q 7.8125 -3.125 3.125 -0.390625 
Q 7.421875 4.6875 11.90625 13.28125 
Q 16.40625 21.875 19.53125 31.25 
Q 23.046875 28.515625 26.5625 26.171875 
z
M 53.125 16.40625 
Q 59.375 10.15625 67.1875 -1.953125 
Q 64.0625 -3.515625 60.546875 -7.03125 
Q 54.296875 4.296875 47.265625 11.71875 
Q 50.390625 13.671875 53.125 16.40625 
z
M 9.375 55.078125 
Q 17.578125 48.828125 23.4375 43.359375 
Q 20.3125 40.234375 17.96875 37.109375 
Q 12.890625 43.359375 4.6875 49.21875 
Q 7.03125 51.5625 9.375 55.078125 
z
M 21.09375 62.5 
Q 14.84375 68.359375 7.421875 73.046875 
Q 9.765625 75.78125 12.109375 78.90625 
Q 20.3125 73.4375 26.171875 68.359375 
Q 23.4375 66.40625 21.09375 62.5 
z
" id="SimHei-6d4b"/>
     <path d="M 46.484375 -3.125 
L 42.1875 -7.421875 
Q 32.421875 1.953125 27.53125 12.109375 
Q 22.65625 22.265625 22.65625 35.15625 
Q 22.65625 48.046875 27.53125 58.203125 
Q 32.421875 68.359375 42.1875 78.125 
L 46.484375 73.828125 
Q 37.5 65.234375 33 56.046875 
Q 28.515625 46.875 28.515625 35.15625 
Q 28.515625 23.4375 33 14.25 
Q 37.5 5.078125 46.484375 -3.125 
z
" id="SimHei-28"/>
     <path d="M 4.6875 3.90625 
Q 5.078125 9.765625 10.15625 14.453125 
Q 15.234375 19.140625 23.046875 29.09375 
Q 30.859375 39.0625 33.203125 44.53125 
Q 35.546875 50 34.953125 53.90625 
Q 34.375 57.8125 31.25 60.34375 
Q 28.125 62.890625 24.015625 62.5 
Q 19.921875 62.109375 16.203125 59.375 
Q 12.5 56.640625 10.546875 51.171875 
L 3.125 52.34375 
Q 6.25 61.328125 11.125 65.421875 
Q 16.015625 69.53125 22.65625 69.921875 
Q 26.5625 70.3125 29.6875 69.71875 
Q 32.8125 69.140625 36.125 66.984375 
Q 39.453125 64.84375 41.59375 60.546875 
Q 43.75 56.25 43.15625 50.1875 
Q 42.578125 44.140625 37.109375 35.734375 
Q 31.640625 27.34375 16.015625 9.375 
L 44.140625 9.375 
L 44.140625 2.34375 
L 4.6875 2.34375 
z
" id="SimHei-32"/>
     <path d="M 12.5 1.171875 
Q 21.09375 15.625 26.5625 27.34375 
Q 16.796875 25.78125 10.34375 29.875 
Q 3.90625 33.984375 2.53125 41.015625 
Q 1.171875 48.046875 2.734375 53.703125 
Q 4.296875 59.375 7.609375 63.078125 
Q 10.9375 66.796875 15.625 68.359375 
Q 20.3125 69.921875 24.015625 69.921875 
Q 27.734375 69.921875 31.640625 68.359375 
Q 35.546875 66.796875 38.671875 63.671875 
Q 41.796875 60.546875 42.96875 57.21875 
Q 44.140625 53.90625 44.140625 48.625 
Q 44.140625 43.359375 40.234375 35.15625 
Q 36.328125 26.953125 21.09375 1.171875 
z
M 9.765625 50 
Q 10.9375 39.84375 14.640625 36.515625 
Q 18.359375 33.203125 22.65625 33.59375 
Q 26.953125 33.984375 29.484375 35.9375 
Q 32.03125 37.890625 34.375 42.578125 
Q 35.9375 48.4375 35.15625 52.53125 
Q 34.375 56.640625 31.046875 59.375 
Q 27.734375 62.109375 23.828125 62.109375 
Q 21.484375 62.5 17.765625 60.9375 
Q 14.0625 59.375 11.90625 54.6875 
Q 9.765625 50 10.9375 39.84375 
z
" id="SimHei-39"/>
     <path d="M 16.796875 1.953125 
L 7.8125 1.953125 
L 7.8125 10.546875 
L 16.796875 10.546875 
z
" id="SimHei-2e"/>
     <path d="M 2.734375 16.796875 
Q 2.734375 26.171875 5.078125 30.65625 
Q 7.421875 35.15625 12.890625 37.890625 
Q 8.203125 40.625 6.640625 43.9375 
Q 5.078125 47.265625 4.875 51.5625 
Q 4.6875 55.859375 6.046875 58.984375 
Q 7.421875 62.109375 10.15625 64.84375 
Q 12.890625 67.578125 16.203125 68.546875 
Q 19.53125 69.53125 23.4375 69.53125 
Q 27.34375 69.53125 30.46875 68.75 
Q 33.59375 67.96875 37.109375 65.421875 
Q 40.625 62.890625 42.1875 58.203125 
Q 43.75 53.515625 41.984375 47.265625 
Q 40.234375 41.015625 32.8125 37.5 
Q 39.453125 35.546875 42.1875 31.4375 
Q 44.921875 27.34375 44.921875 21.484375 
Q 44.921875 15.625 43.15625 12.109375 
Q 41.40625 8.59375 39.25 6.25 
Q 37.109375 3.90625 33.390625 2.53125 
Q 29.6875 1.171875 24.015625 1.171875 
Q 18.359375 1.171875 14.25 2.53125 
Q 10.15625 3.90625 7.421875 6.640625 
Q 4.6875 9.375 3.703125 13.078125 
Q 2.734375 16.796875 2.734375 26.171875 
z
M 10.9375 26.5625 
Q 10.546875 17.1875 12.296875 13.671875 
Q 14.0625 10.15625 18.75 9.171875 
Q 23.4375 8.203125 28.515625 9.375 
Q 33.59375 10.546875 35.546875 14.84375 
Q 37.5 19.140625 36.90625 23.4375 
Q 36.328125 27.734375 32.03125 30.65625 
Q 27.734375 33.59375 22.65625 33.203125 
Q 17.578125 32.8125 14.25 29.6875 
Q 10.9375 26.5625 10.546875 17.1875 
z
M 12.109375 56.25 
Q 12.109375 48.4375 14.84375 44.921875 
Q 17.578125 41.40625 23.4375 41.40625 
Q 29.296875 41.40625 32.21875 44.921875 
Q 35.15625 48.4375 34.953125 53.3125 
Q 34.765625 58.203125 31.4375 60.546875 
Q 28.125 62.890625 22.453125 62.5 
Q 16.796875 62.109375 14.453125 59.171875 
Q 12.109375 56.25 12.109375 48.4375 
z
" id="SimHei-38"/>
     <path d="M 3.90625 19.140625 
L 10.9375 20.3125 
Q 12.5 15.234375 16.015625 11.90625 
Q 19.53125 8.59375 24.796875 8.78125 
Q 30.078125 8.984375 33.203125 13.078125 
Q 36.328125 17.1875 35.9375 22.453125 
Q 35.546875 27.734375 31.828125 30.65625 
Q 28.125 33.59375 19.921875 34.765625 
L 19.921875 39.84375 
Q 28.125 40.625 31.828125 44.140625 
Q 35.546875 47.65625 35.15625 53.3125 
Q 34.765625 58.984375 30.078125 61.515625 
Q 25.390625 64.0625 20.109375 62.109375 
Q 14.84375 60.15625 11.71875 51.171875 
L 4.6875 52.34375 
Q 7.03125 59.375 11.125 64.0625 
Q 15.234375 68.75 22.265625 69.53125 
Q 29.296875 70.3125 34.5625 67.765625 
Q 39.84375 65.234375 41.984375 59.953125 
Q 44.140625 54.6875 42.578125 48.4375 
Q 41.015625 42.1875 33.59375 37.5 
Q 39.0625 35.15625 41.984375 30.46875 
Q 44.921875 25.78125 43.9375 18.15625 
Q 42.96875 10.546875 37.109375 5.859375 
Q 31.25 1.171875 23.828125 1.359375 
Q 16.40625 1.5625 10.9375 6.046875 
Q 5.46875 10.546875 3.90625 19.140625 
z
" id="SimHei-33"/>
     <path d="M 47.65625 1.953125 
L 39.84375 1.953125 
L 39.84375 33.59375 
Q 39.84375 35.9375 39.0625 37.5 
Q 38.28125 39.0625 35.9375 39.0625 
Q 33.203125 39.0625 30.859375 36.125 
Q 28.515625 33.203125 28.515625 28.515625 
L 28.515625 1.953125 
L 20.703125 1.953125 
L 20.703125 33.59375 
Q 20.703125 35.9375 19.921875 37.5 
Q 19.140625 39.0625 16.796875 39.0625 
Q 14.0625 39.0625 11.71875 36.125 
Q 9.375 33.203125 9.375 28.515625 
L 9.375 1.953125 
L 1.5625 1.953125 
L 1.5625 45.703125 
L 9.375 45.703125 
L 9.375 39.84375 
Q 11.328125 42.96875 14.0625 44.71875 
Q 16.796875 46.484375 19.921875 46.484375 
Q 23.046875 46.484375 25.1875 44.71875 
Q 27.34375 42.96875 28.125 39.84375 
Q 30.078125 42.96875 32.609375 44.71875 
Q 35.15625 46.484375 38.28125 46.484375 
Q 42.96875 46.484375 45.3125 43.9375 
Q 47.65625 41.40625 47.65625 36.71875 
z
" id="SimHei-6d"/>
     <path d="M 42.96875 14.0625 
Q 42.96875 7.8125 38.078125 4.484375 
Q 33.203125 1.171875 25.78125 1.171875 
Q 16.40625 1.171875 11.328125 4.875 
Q 6.25 8.59375 6.25 15.625 
L 14.0625 15.625 
Q 14.0625 10.9375 17.375 9.375 
Q 20.703125 7.8125 25.390625 7.8125 
Q 30.078125 7.8125 32.421875 9.5625 
Q 34.765625 11.328125 34.765625 14.0625 
Q 34.765625 16.015625 32.8125 17.96875 
Q 30.859375 19.921875 23.046875 21.09375 
Q 14.0625 22.265625 10.734375 25.578125 
Q 7.421875 28.90625 7.421875 34.375 
Q 7.421875 39.0625 11.90625 42.765625 
Q 16.40625 46.484375 25 46.484375 
Q 32.8125 46.484375 37.296875 42.96875 
Q 41.796875 39.453125 41.796875 33.59375 
L 33.984375 33.59375 
Q 33.984375 37.109375 31.4375 38.46875 
Q 28.90625 39.84375 25 39.84375 
Q 19.921875 39.84375 17.765625 38.078125 
Q 15.625 36.328125 15.625 33.984375 
Q 15.625 31.25 17.578125 29.6875 
Q 19.53125 28.125 25.78125 27.34375 
Q 35.9375 25.78125 39.453125 22.453125 
Q 42.96875 19.140625 42.96875 14.0625 
z
" id="SimHei-73"/>
     <path d="M 26.171875 35.15625 
Q 26.171875 22.265625 21.28125 12.109375 
Q 16.40625 1.953125 6.640625 -7.421875 
L 2.34375 -3.125 
Q 11.328125 5.078125 15.8125 14.25 
Q 20.3125 23.4375 20.3125 35.15625 
Q 20.3125 46.875 15.8125 56.046875 
Q 11.328125 65.234375 2.34375 73.828125 
L 6.640625 78.125 
Q 16.40625 68.359375 21.28125 58.203125 
Q 26.171875 48.046875 26.171875 35.15625 
z
" id="SimHei-29"/>
    </defs>
    <g transform="translate(80.359587 302.287082)scale(0.15 -0.15)">
     <use xlink:href="#SimHei-76ee"/>
     <use x="100" xlink:href="#SimHei-6807"/>
     <use x="200" xlink:href="#SimHei-68c0"/>
     <use x="300" xlink:href="#SimHei-6d4b"/>
     <use x="400" xlink:href="#SimHei-28"/>
     <use x="450" xlink:href="#SimHei-32"/>
     <use x="500" xlink:href="#SimHei-39"/>
     <use x="550" xlink:href="#SimHei-2e"/>
     <use x="600" xlink:href="#SimHei-38"/>
     <use x="650" xlink:href="#SimHei-33"/>
     <use x="700" xlink:href="#SimHei-6d"/>
     <use x="750" xlink:href="#SimHei-73"/>
     <use x="800" xlink:href="#SimHei-29"/>
    </g>
   </g>
   <g id="text_2">
    <!-- 92.7% -->
    <defs>
     <path d="M 13.28125 2.34375 
Q 20.3125 32.03125 37.890625 61.328125 
L 4.296875 61.328125 
L 4.296875 68.359375 
L 46.09375 68.359375 
L 46.09375 61.71875 
Q 27.734375 32.03125 21.875 2.34375 
L 13.28125 2.34375 
z
" id="SimHei-37"/>
     <path d="M 21.875 51.953125 
Q 21.875 40.625 18.546875 37.5 
Q 15.234375 34.375 12.109375 34.375 
Q 8.984375 34.375 5.65625 37.5 
Q 2.34375 40.625 2.34375 51.953125 
Q 2.34375 63.28125 5.65625 66.40625 
Q 8.984375 69.53125 12.109375 69.53125 
Q 15.234375 69.53125 18.546875 66.40625 
Q 21.875 63.28125 21.875 51.953125 
z
M 41.015625 68.359375 
L 10.9375 1.171875 
L 7.8125 2.34375 
L 37.890625 69.53125 
z
M 46.484375 18.75 
Q 46.484375 7.421875 43.15625 4.296875 
Q 39.84375 1.171875 36.71875 1.171875 
Q 33.59375 1.171875 30.265625 4.296875 
Q 26.953125 7.421875 26.953125 18.75 
Q 26.953125 30.078125 30.265625 33.203125 
Q 33.59375 36.328125 36.71875 36.328125 
Q 39.84375 36.328125 43.15625 33.203125 
Q 46.484375 30.078125 46.484375 18.75 
z
M 15.625 51.953125 
Q 15.625 58.984375 14.84375 61.328125 
Q 14.0625 63.671875 12.109375 63.671875 
Q 10.15625 63.671875 9.375 61.328125 
Q 8.59375 58.984375 8.59375 51.953125 
Q 8.59375 44.921875 9.375 42.578125 
Q 10.15625 40.234375 12.109375 40.234375 
Q 14.0625 40.234375 14.84375 42.578125 
Q 15.625 44.921875 15.625 51.953125 
z
M 40.234375 18.75 
Q 40.234375 25.78125 39.453125 28.125 
Q 38.671875 30.46875 36.71875 30.46875 
Q 34.765625 30.46875 33.984375 28.125 
Q 33.203125 25.78125 33.203125 18.75 
Q 33.203125 11.71875 33.984375 9.375 
Q 34.765625 7.03125 36.71875 7.03125 
Q 38.671875 7.03125 39.453125 9.375 
Q 40.234375 11.71875 40.234375 18.75 
z
" id="SimHei-25"/>
    </defs>
    <g transform="translate(201.364617 248.751753)scale(0.15 -0.15)">
     <use xlink:href="#SimHei-39"/>
     <use x="50" xlink:href="#SimHei-32"/>
     <use x="100" xlink:href="#SimHei-2e"/>
     <use x="150" xlink:href="#SimHei-37"/>
     <use x="200" xlink:href="#SimHei-25"/>
    </g>
   </g>
   <g id="text_3">
    <!-- 数据关联(2.19ms) -->
    <defs>
     <path d="M 70.703125 76.953125 
Q 69.921875 75 68.75 71.671875 
Q 67.578125 68.359375 65.234375 59.765625 
L 83.203125 59.765625 
Q 87.109375 59.765625 92.578125 60.15625 
L 92.578125 53.125 
Q 88.28125 53.515625 85.9375 53.515625 
Q 85.9375 47.265625 83.78125 33.78125 
Q 81.640625 20.3125 76.171875 10.546875 
Q 80.078125 5.859375 84.953125 2.140625 
Q 89.84375 -1.5625 94.140625 -3.125 
Q 89.453125 -6.640625 87.890625 -9.765625 
Q 83.203125 -7.03125 79.296875 -3.515625 
Q 75.390625 0 71.484375 5.078125 
Q 67.1875 0.390625 62.296875 -2.921875 
Q 57.421875 -6.25 50 -10.15625 
Q 48.046875 -6.640625 44.53125 -4.6875 
Q 50.390625 -2.34375 57.03125 1.953125 
Q 63.671875 6.25 67.1875 10.546875 
Q 64.453125 16.015625 61.90625 22.265625 
Q 59.375 28.515625 57.421875 38.671875 
Q 56.25 35.546875 53.515625 30.46875 
Q 50.78125 32.03125 46.875 33.59375 
Q 53.125 44.53125 57.03125 57.421875 
Q 60.9375 70.3125 62.109375 79.6875 
Q 66.796875 77.734375 70.703125 76.953125 
z
M 32.8125 35.15625 
Q 31.25 33.59375 29.296875 30.078125 
L 50.78125 30.078125 
Q 48.4375 20.3125 42.578125 10.546875 
Q 48.828125 8.203125 52.34375 6.25 
Q 50.390625 3.515625 48.828125 0.390625 
Q 45.3125 2.734375 38.28125 5.078125 
Q 30.46875 -3.515625 11.328125 -10.15625 
Q 9.375 -5.859375 6.25 -4.296875 
Q 24.609375 0 31.25 7.421875 
Q 20.3125 10.15625 13.28125 12.109375 
Q 15.625 15.625 19.53125 23.828125 
Q 15.625 23.828125 6.640625 23.4375 
L 6.640625 30.46875 
Q 14.0625 30.078125 21.875 30.078125 
Q 23.4375 33.59375 24.21875 37.890625 
Q 28.515625 36.328125 32.8125 35.15625 
z
M 27.734375 61.71875 
Q 27.734375 71.09375 27.34375 79.6875 
L 35.15625 79.6875 
Q 34.765625 71.484375 34.765625 61.71875 
Q 48.046875 61.71875 53.515625 62.109375 
L 53.515625 55.078125 
Q 48.046875 55.46875 34.765625 55.46875 
Q 34.765625 44.140625 35.15625 37.890625 
L 27.34375 37.890625 
Q 27.734375 43.359375 27.734375 51.5625 
Q 25.78125 48.4375 20.3125 43.546875 
Q 14.84375 38.671875 10.15625 35.9375 
Q 8.203125 39.453125 4.296875 41.015625 
Q 7.8125 42.1875 13.671875 46.484375 
Q 19.53125 50.78125 22.65625 55.46875 
Q 14.84375 55.46875 7.8125 55.078125 
L 7.8125 62.109375 
Q 14.453125 61.71875 27.734375 61.71875 
z
M 62.109375 49.609375 
Q 65.625 26.5625 71.875 17.578125 
Q 75.78125 26.5625 77.140625 35.734375 
Q 78.515625 44.921875 78.90625 53.515625 
L 63.671875 53.515625 
L 62.109375 49.609375 
z
M 22.65625 15.625 
Q 27.34375 14.453125 35.546875 12.5 
Q 38.671875 16.40625 41.40625 23.828125 
L 26.953125 23.828125 
Q 25 19.921875 22.65625 15.625 
z
M 51.953125 75.390625 
Q 50 72.265625 48.828125 69.53125 
Q 47.65625 66.796875 45.703125 62.890625 
Q 42.578125 64.453125 39.453125 65.234375 
Q 42.578125 70.3125 45.3125 78.125 
Q 49.21875 76.171875 51.953125 75.390625 
z
M 40.234375 52.734375 
Q 45.3125 47.65625 50 42.578125 
Q 47.65625 40.625 44.921875 37.890625 
Q 39.453125 44.53125 35.9375 48.4375 
Q 38.28125 50.390625 40.234375 52.734375 
z
M 14.453125 78.125 
Q 19.921875 72.65625 23.4375 67.1875 
L 17.578125 63.671875 
Q 14.84375 69.140625 9.375 73.828125 
Q 12.890625 76.171875 14.453125 78.125 
z
" id="SimHei-6570"/>
     <path d="M 89.84375 74.609375 
Q 89.453125 71.09375 89.453125 66.015625 
L 89.453125 60.9375 
Q 89.453125 53.90625 89.84375 50.78125 
L 48.4375 50.78125 
L 48.4375 39.0625 
L 66.40625 39.0625 
Q 66.40625 42.578125 66.015625 49.609375 
L 73.4375 49.609375 
Q 73.046875 43.359375 73.046875 39.0625 
L 83.59375 39.0625 
Q 90.625 39.0625 95.3125 39.453125 
L 95.3125 32.421875 
Q 90.625 32.8125 83.984375 32.8125 
L 73.046875 32.8125 
L 73.046875 22.265625 
L 90.234375 22.265625 
Q 89.84375 14.84375 89.84375 12.5 
L 89.84375 2.734375 
Q 89.84375 -3.515625 90.234375 -8.984375 
L 83.203125 -8.984375 
L 83.203125 -3.515625 
L 57.421875 -3.515625 
L 57.421875 -9.375 
L 50.390625 -9.375 
Q 50.78125 -5.078125 50.78125 1.5625 
L 50.78125 12.890625 
Q 50.78125 16.796875 50.390625 22.265625 
L 66.40625 22.265625 
L 66.40625 32.8125 
L 48.046875 32.8125 
Q 47.65625 21.484375 45.109375 11.515625 
Q 42.578125 1.5625 37.890625 -7.421875 
Q 34.375 -5.078125 30.46875 -3.90625 
Q 35.15625 2.34375 37.296875 9.375 
Q 39.453125 16.40625 40.625 24.40625 
Q 41.796875 32.421875 41.796875 41.015625 
L 41.796875 55.859375 
Q 41.796875 62.109375 41.40625 74.609375 
L 89.84375 74.609375 
z
M 19.921875 69.140625 
Q 19.921875 74.609375 19.53125 79.296875 
L 27.34375 79.296875 
Q 26.953125 75 26.953125 69.140625 
L 26.953125 58.984375 
Q 30.859375 58.984375 39.0625 59.375 
L 39.0625 52.734375 
Q 30.859375 53.125 26.953125 53.125 
L 26.953125 38.28125 
Q 32.03125 41.015625 37.5 44.53125 
Q 37.890625 41.40625 39.453125 38.671875 
Q 32.03125 34.375 26.953125 31.25 
L 26.953125 2.734375 
Q 26.953125 -4.6875 23.234375 -6.25 
Q 19.53125 -7.8125 12.109375 -8.984375 
Q 11.328125 -5.078125 9.375 -0.78125 
Q 16.015625 -0.78125 17.96875 -0.1875 
Q 19.921875 0.390625 19.921875 5.078125 
L 19.921875 28.125 
Q 14.0625 25 8.203125 20.703125 
Q 7.03125 23.828125 4.296875 28.125 
Q 12.109375 30.859375 19.921875 35.15625 
L 19.921875 53.125 
Q 12.5 53.125 5.46875 52.734375 
L 5.46875 59.375 
Q 12.5 58.984375 19.921875 58.984375 
z
M 82.8125 56.640625 
L 82.8125 68.75 
L 48.4375 68.75 
L 48.4375 56.640625 
z
M 83.203125 2.34375 
L 83.203125 16.796875 
L 57.421875 16.796875 
L 57.421875 2.34375 
z
" id="SimHei-636e"/>
     <path d="M 73.046875 75.78125 
Q 70.703125 73.046875 68.15625 68.359375 
Q 65.625 63.671875 63.671875 59.765625 
L 72.265625 59.765625 
Q 80.46875 59.765625 86.71875 60.15625 
L 86.71875 52.734375 
Q 81.640625 53.125 73.4375 53.125 
L 53.125 53.125 
L 53.125 33.59375 
L 77.734375 33.59375 
Q 85.546875 33.59375 91.796875 33.984375 
L 91.796875 26.5625 
Q 85.546875 26.953125 78.515625 26.953125 
L 54.6875 26.953125 
Q 66.40625 7.03125 93.75 1.171875 
Q 90.234375 -2.734375 87.5 -8.203125 
Q 62.890625 0 50.390625 20.3125 
Q 43.75 3.125 13.671875 -9.375 
Q 12.109375 -5.46875 7.8125 -2.34375 
Q 37.890625 5.859375 44.921875 26.953125 
L 24.21875 26.953125 
Q 15.234375 26.953125 9.375 26.5625 
L 9.375 33.59375 
Q 13.671875 33.203125 22.65625 33.203125 
L 45.703125 33.203125 
L 45.703125 53.125 
L 27.34375 53.125 
Q 19.921875 53.125 14.0625 52.734375 
L 14.0625 60.15625 
Q 19.921875 59.765625 27.734375 59.765625 
L 55.859375 59.765625 
Q 61.328125 72.265625 63.671875 80.46875 
Q 67.578125 78.125 73.046875 75.78125 
z
M 33.203125 80.078125 
Q 38.28125 73.828125 43.75 65.234375 
Q 39.0625 62.890625 36.328125 60.546875 
Q 31.640625 69.53125 26.953125 75.390625 
Q 30.46875 77.734375 33.203125 80.078125 
z
" id="SimHei-5173"/>
     <path d="M 36.328125 75.78125 
Q 41.015625 75.78125 46.484375 76.171875 
L 46.484375 69.53125 
Q 42.1875 69.921875 38.671875 69.921875 
L 38.671875 17.96875 
Q 42.96875 19.140625 46.484375 19.921875 
Q 45.703125 14.84375 46.09375 13.28125 
Q 41.40625 12.5 38.671875 11.71875 
L 38.671875 2.734375 
Q 38.671875 -3.125 39.0625 -10.546875 
L 30.859375 -10.546875 
Q 31.640625 -3.125 31.640625 2.734375 
L 31.640625 10.15625 
Q 27.34375 9.375 20.890625 7.421875 
Q 14.453125 5.46875 7.03125 2.734375 
Q 6.640625 5.46875 4.296875 11.71875 
Q 6.640625 11.71875 12.5 12.890625 
L 12.5 69.921875 
Q 8.59375 69.921875 5.078125 69.140625 
L 5.078125 76.171875 
Q 9.765625 75.78125 14.84375 75.78125 
z
M 85.15625 77.34375 
Q 82.03125 73.046875 80.65625 70.109375 
Q 79.296875 67.1875 75.78125 60.9375 
Q 83.984375 60.9375 91.015625 61.328125 
L 91.015625 54.296875 
Q 83.984375 55.078125 78.90625 55.078125 
L 71.09375 55.078125 
Q 70.703125 40.625 70.3125 34.765625 
L 81.640625 34.765625 
Q 86.328125 34.765625 92.96875 35.15625 
L 92.96875 28.125 
Q 86.328125 28.515625 81.640625 28.515625 
L 71.484375 28.515625 
Q 73.828125 17.96875 80.859375 9.765625 
Q 87.890625 1.5625 96.484375 -0.390625 
Q 93.75 -2.734375 92.375 -4.875 
Q 91.015625 -7.03125 90.625 -9.765625 
Q 82.421875 -3.90625 76.953125 3.125 
Q 71.484375 10.15625 67.96875 20.703125 
Q 65.234375 11.71875 60.9375 4.296875 
Q 56.640625 -3.125 50 -10.546875 
Q 48.828125 -8.984375 46.484375 -7.03125 
Q 44.140625 -5.078125 42.96875 -5.078125 
Q 48.4375 -1.5625 53.3125 6.046875 
Q 58.203125 13.671875 59.765625 18.546875 
Q 61.328125 23.4375 62.109375 28.515625 
L 57.421875 28.515625 
Q 51.171875 28.515625 44.140625 28.125 
L 44.140625 35.15625 
Q 51.171875 34.765625 57.421875 34.765625 
L 62.890625 34.765625 
Q 63.671875 46.09375 63.671875 55.078125 
L 59.765625 55.078125 
Q 54.296875 55.078125 46.875 54.296875 
L 46.875 61.328125 
Q 54.296875 60.9375 59.765625 60.9375 
L 69.53125 60.9375 
Q 74.21875 71.875 76.5625 81.640625 
Q 78.90625 80.078125 85.15625 77.34375 
z
M 31.640625 34.765625 
L 31.640625 50 
L 19.53125 50 
L 19.53125 34.765625 
z
M 31.640625 56.25 
L 31.640625 69.921875 
L 19.53125 69.921875 
L 19.53125 56.25 
z
M 31.640625 28.515625 
L 19.53125 28.515625 
L 19.53125 14.0625 
Q 23.828125 14.84375 31.640625 16.40625 
z
M 54.6875 80.859375 
Q 61.71875 69.921875 63.671875 66.40625 
Q 58.984375 64.453125 57.421875 62.5 
Q 55.46875 67.1875 49.21875 77.34375 
Q 50.390625 77.734375 54.6875 80.859375 
z
" id="SimHei-8054"/>
     <path d="M 21.875 56.25 
Q 16.796875 51.171875 8.984375 46.484375 
L 8.984375 53.90625 
Q 18.75 60.546875 25 69.53125 
L 29.6875 69.53125 
L 29.6875 2.34375 
L 21.875 2.34375 
z
" id="SimHei-31"/>
    </defs>
    <g transform="translate(266.753192 56.261566)scale(0.15 -0.15)">
     <use xlink:href="#SimHei-6570"/>
     <use x="100" xlink:href="#SimHei-636e"/>
     <use x="200" xlink:href="#SimHei-5173"/>
     <use x="300" xlink:href="#SimHei-8054"/>
     <use x="400" xlink:href="#SimHei-28"/>
     <use x="450" xlink:href="#SimHei-32"/>
     <use x="500" xlink:href="#SimHei-2e"/>
     <use x="550" xlink:href="#SimHei-31"/>
     <use x="600" xlink:href="#SimHei-39"/>
     <use x="650" xlink:href="#SimHei-6d"/>
     <use x="700" xlink:href="#SimHei-73"/>
     <use x="750" xlink:href="#SimHei-29"/>
    </g>
   </g>
   <g id="text_4">
    <!-- 6.8% -->
    <defs>
     <path d="M 3.515625 19.53125 
Q 4.296875 30.859375 6.046875 34.765625 
Q 7.8125 38.671875 11.328125 44.53125 
L 27.34375 69.53125 
L 36.328125 69.53125 
L 19.921875 43.75 
Q 30.46875 46.484375 36.71875 42.96875 
Q 42.96875 39.453125 45.109375 34.953125 
Q 47.265625 30.46875 47.453125 25.1875 
Q 47.65625 19.921875 45.890625 14.84375 
Q 44.140625 9.765625 39.640625 5.65625 
Q 35.15625 1.5625 27.140625 1.171875 
Q 19.140625 0.78125 13.46875 4.09375 
Q 7.8125 7.421875 5.65625 13.46875 
Q 3.515625 19.53125 4.296875 30.859375 
z
M 12.5 16.015625 
Q 19.53125 8.59375 25.390625 8.203125 
Q 31.25 7.8125 35.15625 12.109375 
Q 39.0625 16.40625 39.0625 24.609375 
Q 39.0625 32.8125 34.171875 35.9375 
Q 29.296875 39.0625 23.234375 38.28125 
Q 17.1875 37.5 14.453125 32.421875 
Q 11.71875 27.34375 12.109375 21.671875 
Q 12.5 16.015625 19.53125 8.59375 
z
" id="SimHei-36"/>
    </defs>
    <g transform="translate(238.768106 108.09878)scale(0.15 -0.15)">
     <use xlink:href="#SimHei-36"/>
     <use x="50" xlink:href="#SimHei-2e"/>
     <use x="100" xlink:href="#SimHei-38"/>
     <use x="150" xlink:href="#SimHei-25"/>
    </g>
   </g>
   <g id="text_5">
    <!-- 运动更新(0.14ms) -->
    <defs>
     <path d="M 78.90625 16.796875 
Q 58.59375 14.453125 51.171875 13.46875 
Q 43.75 12.5 41.015625 10.9375 
L 37.109375 19.140625 
Q 41.015625 20.703125 45.3125 27.734375 
Q 49.609375 34.765625 51.953125 45.703125 
Q 38.671875 45.703125 31.640625 45.3125 
L 31.640625 52.734375 
Q 39.0625 52.34375 61.71875 52.34375 
Q 84.375 52.34375 91.015625 52.734375 
L 91.015625 45.3125 
Q 84.375 45.703125 60.546875 45.703125 
Q 59.375 41.40625 56.046875 34.375 
Q 52.734375 27.34375 48.046875 19.921875 
Q 62.5 21.09375 75.78125 22.265625 
Q 73.046875 27.34375 67.96875 33.59375 
Q 71.09375 35.15625 73.828125 37.890625 
Q 81.25 28.515625 89.84375 14.453125 
Q 86.328125 12.5 82.8125 10.15625 
Q 80.859375 13.671875 78.90625 16.796875 
z
M 5.078125 0 
Q 17.1875 7.8125 21.09375 9.375 
L 21.09375 40.625 
Q 14.0625 40.625 7.421875 40.234375 
L 7.421875 47.65625 
Q 14.84375 47.265625 21.875 47.265625 
L 28.515625 47.265625 
Q 28.125 39.84375 28.125 35.546875 
L 28.125 10.9375 
Q 36.328125 0.78125 59.171875 0.578125 
Q 82.03125 0.390625 94.53125 2.34375 
Q 91.796875 -2.734375 91.015625 -7.03125 
L 65.625 -7.03125 
Q 55.46875 -7.03125 48.625 -6.046875 
Q 41.796875 -5.078125 37.109375 -3.3125 
Q 32.421875 -1.5625 28.515625 1.75 
Q 24.609375 5.078125 19.328125 0.390625 
Q 14.0625 -4.296875 11.328125 -7.421875 
Q 8.59375 -4.296875 5.078125 0 
z
M 84.375 66.796875 
Q 76.953125 67.1875 62.109375 67.1875 
Q 47.65625 67.1875 39.453125 66.796875 
L 39.453125 74.21875 
Q 46.484375 73.828125 61.71875 73.828125 
Q 76.953125 73.828125 84.375 74.21875 
z
M 23.046875 58.984375 
Q 18.359375 66.796875 11.328125 73.828125 
L 16.796875 78.515625 
Q 26.953125 67.578125 29.296875 63.671875 
z
" id="SimHei-8fd0"/>
     <path d="M 64.453125 80.46875 
Q 69.140625 79.296875 73.4375 79.296875 
Q 72.65625 75.390625 72.453125 70.5 
Q 72.265625 65.625 72.265625 58.59375 
L 94.140625 58.59375 
Q 93.75 53.515625 93.359375 47.265625 
L 91.40625 2.734375 
Q 90.234375 -5.078125 84.953125 -6.828125 
Q 79.6875 -8.59375 73.046875 -9.375 
Q 71.875 -4.6875 69.140625 -0.78125 
Q 77.734375 -1.171875 80.859375 0.1875 
Q 83.984375 1.5625 83.984375 5.46875 
L 86.328125 51.953125 
L 72.265625 51.953125 
Q 71.484375 34.765625 69.71875 25.78125 
Q 67.96875 16.796875 64.25 9.171875 
Q 60.546875 1.5625 49.21875 -10.546875 
Q 45.3125 -6.640625 42.1875 -5.46875 
Q 49.609375 0.390625 54.296875 6.828125 
Q 58.984375 13.28125 60.9375 20.109375 
Q 62.890625 26.953125 63.671875 34.375 
Q 64.453125 41.796875 64.84375 51.953125 
L 58.203125 51.953125 
Q 53.90625 51.953125 48.046875 51.5625 
L 48.046875 58.984375 
Q 53.90625 58.59375 58.984375 58.59375 
L 64.84375 58.59375 
L 64.84375 69.53125 
Q 64.84375 75 64.453125 80.46875 
z
M 4.296875 47.265625 
Q 10.15625 46.875 18.359375 46.875 
L 33.203125 46.875 
Q 40.234375 46.875 49.21875 47.265625 
L 49.21875 40.234375 
Q 40.234375 40.625 33.59375 40.625 
L 29.296875 40.625 
Q 26.953125 34.375 24.015625 27.34375 
Q 21.09375 20.3125 17.1875 13.28125 
Q 32.421875 14.84375 40.234375 16.40625 
Q 38.28125 21.09375 33.984375 28.125 
Q 38.28125 30.46875 40.234375 32.03125 
Q 44.140625 25 46.875 20.109375 
Q 49.609375 15.234375 52.734375 8.203125 
Q 49.609375 6.25 45.703125 4.296875 
Q 44.140625 7.8125 42.96875 10.15625 
Q 30.46875 8.203125 22.84375 7.03125 
Q 15.234375 5.859375 9.765625 3.90625 
Q 8.203125 7.8125 5.859375 11.328125 
Q 10.9375 14.453125 15.03125 23.828125 
Q 19.140625 33.203125 21.09375 40.625 
L 18.359375 40.625 
Q 10.15625 40.625 4.296875 40.234375 
z
M 31.25 69.140625 
Q 37.890625 69.140625 46.09375 69.53125 
L 46.09375 62.109375 
Q 37.890625 62.5 31.25 62.5 
L 21.875 62.5 
Q 15.625 62.5 9.765625 62.109375 
L 9.765625 69.53125 
Q 15.234375 69.140625 21.484375 69.140625 
z
" id="SimHei-52a8"/>
     <path d="M 80.859375 74.21875 
Q 84.375 74.21875 90.625 74.609375 
L 90.625 67.578125 
Q 85.546875 67.96875 80.859375 67.96875 
L 54.296875 67.96875 
L 54.296875 59.765625 
L 82.8125 59.765625 
Q 82.421875 53.125 82.421875 41.796875 
Q 82.421875 30.859375 82.8125 24.21875 
L 53.125 24.21875 
Q 51.953125 16.015625 47.65625 8.984375 
Q 53.515625 5.46875 64.640625 2.734375 
Q 75.78125 0 81.828125 -0.390625 
Q 87.890625 -0.78125 93.75 -0.78125 
Q 91.40625 -2.734375 89.84375 -8.984375 
Q 79.296875 -8.203125 66.40625 -5.265625 
Q 53.515625 -2.34375 43.359375 3.125 
Q 39.453125 -0.390625 31.828125 -4.09375 
Q 24.21875 -7.8125 9.375 -10.15625 
Q 7.8125 -5.859375 5.46875 -2.734375 
Q 16.796875 -2.34375 25.1875 0.578125 
Q 33.59375 3.515625 37.5 7.03125 
Q 30.078125 12.109375 21.875 19.921875 
Q 24.21875 21.484375 26.5625 24.21875 
L 17.1875 24.21875 
Q 17.578125 31.640625 17.578125 42.578125 
Q 17.578125 53.90625 17.1875 59.765625 
L 46.875 59.765625 
L 46.875 67.96875 
L 22.65625 67.96875 
Q 16.40625 67.96875 9.375 67.578125 
L 9.375 74.609375 
Q 16.40625 74.21875 22.265625 74.21875 
z
M 46.484375 30.859375 
Q 46.875 35.15625 46.875 39.453125 
L 25.390625 39.453125 
L 25.390625 30.859375 
z
M 46.875 45.703125 
L 46.875 53.90625 
L 25.390625 53.90625 
L 25.390625 45.703125 
z
M 74.609375 30.859375 
L 74.609375 39.453125 
L 54.296875 39.453125 
Q 54.296875 36.71875 53.90625 30.859375 
z
M 74.609375 45.703125 
L 74.609375 53.90625 
L 54.296875 53.90625 
L 54.296875 45.703125 
z
M 27.734375 24.21875 
Q 34.765625 16.796875 41.796875 12.5 
Q 44.921875 18.359375 45.703125 24.21875 
z
" id="SimHei-66f4"/>
     <path d="M 95.703125 72.65625 
Q 89.84375 72.65625 66.796875 70.3125 
L 66.796875 50.390625 
L 87.109375 50.390625 
Q 91.40625 50.390625 96.09375 50.78125 
L 96.09375 43.359375 
Q 90.625 43.75 86.71875 43.75 
L 86.71875 3.515625 
Q 86.71875 -3.125 87.109375 -10.546875 
L 78.90625 -10.546875 
Q 79.296875 -3.125 79.296875 3.125 
L 79.296875 43.75 
L 66.796875 43.75 
Q 66.796875 33.984375 66.015625 25 
Q 65.234375 16.015625 62.6875 7.21875 
Q 60.15625 -1.5625 55.078125 -10.9375 
Q 51.171875 -8.59375 47.265625 -7.03125 
Q 53.515625 1.953125 56.046875 11.90625 
Q 58.59375 21.875 58.984375 29.296875 
Q 59.375 36.71875 59.375 51.5625 
Q 59.375 66.796875 58.984375 75.78125 
Q 76.5625 76.5625 90.625 81.25 
Q 93.75 75 95.703125 72.65625 
z
M 46.484375 59.765625 
Q 43.75 58.203125 40.234375 47.65625 
Q 46.875 47.65625 53.90625 48.046875 
L 53.90625 40.234375 
Q 47.265625 40.625 33.984375 40.625 
L 33.984375 30.859375 
Q 46.09375 30.859375 53.125 31.25 
L 53.125 23.4375 
Q 46.09375 23.828125 33.984375 23.828125 
L 33.984375 0 
Q 33.984375 -5.859375 30.265625 -7.8125 
Q 26.5625 -9.765625 20.703125 -9.765625 
Q 19.140625 -5.078125 16.796875 -1.171875 
Q 22.265625 -1.5625 24.40625 -1.171875 
Q 26.5625 -0.78125 26.5625 2.34375 
L 26.5625 23.828125 
Q 14.0625 23.828125 7.03125 23.4375 
L 7.03125 31.25 
Q 14.453125 30.859375 26.5625 30.859375 
L 26.5625 40.625 
Q 12.109375 40.625 5.078125 40.234375 
L 5.078125 48.046875 
Q 12.109375 47.65625 18.359375 47.65625 
L 33.203125 47.65625 
Q 36.328125 57.03125 37.890625 62.109375 
Q 41.015625 61.328125 46.484375 59.765625 
z
M 33.203125 82.421875 
Q 35.15625 74.21875 35.546875 71.09375 
Q 44.53125 71.09375 52.34375 71.484375 
L 52.34375 63.671875 
Q 44.140625 64.0625 39.0625 64.0625 
L 20.3125 64.0625 
Q 13.671875 64.0625 7.421875 63.671875 
L 7.421875 71.484375 
Q 14.0625 71.09375 20.3125 71.09375 
L 27.34375 71.09375 
Q 26.5625 75.390625 25 80.078125 
Q 28.90625 81.25 33.203125 82.421875 
z
M 23.828125 16.40625 
Q 21.484375 13.671875 18.359375 9.5625 
Q 15.234375 5.46875 9.375 -1.953125 
Q 6.640625 0.78125 3.515625 2.734375 
Q 11.71875 11.71875 16.40625 21.484375 
Q 20.3125 18.359375 23.828125 16.40625 
z
M 42.578125 20.3125 
Q 47.265625 14.0625 51.171875 7.421875 
Q 47.265625 5.46875 44.921875 2.34375 
Q 41.796875 9.375 36.71875 16.015625 
Q 39.453125 18.359375 42.578125 20.3125 
z
M 19.921875 61.71875 
Q 22.65625 56.25 24.609375 50.78125 
Q 21.09375 50 17.96875 48.4375 
Q 16.015625 54.296875 13.671875 58.984375 
Q 16.40625 60.546875 19.921875 61.71875 
z
" id="SimHei-65b0"/>
     <path d="M 3.125 29.296875 
Q 3.90625 50 6.4375 56.046875 
Q 8.984375 62.109375 13.671875 66.015625 
Q 18.359375 69.921875 25.1875 69.921875 
Q 32.03125 69.921875 37.109375 64.25 
Q 42.1875 58.59375 43.75 50 
Q 45.3125 41.40625 44.71875 30.265625 
Q 44.140625 19.140625 40.8125 12.109375 
Q 37.5 5.078125 30.859375 2.34375 
Q 24.21875 -0.390625 17.578125 2.921875 
Q 10.9375 6.25 8.203125 11.71875 
Q 5.46875 17.1875 4.296875 23.234375 
Q 3.125 29.296875 3.90625 50 
z
M 12.890625 52.734375 
Q 10.546875 31.25 12.5 22.84375 
Q 14.453125 14.453125 18.9375 10.9375 
Q 23.4375 7.421875 28.125 9.5625 
Q 32.8125 11.71875 34.953125 18.15625 
Q 37.109375 24.609375 37.109375 32.21875 
Q 37.109375 39.84375 36.515625 46.09375 
Q 35.9375 52.34375 33 57.421875 
Q 30.078125 62.5 25.1875 62.6875 
Q 20.3125 62.890625 16.59375 57.8125 
Q 12.890625 52.734375 10.546875 31.25 
z
" id="SimHei-30"/>
     <path d="M 31.25 17.1875 
L 1.171875 17.1875 
L 1.171875 23.828125 
L 32.8125 69.53125 
L 38.671875 69.53125 
L 38.671875 23.828125 
L 48.046875 23.828125 
L 48.046875 17.1875 
L 38.671875 17.1875 
L 38.671875 2.34375 
L 31.25 2.34375 
z
M 31.25 23.828125 
L 31.25 54.6875 
L 9.375 23.828125 
z
" id="SimHei-34"/>
    </defs>
    <g transform="translate(238.206137 52.680971)scale(0.15 -0.15)">
     <use xlink:href="#SimHei-8fd0"/>
     <use x="100" xlink:href="#SimHei-52a8"/>
     <use x="200" xlink:href="#SimHei-66f4"/>
     <use x="300" xlink:href="#SimHei-65b0"/>
     <use x="400" xlink:href="#SimHei-28"/>
     <use x="450" xlink:href="#SimHei-30"/>
     <use x="500" xlink:href="#SimHei-2e"/>
     <use x="550" xlink:href="#SimHei-31"/>
     <use x="600" xlink:href="#SimHei-34"/>
     <use x="650" xlink:href="#SimHei-6d"/>
     <use x="700" xlink:href="#SimHei-73"/>
     <use x="750" xlink:href="#SimHei-29"/>
    </g>
   </g>
   <g id="text_6">
    <!-- 0.4% -->
    <g transform="translate(222.455503 106.002502)scale(0.15 -0.15)">
     <use xlink:href="#SimHei-30"/>
     <use x="50" xlink:href="#SimHei-2e"/>
     <use x="100" xlink:href="#SimHei-34"/>
     <use x="150" xlink:href="#SimHei-25"/>
    </g>
   </g>
  </g>
 </g>
</svg>
