<?xml version="1.0" encoding="utf-8" standalone="no"?>
<!DOCTYPE svg PUBLIC "-//W3C//DTD SVG 1.1//EN"
  "http://www.w3.org/Graphics/SVG/1.1/DTD/svg11.dtd">
<!-- Created with matplotlib (http://matplotlib.org/) -->
<svg height="345.6pt" version="1.1" viewBox="0 0 460.8 345.6" width="460.8pt" xmlns="http://www.w3.org/2000/svg" xmlns:xlink="http://www.w3.org/1999/xlink">
 <defs>
  <style type="text/css">
*{stroke-linecap:butt;stroke-linejoin:round;}
  </style>
 </defs>
 <g id="figure_1">
  <g id="patch_1">
   <path d="M 0 345.6 
L 460.8 345.6 
L 460.8 0 
L 0 0 
z
" style="fill:#ffffff;"/>
  </g>
  <g id="axes_1">
   <g id="patch_2">
    <path d="M 57.6 307.584 
L 414.72 307.584 
L 414.72 41.472 
L 57.6 41.472 
z
" style="fill:#ffffff;"/>
   </g>
   <g id="matplotlib.axis_1">
    <g id="xtick_1">
     <g id="line2d_1">
      <path clip-path="url(#pb2c55a340c)" d="M 60.281889 307.584 
L 60.281889 41.472 
" style="fill:none;stroke:#b0b0b0;stroke-dasharray:5.12,1.28,0.8,1.28;stroke-dashoffset:0;stroke-width:0.8;"/>
     </g>
     <g id="line2d_2">
      <defs>
       <path d="M 0 0 
L 0 3.5 
" id="mda7cb4602c" style="stroke:#000000;stroke-width:0.8;"/>
      </defs>
      <g>
       <use style="stroke:#000000;stroke-width:0.8;" x="60.281889" xlink:href="#mda7cb4602c" y="307.584"/>
      </g>
     </g>
     <g id="text_1">
      <!-- -25 -->
      <defs>
       <path d="M 46.484375 33.203125 
L 1.953125 33.203125 
L 1.953125 39.453125 
L 46.484375 39.453125 
z
" id="SimHei-2d"/>
       <path d="M 4.6875 3.90625 
Q 5.078125 9.765625 10.15625 14.453125 
Q 15.234375 19.140625 23.046875 29.09375 
Q 30.859375 39.0625 33.203125 44.53125 
Q 35.546875 50 34.953125 53.90625 
Q 34.375 57.8125 31.25 60.34375 
Q 28.125 62.890625 24.015625 62.5 
Q 19.921875 62.109375 16.203125 59.375 
Q 12.5 56.640625 10.546875 51.171875 
L 3.125 52.34375 
Q 6.25 61.328125 11.125 65.421875 
Q 16.015625 69.53125 22.65625 69.921875 
Q 26.5625 70.3125 29.6875 69.71875 
Q 32.8125 69.140625 36.125 66.984375 
Q 39.453125 64.84375 41.59375 60.546875 
Q 43.75 56.25 43.15625 50.1875 
Q 42.578125 44.140625 37.109375 35.734375 
Q 31.640625 27.34375 16.015625 9.375 
L 44.140625 9.375 
L 44.140625 2.34375 
L 4.6875 2.34375 
z
" id="SimHei-32"/>
       <path d="M 8.59375 20.703125 
Q 11.328125 10.15625 17.96875 8.984375 
Q 24.609375 7.8125 28.703125 10.34375 
Q 32.8125 12.890625 34.5625 16.984375 
Q 36.328125 21.09375 36.125 26.171875 
Q 35.9375 31.25 33.390625 34.765625 
Q 30.859375 38.28125 26.953125 39.453125 
Q 23.046875 40.625 18.15625 39.453125 
Q 13.28125 38.28125 10.15625 33.984375 
L 3.515625 34.765625 
Q 4.296875 37.109375 10.9375 68.359375 
L 41.796875 68.359375 
L 41.796875 61.328125 
L 16.796875 61.328125 
Q 14.84375 50.78125 12.890625 44.53125 
Q 18.75 47.265625 23.828125 47.0625 
Q 28.90625 46.875 33.59375 44.71875 
Q 38.28125 42.578125 40.421875 38.859375 
Q 42.578125 35.15625 43.546875 31.4375 
Q 44.53125 27.734375 44.328125 23.4375 
Q 44.140625 19.140625 42.578125 14.640625 
Q 41.015625 10.15625 37.890625 7.21875 
Q 34.765625 4.296875 30.265625 2.53125 
Q 25.78125 0.78125 19.921875 1.171875 
Q 14.0625 1.5625 8.78125 5.46875 
Q 3.515625 9.375 1.5625 18.75 
z
" id="SimHei-35"/>
      </defs>
      <g transform="translate(52.781889 321.459)scale(0.1 -0.1)">
       <use xlink:href="#SimHei-2d"/>
       <use x="50" xlink:href="#SimHei-32"/>
       <use x="100" xlink:href="#SimHei-35"/>
      </g>
     </g>
    </g>
    <g id="xtick_2">
     <g id="line2d_3">
      <path clip-path="url(#pb2c55a340c)" d="M 107.728801 307.584 
L 107.728801 41.472 
" style="fill:none;stroke:#b0b0b0;stroke-dasharray:5.12,1.28,0.8,1.28;stroke-dashoffset:0;stroke-width:0.8;"/>
     </g>
     <g id="line2d_4">
      <g>
       <use style="stroke:#000000;stroke-width:0.8;" x="107.728801" xlink:href="#mda7cb4602c" y="307.584"/>
      </g>
     </g>
     <g id="text_2">
      <!-- 0 -->
      <defs>
       <path d="M 3.125 29.296875 
Q 3.90625 50 6.4375 56.046875 
Q 8.984375 62.109375 13.671875 66.015625 
Q 18.359375 69.921875 25.1875 69.921875 
Q 32.03125 69.921875 37.109375 64.25 
Q 42.1875 58.59375 43.75 50 
Q 45.3125 41.40625 44.71875 30.265625 
Q 44.140625 19.140625 40.8125 12.109375 
Q 37.5 5.078125 30.859375 2.34375 
Q 24.21875 -0.390625 17.578125 2.921875 
Q 10.9375 6.25 8.203125 11.71875 
Q 5.46875 17.1875 4.296875 23.234375 
Q 3.125 29.296875 3.90625 50 
z
M 12.890625 52.734375 
Q 10.546875 31.25 12.5 22.84375 
Q 14.453125 14.453125 18.9375 10.9375 
Q 23.4375 7.421875 28.125 9.5625 
Q 32.8125 11.71875 34.953125 18.15625 
Q 37.109375 24.609375 37.109375 32.21875 
Q 37.109375 39.84375 36.515625 46.09375 
Q 35.9375 52.34375 33 57.421875 
Q 30.078125 62.5 25.1875 62.6875 
Q 20.3125 62.890625 16.59375 57.8125 
Q 12.890625 52.734375 10.546875 31.25 
z
" id="SimHei-30"/>
      </defs>
      <g transform="translate(105.228801 321.459)scale(0.1 -0.1)">
       <use xlink:href="#SimHei-30"/>
      </g>
     </g>
    </g>
    <g id="xtick_3">
     <g id="line2d_5">
      <path clip-path="url(#pb2c55a340c)" d="M 155.175713 307.584 
L 155.175713 41.472 
" style="fill:none;stroke:#b0b0b0;stroke-dasharray:5.12,1.28,0.8,1.28;stroke-dashoffset:0;stroke-width:0.8;"/>
     </g>
     <g id="line2d_6">
      <g>
       <use style="stroke:#000000;stroke-width:0.8;" x="155.175713" xlink:href="#mda7cb4602c" y="307.584"/>
      </g>
     </g>
     <g id="text_3">
      <!-- 25 -->
      <g transform="translate(150.175713 321.459)scale(0.1 -0.1)">
       <use xlink:href="#SimHei-32"/>
       <use x="50" xlink:href="#SimHei-35"/>
      </g>
     </g>
    </g>
    <g id="xtick_4">
     <g id="line2d_7">
      <path clip-path="url(#pb2c55a340c)" d="M 202.622625 307.584 
L 202.622625 41.472 
" style="fill:none;stroke:#b0b0b0;stroke-dasharray:5.12,1.28,0.8,1.28;stroke-dashoffset:0;stroke-width:0.8;"/>
     </g>
     <g id="line2d_8">
      <g>
       <use style="stroke:#000000;stroke-width:0.8;" x="202.622625" xlink:href="#mda7cb4602c" y="307.584"/>
      </g>
     </g>
     <g id="text_4">
      <!-- 50 -->
      <g transform="translate(197.622625 321.459)scale(0.1 -0.1)">
       <use xlink:href="#SimHei-35"/>
       <use x="50" xlink:href="#SimHei-30"/>
      </g>
     </g>
    </g>
    <g id="xtick_5">
     <g id="line2d_9">
      <path clip-path="url(#pb2c55a340c)" d="M 250.069537 307.584 
L 250.069537 41.472 
" style="fill:none;stroke:#b0b0b0;stroke-dasharray:5.12,1.28,0.8,1.28;stroke-dashoffset:0;stroke-width:0.8;"/>
     </g>
     <g id="line2d_10">
      <g>
       <use style="stroke:#000000;stroke-width:0.8;" x="250.069537" xlink:href="#mda7cb4602c" y="307.584"/>
      </g>
     </g>
     <g id="text_5">
      <!-- 75 -->
      <defs>
       <path d="M 13.28125 2.34375 
Q 20.3125 32.03125 37.890625 61.328125 
L 4.296875 61.328125 
L 4.296875 68.359375 
L 46.09375 68.359375 
L 46.09375 61.71875 
Q 27.734375 32.03125 21.875 2.34375 
L 13.28125 2.34375 
z
" id="SimHei-37"/>
      </defs>
      <g transform="translate(245.069537 321.459)scale(0.1 -0.1)">
       <use xlink:href="#SimHei-37"/>
       <use x="50" xlink:href="#SimHei-35"/>
      </g>
     </g>
    </g>
    <g id="xtick_6">
     <g id="line2d_11">
      <path clip-path="url(#pb2c55a340c)" d="M 297.516449 307.584 
L 297.516449 41.472 
" style="fill:none;stroke:#b0b0b0;stroke-dasharray:5.12,1.28,0.8,1.28;stroke-dashoffset:0;stroke-width:0.8;"/>
     </g>
     <g id="line2d_12">
      <g>
       <use style="stroke:#000000;stroke-width:0.8;" x="297.516449" xlink:href="#mda7cb4602c" y="307.584"/>
      </g>
     </g>
     <g id="text_6">
      <!-- 100 -->
      <defs>
       <path d="M 21.875 56.25 
Q 16.796875 51.171875 8.984375 46.484375 
L 8.984375 53.90625 
Q 18.75 60.546875 25 69.53125 
L 29.6875 69.53125 
L 29.6875 2.34375 
L 21.875 2.34375 
z
" id="SimHei-31"/>
      </defs>
      <g transform="translate(290.016449 321.459)scale(0.1 -0.1)">
       <use xlink:href="#SimHei-31"/>
       <use x="50" xlink:href="#SimHei-30"/>
       <use x="100" xlink:href="#SimHei-30"/>
      </g>
     </g>
    </g>
    <g id="xtick_7">
     <g id="line2d_13">
      <path clip-path="url(#pb2c55a340c)" d="M 344.96336 307.584 
L 344.96336 41.472 
" style="fill:none;stroke:#b0b0b0;stroke-dasharray:5.12,1.28,0.8,1.28;stroke-dashoffset:0;stroke-width:0.8;"/>
     </g>
     <g id="line2d_14">
      <g>
       <use style="stroke:#000000;stroke-width:0.8;" x="344.96336" xlink:href="#mda7cb4602c" y="307.584"/>
      </g>
     </g>
     <g id="text_7">
      <!-- 125 -->
      <g transform="translate(337.46336 321.459)scale(0.1 -0.1)">
       <use xlink:href="#SimHei-31"/>
       <use x="50" xlink:href="#SimHei-32"/>
       <use x="100" xlink:href="#SimHei-35"/>
      </g>
     </g>
    </g>
    <g id="xtick_8">
     <g id="line2d_15">
      <path clip-path="url(#pb2c55a340c)" d="M 392.410272 307.584 
L 392.410272 41.472 
" style="fill:none;stroke:#b0b0b0;stroke-dasharray:5.12,1.28,0.8,1.28;stroke-dashoffset:0;stroke-width:0.8;"/>
     </g>
     <g id="line2d_16">
      <g>
       <use style="stroke:#000000;stroke-width:0.8;" x="392.410272" xlink:href="#mda7cb4602c" y="307.584"/>
      </g>
     </g>
     <g id="text_8">
      <!-- 150 -->
      <g transform="translate(384.910272 321.459)scale(0.1 -0.1)">
       <use xlink:href="#SimHei-31"/>
       <use x="50" xlink:href="#SimHei-35"/>
       <use x="100" xlink:href="#SimHei-30"/>
      </g>
     </g>
    </g>
    <g id="text_9">
     <!-- X Position [m] -->
     <defs>
      <path d="M 6.296875 72.90625 
L 16.890625 72.90625 
L 35.015625 45.796875 
L 53.21875 72.90625 
L 63.8125 72.90625 
L 40.375 37.890625 
L 65.375 0 
L 54.78125 0 
L 34.28125 31 
L 13.625 0 
L 2.984375 0 
L 29 38.921875 
z
" id="DejaVuSans-58"/>
      <path id="DejaVuSans-20"/>
      <path d="M 19.671875 64.796875 
L 19.671875 37.40625 
L 32.078125 37.40625 
Q 38.96875 37.40625 42.71875 40.96875 
Q 46.484375 44.53125 46.484375 51.125 
Q 46.484375 57.671875 42.71875 61.234375 
Q 38.96875 64.796875 32.078125 64.796875 
z
M 9.8125 72.90625 
L 32.078125 72.90625 
Q 44.34375 72.90625 50.609375 67.359375 
Q 56.890625 61.8125 56.890625 51.125 
Q 56.890625 40.328125 50.609375 34.8125 
Q 44.34375 29.296875 32.078125 29.296875 
L 19.671875 29.296875 
L 19.671875 0 
L 9.8125 0 
z
" id="DejaVuSans-50"/>
      <path d="M 30.609375 48.390625 
Q 23.390625 48.390625 19.1875 42.75 
Q 14.984375 37.109375 14.984375 27.296875 
Q 14.984375 17.484375 19.15625 11.84375 
Q 23.34375 6.203125 30.609375 6.203125 
Q 37.796875 6.203125 41.984375 11.859375 
Q 46.1875 17.53125 46.1875 27.296875 
Q 46.1875 37.015625 41.984375 42.703125 
Q 37.796875 48.390625 30.609375 48.390625 
z
M 30.609375 56 
Q 42.328125 56 49.015625 48.375 
Q 55.71875 40.765625 55.71875 27.296875 
Q 55.71875 13.875 49.015625 6.21875 
Q 42.328125 -1.421875 30.609375 -1.421875 
Q 18.84375 -1.421875 12.171875 6.21875 
Q 5.515625 13.875 5.515625 27.296875 
Q 5.515625 40.765625 12.171875 48.375 
Q 18.84375 56 30.609375 56 
z
" id="DejaVuSans-6f"/>
      <path d="M 44.28125 53.078125 
L 44.28125 44.578125 
Q 40.484375 46.53125 36.375 47.5 
Q 32.28125 48.484375 27.875 48.484375 
Q 21.1875 48.484375 17.84375 46.4375 
Q 14.5 44.390625 14.5 40.28125 
Q 14.5 37.15625 16.890625 35.375 
Q 19.28125 33.59375 26.515625 31.984375 
L 29.59375 31.296875 
Q 39.15625 29.25 43.1875 25.515625 
Q 47.21875 21.78125 47.21875 15.09375 
Q 47.21875 7.46875 41.1875 3.015625 
Q 35.15625 -1.421875 24.609375 -1.421875 
Q 20.21875 -1.421875 15.453125 -0.5625 
Q 10.6875 0.296875 5.421875 2 
L 5.421875 11.28125 
Q 10.40625 8.6875 15.234375 7.390625 
Q 20.0625 6.109375 24.8125 6.109375 
Q 31.15625 6.109375 34.5625 8.28125 
Q 37.984375 10.453125 37.984375 14.40625 
Q 37.984375 18.0625 35.515625 20.015625 
Q 33.0625 21.96875 24.703125 23.78125 
L 21.578125 24.515625 
Q 13.234375 26.265625 9.515625 29.90625 
Q 5.8125 33.546875 5.8125 39.890625 
Q 5.8125 47.609375 11.28125 51.796875 
Q 16.75 56 26.8125 56 
Q 31.78125 56 36.171875 55.265625 
Q 40.578125 54.546875 44.28125 53.078125 
z
" id="DejaVuSans-73"/>
      <path d="M 9.421875 54.6875 
L 18.40625 54.6875 
L 18.40625 0 
L 9.421875 0 
z
M 9.421875 75.984375 
L 18.40625 75.984375 
L 18.40625 64.59375 
L 9.421875 64.59375 
z
" id="DejaVuSans-69"/>
      <path d="M 18.3125 70.21875 
L 18.3125 54.6875 
L 36.8125 54.6875 
L 36.8125 47.703125 
L 18.3125 47.703125 
L 18.3125 18.015625 
Q 18.3125 11.328125 20.140625 9.421875 
Q 21.96875 7.515625 27.59375 7.515625 
L 36.8125 7.515625 
L 36.8125 0 
L 27.59375 0 
Q 17.1875 0 13.234375 3.875 
Q 9.28125 7.765625 9.28125 18.015625 
L 9.28125 47.703125 
L 2.6875 47.703125 
L 2.6875 54.6875 
L 9.28125 54.6875 
L 9.28125 70.21875 
z
" id="DejaVuSans-74"/>
      <path d="M 54.890625 33.015625 
L 54.890625 0 
L 45.90625 0 
L 45.90625 32.71875 
Q 45.90625 40.484375 42.875 44.328125 
Q 39.84375 48.1875 33.796875 48.1875 
Q 26.515625 48.1875 22.3125 43.546875 
Q 18.109375 38.921875 18.109375 30.90625 
L 18.109375 0 
L 9.078125 0 
L 9.078125 54.6875 
L 18.109375 54.6875 
L 18.109375 46.1875 
Q 21.34375 51.125 25.703125 53.5625 
Q 30.078125 56 35.796875 56 
Q 45.21875 56 50.046875 50.171875 
Q 54.890625 44.34375 54.890625 33.015625 
z
" id="DejaVuSans-6e"/>
      <path d="M 8.59375 75.984375 
L 29.296875 75.984375 
L 29.296875 69 
L 17.578125 69 
L 17.578125 -6.203125 
L 29.296875 -6.203125 
L 29.296875 -13.1875 
L 8.59375 -13.1875 
z
" id="DejaVuSans-5b"/>
      <path d="M 52 44.1875 
Q 55.375 50.25 60.0625 53.125 
Q 64.75 56 71.09375 56 
Q 79.640625 56 84.28125 50.015625 
Q 88.921875 44.046875 88.921875 33.015625 
L 88.921875 0 
L 79.890625 0 
L 79.890625 32.71875 
Q 79.890625 40.578125 77.09375 44.375 
Q 74.3125 48.1875 68.609375 48.1875 
Q 61.625 48.1875 57.5625 43.546875 
Q 53.515625 38.921875 53.515625 30.90625 
L 53.515625 0 
L 44.484375 0 
L 44.484375 32.71875 
Q 44.484375 40.625 41.703125 44.40625 
Q 38.921875 48.1875 33.109375 48.1875 
Q 26.21875 48.1875 22.15625 43.53125 
Q 18.109375 38.875 18.109375 30.90625 
L 18.109375 0 
L 9.078125 0 
L 9.078125 54.6875 
L 18.109375 54.6875 
L 18.109375 46.1875 
Q 21.1875 51.21875 25.484375 53.609375 
Q 29.78125 56 35.6875 56 
Q 41.65625 56 45.828125 52.96875 
Q 50 49.953125 52 44.1875 
z
" id="DejaVuSans-6d"/>
      <path d="M 30.421875 75.984375 
L 30.421875 -13.1875 
L 9.71875 -13.1875 
L 9.71875 -6.203125 
L 21.390625 -6.203125 
L 21.390625 69 
L 9.71875 69 
L 9.71875 75.984375 
z
" id="DejaVuSans-5d"/>
     </defs>
     <g transform="translate(190.636641 336.586969)scale(0.13 -0.13)">
      <use xlink:href="#DejaVuSans-58"/>
      <use x="68.505859" xlink:href="#DejaVuSans-20"/>
      <use x="100.292969" xlink:href="#DejaVuSans-50"/>
      <use x="160.548828" xlink:href="#DejaVuSans-6f"/>
      <use x="221.730469" xlink:href="#DejaVuSans-73"/>
      <use x="273.830078" xlink:href="#DejaVuSans-69"/>
      <use x="301.613281" xlink:href="#DejaVuSans-74"/>
      <use x="340.822266" xlink:href="#DejaVuSans-69"/>
      <use x="368.605469" xlink:href="#DejaVuSans-6f"/>
      <use x="429.787109" xlink:href="#DejaVuSans-6e"/>
      <use x="493.166016" xlink:href="#DejaVuSans-20"/>
      <use x="524.953125" xlink:href="#DejaVuSans-5b"/>
      <use x="563.966797" xlink:href="#DejaVuSans-6d"/>
      <use x="661.378906" xlink:href="#DejaVuSans-5d"/>
     </g>
    </g>
   </g>
   <g id="matplotlib.axis_2">
    <g id="ytick_1">
     <g id="line2d_17">
      <path clip-path="url(#pb2c55a340c)" d="M 57.6 284.449105 
L 414.72 284.449105 
" style="fill:none;stroke:#b0b0b0;stroke-dasharray:5.12,1.28,0.8,1.28;stroke-dashoffset:0;stroke-width:0.8;"/>
     </g>
     <g id="line2d_18">
      <defs>
       <path d="M 0 0 
L -3.5 0 
" id="m718ad2125a" style="stroke:#000000;stroke-width:0.8;"/>
      </defs>
      <g>
       <use style="stroke:#000000;stroke-width:0.8;" x="57.6" xlink:href="#m718ad2125a" y="284.449105"/>
      </g>
     </g>
     <g id="text_10">
      <!-- -450 -->
      <defs>
       <path d="M 31.25 17.1875 
L 1.171875 17.1875 
L 1.171875 23.828125 
L 32.8125 69.53125 
L 38.671875 69.53125 
L 38.671875 23.828125 
L 48.046875 23.828125 
L 48.046875 17.1875 
L 38.671875 17.1875 
L 38.671875 2.34375 
L 31.25 2.34375 
z
M 31.25 23.828125 
L 31.25 54.6875 
L 9.375 23.828125 
z
" id="SimHei-34"/>
      </defs>
      <g transform="translate(30.6 287.886605)scale(0.1 -0.1)">
       <use xlink:href="#SimHei-2d"/>
       <use x="50" xlink:href="#SimHei-34"/>
       <use x="100" xlink:href="#SimHei-35"/>
       <use x="150" xlink:href="#SimHei-30"/>
      </g>
     </g>
    </g>
    <g id="ytick_2">
     <g id="line2d_19">
      <path clip-path="url(#pb2c55a340c)" d="M 57.6 239.377675 
L 414.72 239.377675 
" style="fill:none;stroke:#b0b0b0;stroke-dasharray:5.12,1.28,0.8,1.28;stroke-dashoffset:0;stroke-width:0.8;"/>
     </g>
     <g id="line2d_20">
      <g>
       <use style="stroke:#000000;stroke-width:0.8;" x="57.6" xlink:href="#m718ad2125a" y="239.377675"/>
      </g>
     </g>
     <g id="text_11">
      <!-- -400 -->
      <g transform="translate(30.6 242.815175)scale(0.1 -0.1)">
       <use xlink:href="#SimHei-2d"/>
       <use x="50" xlink:href="#SimHei-34"/>
       <use x="100" xlink:href="#SimHei-30"/>
       <use x="150" xlink:href="#SimHei-30"/>
      </g>
     </g>
    </g>
    <g id="ytick_3">
     <g id="line2d_21">
      <path clip-path="url(#pb2c55a340c)" d="M 57.6 194.306245 
L 414.72 194.306245 
" style="fill:none;stroke:#b0b0b0;stroke-dasharray:5.12,1.28,0.8,1.28;stroke-dashoffset:0;stroke-width:0.8;"/>
     </g>
     <g id="line2d_22">
      <g>
       <use style="stroke:#000000;stroke-width:0.8;" x="57.6" xlink:href="#m718ad2125a" y="194.306245"/>
      </g>
     </g>
     <g id="text_12">
      <!-- -350 -->
      <defs>
       <path d="M 3.90625 19.140625 
L 10.9375 20.3125 
Q 12.5 15.234375 16.015625 11.90625 
Q 19.53125 8.59375 24.796875 8.78125 
Q 30.078125 8.984375 33.203125 13.078125 
Q 36.328125 17.1875 35.9375 22.453125 
Q 35.546875 27.734375 31.828125 30.65625 
Q 28.125 33.59375 19.921875 34.765625 
L 19.921875 39.84375 
Q 28.125 40.625 31.828125 44.140625 
Q 35.546875 47.65625 35.15625 53.3125 
Q 34.765625 58.984375 30.078125 61.515625 
Q 25.390625 64.0625 20.109375 62.109375 
Q 14.84375 60.15625 11.71875 51.171875 
L 4.6875 52.34375 
Q 7.03125 59.375 11.125 64.0625 
Q 15.234375 68.75 22.265625 69.53125 
Q 29.296875 70.3125 34.5625 67.765625 
Q 39.84375 65.234375 41.984375 59.953125 
Q 44.140625 54.6875 42.578125 48.4375 
Q 41.015625 42.1875 33.59375 37.5 
Q 39.0625 35.15625 41.984375 30.46875 
Q 44.921875 25.78125 43.9375 18.15625 
Q 42.96875 10.546875 37.109375 5.859375 
Q 31.25 1.171875 23.828125 1.359375 
Q 16.40625 1.5625 10.9375 6.046875 
Q 5.46875 10.546875 3.90625 19.140625 
z
" id="SimHei-33"/>
      </defs>
      <g transform="translate(30.6 197.743745)scale(0.1 -0.1)">
       <use xlink:href="#SimHei-2d"/>
       <use x="50" xlink:href="#SimHei-33"/>
       <use x="100" xlink:href="#SimHei-35"/>
       <use x="150" xlink:href="#SimHei-30"/>
      </g>
     </g>
    </g>
    <g id="ytick_4">
     <g id="line2d_23">
      <path clip-path="url(#pb2c55a340c)" d="M 57.6 149.234815 
L 414.72 149.234815 
" style="fill:none;stroke:#b0b0b0;stroke-dasharray:5.12,1.28,0.8,1.28;stroke-dashoffset:0;stroke-width:0.8;"/>
     </g>
     <g id="line2d_24">
      <g>
       <use style="stroke:#000000;stroke-width:0.8;" x="57.6" xlink:href="#m718ad2125a" y="149.234815"/>
      </g>
     </g>
     <g id="text_13">
      <!-- -300 -->
      <g transform="translate(30.6 152.672315)scale(0.1 -0.1)">
       <use xlink:href="#SimHei-2d"/>
       <use x="50" xlink:href="#SimHei-33"/>
       <use x="100" xlink:href="#SimHei-30"/>
       <use x="150" xlink:href="#SimHei-30"/>
      </g>
     </g>
    </g>
    <g id="ytick_5">
     <g id="line2d_25">
      <path clip-path="url(#pb2c55a340c)" d="M 57.6 104.163385 
L 414.72 104.163385 
" style="fill:none;stroke:#b0b0b0;stroke-dasharray:5.12,1.28,0.8,1.28;stroke-dashoffset:0;stroke-width:0.8;"/>
     </g>
     <g id="line2d_26">
      <g>
       <use style="stroke:#000000;stroke-width:0.8;" x="57.6" xlink:href="#m718ad2125a" y="104.163385"/>
      </g>
     </g>
     <g id="text_14">
      <!-- -250 -->
      <g transform="translate(30.6 107.600885)scale(0.1 -0.1)">
       <use xlink:href="#SimHei-2d"/>
       <use x="50" xlink:href="#SimHei-32"/>
       <use x="100" xlink:href="#SimHei-35"/>
       <use x="150" xlink:href="#SimHei-30"/>
      </g>
     </g>
    </g>
    <g id="ytick_6">
     <g id="line2d_27">
      <path clip-path="url(#pb2c55a340c)" d="M 57.6 59.091954 
L 414.72 59.091954 
" style="fill:none;stroke:#b0b0b0;stroke-dasharray:5.12,1.28,0.8,1.28;stroke-dashoffset:0;stroke-width:0.8;"/>
     </g>
     <g id="line2d_28">
      <g>
       <use style="stroke:#000000;stroke-width:0.8;" x="57.6" xlink:href="#m718ad2125a" y="59.091954"/>
      </g>
     </g>
     <g id="text_15">
      <!-- -200 -->
      <g transform="translate(30.6 62.529454)scale(0.1 -0.1)">
       <use xlink:href="#SimHei-2d"/>
       <use x="50" xlink:href="#SimHei-32"/>
       <use x="100" xlink:href="#SimHei-30"/>
       <use x="150" xlink:href="#SimHei-30"/>
      </g>
     </g>
    </g>
    <g id="text_16">
     <!-- Y Position [m] -->
     <defs>
      <path d="M -0.203125 72.90625 
L 10.40625 72.90625 
L 30.609375 42.921875 
L 50.6875 72.90625 
L 61.28125 72.90625 
L 35.5 34.71875 
L 35.5 0 
L 25.59375 0 
L 25.59375 34.71875 
z
" id="DejaVuSans-59"/>
     </defs>
     <g transform="translate(23.896406 219.568938)rotate(-90)scale(0.13 -0.13)">
      <use xlink:href="#DejaVuSans-59"/>
      <use x="61.083984" xlink:href="#DejaVuSans-20"/>
      <use x="92.871094" xlink:href="#DejaVuSans-50"/>
      <use x="153.126953" xlink:href="#DejaVuSans-6f"/>
      <use x="214.308594" xlink:href="#DejaVuSans-73"/>
      <use x="266.408203" xlink:href="#DejaVuSans-69"/>
      <use x="294.191406" xlink:href="#DejaVuSans-74"/>
      <use x="333.400391" xlink:href="#DejaVuSans-69"/>
      <use x="361.183594" xlink:href="#DejaVuSans-6f"/>
      <use x="422.365234" xlink:href="#DejaVuSans-6e"/>
      <use x="485.744141" xlink:href="#DejaVuSans-20"/>
      <use x="517.53125" xlink:href="#DejaVuSans-5b"/>
      <use x="556.544922" xlink:href="#DejaVuSans-6d"/>
      <use x="653.957031" xlink:href="#DejaVuSans-5d"/>
     </g>
    </g>
   </g>
   <g id="line2d_29">
    <path clip-path="url(#pb2c55a340c)" d="M 304.610711 54.035841 
L 312.596975 60.973236 
L 312.596975 60.973236 
L 320.583239 68.011591 
L 331.287263 77.262051 
L 331.287263 77.262051 
L 341.505429 86.409748 
L 341.505429 86.409748 
L 349.011531 93.045164 
L 349.011531 93.045164 
L 363.055817 106.012215 
L 363.055817 106.012215 
L 365.1264 108.121558 
L 365.1264 108.121558 
L 369.430784 112.342046 
L 371.501367 114.452291 
L 371.501367 114.452291 
L 380.884468 124.897144 
L 380.884468 124.897144 
L 382.630515 127.006487 
L 382.630515 127.006487 
L 388.806205 135.336589 
L 388.806205 135.336589 
L 389.4363 136.339879 
L 390.229612 137.34407 
L 391.489802 139.450709 
L 391.489802 139.450709 
L 394.778822 145.867979 
L 394.778822 145.867979 
L 396.646333 150.178611 
L 396.646333 150.178611 
L 397.255551 152.282545 
L 397.255551 152.282545 
L 398.147553 156.688728 
L 398.147553 156.688728 
L 398.432234 158.890918 
L 398.432234 158.890918 
L 398.350626 163.192535 
L 398.350626 163.192535 
L 397.621841 167.49235 
L 397.621841 167.49235 
L 397.096129 169.590876 
L 397.096129 169.590876 
L 395.718271 173.787927 
L 395.718271 173.787927 
L 392.520349 179.877979 
L 389.846241 183.968662 
L 389.846241 183.968662 
L 384.866213 189.851385 
L 382.882932 191.744385 
L 382.882932 191.744385 
L 380.899651 193.636484 
L 380.899651 193.636484 
L 373.978096 199.210918 
L 371.508959 201.001155 
L 371.508959 201.001155 
L 368.878502 202.791392 
L 368.878502 202.791392 
L 358.70019 208.851697 
L 353.94601 211.33333 
L 353.94601 211.33333 
L 347.231323 214.50726 
L 341.829966 216.78517 
L 328.749802 221.83317 
L 328.749802 221.83317 
L 305.229419 229.438523 
L 284.98477 235.656578 
L 284.98477 235.656578 
L 259.999226 243.455738 
L 259.999226 243.455738 
L 251.348705 246.021204 
L 251.348705 246.021204 
L 233.713637 251.449607 
L 233.713637 251.449607 
L 210.532974 258.356353 
L 210.532974 258.356353 
L 181.6416 266.738738 
L 181.6416 266.738738 
L 150.966223 275.014754 
L 119.15212 283.485478 
L 119.15212 283.485478 
L 108.383568 286.341204 
L 108.383568 286.341204 
L 75.263726 295.106696 
L 75.263726 295.106696 
" style="fill:none;stroke:#ff0000;stroke-linecap:square;stroke-width:1.5;"/>
    <defs>
     <path d="M 0 -3 
L -0.673542 -0.927051 
L -2.85317 -0.927051 
L -1.089814 0.354102 
L -1.763356 2.427051 
L -0 1.145898 
L 1.763356 2.427051 
L 1.089814 0.354102 
L 2.85317 -0.927051 
L 0.673542 -0.927051 
z
" id="m2d925df0f1" style="stroke:#ff0000;stroke-linejoin:bevel;"/>
    </defs>
    <g clip-path="url(#pb2c55a340c)">
     <use style="fill:#ff0000;stroke:#ff0000;stroke-linejoin:bevel;" x="304.610711" xlink:href="#m2d925df0f1" y="54.035841"/>
     <use style="fill:#ff0000;stroke:#ff0000;stroke-linejoin:bevel;" x="304.610711" xlink:href="#m2d925df0f1" y="54.035841"/>
     <use style="fill:#ff0000;stroke:#ff0000;stroke-linejoin:bevel;" x="304.610711" xlink:href="#m2d925df0f1" y="54.035841"/>
     <use style="fill:#ff0000;stroke:#ff0000;stroke-linejoin:bevel;" x="307.326572" xlink:href="#m2d925df0f1" y="56.348907"/>
     <use style="fill:#ff0000;stroke:#ff0000;stroke-linejoin:bevel;" x="310.044331" xlink:href="#m2d925df0f1" y="58.661973"/>
     <use style="fill:#ff0000;stroke:#ff0000;stroke-linejoin:bevel;" x="310.044331" xlink:href="#m2d925df0f1" y="58.661973"/>
     <use style="fill:#ff0000;stroke:#ff0000;stroke-linejoin:bevel;" x="312.596975" xlink:href="#m2d925df0f1" y="60.973236"/>
     <use style="fill:#ff0000;stroke:#ff0000;stroke-linejoin:bevel;" x="312.596975" xlink:href="#m2d925df0f1" y="60.973236"/>
     <use style="fill:#ff0000;stroke:#ff0000;stroke-linejoin:bevel;" x="315.312836" xlink:href="#m2d925df0f1" y="63.38636"/>
     <use style="fill:#ff0000;stroke:#ff0000;stroke-linejoin:bevel;" x="315.312836" xlink:href="#m2d925df0f1" y="63.38636"/>
     <use style="fill:#ff0000;stroke:#ff0000;stroke-linejoin:bevel;" x="318.028697" xlink:href="#m2d925df0f1" y="65.699426"/>
     <use style="fill:#ff0000;stroke:#ff0000;stroke-linejoin:bevel;" x="318.028697" xlink:href="#m2d925df0f1" y="65.699426"/>
     <use style="fill:#ff0000;stroke:#ff0000;stroke-linejoin:bevel;" x="318.028697" xlink:href="#m2d925df0f1" y="65.699426"/>
     <use style="fill:#ff0000;stroke:#ff0000;stroke-linejoin:bevel;" x="320.583239" xlink:href="#m2d925df0f1" y="68.011591"/>
     <use style="fill:#ff0000;stroke:#ff0000;stroke-linejoin:bevel;" x="323.2991" xlink:href="#m2d925df0f1" y="70.323755"/>
     <use style="fill:#ff0000;stroke:#ff0000;stroke-linejoin:bevel;" x="323.2991" xlink:href="#m2d925df0f1" y="70.323755"/>
     <use style="fill:#ff0000;stroke:#ff0000;stroke-linejoin:bevel;" x="325.853642" xlink:href="#m2d925df0f1" y="72.635919"/>
     <use style="fill:#ff0000;stroke:#ff0000;stroke-linejoin:bevel;" x="325.853642" xlink:href="#m2d925df0f1" y="72.635919"/>
     <use style="fill:#ff0000;stroke:#ff0000;stroke-linejoin:bevel;" x="328.571401" xlink:href="#m2d925df0f1" y="74.948985"/>
     <use style="fill:#ff0000;stroke:#ff0000;stroke-linejoin:bevel;" x="328.571401" xlink:href="#m2d925df0f1" y="74.948985"/>
     <use style="fill:#ff0000;stroke:#ff0000;stroke-linejoin:bevel;" x="331.287263" xlink:href="#m2d925df0f1" y="77.262051"/>
     <use style="fill:#ff0000;stroke:#ff0000;stroke-linejoin:bevel;" x="331.287263" xlink:href="#m2d925df0f1" y="77.262051"/>
     <use style="fill:#ff0000;stroke:#ff0000;stroke-linejoin:bevel;" x="331.287263" xlink:href="#m2d925df0f1" y="77.262051"/>
     <use style="fill:#ff0000;stroke:#ff0000;stroke-linejoin:bevel;" x="333.841804" xlink:href="#m2d925df0f1" y="79.573314"/>
     <use style="fill:#ff0000;stroke:#ff0000;stroke-linejoin:bevel;" x="336.396346" xlink:href="#m2d925df0f1" y="81.885478"/>
     <use style="fill:#ff0000;stroke:#ff0000;stroke-linejoin:bevel;" x="336.396346" xlink:href="#m2d925df0f1" y="81.885478"/>
     <use style="fill:#ff0000;stroke:#ff0000;stroke-linejoin:bevel;" x="338.950888" xlink:href="#m2d925df0f1" y="84.097584"/>
     <use style="fill:#ff0000;stroke:#ff0000;stroke-linejoin:bevel;" x="338.950888" xlink:href="#m2d925df0f1" y="84.097584"/>
     <use style="fill:#ff0000;stroke:#ff0000;stroke-linejoin:bevel;" x="341.505429" xlink:href="#m2d925df0f1" y="86.409748"/>
     <use style="fill:#ff0000;stroke:#ff0000;stroke-linejoin:bevel;" x="341.505429" xlink:href="#m2d925df0f1" y="86.409748"/>
     <use style="fill:#ff0000;stroke:#ff0000;stroke-linejoin:bevel;" x="344.061869" xlink:href="#m2d925df0f1" y="88.621854"/>
     <use style="fill:#ff0000;stroke:#ff0000;stroke-linejoin:bevel;" x="344.061869" xlink:href="#m2d925df0f1" y="88.621854"/>
     <use style="fill:#ff0000;stroke:#ff0000;stroke-linejoin:bevel;" x="344.061869" xlink:href="#m2d925df0f1" y="88.621854"/>
     <use style="fill:#ff0000;stroke:#ff0000;stroke-linejoin:bevel;" x="346.618309" xlink:href="#m2d925df0f1" y="90.83396"/>
     <use style="fill:#ff0000;stroke:#ff0000;stroke-linejoin:bevel;" x="349.011531" xlink:href="#m2d925df0f1" y="93.045164"/>
     <use style="fill:#ff0000;stroke:#ff0000;stroke-linejoin:bevel;" x="349.011531" xlink:href="#m2d925df0f1" y="93.045164"/>
     <use style="fill:#ff0000;stroke:#ff0000;stroke-linejoin:bevel;" x="351.404753" xlink:href="#m2d925df0f1" y="95.256369"/>
     <use style="fill:#ff0000;stroke:#ff0000;stroke-linejoin:bevel;" x="351.404753" xlink:href="#m2d925df0f1" y="95.256369"/>
     <use style="fill:#ff0000;stroke:#ff0000;stroke-linejoin:bevel;" x="353.801771" xlink:href="#m2d925df0f1" y="97.367514"/>
     <use style="fill:#ff0000;stroke:#ff0000;stroke-linejoin:bevel;" x="353.801771" xlink:href="#m2d925df0f1" y="97.367514"/>
     <use style="fill:#ff0000;stroke:#ff0000;stroke-linejoin:bevel;" x="356.194993" xlink:href="#m2d925df0f1" y="99.57962"/>
     <use style="fill:#ff0000;stroke:#ff0000;stroke-linejoin:bevel;" x="356.194993" xlink:href="#m2d925df0f1" y="99.57962"/>
     <use style="fill:#ff0000;stroke:#ff0000;stroke-linejoin:bevel;" x="356.194993" xlink:href="#m2d925df0f1" y="99.57962"/>
     <use style="fill:#ff0000;stroke:#ff0000;stroke-linejoin:bevel;" x="358.428794" xlink:href="#m2d925df0f1" y="101.689865"/>
     <use style="fill:#ff0000;stroke:#ff0000;stroke-linejoin:bevel;" x="360.822016" xlink:href="#m2d925df0f1" y="103.901069"/>
     <use style="fill:#ff0000;stroke:#ff0000;stroke-linejoin:bevel;" x="363.055817" xlink:href="#m2d925df0f1" y="106.012215"/>
     <use style="fill:#ff0000;stroke:#ff0000;stroke-linejoin:bevel;" x="363.055817" xlink:href="#m2d925df0f1" y="106.012215"/>
     <use style="fill:#ff0000;stroke:#ff0000;stroke-linejoin:bevel;" x="365.1264" xlink:href="#m2d925df0f1" y="108.121558"/>
     <use style="fill:#ff0000;stroke:#ff0000;stroke-linejoin:bevel;" x="365.1264" xlink:href="#m2d925df0f1" y="108.121558"/>
     <use style="fill:#ff0000;stroke:#ff0000;stroke-linejoin:bevel;" x="367.360201" xlink:href="#m2d925df0f1" y="110.232703"/>
     <use style="fill:#ff0000;stroke:#ff0000;stroke-linejoin:bevel;" x="367.360201" xlink:href="#m2d925df0f1" y="110.232703"/>
     <use style="fill:#ff0000;stroke:#ff0000;stroke-linejoin:bevel;" x="367.360201" xlink:href="#m2d925df0f1" y="110.232703"/>
     <use style="fill:#ff0000;stroke:#ff0000;stroke-linejoin:bevel;" x="369.430784" xlink:href="#m2d925df0f1" y="112.342046"/>
     <use style="fill:#ff0000;stroke:#ff0000;stroke-linejoin:bevel;" x="371.501367" xlink:href="#m2d925df0f1" y="114.452291"/>
     <use style="fill:#ff0000;stroke:#ff0000;stroke-linejoin:bevel;" x="371.501367" xlink:href="#m2d925df0f1" y="114.452291"/>
     <use style="fill:#ff0000;stroke:#ff0000;stroke-linejoin:bevel;" x="373.410631" xlink:href="#m2d925df0f1" y="116.561634"/>
     <use style="fill:#ff0000;stroke:#ff0000;stroke-linejoin:bevel;" x="373.410631" xlink:href="#m2d925df0f1" y="116.561634"/>
     <use style="fill:#ff0000;stroke:#ff0000;stroke-linejoin:bevel;" x="375.317997" xlink:href="#m2d925df0f1" y="118.670977"/>
     <use style="fill:#ff0000;stroke:#ff0000;stroke-linejoin:bevel;" x="375.317997" xlink:href="#m2d925df0f1" y="118.670977"/>
     <use style="fill:#ff0000;stroke:#ff0000;stroke-linejoin:bevel;" x="377.22726" xlink:href="#m2d925df0f1" y="120.779418"/>
     <use style="fill:#ff0000;stroke:#ff0000;stroke-linejoin:bevel;" x="377.22726" xlink:href="#m2d925df0f1" y="120.779418"/>
     <use style="fill:#ff0000;stroke:#ff0000;stroke-linejoin:bevel;" x="377.22726" xlink:href="#m2d925df0f1" y="120.779418"/>
     <use style="fill:#ff0000;stroke:#ff0000;stroke-linejoin:bevel;" x="379.138422" xlink:href="#m2d925df0f1" y="122.788702"/>
     <use style="fill:#ff0000;stroke:#ff0000;stroke-linejoin:bevel;" x="380.884468" xlink:href="#m2d925df0f1" y="124.897144"/>
     <use style="fill:#ff0000;stroke:#ff0000;stroke-linejoin:bevel;" x="380.884468" xlink:href="#m2d925df0f1" y="124.897144"/>
     <use style="fill:#ff0000;stroke:#ff0000;stroke-linejoin:bevel;" x="382.630515" xlink:href="#m2d925df0f1" y="127.006487"/>
     <use style="fill:#ff0000;stroke:#ff0000;stroke-linejoin:bevel;" x="382.630515" xlink:href="#m2d925df0f1" y="127.006487"/>
     <use style="fill:#ff0000;stroke:#ff0000;stroke-linejoin:bevel;" x="384.215242" xlink:href="#m2d925df0f1" y="129.114027"/>
     <use style="fill:#ff0000;stroke:#ff0000;stroke-linejoin:bevel;" x="384.215242" xlink:href="#m2d925df0f1" y="129.114027"/>
     <use style="fill:#ff0000;stroke:#ff0000;stroke-linejoin:bevel;" x="385.799968" xlink:href="#m2d925df0f1" y="131.121508"/>
     <use style="fill:#ff0000;stroke:#ff0000;stroke-linejoin:bevel;" x="385.799968" xlink:href="#m2d925df0f1" y="131.121508"/>
     <use style="fill:#ff0000;stroke:#ff0000;stroke-linejoin:bevel;" x="385.799968" xlink:href="#m2d925df0f1" y="131.121508"/>
     <use style="fill:#ff0000;stroke:#ff0000;stroke-linejoin:bevel;" x="387.384695" xlink:href="#m2d925df0f1" y="133.22995"/>
     <use style="fill:#ff0000;stroke:#ff0000;stroke-linejoin:bevel;" x="388.806205" xlink:href="#m2d925df0f1" y="135.336589"/>
     <use style="fill:#ff0000;stroke:#ff0000;stroke-linejoin:bevel;" x="388.806205" xlink:href="#m2d925df0f1" y="135.336589"/>
     <use style="fill:#ff0000;stroke:#ff0000;stroke-linejoin:bevel;" x="389.4363" xlink:href="#m2d925df0f1" y="136.339879"/>
     <use style="fill:#ff0000;stroke:#ff0000;stroke-linejoin:bevel;" x="390.229612" xlink:href="#m2d925df0f1" y="137.34407"/>
     <use style="fill:#ff0000;stroke:#ff0000;stroke-linejoin:bevel;" x="391.489802" xlink:href="#m2d925df0f1" y="139.450709"/>
     <use style="fill:#ff0000;stroke:#ff0000;stroke-linejoin:bevel;" x="391.489802" xlink:href="#m2d925df0f1" y="139.450709"/>
     <use style="fill:#ff0000;stroke:#ff0000;stroke-linejoin:bevel;" x="392.586775" xlink:href="#m2d925df0f1" y="141.556446"/>
     <use style="fill:#ff0000;stroke:#ff0000;stroke-linejoin:bevel;" x="392.586775" xlink:href="#m2d925df0f1" y="141.556446"/>
     <use style="fill:#ff0000;stroke:#ff0000;stroke-linejoin:bevel;" x="392.586775" xlink:href="#m2d925df0f1" y="141.556446"/>
     <use style="fill:#ff0000;stroke:#ff0000;stroke-linejoin:bevel;" x="393.843169" xlink:href="#m2d925df0f1" y="143.763143"/>
     <use style="fill:#ff0000;stroke:#ff0000;stroke-linejoin:bevel;" x="394.778822" xlink:href="#m2d925df0f1" y="145.867979"/>
     <use style="fill:#ff0000;stroke:#ff0000;stroke-linejoin:bevel;" x="394.778822" xlink:href="#m2d925df0f1" y="145.867979"/>
     <use style="fill:#ff0000;stroke:#ff0000;stroke-linejoin:bevel;" x="395.712577" xlink:href="#m2d925df0f1" y="147.972815"/>
     <use style="fill:#ff0000;stroke:#ff0000;stroke-linejoin:bevel;" x="395.712577" xlink:href="#m2d925df0f1" y="147.972815"/>
     <use style="fill:#ff0000;stroke:#ff0000;stroke-linejoin:bevel;" x="396.646333" xlink:href="#m2d925df0f1" y="150.178611"/>
     <use style="fill:#ff0000;stroke:#ff0000;stroke-linejoin:bevel;" x="396.646333" xlink:href="#m2d925df0f1" y="150.178611"/>
     <use style="fill:#ff0000;stroke:#ff0000;stroke-linejoin:bevel;" x="397.255551" xlink:href="#m2d925df0f1" y="152.282545"/>
     <use style="fill:#ff0000;stroke:#ff0000;stroke-linejoin:bevel;" x="397.255551" xlink:href="#m2d925df0f1" y="152.282545"/>
     <use style="fill:#ff0000;stroke:#ff0000;stroke-linejoin:bevel;" x="397.701552" xlink:href="#m2d925df0f1" y="154.485636"/>
     <use style="fill:#ff0000;stroke:#ff0000;stroke-linejoin:bevel;" x="397.701552" xlink:href="#m2d925df0f1" y="154.485636"/>
     <use style="fill:#ff0000;stroke:#ff0000;stroke-linejoin:bevel;" x="398.147553" xlink:href="#m2d925df0f1" y="156.688728"/>
     <use style="fill:#ff0000;stroke:#ff0000;stroke-linejoin:bevel;" x="398.147553" xlink:href="#m2d925df0f1" y="156.688728"/>
     <use style="fill:#ff0000;stroke:#ff0000;stroke-linejoin:bevel;" x="398.432234" xlink:href="#m2d925df0f1" y="158.890918"/>
     <use style="fill:#ff0000;stroke:#ff0000;stroke-linejoin:bevel;" x="398.432234" xlink:href="#m2d925df0f1" y="158.890918"/>
     <use style="fill:#ff0000;stroke:#ff0000;stroke-linejoin:bevel;" x="398.390481" xlink:href="#m2d925df0f1" y="161.092207"/>
     <use style="fill:#ff0000;stroke:#ff0000;stroke-linejoin:bevel;" x="398.390481" xlink:href="#m2d925df0f1" y="161.092207"/>
     <use style="fill:#ff0000;stroke:#ff0000;stroke-linejoin:bevel;" x="398.350626" xlink:href="#m2d925df0f1" y="163.192535"/>
     <use style="fill:#ff0000;stroke:#ff0000;stroke-linejoin:bevel;" x="398.350626" xlink:href="#m2d925df0f1" y="163.192535"/>
     <use style="fill:#ff0000;stroke:#ff0000;stroke-linejoin:bevel;" x="398.350626" xlink:href="#m2d925df0f1" y="163.192535"/>
     <use style="fill:#ff0000;stroke:#ff0000;stroke-linejoin:bevel;" x="397.986233" xlink:href="#m2d925df0f1" y="165.392923"/>
     <use style="fill:#ff0000;stroke:#ff0000;stroke-linejoin:bevel;" x="397.621841" xlink:href="#m2d925df0f1" y="167.49235"/>
     <use style="fill:#ff0000;stroke:#ff0000;stroke-linejoin:bevel;" x="397.621841" xlink:href="#m2d925df0f1" y="167.49235"/>
     <use style="fill:#ff0000;stroke:#ff0000;stroke-linejoin:bevel;" x="397.096129" xlink:href="#m2d925df0f1" y="169.590876"/>
     <use style="fill:#ff0000;stroke:#ff0000;stroke-linejoin:bevel;" x="397.096129" xlink:href="#m2d925df0f1" y="169.590876"/>
     <use style="fill:#ff0000;stroke:#ff0000;stroke-linejoin:bevel;" x="396.4072" xlink:href="#m2d925df0f1" y="171.689401"/>
     <use style="fill:#ff0000;stroke:#ff0000;stroke-linejoin:bevel;" x="396.063684" xlink:href="#m2d925df0f1" y="172.689086"/>
     <use style="fill:#ff0000;stroke:#ff0000;stroke-linejoin:bevel;" x="395.718271" xlink:href="#m2d925df0f1" y="173.787927"/>
     <use style="fill:#ff0000;stroke:#ff0000;stroke-linejoin:bevel;" x="395.718271" xlink:href="#m2d925df0f1" y="173.787927"/>
     <use style="fill:#ff0000;stroke:#ff0000;stroke-linejoin:bevel;" x="395.718271" xlink:href="#m2d925df0f1" y="173.787927"/>
     <use style="fill:#ff0000;stroke:#ff0000;stroke-linejoin:bevel;" x="394.706703" xlink:href="#m2d925df0f1" y="175.784591"/>
     <use style="fill:#ff0000;stroke:#ff0000;stroke-linejoin:bevel;" x="393.693237" xlink:href="#m2d925df0f1" y="177.881314"/>
     <use style="fill:#ff0000;stroke:#ff0000;stroke-linejoin:bevel;" x="393.693237" xlink:href="#m2d925df0f1" y="177.881314"/>
     <use style="fill:#ff0000;stroke:#ff0000;stroke-linejoin:bevel;" x="392.520349" xlink:href="#m2d925df0f1" y="179.877979"/>
     <use style="fill:#ff0000;stroke:#ff0000;stroke-linejoin:bevel;" x="391.852297" xlink:href="#m2d925df0f1" y="180.87586"/>
     <use style="fill:#ff0000;stroke:#ff0000;stroke-linejoin:bevel;" x="391.182346" xlink:href="#m2d925df0f1" y="181.9738"/>
     <use style="fill:#ff0000;stroke:#ff0000;stroke-linejoin:bevel;" x="391.182346" xlink:href="#m2d925df0f1" y="181.9738"/>
     <use style="fill:#ff0000;stroke:#ff0000;stroke-linejoin:bevel;" x="389.846241" xlink:href="#m2d925df0f1" y="183.968662"/>
     <use style="fill:#ff0000;stroke:#ff0000;stroke-linejoin:bevel;" x="389.846241" xlink:href="#m2d925df0f1" y="183.968662"/>
     <use style="fill:#ff0000;stroke:#ff0000;stroke-linejoin:bevel;" x="389.846241" xlink:href="#m2d925df0f1" y="183.968662"/>
     <use style="fill:#ff0000;stroke:#ff0000;stroke-linejoin:bevel;" x="388.185599" xlink:href="#m2d925df0f1" y="185.963523"/>
     <use style="fill:#ff0000;stroke:#ff0000;stroke-linejoin:bevel;" x="386.526855" xlink:href="#m2d925df0f1" y="187.857425"/>
     <use style="fill:#ff0000;stroke:#ff0000;stroke-linejoin:bevel;" x="386.526855" xlink:href="#m2d925df0f1" y="187.857425"/>
     <use style="fill:#ff0000;stroke:#ff0000;stroke-linejoin:bevel;" x="384.866213" xlink:href="#m2d925df0f1" y="189.851385"/>
     <use style="fill:#ff0000;stroke:#ff0000;stroke-linejoin:bevel;" x="383.873624" xlink:href="#m2d925df0f1" y="190.847463"/>
     <use style="fill:#ff0000;stroke:#ff0000;stroke-linejoin:bevel;" x="382.882932" xlink:href="#m2d925df0f1" y="191.744385"/>
     <use style="fill:#ff0000;stroke:#ff0000;stroke-linejoin:bevel;" x="382.882932" xlink:href="#m2d925df0f1" y="191.744385"/>
     <use style="fill:#ff0000;stroke:#ff0000;stroke-linejoin:bevel;" x="380.899651" xlink:href="#m2d925df0f1" y="193.636484"/>
     <use style="fill:#ff0000;stroke:#ff0000;stroke-linejoin:bevel;" x="380.899651" xlink:href="#m2d925df0f1" y="193.636484"/>
     <use style="fill:#ff0000;stroke:#ff0000;stroke-linejoin:bevel;" x="380.899651" xlink:href="#m2d925df0f1" y="193.636484"/>
     <use style="fill:#ff0000;stroke:#ff0000;stroke-linejoin:bevel;" x="378.591834" xlink:href="#m2d925df0f1" y="195.528582"/>
     <use style="fill:#ff0000;stroke:#ff0000;stroke-linejoin:bevel;" x="376.445335" xlink:href="#m2d925df0f1" y="197.419779"/>
     <use style="fill:#ff0000;stroke:#ff0000;stroke-linejoin:bevel;" x="376.445335" xlink:href="#m2d925df0f1" y="197.419779"/>
     <use style="fill:#ff0000;stroke:#ff0000;stroke-linejoin:bevel;" x="373.978096" xlink:href="#m2d925df0f1" y="199.210918"/>
     <use style="fill:#ff0000;stroke:#ff0000;stroke-linejoin:bevel;" x="372.824187" xlink:href="#m2d925df0f1" y="200.106938"/>
     <use style="fill:#ff0000;stroke:#ff0000;stroke-linejoin:bevel;" x="371.508959" xlink:href="#m2d925df0f1" y="201.001155"/>
     <use style="fill:#ff0000;stroke:#ff0000;stroke-linejoin:bevel;" x="371.508959" xlink:href="#m2d925df0f1" y="201.001155"/>
     <use style="fill:#ff0000;stroke:#ff0000;stroke-linejoin:bevel;" x="368.878502" xlink:href="#m2d925df0f1" y="202.791392"/>
     <use style="fill:#ff0000;stroke:#ff0000;stroke-linejoin:bevel;" x="368.878502" xlink:href="#m2d925df0f1" y="202.791392"/>
     <use style="fill:#ff0000;stroke:#ff0000;stroke-linejoin:bevel;" x="368.878502" xlink:href="#m2d925df0f1" y="202.791392"/>
     <use style="fill:#ff0000;stroke:#ff0000;stroke-linejoin:bevel;" x="368.878502" xlink:href="#m2d925df0f1" y="202.791392"/>
     <use style="fill:#ff0000;stroke:#ff0000;stroke-linejoin:bevel;" x="361.653286" xlink:href="#m2d925df0f1" y="207.163321"/>
     <use style="fill:#ff0000;stroke:#ff0000;stroke-linejoin:bevel;" x="360.17484" xlink:href="#m2d925df0f1" y="208.057538"/>
     <use style="fill:#ff0000;stroke:#ff0000;stroke-linejoin:bevel;" x="358.70019" xlink:href="#m2d925df0f1" y="208.851697"/>
     <use style="fill:#ff0000;stroke:#ff0000;stroke-linejoin:bevel;" x="357.060425" xlink:href="#m2d925df0f1" y="209.745914"/>
     <use style="fill:#ff0000;stroke:#ff0000;stroke-linejoin:bevel;" x="355.583877" xlink:href="#m2d925df0f1" y="210.540073"/>
     <use style="fill:#ff0000;stroke:#ff0000;stroke-linejoin:bevel;" x="353.94601" xlink:href="#m2d925df0f1" y="211.33333"/>
     <use style="fill:#ff0000;stroke:#ff0000;stroke-linejoin:bevel;" x="353.94601" xlink:href="#m2d925df0f1" y="211.33333"/>
     <use style="fill:#ff0000;stroke:#ff0000;stroke-linejoin:bevel;" x="350.668377" xlink:href="#m2d925df0f1" y="212.920746"/>
     <use style="fill:#ff0000;stroke:#ff0000;stroke-linejoin:bevel;" x="348.86919" xlink:href="#m2d925df0f1" y="213.713101"/>
     <use style="fill:#ff0000;stroke:#ff0000;stroke-linejoin:bevel;" x="347.231323" xlink:href="#m2d925df0f1" y="214.50726"/>
     <use style="fill:#ff0000;stroke:#ff0000;stroke-linejoin:bevel;" x="345.430238" xlink:href="#m2d925df0f1" y="215.299616"/>
     <use style="fill:#ff0000;stroke:#ff0000;stroke-linejoin:bevel;" x="343.631051" xlink:href="#m2d925df0f1" y="215.992814"/>
     <use style="fill:#ff0000;stroke:#ff0000;stroke-linejoin:bevel;" x="341.829966" xlink:href="#m2d925df0f1" y="216.78517"/>
     <use style="fill:#ff0000;stroke:#ff0000;stroke-linejoin:bevel;" x="340.032677" xlink:href="#m2d925df0f1" y="217.478369"/>
     <use style="fill:#ff0000;stroke:#ff0000;stroke-linejoin:bevel;" x="338.231593" xlink:href="#m2d925df0f1" y="218.271626"/>
     <use style="fill:#ff0000;stroke:#ff0000;stroke-linejoin:bevel;" x="336.271086" xlink:href="#m2d925df0f1" y="218.963022"/>
     <use style="fill:#ff0000;stroke:#ff0000;stroke-linejoin:bevel;" x="336.271086" xlink:href="#m2d925df0f1" y="218.963022"/>
     <use style="fill:#ff0000;stroke:#ff0000;stroke-linejoin:bevel;" x="332.509495" xlink:href="#m2d925df0f1" y="220.448576"/>
     <use style="fill:#ff0000;stroke:#ff0000;stroke-linejoin:bevel;" x="330.710308" xlink:href="#m2d925df0f1" y="221.140873"/>
     <use style="fill:#ff0000;stroke:#ff0000;stroke-linejoin:bevel;" x="328.749802" xlink:href="#m2d925df0f1" y="221.83317"/>
     <use style="fill:#ff0000;stroke:#ff0000;stroke-linejoin:bevel;" x="328.749802" xlink:href="#m2d925df0f1" y="221.83317"/>
     <use style="fill:#ff0000;stroke:#ff0000;stroke-linejoin:bevel;" x="324.828789" xlink:href="#m2d925df0f1" y="223.117706"/>
     <use style="fill:#ff0000;stroke:#ff0000;stroke-linejoin:bevel;" x="324.828789" xlink:href="#m2d925df0f1" y="223.117706"/>
     <use style="fill:#ff0000;stroke:#ff0000;stroke-linejoin:bevel;" x="321.070993" xlink:href="#m2d925df0f1" y="224.402242"/>
     <use style="fill:#ff0000;stroke:#ff0000;stroke-linejoin:bevel;" x="321.070993" xlink:href="#m2d925df0f1" y="224.402242"/>
     <use style="fill:#ff0000;stroke:#ff0000;stroke-linejoin:bevel;" x="317.151879" xlink:href="#m2d925df0f1" y="225.686778"/>
     <use style="fill:#ff0000;stroke:#ff0000;stroke-linejoin:bevel;" x="317.151879" xlink:href="#m2d925df0f1" y="225.686778"/>
     <use style="fill:#ff0000;stroke:#ff0000;stroke-linejoin:bevel;" x="313.230866" xlink:href="#m2d925df0f1" y="226.971313"/>
     <use style="fill:#ff0000;stroke:#ff0000;stroke-linejoin:bevel;" x="311.10904" xlink:href="#m2d925df0f1" y="227.56265"/>
     <use style="fill:#ff0000;stroke:#ff0000;stroke-linejoin:bevel;" x="309.150431" xlink:href="#m2d925df0f1" y="228.153988"/>
     <use style="fill:#ff0000;stroke:#ff0000;stroke-linejoin:bevel;" x="307.189925" xlink:href="#m2d925df0f1" y="228.846285"/>
     <use style="fill:#ff0000;stroke:#ff0000;stroke-linejoin:bevel;" x="305.229419" xlink:href="#m2d925df0f1" y="229.438523"/>
     <use style="fill:#ff0000;stroke:#ff0000;stroke-linejoin:bevel;" x="303.27081" xlink:href="#m2d925df0f1" y="230.030762"/>
     <use style="fill:#ff0000;stroke:#ff0000;stroke-linejoin:bevel;" x="301.147086" xlink:href="#m2d925df0f1" y="230.722158"/>
     <use style="fill:#ff0000;stroke:#ff0000;stroke-linejoin:bevel;" x="301.147086" xlink:href="#m2d925df0f1" y="230.722158"/>
     <use style="fill:#ff0000;stroke:#ff0000;stroke-linejoin:bevel;" x="297.229869" xlink:href="#m2d925df0f1" y="231.906635"/>
     <use style="fill:#ff0000;stroke:#ff0000;stroke-linejoin:bevel;" x="297.229869" xlink:href="#m2d925df0f1" y="231.906635"/>
     <use style="fill:#ff0000;stroke:#ff0000;stroke-linejoin:bevel;" x="293.147537" xlink:href="#m2d925df0f1" y="233.190269"/>
     <use style="fill:#ff0000;stroke:#ff0000;stroke-linejoin:bevel;" x="293.147537" xlink:href="#m2d925df0f1" y="233.190269"/>
     <use style="fill:#ff0000;stroke:#ff0000;stroke-linejoin:bevel;" x="289.067102" xlink:href="#m2d925df0f1" y="234.372944"/>
     <use style="fill:#ff0000;stroke:#ff0000;stroke-linejoin:bevel;" x="284.98477" xlink:href="#m2d925df0f1" y="235.656578"/>
     <use style="fill:#ff0000;stroke:#ff0000;stroke-linejoin:bevel;" x="284.98477" xlink:href="#m2d925df0f1" y="235.656578"/>
     <use style="fill:#ff0000;stroke:#ff0000;stroke-linejoin:bevel;" x="280.90054" xlink:href="#m2d925df0f1" y="236.940212"/>
     <use style="fill:#ff0000;stroke:#ff0000;stroke-linejoin:bevel;" x="280.90054" xlink:href="#m2d925df0f1" y="236.940212"/>
     <use style="fill:#ff0000;stroke:#ff0000;stroke-linejoin:bevel;" x="276.656888" xlink:href="#m2d925df0f1" y="238.222945"/>
     <use style="fill:#ff0000;stroke:#ff0000;stroke-linejoin:bevel;" x="276.656888" xlink:href="#m2d925df0f1" y="238.222945"/>
     <use style="fill:#ff0000;stroke:#ff0000;stroke-linejoin:bevel;" x="272.574556" xlink:href="#m2d925df0f1" y="239.506579"/>
     <use style="fill:#ff0000;stroke:#ff0000;stroke-linejoin:bevel;" x="272.574556" xlink:href="#m2d925df0f1" y="239.506579"/>
     <use style="fill:#ff0000;stroke:#ff0000;stroke-linejoin:bevel;" x="268.492224" xlink:href="#m2d925df0f1" y="240.790214"/>
     <use style="fill:#ff0000;stroke:#ff0000;stroke-linejoin:bevel;" x="268.492224" xlink:href="#m2d925df0f1" y="240.790214"/>
     <use style="fill:#ff0000;stroke:#ff0000;stroke-linejoin:bevel;" x="264.246674" xlink:href="#m2d925df0f1" y="242.072947"/>
     <use style="fill:#ff0000;stroke:#ff0000;stroke-linejoin:bevel;" x="264.246674" xlink:href="#m2d925df0f1" y="242.072947"/>
     <use style="fill:#ff0000;stroke:#ff0000;stroke-linejoin:bevel;" x="259.999226" xlink:href="#m2d925df0f1" y="243.455738"/>
     <use style="fill:#ff0000;stroke:#ff0000;stroke-linejoin:bevel;" x="259.999226" xlink:href="#m2d925df0f1" y="243.455738"/>
     <use style="fill:#ff0000;stroke:#ff0000;stroke-linejoin:bevel;" x="255.592357" xlink:href="#m2d925df0f1" y="244.738471"/>
     <use style="fill:#ff0000;stroke:#ff0000;stroke-linejoin:bevel;" x="255.592357" xlink:href="#m2d925df0f1" y="244.738471"/>
     <use style="fill:#ff0000;stroke:#ff0000;stroke-linejoin:bevel;" x="251.348705" xlink:href="#m2d925df0f1" y="246.021204"/>
     <use style="fill:#ff0000;stroke:#ff0000;stroke-linejoin:bevel;" x="251.348705" xlink:href="#m2d925df0f1" y="246.021204"/>
     <use style="fill:#ff0000;stroke:#ff0000;stroke-linejoin:bevel;" x="246.939938" xlink:href="#m2d925df0f1" y="247.403094"/>
     <use style="fill:#ff0000;stroke:#ff0000;stroke-linejoin:bevel;" x="246.939938" xlink:href="#m2d925df0f1" y="247.403094"/>
     <use style="fill:#ff0000;stroke:#ff0000;stroke-linejoin:bevel;" x="242.529273" xlink:href="#m2d925df0f1" y="248.785885"/>
     <use style="fill:#ff0000;stroke:#ff0000;stroke-linejoin:bevel;" x="242.529273" xlink:href="#m2d925df0f1" y="248.785885"/>
     <use style="fill:#ff0000;stroke:#ff0000;stroke-linejoin:bevel;" x="238.122404" xlink:href="#m2d925df0f1" y="250.067717"/>
     <use style="fill:#ff0000;stroke:#ff0000;stroke-linejoin:bevel;" x="238.122404" xlink:href="#m2d925df0f1" y="250.067717"/>
     <use style="fill:#ff0000;stroke:#ff0000;stroke-linejoin:bevel;" x="233.713637" xlink:href="#m2d925df0f1" y="251.449607"/>
     <use style="fill:#ff0000;stroke:#ff0000;stroke-linejoin:bevel;" x="233.713637" xlink:href="#m2d925df0f1" y="251.449607"/>
     <use style="fill:#ff0000;stroke:#ff0000;stroke-linejoin:bevel;" x="229.141653" xlink:href="#m2d925df0f1" y="252.831497"/>
     <use style="fill:#ff0000;stroke:#ff0000;stroke-linejoin:bevel;" x="229.141653" xlink:href="#m2d925df0f1" y="252.831497"/>
     <use style="fill:#ff0000;stroke:#ff0000;stroke-linejoin:bevel;" x="224.571566" xlink:href="#m2d925df0f1" y="254.212486"/>
     <use style="fill:#ff0000;stroke:#ff0000;stroke-linejoin:bevel;" x="224.571566" xlink:href="#m2d925df0f1" y="254.212486"/>
     <use style="fill:#ff0000;stroke:#ff0000;stroke-linejoin:bevel;" x="219.999582" xlink:href="#m2d925df0f1" y="255.594376"/>
     <use style="fill:#ff0000;stroke:#ff0000;stroke-linejoin:bevel;" x="219.999582" xlink:href="#m2d925df0f1" y="255.594376"/>
     <use style="fill:#ff0000;stroke:#ff0000;stroke-linejoin:bevel;" x="215.266278" xlink:href="#m2d925df0f1" y="256.975364"/>
     <use style="fill:#ff0000;stroke:#ff0000;stroke-linejoin:bevel;" x="215.266278" xlink:href="#m2d925df0f1" y="256.975364"/>
     <use style="fill:#ff0000;stroke:#ff0000;stroke-linejoin:bevel;" x="210.532974" xlink:href="#m2d925df0f1" y="258.356353"/>
     <use style="fill:#ff0000;stroke:#ff0000;stroke-linejoin:bevel;" x="210.532974" xlink:href="#m2d925df0f1" y="258.356353"/>
     <use style="fill:#ff0000;stroke:#ff0000;stroke-linejoin:bevel;" x="205.797772" xlink:href="#m2d925df0f1" y="259.737342"/>
     <use style="fill:#ff0000;stroke:#ff0000;stroke-linejoin:bevel;" x="205.797772" xlink:href="#m2d925df0f1" y="259.737342"/>
     <use style="fill:#ff0000;stroke:#ff0000;stroke-linejoin:bevel;" x="201.064468" xlink:href="#m2d925df0f1" y="261.117429"/>
     <use style="fill:#ff0000;stroke:#ff0000;stroke-linejoin:bevel;" x="201.064468" xlink:href="#m2d925df0f1" y="261.117429"/>
     <use style="fill:#ff0000;stroke:#ff0000;stroke-linejoin:bevel;" x="196.169845" xlink:href="#m2d925df0f1" y="262.497516"/>
     <use style="fill:#ff0000;stroke:#ff0000;stroke-linejoin:bevel;" x="196.169845" xlink:href="#m2d925df0f1" y="262.497516"/>
     <use style="fill:#ff0000;stroke:#ff0000;stroke-linejoin:bevel;" x="191.434643" xlink:href="#m2d925df0f1" y="263.878505"/>
     <use style="fill:#ff0000;stroke:#ff0000;stroke-linejoin:bevel;" x="191.434643" xlink:href="#m2d925df0f1" y="263.878505"/>
     <use style="fill:#ff0000;stroke:#ff0000;stroke-linejoin:bevel;" x="186.54002" xlink:href="#m2d925df0f1" y="265.258592"/>
     <use style="fill:#ff0000;stroke:#ff0000;stroke-linejoin:bevel;" x="186.54002" xlink:href="#m2d925df0f1" y="265.258592"/>
     <use style="fill:#ff0000;stroke:#ff0000;stroke-linejoin:bevel;" x="181.6416" xlink:href="#m2d925df0f1" y="266.738738"/>
     <use style="fill:#ff0000;stroke:#ff0000;stroke-linejoin:bevel;" x="181.6416" xlink:href="#m2d925df0f1" y="266.738738"/>
     <use style="fill:#ff0000;stroke:#ff0000;stroke-linejoin:bevel;" x="176.58376" xlink:href="#m2d925df0f1" y="268.118825"/>
     <use style="fill:#ff0000;stroke:#ff0000;stroke-linejoin:bevel;" x="176.58376" xlink:href="#m2d925df0f1" y="268.118825"/>
     <use style="fill:#ff0000;stroke:#ff0000;stroke-linejoin:bevel;" x="171.524021" xlink:href="#m2d925df0f1" y="269.498011"/>
     <use style="fill:#ff0000;stroke:#ff0000;stroke-linejoin:bevel;" x="166.46618" xlink:href="#m2d925df0f1" y="270.877196"/>
     <use style="fill:#ff0000;stroke:#ff0000;stroke-linejoin:bevel;" x="166.46618" xlink:href="#m2d925df0f1" y="270.877196"/>
     <use style="fill:#ff0000;stroke:#ff0000;stroke-linejoin:bevel;" x="161.408339" xlink:href="#m2d925df0f1" y="272.257283"/>
     <use style="fill:#ff0000;stroke:#ff0000;stroke-linejoin:bevel;" x="161.408339" xlink:href="#m2d925df0f1" y="272.257283"/>
     <use style="fill:#ff0000;stroke:#ff0000;stroke-linejoin:bevel;" x="156.187281" xlink:href="#m2d925df0f1" y="273.635568"/>
     <use style="fill:#ff0000;stroke:#ff0000;stroke-linejoin:bevel;" x="156.187281" xlink:href="#m2d925df0f1" y="273.635568"/>
     <use style="fill:#ff0000;stroke:#ff0000;stroke-linejoin:bevel;" x="153.575803" xlink:href="#m2d925df0f1" y="274.325161"/>
     <use style="fill:#ff0000;stroke:#ff0000;stroke-linejoin:bevel;" x="150.966223" xlink:href="#m2d925df0f1" y="275.014754"/>
     <use style="fill:#ff0000;stroke:#ff0000;stroke-linejoin:bevel;" x="145.745165" xlink:href="#m2d925df0f1" y="276.393038"/>
     <use style="fill:#ff0000;stroke:#ff0000;stroke-linejoin:bevel;" x="145.745165" xlink:href="#m2d925df0f1" y="276.393038"/>
     <use style="fill:#ff0000;stroke:#ff0000;stroke-linejoin:bevel;" x="140.522209" xlink:href="#m2d925df0f1" y="277.872282"/>
     <use style="fill:#ff0000;stroke:#ff0000;stroke-linejoin:bevel;" x="140.522209" xlink:href="#m2d925df0f1" y="277.872282"/>
     <use style="fill:#ff0000;stroke:#ff0000;stroke-linejoin:bevel;" x="135.139831" xlink:href="#m2d925df0f1" y="279.250567"/>
     <use style="fill:#ff0000;stroke:#ff0000;stroke-linejoin:bevel;" x="135.139831" xlink:href="#m2d925df0f1" y="279.250567"/>
     <use style="fill:#ff0000;stroke:#ff0000;stroke-linejoin:bevel;" x="129.918773" xlink:href="#m2d925df0f1" y="280.628851"/>
     <use style="fill:#ff0000;stroke:#ff0000;stroke-linejoin:bevel;" x="129.918773" xlink:href="#m2d925df0f1" y="280.628851"/>
     <use style="fill:#ff0000;stroke:#ff0000;stroke-linejoin:bevel;" x="124.534497" xlink:href="#m2d925df0f1" y="282.107194"/>
     <use style="fill:#ff0000;stroke:#ff0000;stroke-linejoin:bevel;" x="124.534497" xlink:href="#m2d925df0f1" y="282.107194"/>
     <use style="fill:#ff0000;stroke:#ff0000;stroke-linejoin:bevel;" x="119.15212" xlink:href="#m2d925df0f1" y="283.485478"/>
     <use style="fill:#ff0000;stroke:#ff0000;stroke-linejoin:bevel;" x="119.15212" xlink:href="#m2d925df0f1" y="283.485478"/>
     <use style="fill:#ff0000;stroke:#ff0000;stroke-linejoin:bevel;" x="113.765946" xlink:href="#m2d925df0f1" y="284.96292"/>
     <use style="fill:#ff0000;stroke:#ff0000;stroke-linejoin:bevel;" x="113.765946" xlink:href="#m2d925df0f1" y="284.96292"/>
     <use style="fill:#ff0000;stroke:#ff0000;stroke-linejoin:bevel;" x="108.383568" xlink:href="#m2d925df0f1" y="286.341204"/>
     <use style="fill:#ff0000;stroke:#ff0000;stroke-linejoin:bevel;" x="108.383568" xlink:href="#m2d925df0f1" y="286.341204"/>
     <use style="fill:#ff0000;stroke:#ff0000;stroke-linejoin:bevel;" x="102.836076" xlink:href="#m2d925df0f1" y="287.818645"/>
     <use style="fill:#ff0000;stroke:#ff0000;stroke-linejoin:bevel;" x="97.453698" xlink:href="#m2d925df0f1" y="289.19693"/>
     <use style="fill:#ff0000;stroke:#ff0000;stroke-linejoin:bevel;" x="97.453698" xlink:href="#m2d925df0f1" y="289.19693"/>
     <use style="fill:#ff0000;stroke:#ff0000;stroke-linejoin:bevel;" x="91.906205" xlink:href="#m2d925df0f1" y="290.674371"/>
     <use style="fill:#ff0000;stroke:#ff0000;stroke-linejoin:bevel;" x="91.906205" xlink:href="#m2d925df0f1" y="290.674371"/>
     <use style="fill:#ff0000;stroke:#ff0000;stroke-linejoin:bevel;" x="86.358712" xlink:href="#m2d925df0f1" y="292.151813"/>
     <use style="fill:#ff0000;stroke:#ff0000;stroke-linejoin:bevel;" x="86.358712" xlink:href="#m2d925df0f1" y="292.151813"/>
     <use style="fill:#ff0000;stroke:#ff0000;stroke-linejoin:bevel;" x="80.811219" xlink:href="#m2d925df0f1" y="293.629254"/>
     <use style="fill:#ff0000;stroke:#ff0000;stroke-linejoin:bevel;" x="80.811219" xlink:href="#m2d925df0f1" y="293.629254"/>
     <use style="fill:#ff0000;stroke:#ff0000;stroke-linejoin:bevel;" x="75.263726" xlink:href="#m2d925df0f1" y="295.106696"/>
     <use style="fill:#ff0000;stroke:#ff0000;stroke-linejoin:bevel;" x="75.263726" xlink:href="#m2d925df0f1" y="295.106696"/>
    </g>
   </g>
   <g id="line2d_30">
    <path clip-path="url(#pb2c55a340c)" d="M 304.113467 53.568 
L 331.828157 77.751527 
L 334.031592 79.679682 
L 342.031141 86.876688 
L 350.799331 94.665031 
L 362.879314 105.850859 
L 373.125949 116.186639 
L 377.866845 121.517688 
L 383.964722 128.702976 
L 388.362102 134.654207 
L 391.091248 138.796272 
L 392.340051 140.981335 
L 394.393553 145.012523 
L 395.832144 148.281103 
L 396.756409 150.531971 
L 397.445339 152.748584 
L 398.251936 157.190824 
L 398.487273 159.404732 
L 398.316464 163.778464 
L 398.048863 165.543461 
L 397.217593 168.986017 
L 396.547643 171.159361 
L 395.122338 175.134661 
L 393.52053 178.195913 
L 391.387317 181.597003 
L 388.921975 185.190999 
L 386.327578 188.114332 
L 384.313931 190.326438 
L 380.362552 194.116945 
L 378.570957 195.628641 
L 374.813162 198.602454 
L 370.897842 201.417615 
L 366.602948 204.252608 
L 356.64479 209.914481 
L 351.260515 212.65212 
L 343.576013 216.071239 
L 337.886179 218.373487 
L 327.08916 222.39476 
L 311.784684 227.353519 
L 301.353955 230.616691 
L 285.203026 235.582661 
L 254.668091 245.052168 
L 239.230764 249.758527 
L 195.399307 262.720169 
L 172.983488 269.124819 
L 109.541273 286.057254 
L 79.585191 293.949261 
L 73.832727 295.488 
L 73.832727 295.488 
" style="fill:none;stroke:#0000ff;stroke-dasharray:9.6,2.4,1.5,2.4;stroke-dashoffset:0;stroke-width:1.5;"/>
   </g>
   <g id="patch_3">
    <path d="M 57.6 307.584 
L 57.6 41.472 
" style="fill:none;stroke:#000000;stroke-linecap:square;stroke-linejoin:miter;stroke-width:0.8;"/>
   </g>
   <g id="patch_4">
    <path d="M 414.72 307.584 
L 414.72 41.472 
" style="fill:none;stroke:#000000;stroke-linecap:square;stroke-linejoin:miter;stroke-width:0.8;"/>
   </g>
   <g id="patch_5">
    <path d="M 57.6 307.584 
L 414.72 307.584 
" style="fill:none;stroke:#000000;stroke-linecap:square;stroke-linejoin:miter;stroke-width:0.8;"/>
   </g>
   <g id="patch_6">
    <path d="M 57.6 41.472 
L 414.72 41.472 
" style="fill:none;stroke:#000000;stroke-linecap:square;stroke-linejoin:miter;stroke-width:0.8;"/>
   </g>
   <g id="text_17">
    <!--  -->
    <defs>
     <path d="M 84.765625 35.546875 
Q 88.28125 31.640625 91.796875 29.6875 
Q 89.453125 28.125 84.953125 23.828125 
Q 80.46875 19.53125 75.78125 14.84375 
Q 78.90625 9.765625 84.953125 5.46875 
Q 91.015625 1.171875 96.484375 -0.78125 
Q 92.96875 -3.90625 90.625 -8.203125 
Q 81.640625 -3.125 76.5625 2.140625 
Q 71.484375 7.421875 68.546875 13.46875 
Q 65.625 19.53125 64.25 26.171875 
Q 62.890625 32.8125 62.109375 39.0625 
L 53.515625 39.0625 
L 53.515625 2.34375 
Q 57.421875 4.6875 63.671875 10.15625 
Q 65.625 5.078125 66.796875 3.515625 
Q 63.28125 1.171875 57.8125 -2.921875 
Q 52.34375 -7.03125 49.21875 -9.765625 
L 44.921875 -4.296875 
Q 47.265625 -2.34375 46.875 3.90625 
L 46.875 60.546875 
Q 46.875 70.703125 46.484375 78.90625 
L 86.71875 78.90625 
Q 86.328125 70.703125 86.328125 58.203125 
Q 86.328125 45.703125 86.71875 39.0625 
L 68.75 39.0625 
Q 69.140625 35.546875 69.921875 31.25 
Q 70.703125 26.953125 72.65625 21.09375 
Q 76.5625 24.609375 80.078125 28.90625 
Q 83.59375 33.203125 84.765625 35.546875 
z
M 42.1875 27.734375 
Q 36.328125 28.125 30.46875 28.125 
L 30.46875 8.59375 
Q 33.203125 8.984375 42.96875 12.109375 
Q 42.1875 8.984375 42.1875 5.46875 
Q 21.09375 -0.390625 16.40625 -1.75 
Q 11.71875 -3.125 7.03125 -5.46875 
Q 5.859375 -1.953125 3.515625 2.34375 
Q 5.46875 2.734375 10.15625 3.90625 
L 10.15625 28.90625 
Q 10.15625 33.203125 9.765625 38.671875 
L 17.1875 38.671875 
Q 16.796875 32.421875 16.796875 27.34375 
L 16.796875 5.078125 
Q 19.921875 5.859375 23.828125 6.640625 
L 23.828125 47.65625 
L 9.765625 47.65625 
Q 10.15625 57.03125 10.15625 64.0625 
Q 10.15625 71.484375 9.765625 77.734375 
L 40.625 77.734375 
Q 40.234375 70.3125 40.234375 62.890625 
Q 40.234375 55.46875 40.625 47.65625 
L 30.46875 47.65625 
L 30.46875 33.984375 
Q 36.328125 33.984375 42.1875 34.375 
z
M 33.59375 53.515625 
L 33.59375 71.875 
L 16.796875 71.875 
L 16.796875 53.515625 
z
M 79.296875 45.3125 
L 79.296875 56.25 
L 53.515625 56.25 
L 53.515625 45.3125 
z
M 79.296875 62.109375 
L 79.296875 72.65625 
L 53.515625 72.65625 
L 53.515625 62.109375 
z
" id="SimHei-8ddf"/>
     <path d="M 40.234375 6.25 
Q 20.3125 0 15.234375 -1.953125 
Q 10.15625 -3.90625 5.46875 -6.25 
Q 4.296875 -1.5625 3.125 2.734375 
L 8.203125 3.90625 
L 8.203125 29.296875 
Q 8.203125 34.375 7.8125 38.28125 
L 15.625 38.28125 
Q 15.234375 34.375 15.234375 27.734375 
L 15.234375 6.25 
L 22.265625 7.8125 
L 22.265625 48.4375 
L 8.59375 48.4375 
L 8.59375 63.28125 
Q 8.59375 70.703125 8.203125 76.953125 
L 38.28125 76.953125 
Q 37.890625 69.53125 37.890625 62.109375 
Q 37.890625 54.6875 38.28125 48.4375 
L 28.90625 48.4375 
L 28.90625 32.421875 
Q 31.640625 32.421875 38.671875 32.8125 
L 38.671875 25.390625 
Q 31.640625 25.78125 28.90625 25.78125 
L 28.90625 9.765625 
L 40.234375 12.890625 
L 40.234375 6.25 
z
M 55.46875 -1.171875 
Q 64.0625 -1.953125 64.0625 1.953125 
L 64.0625 28.125 
Q 50 28.125 42.96875 27.734375 
L 42.96875 34.765625 
Q 50 34.375 69.140625 34.375 
Q 88.671875 34.375 94.53125 34.765625 
L 94.53125 27.734375 
Q 88.671875 28.125 71.484375 28.125 
L 71.484375 1.5625 
Q 71.484375 -6.25 67.578125 -7.8125 
Q 63.671875 -9.375 57.421875 -9.765625 
Q 57.03125 -5.46875 55.46875 -1.171875 
z
M 68.359375 82.421875 
Q 71.09375 73.4375 72.265625 69.53125 
L 94.140625 69.53125 
Q 93.75 65.625 93.75 61.328125 
Q 93.75 57.03125 94.140625 53.90625 
L 86.328125 53.90625 
L 86.328125 63.28125 
L 49.609375 63.28125 
L 49.609375 53.90625 
L 42.578125 53.90625 
Q 42.96875 57.421875 42.96875 61.328125 
Q 42.96875 65.625 42.578125 69.53125 
L 63.671875 69.53125 
Q 63.28125 72.65625 60.15625 80.078125 
Q 64.84375 81.640625 68.359375 82.421875 
z
M 31.25 55.078125 
L 31.25 70.3125 
L 15.625 70.3125 
L 15.625 55.078125 
z
M 83.984375 43.359375 
Q 78.125 43.75 66.40625 43.75 
Q 54.6875 43.75 49.21875 43.359375 
L 49.21875 50.78125 
Q 54.6875 50.390625 66.40625 50.390625 
Q 78.125 50.390625 83.984375 50.78125 
z
M 57.8125 12.890625 
Q 55.078125 9.375 50.78125 3.90625 
Q 46.484375 -1.5625 41.40625 -7.421875 
Q 38.671875 -3.90625 35.546875 -1.5625 
Q 39.84375 1.953125 43.75 6.828125 
Q 47.65625 11.71875 51.171875 17.96875 
Q 54.296875 15.625 57.8125 12.890625 
z
M 82.03125 18.359375 
Q 93.75 4.6875 96.484375 0.78125 
Q 92.96875 -1.5625 90.625 -4.6875 
Q 80.46875 9.375 76.5625 12.890625 
Q 79.296875 16.015625 82.03125 18.359375 
z
" id="SimHei-8e2a"/>
     <path d="M 83.984375 76.5625 
Q 83.59375 65.234375 83.59375 55.078125 
L 83.59375 9.375 
Q 83.59375 3.515625 83.984375 -8.59375 
L 75.390625 -8.59375 
L 75.390625 -1.5625 
L 24.609375 -1.5625 
L 24.609375 -8.203125 
L 16.40625 -8.203125 
Q 16.796875 2.34375 16.796875 8.59375 
L 16.796875 55.078125 
Q 16.796875 67.96875 16.40625 76.5625 
L 83.984375 76.5625 
z
M 75.390625 4.6875 
L 75.390625 23.046875 
L 24.609375 23.046875 
L 24.609375 4.6875 
z
M 75.390625 29.296875 
L 75.390625 46.875 
L 24.609375 46.875 
L 24.609375 29.296875 
z
M 75.390625 53.125 
L 75.390625 70.3125 
L 24.609375 70.3125 
L 24.609375 53.125 
z
" id="SimHei-76ee"/>
     <path d="M 19.921875 68.75 
Q 19.921875 75 19.53125 80.859375 
L 27.34375 80.859375 
Q 26.953125 75.390625 26.953125 68.75 
L 26.953125 59.375 
Q 33.203125 59.375 40.234375 59.765625 
L 40.234375 52.34375 
Q 33.203125 52.734375 26.953125 52.734375 
L 26.953125 39.453125 
Q 29.6875 41.40625 32.421875 43.75 
Q 37.5 35.546875 41.40625 27.734375 
Q 37.109375 25.78125 33.984375 23.4375 
Q 31.640625 31.25 26.953125 37.890625 
L 26.953125 7.421875 
Q 26.953125 -0.78125 27.34375 -8.984375 
L 19.53125 -8.984375 
Q 19.921875 -0.390625 19.921875 7.421875 
L 19.921875 32.8125 
Q 16.015625 21.875 7.8125 11.71875 
Q 5.46875 14.84375 1.953125 17.578125 
Q 8.59375 24.21875 12.6875 34.171875 
Q 16.796875 44.140625 17.96875 52.734375 
Q 10.546875 52.734375 5.078125 51.953125 
L 5.078125 59.765625 
Q 12.5 59.375 19.921875 59.375 
z
M 80.859375 48.828125 
Q 88.671875 48.828125 94.53125 49.21875 
L 94.53125 41.796875 
Q 88.671875 42.1875 82.421875 42.1875 
L 70.3125 42.1875 
L 70.3125 2.734375 
Q 70.3125 -3.515625 66.796875 -5.46875 
Q 63.28125 -7.421875 54.296875 -8.59375 
Q 53.515625 -3.90625 51.171875 0.390625 
Q 58.984375 0.390625 60.9375 0.96875 
Q 62.890625 1.5625 62.890625 5.46875 
L 62.890625 42.1875 
L 53.125 42.1875 
Q 43.359375 42.1875 39.0625 41.40625 
L 39.0625 49.21875 
Q 44.140625 48.828125 53.125 48.828125 
z
M 76.5625 74.609375 
Q 84.765625 74.609375 89.84375 75 
L 89.84375 67.1875 
Q 82.421875 67.96875 74.21875 67.96875 
L 55.078125 67.96875 
Q 48.828125 67.96875 42.96875 67.1875 
L 42.96875 75 
Q 48.4375 74.609375 55.078125 74.609375 
z
M 82.421875 31.640625 
Q 91.015625 18.359375 96.875 7.8125 
Q 92.578125 5.859375 88.28125 3.125 
Q 83.984375 14.453125 75.390625 26.953125 
Q 79.296875 28.90625 82.421875 31.640625 
z
M 56.25 27.734375 
Q 54.6875 25.390625 50.390625 15.234375 
Q 46.09375 5.078125 43.75 0.78125 
Q 40.234375 2.734375 35.9375 4.296875 
Q 41.015625 12.109375 43.546875 18.546875 
Q 46.09375 25 47.65625 31.25 
Q 51.953125 29.296875 56.25 27.734375 
z
" id="SimHei-6807"/>
     <path d="M 33.203125 76.953125 
Q 30.46875 74.21875 25.390625 58.59375 
L 25.390625 8.984375 
Q 25.390625 -3.515625 25.78125 -10.15625 
L 17.1875 -10.15625 
Q 17.96875 -3.125 17.96875 8.59375 
L 17.96875 46.09375 
Q 12.109375 35.546875 8.59375 30.46875 
Q 5.859375 35.546875 3.125 37.890625 
Q 8.203125 43.359375 14.25 55.859375 
Q 20.3125 68.359375 23.4375 81.25 
Q 28.515625 78.125 33.203125 76.953125 
z
M 83.984375 47.265625 
Q 82.421875 44.921875 79.6875 35.15625 
Q 76.953125 25.390625 71.875 4.6875 
L 85.15625 4.6875 
Q 92.578125 4.6875 95.3125 5.078125 
L 95.3125 -2.734375 
Q 91.796875 -2.34375 85.15625 -2.34375 
L 45.3125 -2.34375 
Q 35.546875 -2.34375 32.03125 -2.734375 
L 32.03125 5.078125 
Q 35.546875 4.6875 44.53125 4.6875 
L 63.671875 4.6875 
Q 68.75 21.875 73.4375 49.609375 
Q 79.6875 48.046875 83.984375 47.265625 
z
M 82.03125 62.890625 
Q 89.0625 62.890625 92.578125 63.28125 
L 92.578125 55.859375 
Q 89.0625 56.25 81.640625 56.25 
L 46.875 56.25 
Q 41.40625 56.25 35.546875 55.859375 
L 35.546875 63.28125 
Q 41.796875 62.890625 46.875 62.890625 
z
M 47.65625 47.65625 
Q 54.6875 27.734375 58.59375 11.328125 
Q 53.90625 9.765625 50.78125 8.59375 
Q 48.828125 17.578125 46.28125 26.171875 
Q 43.75 34.765625 39.84375 44.921875 
Q 43.75 45.703125 47.65625 47.65625 
z
M 60.546875 81.25 
Q 65.234375 73.046875 68.75 67.1875 
Q 65.625 66.40625 60.546875 63.671875 
Q 57.8125 70.703125 53.125 77.34375 
Q 57.03125 78.90625 60.546875 81.25 
z
" id="SimHei-4f4d"/>
     <path d="M 56.25 57.03125 
Q 55.078125 54.296875 54.296875 51.953125 
L 74.21875 51.953125 
Q 79.6875 51.953125 88.671875 52.34375 
L 88.671875 45.703125 
Q 80.078125 46.09375 74.21875 46.09375 
L 53.125 46.09375 
L 52.34375 40.625 
L 78.125 40.625 
Q 77.734375 30.859375 77.734375 24.21875 
L 77.734375 -0.78125 
Q 87.109375 -0.78125 94.140625 -0.390625 
L 94.140625 -6.25 
Q 85.546875 -5.859375 78.125 -5.859375 
L 21.875 -5.859375 
Q 14.0625 -5.859375 6.25 -6.25 
L 6.25 -0.390625 
Q 14.453125 -0.78125 22.65625 -0.78125 
L 22.65625 24.21875 
Q 22.65625 30.859375 22.265625 40.625 
L 44.921875 40.625 
L 45.703125 46.09375 
L 25 46.09375 
Q 17.96875 46.09375 10.15625 45.703125 
L 10.15625 52.34375 
Q 17.96875 51.953125 25 51.953125 
L 46.484375 51.953125 
Q 46.875 55.078125 46.875 57.8125 
Q 50.78125 57.03125 56.25 57.03125 
z
M 87.109375 77.34375 
Q 86.71875 71.875 86.71875 67.1875 
Q 86.71875 62.5 87.109375 58.984375 
L 14.0625 58.984375 
Q 14.453125 63.671875 14.453125 67.578125 
Q 14.453125 71.875 14.0625 77.34375 
L 87.109375 77.34375 
z
M 71.484375 29.6875 
L 71.484375 35.15625 
L 28.90625 35.15625 
L 28.90625 29.6875 
z
M 71.484375 19.53125 
L 71.484375 24.609375 
L 28.90625 24.609375 
L 28.90625 19.53125 
z
M 71.484375 -0.78125 
L 71.484375 4.296875 
L 28.90625 4.296875 
L 28.90625 -0.78125 
z
M 71.484375 9.765625 
L 71.484375 13.671875 
L 28.90625 13.671875 
L 28.90625 9.765625 
z
M 57.8125 64.0625 
L 57.8125 72.265625 
L 42.1875 72.265625 
L 42.1875 64.0625 
z
M 79.296875 64.0625 
L 79.296875 72.265625 
L 64.0625 72.265625 
L 64.0625 64.0625 
z
M 36.71875 64.0625 
L 36.71875 72.265625 
L 21.875 72.265625 
L 21.875 64.0625 
z
" id="SimHei-7f6e"/>
     <path d="M 81.25 30.859375 
Q 77.34375 25 70.890625 17.765625 
Q 64.453125 10.546875 57.421875 5.859375 
Q 61.328125 3.515625 71.875 1.359375 
Q 82.421875 -0.78125 93.75 -1.171875 
Q 89.0625 -6.25 88.28125 -9.765625 
Q 75.78125 -8.203125 65.8125 -4.875 
Q 55.859375 -1.5625 50.390625 1.953125 
Q 43.75 -1.953125 33.59375 -5.078125 
Q 23.4375 -8.203125 10.9375 -10.546875 
Q 9.375 -6.640625 6.25 -2.734375 
Q 14.84375 -2.34375 26.359375 0.1875 
Q 37.890625 2.734375 44.140625 5.859375 
Q 35.546875 12.109375 26.171875 24.609375 
Q 21.09375 24.609375 15.625 24.21875 
L 15.625 31.25 
Q 22.65625 30.859375 32.421875 30.859375 
z
M 50.390625 82.421875 
Q 53.125 76.5625 55.46875 69.921875 
L 73.046875 69.921875 
Q 84.375 69.921875 93.359375 70.3125 
L 93.359375 62.890625 
Q 83.984375 63.28125 73.828125 63.28125 
L 64.453125 63.28125 
L 64.453125 46.09375 
Q 64.453125 39.84375 64.84375 33.59375 
L 56.25 33.59375 
Q 56.640625 39.84375 56.640625 46.09375 
L 56.640625 63.28125 
L 42.96875 63.28125 
L 42.96875 46.09375 
Q 42.96875 41.796875 43.359375 33.59375 
L 34.765625 33.59375 
Q 35.15625 41.796875 35.15625 46.09375 
L 35.15625 63.28125 
L 26.5625 63.28125 
Q 15.234375 63.28125 6.640625 62.890625 
L 6.640625 70.3125 
Q 14.84375 69.921875 26.5625 69.921875 
L 46.484375 69.921875 
Q 45.703125 73.046875 42.1875 80.078125 
Q 46.09375 80.46875 50.390625 82.421875 
z
M 34.375 24.609375 
Q 41.40625 15.234375 50.78125 9.375 
Q 60.15625 15.625 66.796875 24.609375 
L 34.375 24.609375 
z
M 75.78125 58.59375 
Q 83.984375 51.171875 92.96875 41.796875 
Q 89.84375 39.453125 85.9375 35.9375 
Q 79.296875 43.75 69.53125 53.125 
Q 73.046875 55.859375 75.78125 58.59375 
z
M 28.515625 54.6875 
Q 26.5625 52.734375 22.265625 47.265625 
Q 17.96875 41.796875 12.890625 35.9375 
Q 8.984375 38.671875 5.859375 40.625 
Q 15.234375 49.21875 20.3125 59.765625 
Q 23.828125 57.03125 28.515625 54.6875 
z
" id="SimHei-53d8"/>
     <path d="M 61.328125 78.515625 
Q 60.9375 76.5625 60.9375 68.75 
L 60.9375 41.015625 
Q 68.359375 47.265625 74.609375 53.90625 
Q 80.859375 60.546875 84.375 67.1875 
Q 87.5 64.0625 92.1875 61.328125 
Q 89.0625 57.8125 81.640625 50.1875 
Q 74.21875 42.578125 70.109375 39.25 
Q 66.015625 35.9375 60.9375 31.640625 
L 60.9375 7.03125 
Q 60.9375 0.78125 66.015625 0.78125 
L 81.25 0.78125 
Q 84.375 1.171875 85.34375 4.09375 
Q 86.328125 7.03125 87.109375 13.28125 
Q 90.625 10.15625 96.09375 9.375 
Q 93.75 -1.5625 91.015625 -3.90625 
Q 88.28125 -6.25 83.59375 -6.25 
L 61.71875 -6.25 
Q 53.515625 -6.25 53.125 3.125 
L 53.125 26.171875 
Q 50.390625 23.828125 46.28125 21.09375 
Q 42.1875 18.359375 37.109375 15.234375 
Q 34.765625 19.140625 31.640625 21.875 
Q 36.71875 24.21875 42.765625 27.921875 
Q 48.828125 31.640625 53.125 35.15625 
L 53.125 70.3125 
Q 53.125 75 52.734375 78.515625 
L 61.328125 78.515625 
z
M 37.5 75.78125 
Q 33.984375 71.09375 32.421875 67.765625 
Q 30.859375 64.453125 28.515625 58.984375 
L 28.515625 10.546875 
Q 28.515625 -1.171875 28.90625 -8.59375 
L 20.703125 -8.59375 
Q 21.09375 -1.953125 21.09375 10.15625 
L 21.09375 47.65625 
Q 17.578125 42.578125 15.03125 39.453125 
Q 12.5 36.328125 10.546875 33.984375 
Q 7.8125 37.109375 4.296875 39.453125 
Q 9.765625 44.53125 13.671875 50.1875 
Q 17.578125 55.859375 20.5 61.125 
Q 23.4375 66.40625 25.390625 71.484375 
Q 27.34375 76.5625 28.515625 79.6875 
Q 30.859375 77.734375 37.5 75.78125 
z
" id="SimHei-5316"/>
    </defs>
    <g transform="translate(188.16 35.472)scale(0.12 -0.12)">
     <use xlink:href="#SimHei-8ddf"/>
     <use x="100" xlink:href="#SimHei-8e2a"/>
     <use x="200" xlink:href="#SimHei-76ee"/>
     <use x="300" xlink:href="#SimHei-6807"/>
     <use x="400" xlink:href="#SimHei-4f4d"/>
     <use x="500" xlink:href="#SimHei-7f6e"/>
     <use x="600" xlink:href="#SimHei-53d8"/>
     <use x="700" xlink:href="#SimHei-5316"/>
    </g>
   </g>
   <g id="legend_1">
    <g id="patch_7">
     <path d="M 68.1 93.222 
L 153.6 93.222 
Q 156.6 93.222 156.6 90.222 
L 156.6 51.972 
Q 156.6 48.972 153.6 48.972 
L 68.1 48.972 
Q 65.1 48.972 65.1 51.972 
L 65.1 90.222 
Q 65.1 93.222 68.1 93.222 
z
" style="fill:#ffffff;opacity:0.8;stroke:#cccccc;stroke-linejoin:miter;"/>
    </g>
    <g id="line2d_31">
     <path d="M 71.1 60.222 
L 101.1 60.222 
" style="fill:none;stroke:#ff0000;stroke-linecap:square;stroke-width:1.5;"/>
    </g>
    <g id="line2d_32">
     <g>
      <use style="fill:#ff0000;stroke:#ff0000;stroke-linejoin:bevel;" x="86.1" xlink:href="#m2d925df0f1" y="60.222"/>
     </g>
    </g>
    <g id="text_18">
     <!-- GT -->
     <defs>
      <path d="M 44.53125 1.171875 
L 37.890625 1.171875 
L 36.71875 6.640625 
Q 35.15625 4.296875 31.828125 2.734375 
Q 28.515625 1.171875 24.609375 1.171875 
Q 16.40625 1.171875 9.953125 8.78125 
Q 3.515625 16.40625 3.515625 33.203125 
Q 3.515625 51.5625 9.375 60.546875 
Q 15.234375 69.53125 25.390625 69.53125 
Q 34.375 69.53125 39.453125 62.890625 
Q 44.53125 56.25 44.53125 45.703125 
L 35.9375 45.703125 
Q 35.9375 53.90625 33.203125 58 
Q 30.46875 62.109375 25.390625 62.109375 
Q 19.140625 62.109375 16.015625 55.65625 
Q 12.890625 49.21875 12.890625 33.984375 
Q 12.890625 19.53125 16.796875 14.0625 
Q 20.703125 8.59375 25.78125 8.59375 
Q 30.859375 8.59375 33.78125 12.296875 
Q 36.71875 16.015625 36.71875 23.828125 
L 36.71875 28.125 
L 24.609375 28.125 
L 24.609375 35.546875 
L 44.53125 35.546875 
z
" id="SimHei-47"/>
      <path d="M 44.53125 61.328125 
L 28.90625 61.328125 
L 28.90625 1.953125 
L 19.921875 1.953125 
L 19.921875 61.328125 
L 4.296875 61.328125 
L 4.296875 68.75 
L 44.53125 68.75 
z
" id="SimHei-54"/>
     </defs>
     <g transform="translate(113.1 65.472)scale(0.15 -0.15)">
      <use xlink:href="#SimHei-47"/>
      <use x="50" xlink:href="#SimHei-54"/>
     </g>
    </g>
    <g id="line2d_33">
     <path d="M 71.1 80.097 
L 101.1 80.097 
" style="fill:none;stroke:#0000ff;stroke-dasharray:9.6,2.4,1.5,2.4;stroke-dashoffset:0;stroke-width:1.5;"/>
    </g>
    <g id="line2d_34"/>
    <g id="text_19">
     <!-- Track -->
     <defs>
      <path d="M 39.0625 37.890625 
Q 31.640625 39.0625 26.5625 35.734375 
Q 21.484375 32.421875 17.96875 24.21875 
L 17.96875 1.953125 
L 10.15625 1.953125 
L 10.15625 45.703125 
L 17.96875 45.703125 
L 17.96875 34.375 
Q 21.484375 40.625 26.75 43.546875 
Q 32.03125 46.484375 39.0625 46.484375 
z
" id="SimHei-72"/>
      <path d="M 44.921875 1.953125 
L 35.546875 1.953125 
Q 34.765625 2.734375 34.375 4.09375 
Q 33.984375 5.46875 33.984375 7.421875 
Q 31.25 4.296875 27.34375 2.734375 
Q 23.4375 1.171875 19.140625 1.171875 
Q 12.890625 1.171875 8.59375 4.296875 
Q 4.296875 7.421875 4.296875 13.28125 
Q 4.296875 19.140625 8.203125 22.65625 
Q 12.109375 26.171875 20.3125 27.34375 
Q 25.78125 28.125 29.875 29.296875 
Q 33.984375 30.46875 33.984375 32.421875 
Q 33.984375 34.765625 32.21875 37.109375 
Q 30.46875 39.453125 24.609375 39.453125 
Q 19.921875 39.453125 17.765625 37.6875 
Q 15.625 35.9375 14.84375 32.8125 
L 6.25 32.8125 
Q 7.03125 39.0625 11.90625 42.765625 
Q 16.796875 46.484375 24.609375 46.484375 
Q 33.203125 46.484375 37.5 42.578125 
Q 41.796875 38.671875 41.796875 31.640625 
L 41.796875 10.15625 
Q 41.796875 7.8125 42.578125 5.859375 
Q 43.359375 3.90625 44.921875 1.953125 
z
M 33.984375 16.40625 
L 33.984375 24.21875 
Q 31.640625 23.4375 29.484375 22.84375 
Q 27.34375 22.265625 22.265625 21.484375 
Q 16.40625 20.703125 14.640625 18.75 
Q 12.890625 16.796875 12.890625 14.0625 
Q 12.890625 11.71875 14.640625 9.953125 
Q 16.40625 8.203125 19.921875 8.203125 
Q 23.4375 8.203125 27.53125 10.15625 
Q 31.640625 12.109375 33.984375 16.40625 
z
" id="SimHei-61"/>
      <path d="M 44.53125 19.53125 
Q 44.53125 11.328125 38.859375 6.25 
Q 33.203125 1.171875 24.609375 1.171875 
Q 16.015625 1.171875 9.765625 7.21875 
Q 3.515625 13.28125 3.515625 23.828125 
Q 3.515625 34.375 9.765625 40.421875 
Q 16.015625 46.484375 24.609375 46.484375 
Q 33.203125 46.484375 38.28125 41.984375 
Q 43.359375 37.5 43.359375 31.25 
L 34.765625 31.25 
Q 34.375 35.9375 31.4375 37.6875 
Q 28.515625 39.453125 24.609375 39.453125 
Q 19.921875 39.453125 16.015625 35.734375 
Q 12.109375 32.03125 12.109375 23.828125 
Q 12.109375 15.625 16.015625 11.90625 
Q 19.921875 8.203125 24.609375 8.203125 
Q 29.6875 8.203125 32.8125 10.9375 
Q 35.9375 13.671875 35.9375 19.53125 
z
" id="SimHei-63"/>
      <path d="M 45.703125 1.953125 
L 36.71875 1.953125 
L 22.65625 25.78125 
L 13.671875 17.1875 
L 13.671875 1.953125 
L 5.859375 1.953125 
L 5.859375 68.75 
L 13.671875 68.75 
L 13.671875 26.171875 
L 33.203125 45.703125 
L 42.96875 45.703125 
L 27.734375 30.859375 
z
" id="SimHei-6b"/>
     </defs>
     <g transform="translate(113.1 85.347)scale(0.15 -0.15)">
      <use xlink:href="#SimHei-54"/>
      <use x="50" xlink:href="#SimHei-72"/>
      <use x="100" xlink:href="#SimHei-61"/>
      <use x="150" xlink:href="#SimHei-63"/>
      <use x="200" xlink:href="#SimHei-6b"/>
     </g>
    </g>
   </g>
  </g>
 </g>
 <defs>
  <clipPath id="pb2c55a340c">
   <rect height="266.112" width="357.12" x="57.6" y="41.472"/>
  </clipPath>
 </defs>
</svg>
