<?xml version="1.0" encoding="utf-8" standalone="no"?>
<!DOCTYPE svg PUBLIC "-//W3C//DTD SVG 1.1//EN"
  "http://www.w3.org/Graphics/SVG/1.1/DTD/svg11.dtd">
<!-- Created with matplotlib (http://matplotlib.org/) -->
<svg height="345.6pt" version="1.1" viewBox="0 0 460.8 345.6" width="460.8pt" xmlns="http://www.w3.org/2000/svg" xmlns:xlink="http://www.w3.org/1999/xlink">
 <defs>
  <style type="text/css">
*{stroke-linecap:butt;stroke-linejoin:round;}
  </style>
 </defs>
 <g id="figure_1">
  <g id="patch_1">
   <path d="M 0 345.6 
L 460.8 345.6 
L 460.8 0 
L 0 0 
z
" style="fill:#ffffff;"/>
  </g>
  <g id="axes_1">
   <g id="patch_2">
    <path d="M 57.6 307.584 
L 414.72 307.584 
L 414.72 41.472 
L 57.6 41.472 
z
" style="fill:#ffffff;"/>
   </g>
   <g id="matplotlib.axis_1">
    <g id="xtick_1">
     <g id="line2d_1">
      <path clip-path="url(#p1f4f0e84ec)" d="M 73.832727 307.584 
L 73.832727 41.472 
" style="fill:none;stroke:#b0b0b0;stroke-dasharray:5.12,1.28,0.8,1.28;stroke-dashoffset:0;stroke-width:0.8;"/>
     </g>
     <g id="line2d_2">
      <defs>
       <path d="M 0 0 
L 0 3.5 
" id="m449498140f" style="stroke:#000000;stroke-width:0.8;"/>
      </defs>
      <g>
       <use style="stroke:#000000;stroke-width:0.8;" x="73.832727" xlink:href="#m449498140f" y="307.584"/>
      </g>
     </g>
     <g id="text_1">
      <!-- 0 -->
      <defs>
       <path d="M 3.125 29.296875 
Q 3.90625 50 6.4375 56.046875 
Q 8.984375 62.109375 13.671875 66.015625 
Q 18.359375 69.921875 25.1875 69.921875 
Q 32.03125 69.921875 37.109375 64.25 
Q 42.1875 58.59375 43.75 50 
Q 45.3125 41.40625 44.71875 30.265625 
Q 44.140625 19.140625 40.8125 12.109375 
Q 37.5 5.078125 30.859375 2.34375 
Q 24.21875 -0.390625 17.578125 2.921875 
Q 10.9375 6.25 8.203125 11.71875 
Q 5.46875 17.1875 4.296875 23.234375 
Q 3.125 29.296875 3.90625 50 
z
M 12.890625 52.734375 
Q 10.546875 31.25 12.5 22.84375 
Q 14.453125 14.453125 18.9375 10.9375 
Q 23.4375 7.421875 28.125 9.5625 
Q 32.8125 11.71875 34.953125 18.15625 
Q 37.109375 24.609375 37.109375 32.21875 
Q 37.109375 39.84375 36.515625 46.09375 
Q 35.9375 52.34375 33 57.421875 
Q 30.078125 62.5 25.1875 62.6875 
Q 20.3125 62.890625 16.59375 57.8125 
Q 12.890625 52.734375 10.546875 31.25 
z
" id="SimHei-30"/>
      </defs>
      <g transform="translate(71.332727 321.459)scale(0.1 -0.1)">
       <use xlink:href="#SimHei-30"/>
      </g>
     </g>
    </g>
    <g id="xtick_2">
     <g id="line2d_3">
      <path clip-path="url(#p1f4f0e84ec)" d="M 134.402605 307.584 
L 134.402605 41.472 
" style="fill:none;stroke:#b0b0b0;stroke-dasharray:5.12,1.28,0.8,1.28;stroke-dashoffset:0;stroke-width:0.8;"/>
     </g>
     <g id="line2d_4">
      <g>
       <use style="stroke:#000000;stroke-width:0.8;" x="134.402605" xlink:href="#m449498140f" y="307.584"/>
      </g>
     </g>
     <g id="text_2">
      <!-- 50 -->
      <defs>
       <path d="M 8.59375 20.703125 
Q 11.328125 10.15625 17.96875 8.984375 
Q 24.609375 7.8125 28.703125 10.34375 
Q 32.8125 12.890625 34.5625 16.984375 
Q 36.328125 21.09375 36.125 26.171875 
Q 35.9375 31.25 33.390625 34.765625 
Q 30.859375 38.28125 26.953125 39.453125 
Q 23.046875 40.625 18.15625 39.453125 
Q 13.28125 38.28125 10.15625 33.984375 
L 3.515625 34.765625 
Q 4.296875 37.109375 10.9375 68.359375 
L 41.796875 68.359375 
L 41.796875 61.328125 
L 16.796875 61.328125 
Q 14.84375 50.78125 12.890625 44.53125 
Q 18.75 47.265625 23.828125 47.0625 
Q 28.90625 46.875 33.59375 44.71875 
Q 38.28125 42.578125 40.421875 38.859375 
Q 42.578125 35.15625 43.546875 31.4375 
Q 44.53125 27.734375 44.328125 23.4375 
Q 44.140625 19.140625 42.578125 14.640625 
Q 41.015625 10.15625 37.890625 7.21875 
Q 34.765625 4.296875 30.265625 2.53125 
Q 25.78125 0.78125 19.921875 1.171875 
Q 14.0625 1.5625 8.78125 5.46875 
Q 3.515625 9.375 1.5625 18.75 
z
" id="SimHei-35"/>
      </defs>
      <g transform="translate(129.402605 321.459)scale(0.1 -0.1)">
       <use xlink:href="#SimHei-35"/>
       <use x="50" xlink:href="#SimHei-30"/>
      </g>
     </g>
    </g>
    <g id="xtick_3">
     <g id="line2d_5">
      <path clip-path="url(#p1f4f0e84ec)" d="M 194.972483 307.584 
L 194.972483 41.472 
" style="fill:none;stroke:#b0b0b0;stroke-dasharray:5.12,1.28,0.8,1.28;stroke-dashoffset:0;stroke-width:0.8;"/>
     </g>
     <g id="line2d_6">
      <g>
       <use style="stroke:#000000;stroke-width:0.8;" x="194.972483" xlink:href="#m449498140f" y="307.584"/>
      </g>
     </g>
     <g id="text_3">
      <!-- 100 -->
      <defs>
       <path d="M 21.875 56.25 
Q 16.796875 51.171875 8.984375 46.484375 
L 8.984375 53.90625 
Q 18.75 60.546875 25 69.53125 
L 29.6875 69.53125 
L 29.6875 2.34375 
L 21.875 2.34375 
z
" id="SimHei-31"/>
      </defs>
      <g transform="translate(187.472483 321.459)scale(0.1 -0.1)">
       <use xlink:href="#SimHei-31"/>
       <use x="50" xlink:href="#SimHei-30"/>
       <use x="100" xlink:href="#SimHei-30"/>
      </g>
     </g>
    </g>
    <g id="xtick_4">
     <g id="line2d_7">
      <path clip-path="url(#p1f4f0e84ec)" d="M 255.542361 307.584 
L 255.542361 41.472 
" style="fill:none;stroke:#b0b0b0;stroke-dasharray:5.12,1.28,0.8,1.28;stroke-dashoffset:0;stroke-width:0.8;"/>
     </g>
     <g id="line2d_8">
      <g>
       <use style="stroke:#000000;stroke-width:0.8;" x="255.542361" xlink:href="#m449498140f" y="307.584"/>
      </g>
     </g>
     <g id="text_4">
      <!-- 150 -->
      <g transform="translate(248.042361 321.459)scale(0.1 -0.1)">
       <use xlink:href="#SimHei-31"/>
       <use x="50" xlink:href="#SimHei-35"/>
       <use x="100" xlink:href="#SimHei-30"/>
      </g>
     </g>
    </g>
    <g id="xtick_5">
     <g id="line2d_9">
      <path clip-path="url(#p1f4f0e84ec)" d="M 316.112239 307.584 
L 316.112239 41.472 
" style="fill:none;stroke:#b0b0b0;stroke-dasharray:5.12,1.28,0.8,1.28;stroke-dashoffset:0;stroke-width:0.8;"/>
     </g>
     <g id="line2d_10">
      <g>
       <use style="stroke:#000000;stroke-width:0.8;" x="316.112239" xlink:href="#m449498140f" y="307.584"/>
      </g>
     </g>
     <g id="text_5">
      <!-- 200 -->
      <defs>
       <path d="M 4.6875 3.90625 
Q 5.078125 9.765625 10.15625 14.453125 
Q 15.234375 19.140625 23.046875 29.09375 
Q 30.859375 39.0625 33.203125 44.53125 
Q 35.546875 50 34.953125 53.90625 
Q 34.375 57.8125 31.25 60.34375 
Q 28.125 62.890625 24.015625 62.5 
Q 19.921875 62.109375 16.203125 59.375 
Q 12.5 56.640625 10.546875 51.171875 
L 3.125 52.34375 
Q 6.25 61.328125 11.125 65.421875 
Q 16.015625 69.53125 22.65625 69.921875 
Q 26.5625 70.3125 29.6875 69.71875 
Q 32.8125 69.140625 36.125 66.984375 
Q 39.453125 64.84375 41.59375 60.546875 
Q 43.75 56.25 43.15625 50.1875 
Q 42.578125 44.140625 37.109375 35.734375 
Q 31.640625 27.34375 16.015625 9.375 
L 44.140625 9.375 
L 44.140625 2.34375 
L 4.6875 2.34375 
z
" id="SimHei-32"/>
      </defs>
      <g transform="translate(308.612239 321.459)scale(0.1 -0.1)">
       <use xlink:href="#SimHei-32"/>
       <use x="50" xlink:href="#SimHei-30"/>
       <use x="100" xlink:href="#SimHei-30"/>
      </g>
     </g>
    </g>
    <g id="xtick_6">
     <g id="line2d_11">
      <path clip-path="url(#p1f4f0e84ec)" d="M 376.682117 307.584 
L 376.682117 41.472 
" style="fill:none;stroke:#b0b0b0;stroke-dasharray:5.12,1.28,0.8,1.28;stroke-dashoffset:0;stroke-width:0.8;"/>
     </g>
     <g id="line2d_12">
      <g>
       <use style="stroke:#000000;stroke-width:0.8;" x="376.682117" xlink:href="#m449498140f" y="307.584"/>
      </g>
     </g>
     <g id="text_6">
      <!-- 250 -->
      <g transform="translate(369.182117 321.459)scale(0.1 -0.1)">
       <use xlink:href="#SimHei-32"/>
       <use x="50" xlink:href="#SimHei-35"/>
       <use x="100" xlink:href="#SimHei-30"/>
      </g>
     </g>
    </g>
    <g id="text_7">
     <!-- Frames -->
     <defs>
      <path d="M 9.8125 72.90625 
L 51.703125 72.90625 
L 51.703125 64.59375 
L 19.671875 64.59375 
L 19.671875 43.109375 
L 48.578125 43.109375 
L 48.578125 34.8125 
L 19.671875 34.8125 
L 19.671875 0 
L 9.8125 0 
z
" id="DejaVuSans-46"/>
      <path d="M 41.109375 46.296875 
Q 39.59375 47.171875 37.8125 47.578125 
Q 36.03125 48 33.890625 48 
Q 26.265625 48 22.1875 43.046875 
Q 18.109375 38.09375 18.109375 28.8125 
L 18.109375 0 
L 9.078125 0 
L 9.078125 54.6875 
L 18.109375 54.6875 
L 18.109375 46.1875 
Q 20.953125 51.171875 25.484375 53.578125 
Q 30.03125 56 36.53125 56 
Q 37.453125 56 38.578125 55.875 
Q 39.703125 55.765625 41.0625 55.515625 
z
" id="DejaVuSans-72"/>
      <path d="M 34.28125 27.484375 
Q 23.390625 27.484375 19.1875 25 
Q 14.984375 22.515625 14.984375 16.5 
Q 14.984375 11.71875 18.140625 8.90625 
Q 21.296875 6.109375 26.703125 6.109375 
Q 34.1875 6.109375 38.703125 11.40625 
Q 43.21875 16.703125 43.21875 25.484375 
L 43.21875 27.484375 
z
M 52.203125 31.203125 
L 52.203125 0 
L 43.21875 0 
L 43.21875 8.296875 
Q 40.140625 3.328125 35.546875 0.953125 
Q 30.953125 -1.421875 24.3125 -1.421875 
Q 15.921875 -1.421875 10.953125 3.296875 
Q 6 8.015625 6 15.921875 
Q 6 25.140625 12.171875 29.828125 
Q 18.359375 34.515625 30.609375 34.515625 
L 43.21875 34.515625 
L 43.21875 35.40625 
Q 43.21875 41.609375 39.140625 45 
Q 35.0625 48.390625 27.6875 48.390625 
Q 23 48.390625 18.546875 47.265625 
Q 14.109375 46.140625 10.015625 43.890625 
L 10.015625 52.203125 
Q 14.9375 54.109375 19.578125 55.046875 
Q 24.21875 56 28.609375 56 
Q 40.484375 56 46.34375 49.84375 
Q 52.203125 43.703125 52.203125 31.203125 
z
" id="DejaVuSans-61"/>
      <path d="M 52 44.1875 
Q 55.375 50.25 60.0625 53.125 
Q 64.75 56 71.09375 56 
Q 79.640625 56 84.28125 50.015625 
Q 88.921875 44.046875 88.921875 33.015625 
L 88.921875 0 
L 79.890625 0 
L 79.890625 32.71875 
Q 79.890625 40.578125 77.09375 44.375 
Q 74.3125 48.1875 68.609375 48.1875 
Q 61.625 48.1875 57.5625 43.546875 
Q 53.515625 38.921875 53.515625 30.90625 
L 53.515625 0 
L 44.484375 0 
L 44.484375 32.71875 
Q 44.484375 40.625 41.703125 44.40625 
Q 38.921875 48.1875 33.109375 48.1875 
Q 26.21875 48.1875 22.15625 43.53125 
Q 18.109375 38.875 18.109375 30.90625 
L 18.109375 0 
L 9.078125 0 
L 9.078125 54.6875 
L 18.109375 54.6875 
L 18.109375 46.1875 
Q 21.1875 51.21875 25.484375 53.609375 
Q 29.78125 56 35.6875 56 
Q 41.65625 56 45.828125 52.96875 
Q 50 49.953125 52 44.1875 
z
" id="DejaVuSans-6d"/>
      <path d="M 56.203125 29.59375 
L 56.203125 25.203125 
L 14.890625 25.203125 
Q 15.484375 15.921875 20.484375 11.0625 
Q 25.484375 6.203125 34.421875 6.203125 
Q 39.59375 6.203125 44.453125 7.46875 
Q 49.3125 8.734375 54.109375 11.28125 
L 54.109375 2.78125 
Q 49.265625 0.734375 44.1875 -0.34375 
Q 39.109375 -1.421875 33.890625 -1.421875 
Q 20.796875 -1.421875 13.15625 6.1875 
Q 5.515625 13.8125 5.515625 26.8125 
Q 5.515625 40.234375 12.765625 48.109375 
Q 20.015625 56 32.328125 56 
Q 43.359375 56 49.78125 48.890625 
Q 56.203125 41.796875 56.203125 29.59375 
z
M 47.21875 32.234375 
Q 47.125 39.59375 43.09375 43.984375 
Q 39.0625 48.390625 32.421875 48.390625 
Q 24.90625 48.390625 20.390625 44.140625 
Q 15.875 39.890625 15.1875 32.171875 
z
" id="DejaVuSans-65"/>
      <path d="M 44.28125 53.078125 
L 44.28125 44.578125 
Q 40.484375 46.53125 36.375 47.5 
Q 32.28125 48.484375 27.875 48.484375 
Q 21.1875 48.484375 17.84375 46.4375 
Q 14.5 44.390625 14.5 40.28125 
Q 14.5 37.15625 16.890625 35.375 
Q 19.28125 33.59375 26.515625 31.984375 
L 29.59375 31.296875 
Q 39.15625 29.25 43.1875 25.515625 
Q 47.21875 21.78125 47.21875 15.09375 
Q 47.21875 7.46875 41.1875 3.015625 
Q 35.15625 -1.421875 24.609375 -1.421875 
Q 20.21875 -1.421875 15.453125 -0.5625 
Q 10.6875 0.296875 5.421875 2 
L 5.421875 11.28125 
Q 10.40625 8.6875 15.234375 7.390625 
Q 20.0625 6.109375 24.8125 6.109375 
Q 31.15625 6.109375 34.5625 8.28125 
Q 37.984375 10.453125 37.984375 14.40625 
Q 37.984375 18.0625 35.515625 20.015625 
Q 33.0625 21.96875 24.703125 23.78125 
L 21.578125 24.515625 
Q 13.234375 26.265625 9.515625 29.90625 
Q 5.8125 33.546875 5.8125 39.890625 
Q 5.8125 47.609375 11.28125 51.796875 
Q 16.75 56 26.8125 56 
Q 31.78125 56 36.171875 55.265625 
Q 40.578125 54.546875 44.28125 53.078125 
z
" id="DejaVuSans-73"/>
     </defs>
     <g transform="translate(213.910313 335.827125)scale(0.12 -0.12)">
      <use xlink:href="#DejaVuSans-46"/>
      <use x="57.410156" xlink:href="#DejaVuSans-72"/>
      <use x="98.523438" xlink:href="#DejaVuSans-61"/>
      <use x="159.802734" xlink:href="#DejaVuSans-6d"/>
      <use x="257.214844" xlink:href="#DejaVuSans-65"/>
      <use x="318.738281" xlink:href="#DejaVuSans-73"/>
     </g>
    </g>
   </g>
   <g id="matplotlib.axis_2">
    <g id="ytick_1">
     <g id="line2d_13">
      <path clip-path="url(#p1f4f0e84ec)" d="M 57.6 294.098883 
L 414.72 294.098883 
" style="fill:none;stroke:#b0b0b0;stroke-dasharray:5.12,1.28,0.8,1.28;stroke-dashoffset:0;stroke-width:0.8;"/>
     </g>
     <g id="line2d_14">
      <defs>
       <path d="M 0 0 
L -3.5 0 
" id="m06a6c1f223" style="stroke:#000000;stroke-width:0.8;"/>
      </defs>
      <g>
       <use style="stroke:#000000;stroke-width:0.8;" x="57.6" xlink:href="#m06a6c1f223" y="294.098883"/>
      </g>
     </g>
     <g id="text_8">
      <!-- 11 -->
      <g transform="translate(40.6 297.536383)scale(0.1 -0.1)">
       <use xlink:href="#SimHei-31"/>
       <use x="50" xlink:href="#SimHei-31"/>
      </g>
     </g>
    </g>
    <g id="ytick_2">
     <g id="line2d_15">
      <path clip-path="url(#p1f4f0e84ec)" d="M 57.6 258.480509 
L 414.72 258.480509 
" style="fill:none;stroke:#b0b0b0;stroke-dasharray:5.12,1.28,0.8,1.28;stroke-dashoffset:0;stroke-width:0.8;"/>
     </g>
     <g id="line2d_16">
      <g>
       <use style="stroke:#000000;stroke-width:0.8;" x="57.6" xlink:href="#m06a6c1f223" y="258.480509"/>
      </g>
     </g>
     <g id="text_9">
      <!-- 12 -->
      <g transform="translate(40.6 261.918009)scale(0.1 -0.1)">
       <use xlink:href="#SimHei-31"/>
       <use x="50" xlink:href="#SimHei-32"/>
      </g>
     </g>
    </g>
    <g id="ytick_3">
     <g id="line2d_17">
      <path clip-path="url(#p1f4f0e84ec)" d="M 57.6 222.862134 
L 414.72 222.862134 
" style="fill:none;stroke:#b0b0b0;stroke-dasharray:5.12,1.28,0.8,1.28;stroke-dashoffset:0;stroke-width:0.8;"/>
     </g>
     <g id="line2d_18">
      <g>
       <use style="stroke:#000000;stroke-width:0.8;" x="57.6" xlink:href="#m06a6c1f223" y="222.862134"/>
      </g>
     </g>
     <g id="text_10">
      <!-- 13 -->
      <defs>
       <path d="M 3.90625 19.140625 
L 10.9375 20.3125 
Q 12.5 15.234375 16.015625 11.90625 
Q 19.53125 8.59375 24.796875 8.78125 
Q 30.078125 8.984375 33.203125 13.078125 
Q 36.328125 17.1875 35.9375 22.453125 
Q 35.546875 27.734375 31.828125 30.65625 
Q 28.125 33.59375 19.921875 34.765625 
L 19.921875 39.84375 
Q 28.125 40.625 31.828125 44.140625 
Q 35.546875 47.65625 35.15625 53.3125 
Q 34.765625 58.984375 30.078125 61.515625 
Q 25.390625 64.0625 20.109375 62.109375 
Q 14.84375 60.15625 11.71875 51.171875 
L 4.6875 52.34375 
Q 7.03125 59.375 11.125 64.0625 
Q 15.234375 68.75 22.265625 69.53125 
Q 29.296875 70.3125 34.5625 67.765625 
Q 39.84375 65.234375 41.984375 59.953125 
Q 44.140625 54.6875 42.578125 48.4375 
Q 41.015625 42.1875 33.59375 37.5 
Q 39.0625 35.15625 41.984375 30.46875 
Q 44.921875 25.78125 43.9375 18.15625 
Q 42.96875 10.546875 37.109375 5.859375 
Q 31.25 1.171875 23.828125 1.359375 
Q 16.40625 1.5625 10.9375 6.046875 
Q 5.46875 10.546875 3.90625 19.140625 
z
" id="SimHei-33"/>
      </defs>
      <g transform="translate(40.6 226.299634)scale(0.1 -0.1)">
       <use xlink:href="#SimHei-31"/>
       <use x="50" xlink:href="#SimHei-33"/>
      </g>
     </g>
    </g>
    <g id="ytick_4">
     <g id="line2d_19">
      <path clip-path="url(#p1f4f0e84ec)" d="M 57.6 187.24376 
L 414.72 187.24376 
" style="fill:none;stroke:#b0b0b0;stroke-dasharray:5.12,1.28,0.8,1.28;stroke-dashoffset:0;stroke-width:0.8;"/>
     </g>
     <g id="line2d_20">
      <g>
       <use style="stroke:#000000;stroke-width:0.8;" x="57.6" xlink:href="#m06a6c1f223" y="187.24376"/>
      </g>
     </g>
     <g id="text_11">
      <!-- 14 -->
      <defs>
       <path d="M 31.25 17.1875 
L 1.171875 17.1875 
L 1.171875 23.828125 
L 32.8125 69.53125 
L 38.671875 69.53125 
L 38.671875 23.828125 
L 48.046875 23.828125 
L 48.046875 17.1875 
L 38.671875 17.1875 
L 38.671875 2.34375 
L 31.25 2.34375 
z
M 31.25 23.828125 
L 31.25 54.6875 
L 9.375 23.828125 
z
" id="SimHei-34"/>
      </defs>
      <g transform="translate(40.6 190.68126)scale(0.1 -0.1)">
       <use xlink:href="#SimHei-31"/>
       <use x="50" xlink:href="#SimHei-34"/>
      </g>
     </g>
    </g>
    <g id="ytick_5">
     <g id="line2d_21">
      <path clip-path="url(#p1f4f0e84ec)" d="M 57.6 151.625385 
L 414.72 151.625385 
" style="fill:none;stroke:#b0b0b0;stroke-dasharray:5.12,1.28,0.8,1.28;stroke-dashoffset:0;stroke-width:0.8;"/>
     </g>
     <g id="line2d_22">
      <g>
       <use style="stroke:#000000;stroke-width:0.8;" x="57.6" xlink:href="#m06a6c1f223" y="151.625385"/>
      </g>
     </g>
     <g id="text_12">
      <!-- 15 -->
      <g transform="translate(40.6 155.062885)scale(0.1 -0.1)">
       <use xlink:href="#SimHei-31"/>
       <use x="50" xlink:href="#SimHei-35"/>
      </g>
     </g>
    </g>
    <g id="ytick_6">
     <g id="line2d_23">
      <path clip-path="url(#p1f4f0e84ec)" d="M 57.6 116.007011 
L 414.72 116.007011 
" style="fill:none;stroke:#b0b0b0;stroke-dasharray:5.12,1.28,0.8,1.28;stroke-dashoffset:0;stroke-width:0.8;"/>
     </g>
     <g id="line2d_24">
      <g>
       <use style="stroke:#000000;stroke-width:0.8;" x="57.6" xlink:href="#m06a6c1f223" y="116.007011"/>
      </g>
     </g>
     <g id="text_13">
      <!-- 16 -->
      <defs>
       <path d="M 3.515625 19.53125 
Q 4.296875 30.859375 6.046875 34.765625 
Q 7.8125 38.671875 11.328125 44.53125 
L 27.34375 69.53125 
L 36.328125 69.53125 
L 19.921875 43.75 
Q 30.46875 46.484375 36.71875 42.96875 
Q 42.96875 39.453125 45.109375 34.953125 
Q 47.265625 30.46875 47.453125 25.1875 
Q 47.65625 19.921875 45.890625 14.84375 
Q 44.140625 9.765625 39.640625 5.65625 
Q 35.15625 1.5625 27.140625 1.171875 
Q 19.140625 0.78125 13.46875 4.09375 
Q 7.8125 7.421875 5.65625 13.46875 
Q 3.515625 19.53125 4.296875 30.859375 
z
M 12.5 16.015625 
Q 19.53125 8.59375 25.390625 8.203125 
Q 31.25 7.8125 35.15625 12.109375 
Q 39.0625 16.40625 39.0625 24.609375 
Q 39.0625 32.8125 34.171875 35.9375 
Q 29.296875 39.0625 23.234375 38.28125 
Q 17.1875 37.5 14.453125 32.421875 
Q 11.71875 27.34375 12.109375 21.671875 
Q 12.5 16.015625 19.53125 8.59375 
z
" id="SimHei-36"/>
      </defs>
      <g transform="translate(40.6 119.444511)scale(0.1 -0.1)">
       <use xlink:href="#SimHei-31"/>
       <use x="50" xlink:href="#SimHei-36"/>
      </g>
     </g>
    </g>
    <g id="ytick_7">
     <g id="line2d_25">
      <path clip-path="url(#p1f4f0e84ec)" d="M 57.6 80.388636 
L 414.72 80.388636 
" style="fill:none;stroke:#b0b0b0;stroke-dasharray:5.12,1.28,0.8,1.28;stroke-dashoffset:0;stroke-width:0.8;"/>
     </g>
     <g id="line2d_26">
      <g>
       <use style="stroke:#000000;stroke-width:0.8;" x="57.6" xlink:href="#m06a6c1f223" y="80.388636"/>
      </g>
     </g>
     <g id="text_14">
      <!-- 17 -->
      <defs>
       <path d="M 13.28125 2.34375 
Q 20.3125 32.03125 37.890625 61.328125 
L 4.296875 61.328125 
L 4.296875 68.359375 
L 46.09375 68.359375 
L 46.09375 61.71875 
Q 27.734375 32.03125 21.875 2.34375 
L 13.28125 2.34375 
z
" id="SimHei-37"/>
      </defs>
      <g transform="translate(40.6 83.826136)scale(0.1 -0.1)">
       <use xlink:href="#SimHei-31"/>
       <use x="50" xlink:href="#SimHei-37"/>
      </g>
     </g>
    </g>
    <g id="ytick_8">
     <g id="line2d_27">
      <path clip-path="url(#p1f4f0e84ec)" d="M 57.6 44.770261 
L 414.72 44.770261 
" style="fill:none;stroke:#b0b0b0;stroke-dasharray:5.12,1.28,0.8,1.28;stroke-dashoffset:0;stroke-width:0.8;"/>
     </g>
     <g id="line2d_28">
      <g>
       <use style="stroke:#000000;stroke-width:0.8;" x="57.6" xlink:href="#m06a6c1f223" y="44.770261"/>
      </g>
     </g>
     <g id="text_15">
      <!-- 18 -->
      <defs>
       <path d="M 2.734375 16.796875 
Q 2.734375 26.171875 5.078125 30.65625 
Q 7.421875 35.15625 12.890625 37.890625 
Q 8.203125 40.625 6.640625 43.9375 
Q 5.078125 47.265625 4.875 51.5625 
Q 4.6875 55.859375 6.046875 58.984375 
Q 7.421875 62.109375 10.15625 64.84375 
Q 12.890625 67.578125 16.203125 68.546875 
Q 19.53125 69.53125 23.4375 69.53125 
Q 27.34375 69.53125 30.46875 68.75 
Q 33.59375 67.96875 37.109375 65.421875 
Q 40.625 62.890625 42.1875 58.203125 
Q 43.75 53.515625 41.984375 47.265625 
Q 40.234375 41.015625 32.8125 37.5 
Q 39.453125 35.546875 42.1875 31.4375 
Q 44.921875 27.34375 44.921875 21.484375 
Q 44.921875 15.625 43.15625 12.109375 
Q 41.40625 8.59375 39.25 6.25 
Q 37.109375 3.90625 33.390625 2.53125 
Q 29.6875 1.171875 24.015625 1.171875 
Q 18.359375 1.171875 14.25 2.53125 
Q 10.15625 3.90625 7.421875 6.640625 
Q 4.6875 9.375 3.703125 13.078125 
Q 2.734375 16.796875 2.734375 26.171875 
z
M 10.9375 26.5625 
Q 10.546875 17.1875 12.296875 13.671875 
Q 14.0625 10.15625 18.75 9.171875 
Q 23.4375 8.203125 28.515625 9.375 
Q 33.59375 10.546875 35.546875 14.84375 
Q 37.5 19.140625 36.90625 23.4375 
Q 36.328125 27.734375 32.03125 30.65625 
Q 27.734375 33.59375 22.65625 33.203125 
Q 17.578125 32.8125 14.25 29.6875 
Q 10.9375 26.5625 10.546875 17.1875 
z
M 12.109375 56.25 
Q 12.109375 48.4375 14.84375 44.921875 
Q 17.578125 41.40625 23.4375 41.40625 
Q 29.296875 41.40625 32.21875 44.921875 
Q 35.15625 48.4375 34.953125 53.3125 
Q 34.765625 58.203125 31.4375 60.546875 
Q 28.125 62.890625 22.453125 62.5 
Q 16.796875 62.109375 14.453125 59.171875 
Q 12.109375 56.25 12.109375 48.4375 
z
" id="SimHei-38"/>
      </defs>
      <g transform="translate(40.6 48.207761)scale(0.1 -0.1)">
       <use xlink:href="#SimHei-31"/>
       <use x="50" xlink:href="#SimHei-38"/>
      </g>
     </g>
    </g>
    <g id="text_16">
     <!-- Velocity [km/h] -->
     <defs>
      <path d="M 28.609375 0 
L 0.78125 72.90625 
L 11.078125 72.90625 
L 34.1875 11.53125 
L 57.328125 72.90625 
L 67.578125 72.90625 
L 39.796875 0 
z
" id="DejaVuSans-56"/>
      <path d="M 9.421875 75.984375 
L 18.40625 75.984375 
L 18.40625 0 
L 9.421875 0 
z
" id="DejaVuSans-6c"/>
      <path d="M 30.609375 48.390625 
Q 23.390625 48.390625 19.1875 42.75 
Q 14.984375 37.109375 14.984375 27.296875 
Q 14.984375 17.484375 19.15625 11.84375 
Q 23.34375 6.203125 30.609375 6.203125 
Q 37.796875 6.203125 41.984375 11.859375 
Q 46.1875 17.53125 46.1875 27.296875 
Q 46.1875 37.015625 41.984375 42.703125 
Q 37.796875 48.390625 30.609375 48.390625 
z
M 30.609375 56 
Q 42.328125 56 49.015625 48.375 
Q 55.71875 40.765625 55.71875 27.296875 
Q 55.71875 13.875 49.015625 6.21875 
Q 42.328125 -1.421875 30.609375 -1.421875 
Q 18.84375 -1.421875 12.171875 6.21875 
Q 5.515625 13.875 5.515625 27.296875 
Q 5.515625 40.765625 12.171875 48.375 
Q 18.84375 56 30.609375 56 
z
" id="DejaVuSans-6f"/>
      <path d="M 48.78125 52.59375 
L 48.78125 44.1875 
Q 44.96875 46.296875 41.140625 47.34375 
Q 37.3125 48.390625 33.40625 48.390625 
Q 24.65625 48.390625 19.8125 42.84375 
Q 14.984375 37.3125 14.984375 27.296875 
Q 14.984375 17.28125 19.8125 11.734375 
Q 24.65625 6.203125 33.40625 6.203125 
Q 37.3125 6.203125 41.140625 7.25 
Q 44.96875 8.296875 48.78125 10.40625 
L 48.78125 2.09375 
Q 45.015625 0.34375 40.984375 -0.53125 
Q 36.96875 -1.421875 32.421875 -1.421875 
Q 20.0625 -1.421875 12.78125 6.34375 
Q 5.515625 14.109375 5.515625 27.296875 
Q 5.515625 40.671875 12.859375 48.328125 
Q 20.21875 56 33.015625 56 
Q 37.15625 56 41.109375 55.140625 
Q 45.0625 54.296875 48.78125 52.59375 
z
" id="DejaVuSans-63"/>
      <path d="M 9.421875 54.6875 
L 18.40625 54.6875 
L 18.40625 0 
L 9.421875 0 
z
M 9.421875 75.984375 
L 18.40625 75.984375 
L 18.40625 64.59375 
L 9.421875 64.59375 
z
" id="DejaVuSans-69"/>
      <path d="M 18.3125 70.21875 
L 18.3125 54.6875 
L 36.8125 54.6875 
L 36.8125 47.703125 
L 18.3125 47.703125 
L 18.3125 18.015625 
Q 18.3125 11.328125 20.140625 9.421875 
Q 21.96875 7.515625 27.59375 7.515625 
L 36.8125 7.515625 
L 36.8125 0 
L 27.59375 0 
Q 17.1875 0 13.234375 3.875 
Q 9.28125 7.765625 9.28125 18.015625 
L 9.28125 47.703125 
L 2.6875 47.703125 
L 2.6875 54.6875 
L 9.28125 54.6875 
L 9.28125 70.21875 
z
" id="DejaVuSans-74"/>
      <path d="M 32.171875 -5.078125 
Q 28.375 -14.84375 24.75 -17.8125 
Q 21.140625 -20.796875 15.09375 -20.796875 
L 7.90625 -20.796875 
L 7.90625 -13.28125 
L 13.1875 -13.28125 
Q 16.890625 -13.28125 18.9375 -11.515625 
Q 21 -9.765625 23.484375 -3.21875 
L 25.09375 0.875 
L 2.984375 54.6875 
L 12.5 54.6875 
L 29.59375 11.921875 
L 46.6875 54.6875 
L 56.203125 54.6875 
z
" id="DejaVuSans-79"/>
      <path id="DejaVuSans-20"/>
      <path d="M 8.59375 75.984375 
L 29.296875 75.984375 
L 29.296875 69 
L 17.578125 69 
L 17.578125 -6.203125 
L 29.296875 -6.203125 
L 29.296875 -13.1875 
L 8.59375 -13.1875 
z
" id="DejaVuSans-5b"/>
      <path d="M 9.078125 75.984375 
L 18.109375 75.984375 
L 18.109375 31.109375 
L 44.921875 54.6875 
L 56.390625 54.6875 
L 27.390625 29.109375 
L 57.625 0 
L 45.90625 0 
L 18.109375 26.703125 
L 18.109375 0 
L 9.078125 0 
z
" id="DejaVuSans-6b"/>
      <path d="M 25.390625 72.90625 
L 33.6875 72.90625 
L 8.296875 -9.28125 
L 0 -9.28125 
z
" id="DejaVuSans-2f"/>
      <path d="M 54.890625 33.015625 
L 54.890625 0 
L 45.90625 0 
L 45.90625 32.71875 
Q 45.90625 40.484375 42.875 44.328125 
Q 39.84375 48.1875 33.796875 48.1875 
Q 26.515625 48.1875 22.3125 43.546875 
Q 18.109375 38.921875 18.109375 30.90625 
L 18.109375 0 
L 9.078125 0 
L 9.078125 75.984375 
L 18.109375 75.984375 
L 18.109375 46.1875 
Q 21.34375 51.125 25.703125 53.5625 
Q 30.078125 56 35.796875 56 
Q 45.21875 56 50.046875 50.171875 
Q 54.890625 44.34375 54.890625 33.015625 
z
" id="DejaVuSans-68"/>
      <path d="M 30.421875 75.984375 
L 30.421875 -13.1875 
L 9.71875 -13.1875 
L 9.71875 -6.203125 
L 21.390625 -6.203125 
L 21.390625 69 
L 9.71875 69 
L 9.71875 75.984375 
z
" id="DejaVuSans-5d"/>
     </defs>
     <g transform="translate(34.104375 220.256438)rotate(-90)scale(0.12 -0.12)">
      <use xlink:href="#DejaVuSans-56"/>
      <use x="68.298828" xlink:href="#DejaVuSans-65"/>
      <use x="129.822266" xlink:href="#DejaVuSans-6c"/>
      <use x="157.605469" xlink:href="#DejaVuSans-6f"/>
      <use x="218.787109" xlink:href="#DejaVuSans-63"/>
      <use x="273.767578" xlink:href="#DejaVuSans-69"/>
      <use x="301.550781" xlink:href="#DejaVuSans-74"/>
      <use x="340.759766" xlink:href="#DejaVuSans-79"/>
      <use x="399.939453" xlink:href="#DejaVuSans-20"/>
      <use x="431.726562" xlink:href="#DejaVuSans-5b"/>
      <use x="470.740234" xlink:href="#DejaVuSans-6b"/>
      <use x="528.650391" xlink:href="#DejaVuSans-6d"/>
      <use x="626.0625" xlink:href="#DejaVuSans-2f"/>
      <use x="659.753906" xlink:href="#DejaVuSans-68"/>
      <use x="723.132812" xlink:href="#DejaVuSans-5d"/>
     </g>
    </g>
   </g>
   <g id="line2d_29">
    <path clip-path="url(#p1f4f0e84ec)" d="M 73.832727 145.132452 
L 75.044125 147.173088 
L 76.255522 148.533512 
L 77.46692 151.25436 
L 78.678318 150.574148 
L 79.889715 151.934572 
L 81.101113 156.015845 
L 82.31251 156.015845 
L 84.735305 157.376269 
L 85.946703 161.457541 
L 90.792293 166.899237 
L 92.003691 168.939873 
L 93.215088 169.620085 
L 94.426486 171.660721 
L 95.637883 171.660721 
L 96.849281 169.620085 
L 98.060678 170.980509 
L 99.272076 170.980509 
L 100.483474 170.300297 
L 101.694871 170.980509 
L 102.906269 169.620085 
L 104.117666 170.300297 
L 105.329064 169.620085 
L 106.540461 170.980509 
L 107.751859 170.980509 
L 110.174654 172.340933 
L 111.386052 172.340933 
L 112.597449 173.701357 
L 113.808847 177.782629 
L 115.020244 177.782629 
L 116.231642 181.183689 
L 117.443039 178.462841 
L 118.654437 185.264961 
L 119.865834 186.625385 
L 121.077232 186.625385 
L 122.28863 190.706657 
L 123.500027 192.747293 
L 124.711425 192.747293 
L 125.922822 194.787929 
L 127.13422 198.869201 
L 128.345617 199.549413 
L 129.557015 202.270261 
L 130.768412 202.270261 
L 131.97981 208.39217 
L 133.191208 208.39217 
L 134.402605 209.072382 
L 135.614003 214.514078 
L 136.8254 213.833866 
L 138.036798 215.19429 
L 139.248195 219.275562 
L 140.459593 219.275562 
L 141.670991 221.316198 
L 142.882388 221.99641 
L 144.093786 221.316198 
L 145.305183 227.438106 
L 146.516581 229.478742 
L 147.727978 228.79853 
L 148.939376 232.19959 
L 150.150773 234.240226 
L 151.362171 234.240226 
L 152.573569 234.920438 
L 153.784966 239.00171 
L 156.207761 239.00171 
L 157.419159 241.722558 
L 158.630556 242.40277 
L 159.841954 242.40277 
L 161.053351 245.80383 
L 162.264749 246.484042 
L 163.476147 246.484042 
L 164.687544 247.164254 
L 165.898942 250.565314 
L 167.110339 250.565314 
L 168.321737 251.245527 
L 169.533134 254.646587 
L 170.744532 253.286163 
L 171.955929 254.646587 
L 173.167327 257.367435 
L 174.378725 257.367435 
L 175.590122 256.687223 
L 176.80152 258.047647 
L 178.012917 260.768495 
L 180.435712 259.408071 
L 181.64711 260.088283 
L 182.858507 260.088283 
L 184.069905 258.047647 
L 185.281303 257.367435 
L 186.4927 258.727859 
L 187.704098 256.687223 
L 188.915495 256.687223 
L 190.126893 258.047647 
L 191.33829 257.367435 
L 192.549688 255.326799 
L 193.761085 256.687223 
L 194.972483 257.367435 
L 196.183881 256.007011 
L 197.395278 257.367435 
L 199.818073 258.727859 
L 201.029471 257.367435 
L 202.240868 259.408071 
L 203.452266 260.768495 
L 204.663664 262.809131 
L 205.875061 262.128919 
L 207.086459 265.529979 
L 208.297856 264.169555 
L 209.509254 266.890403 
L 210.720651 266.890403 
L 211.932049 271.651887 
L 213.143446 270.971675 
L 214.354844 271.651887 
L 215.566242 273.012311 
L 216.777639 273.692523 
L 217.989037 273.692523 
L 219.200434 272.332099 
L 220.411832 273.012311 
L 221.623229 272.332099 
L 222.834627 272.332099 
L 225.257422 273.692523 
L 226.46882 272.332099 
L 227.680217 271.651887 
L 228.891615 271.651887 
L 230.103012 273.012311 
L 231.31441 270.971675 
L 236.16 270.971675 
L 237.371398 270.291463 
L 238.582795 273.012311 
L 239.794193 270.971675 
L 241.00559 270.971675 
L 244.639783 268.931039 
L 245.85118 266.890403 
L 247.062578 266.210191 
L 248.273976 266.210191 
L 249.485373 263.489343 
L 250.696771 263.489343 
L 251.908168 262.128919 
L 253.119566 262.809131 
L 254.330963 259.408071 
L 255.542361 259.408071 
L 256.753758 258.047647 
L 257.965156 258.047647 
L 259.176554 256.687223 
L 261.599349 255.326799 
L 262.810746 251.925739 
L 264.022144 251.245527 
L 265.233541 251.245527 
L 266.444939 249.20489 
L 267.656336 246.484042 
L 268.867734 245.80383 
L 270.079132 245.80383 
L 273.713324 243.763194 
L 274.924722 242.40277 
L 276.136119 241.722558 
L 277.347517 243.763194 
L 278.558915 241.722558 
L 279.770312 241.042346 
L 280.98171 243.082982 
L 282.193107 243.082982 
L 283.404505 242.40277 
L 284.615902 242.40277 
L 285.8273 245.123618 
L 287.038697 244.443406 
L 288.250095 244.443406 
L 290.67289 245.80383 
L 291.884288 245.80383 
L 293.095685 248.524678 
L 294.307083 245.123618 
L 295.51848 245.123618 
L 296.729878 244.443406 
L 299.152673 241.722558 
L 300.364071 242.40277 
L 301.575468 240.362134 
L 302.786866 237.641286 
L 303.998263 239.00171 
L 305.209661 236.961074 
L 306.421058 236.961074 
L 307.632456 236.280862 
L 308.843853 236.280862 
L 310.055251 233.560014 
L 311.266649 234.240226 
L 313.689444 227.438106 
L 314.900841 228.79853 
L 316.112239 228.118318 
L 317.323636 223.356834 
L 318.535034 224.037046 
L 319.746431 222.676622 
L 320.957829 220.635986 
L 322.169227 217.915138 
L 323.380624 217.915138 
L 324.592022 214.514078 
L 327.014817 210.432806 
L 328.226214 209.072382 
L 329.437612 209.072382 
L 330.649009 202.950473 
L 331.860407 200.909837 
L 333.071805 201.590049 
L 334.283202 198.869201 
L 335.4946 195.468141 
L 336.705997 195.468141 
L 337.917395 193.427505 
L 339.128792 193.427505 
L 340.34019 189.346233 
L 341.551588 186.625385 
L 342.762985 187.305597 
L 343.974383 184.584749 
L 345.18578 180.503477 
L 346.397178 180.503477 
L 347.608575 177.102417 
L 348.819973 175.061781 
L 350.03137 172.340933 
L 351.242768 171.660721 
L 352.454166 171.660721 
L 353.665563 166.219025 
L 354.876961 167.579449 
L 356.088358 165.538813 
L 358.511153 158.736693 
L 359.722551 159.416905 
L 360.933948 159.416905 
L 362.145346 153.975208 
L 363.356744 153.294996 
L 364.568141 151.934572 
L 365.779539 153.294996 
L 366.990936 147.173088 
L 368.202334 147.173088 
L 369.413731 145.132452 
L 370.625129 143.772028 
L 371.836526 139.010544 
L 373.047924 139.010544 
L 374.259322 141.05118 
L 375.470719 134.24906 
L 376.682117 134.929272 
L 377.893514 132.888636 
L 379.104912 132.208424 
L 382.739104 128.127152 
L 383.950502 126.086516 
L 385.1619 124.726092 
L 386.373297 122.685456 
L 387.584695 119.964608 
L 388.796092 119.964608 
L 390.00749 117.923972 
L 391.218887 117.923972 
L 392.430285 112.482276 
L 393.641682 113.8427 
L 394.85308 110.44164 
L 396.064478 110.44164 
L 397.275875 107.720792 
L 398.487273 107.720792 
L 398.487273 107.720792 
" style="fill:none;stroke:#ff0000;stroke-linecap:square;stroke-width:1.5;"/>
   </g>
   <g id="line2d_30">
    <path clip-path="url(#p1f4f0e84ec)" d="M 73.832727 138.054784 
L 75.044125 146.140155 
L 76.255522 165.374078 
L 77.46692 168.152311 
L 78.678318 157.787364 
L 79.889715 162.097187 
L 81.101113 153.477541 
L 82.31251 159.247717 
L 83.523908 150.663689 
L 84.735305 156.540721 
L 85.946703 148.954007 
L 87.1581 155.650261 
L 88.369498 173.566304 
L 89.580896 175.454078 
L 90.792293 164.198671 
L 92.003691 167.653654 
L 93.215088 158.214784 
L 94.426486 163.236975 
L 95.637883 154.79542 
L 96.849281 160.672452 
L 98.060678 152.978883 
L 99.272076 159.497046 
L 100.483474 177.199378 
L 101.694871 178.802205 
L 102.906269 167.618035 
L 104.117666 171.073018 
L 105.329064 162.310898 
L 106.540461 167.796127 
L 107.751859 159.960085 
L 108.963256 166.228919 
L 110.174654 159.85323 
L 111.386052 167.29747 
L 112.597449 185.498459 
L 113.808847 188.169837 
L 115.020244 178.730968 
L 116.231642 183.325739 
L 117.443039 175.525314 
L 118.654437 181.473583 
L 119.865834 175.667788 
L 121.077232 183.147647 
L 122.28863 177.698035 
L 123.500027 185.462841 
L 124.711425 203.485739 
L 125.922822 207.083194 
L 127.13422 197.96489 
L 128.345617 180.120085 
L 129.557015 177.982982 
L 130.768412 166.513866 
L 131.97981 169.719519 
L 133.191208 162.346516 
L 134.402605 168.935915 
L 135.614003 186.424537 
L 136.8254 190.342558 
L 138.036798 183.361357 
L 139.248195 189.737046 
L 140.459593 185.03542 
L 141.670991 193.227647 
L 142.882388 189.843901 
L 144.093786 198.962205 
L 145.305183 196.183972 
L 146.516581 205.622841 
L 147.727978 224.50058 
L 148.939376 229.772099 
L 150.150773 223.538883 
L 151.362171 229.52277 
L 152.573569 223.895067 
L 153.784966 230.341993 
L 154.996364 225.319802 
L 156.207761 232.265385 
L 157.419159 228.382982 
L 158.630556 236.183406 
L 159.841954 253.066516 
L 161.053351 255.702276 
L 162.264749 247.260721 
L 164.687544 254.420014 
L 165.898942 257.376339 
L 167.110339 249.326587 
L 168.321737 253.280226 
L 169.533134 246.370261 
L 170.744532 251.321216 
L 171.955929 265.532947 
L 173.167327 265.354855 
L 174.378725 255.025527 
L 175.590122 257.055774 
L 176.80152 248.649837 
L 178.012917 252.354148 
L 179.224315 244.482488 
L 180.435712 248.685456 
L 181.64711 242.523477 
L 182.858507 248.115562 
L 184.069905 242.23853 
L 185.281303 248.079943 
L 186.4927 242.345385 
L 187.704098 248.329272 
L 188.915495 242.737187 
L 190.126893 248.827929 
L 191.33829 243.413936 
L 192.549688 249.575915 
L 193.761085 245.123618 
L 194.972483 252.069201 
L 196.183881 267.848141 
L 197.395278 269.593442 
L 198.606676 261.116269 
L 199.818073 264.428777 
L 201.029471 257.233866 
L 202.240868 261.721781 
L 203.452266 255.38171 
L 204.663664 251.107505 
L 205.875061 247.581286 
L 207.086459 255.203618 
L 208.297856 271.516834 
L 209.509254 274.971816 
L 210.720651 267.313866 
L 211.932049 271.16065 
L 213.143446 264.571251 
L 215.566242 254.95429 
L 216.777639 261.543689 
L 217.989037 257.198247 
L 219.200434 263.93012 
L 220.411832 279.28164 
L 221.623229 280.991322 
L 222.834627 272.727859 
L 224.046024 275.969131 
L 225.257422 268.133088 
L 226.46882 261.508071 
L 227.680217 256.806445 
L 228.891615 263.288989 
L 230.103012 258.622982 
L 231.31441 265.03429 
L 232.525807 280.136481 
L 233.737205 281.24065 
L 234.948602 271.552452 
L 236.16 273.689555 
L 237.371398 265.105527 
L 238.582795 258.44489 
L 239.794193 253.030898 
L 241.00559 259.050403 
L 242.216988 253.4227 
L 243.428385 259.264113 
L 244.639783 274.01012 
L 245.85118 295.488 
L 247.062578 269.664678 
L 248.273976 248.329272 
L 249.485373 231.873583 
L 250.696771 218.481074 
L 251.908168 208.970968 
L 253.119566 202.345951 
L 254.330963 208.579166 
L 255.542361 203.984396 
L 256.753758 200.849979 
L 257.965156 199.425244 
L 259.176554 198.926587 
L 260.387951 199.781428 
L 261.599349 201.063689 
L 265.233541 207.866799 
L 266.444939 221.045597 
L 267.656336 220.76065 
L 270.079132 221.829201 
L 271.290529 233.2627 
L 272.501927 231.873583 
L 273.713324 241.561781 
L 274.924722 239.139731 
L 276.136119 247.830615 
L 277.347517 243.912594 
L 278.558915 251.285597 
L 279.770312 246.227788 
L 280.98171 241.704254 
L 282.193107 238.28489 
L 283.404505 235.364184 
L 284.615902 233.369555 
L 285.8273 232.194148 
L 287.038697 230.555703 
L 288.250095 240.065809 
L 289.461493 237.501286 
L 290.67289 246.120933 
L 291.884288 241.561781 
L 293.095685 248.507364 
L 294.307083 243.057753 
L 295.51848 227.456905 
L 296.729878 225.925314 
L 297.941275 213.815067 
L 299.152673 215.417894 
L 300.364071 205.444749 
L 301.575468 208.899731 
L 302.786866 201.170544 
L 303.998263 206.5133 
L 305.209661 200.351322 
L 306.421058 206.940721 
L 307.632456 201.134926 
L 308.843853 208.04489 
L 310.055251 201.91853 
L 311.266649 208.543548 
L 312.478046 202.096622 
L 313.689444 208.507929 
L 314.900841 202.452806 
L 316.112239 209.14906 
L 317.323636 202.239095 
L 318.535034 208.222982 
L 319.746431 200.778742 
L 320.957829 206.370827 
L 322.169227 199.140297 
L 323.380624 204.98171 
L 324.592022 197.501852 
L 325.803419 203.129555 
L 327.014817 194.937329 
L 328.226214 200.066375 
L 329.437612 191.517965 
L 330.649009 196.468919 
L 331.860407 187.849272 
L 333.071805 192.871463 
L 334.283202 183.753159 
L 335.4946 188.490403 
L 336.705997 179.265244 
L 337.917395 183.966869 
L 339.128792 174.848565 
L 340.34019 179.763901 
L 341.551588 170.894926 
L 342.762985 176.095208 
L 343.974383 166.941286 
L 345.18578 171.999095 
L 346.397178 163.450686 
L 347.608575 169.04277 
L 348.819973 160.387505 
L 350.03137 166.015208 
L 351.242768 156.932523 
L 352.454166 162.310898 
L 353.665563 152.978883 
L 354.876961 158.250403 
L 356.088358 148.954007 
L 357.299756 128.29535 
L 358.511153 125.160933 
L 359.722551 109.951887 
L 360.933948 111.590332 
L 362.145346 99.871887 
L 363.356744 104.502276 
L 364.568141 108.669625 
L 365.779539 112.338318 
L 366.990936 102.258318 
L 368.202334 108.099731 
L 369.413731 99.408848 
L 370.625129 106.390049 
L 371.836526 98.447152 
L 373.047924 106.105102 
L 374.259322 99.301993 
L 375.470719 107.814784 
L 376.682117 100.584254 
L 377.893514 108.776481 
L 379.104912 101.688424 
L 380.316309 109.951887 
L 381.527707 102.43641 
L 382.739104 110.343689 
L 383.950502 103.041922 
L 385.1619 111.056057 
L 386.373297 102.721357 
L 387.584695 82.70383 
L 388.796092 81.101004 
L 390.00749 65.856339 
L 391.218887 68.492099 
L 392.430285 56.880509 
L 393.641682 62.579449 
L 394.85308 53.568 
L 396.064478 61.439661 
L 397.275875 54.137894 
L 398.487273 63.363053 
L 398.487273 63.363053 
" style="fill:none;stroke:#0000ff;stroke-linecap:square;stroke-width:1.5;"/>
   </g>
   <g id="patch_3">
    <path d="M 57.6 307.584 
L 57.6 41.472 
" style="fill:none;stroke:#000000;stroke-linecap:square;stroke-linejoin:miter;stroke-width:0.8;"/>
   </g>
   <g id="patch_4">
    <path d="M 414.72 307.584 
L 414.72 41.472 
" style="fill:none;stroke:#000000;stroke-linecap:square;stroke-linejoin:miter;stroke-width:0.8;"/>
   </g>
   <g id="patch_5">
    <path d="M 57.6 307.584 
L 414.72 307.584 
" style="fill:none;stroke:#000000;stroke-linecap:square;stroke-linejoin:miter;stroke-width:0.8;"/>
   </g>
   <g id="patch_6">
    <path d="M 57.6 41.472 
L 414.72 41.472 
" style="fill:none;stroke:#000000;stroke-linecap:square;stroke-linejoin:miter;stroke-width:0.8;"/>
   </g>
   <g id="text_17">
    <!-- UKF States -->
    <defs>
     <path d="M 44.921875 21.484375 
Q 44.921875 12.109375 40.03125 6.640625 
Q 35.15625 1.171875 24.609375 1.171875 
Q 14.0625 1.171875 9.171875 6.640625 
Q 4.296875 12.109375 4.296875 21.484375 
L 4.296875 68.75 
L 13.28125 68.75 
L 13.28125 21.484375 
Q 13.28125 14.84375 16.40625 11.71875 
Q 19.53125 8.59375 24.609375 8.59375 
Q 29.6875 8.59375 32.8125 11.71875 
Q 35.9375 14.84375 35.9375 21.484375 
L 35.9375 68.75 
L 44.921875 68.75 
z
" id="SimHei-55"/>
     <path d="M 47.65625 1.953125 
L 37.5 1.953125 
L 19.53125 35.15625 
L 13.28125 26.953125 
L 13.28125 1.953125 
L 4.296875 1.953125 
L 4.296875 68.75 
L 13.28125 68.75 
L 13.28125 39.84375 
L 35.546875 68.75 
L 46.09375 68.75 
L 25.390625 42.578125 
z
" id="SimHei-4b"/>
     <path d="M 45.703125 61.328125 
L 13.671875 61.328125 
L 13.671875 39.453125 
L 37.890625 39.453125 
L 37.890625 32.03125 
L 13.671875 32.03125 
L 13.671875 1.953125 
L 4.6875 1.953125 
L 4.6875 68.75 
L 45.703125 68.75 
z
" id="SimHei-46"/>
     <path id="SimHei-20"/>
     <path d="M 45.3125 20.703125 
Q 45.3125 11.71875 39.640625 6.4375 
Q 33.984375 1.171875 24.21875 1.171875 
Q 14.453125 1.171875 8.984375 6.640625 
Q 3.515625 12.109375 3.515625 20.3125 
L 3.515625 23.046875 
L 12.5 23.046875 
L 12.5 20.703125 
Q 12.5 14.84375 16.015625 11.71875 
Q 19.53125 8.59375 24.21875 8.59375 
Q 30.46875 8.59375 33.390625 11.90625 
Q 36.328125 15.234375 36.328125 19.921875 
Q 36.328125 23.828125 32.8125 27.140625 
Q 29.296875 30.46875 22.65625 33.203125 
Q 13.28125 36.71875 9.171875 41.015625 
Q 5.078125 45.3125 5.078125 51.171875 
Q 5.078125 59.375 10.734375 64.453125 
Q 16.40625 69.53125 24.21875 69.53125 
Q 34.375 69.53125 38.859375 63.46875 
Q 43.359375 57.421875 43.359375 50.390625 
L 34.375 50.390625 
Q 34.765625 54.6875 32.03125 58.203125 
Q 29.296875 61.71875 24.21875 61.71875 
Q 19.53125 61.71875 16.796875 59.171875 
Q 14.0625 56.640625 14.0625 52.34375 
Q 14.0625 48.828125 16.203125 46.28125 
Q 18.359375 43.75 27.34375 40.234375 
Q 35.9375 36.71875 40.625 31.828125 
Q 45.3125 26.953125 45.3125 20.703125 
z
" id="SimHei-53"/>
     <path d="M 42.96875 3.125 
Q 41.015625 2.34375 38.46875 1.75 
Q 35.9375 1.171875 31.640625 1.171875 
Q 24.609375 1.171875 20.3125 5.078125 
Q 16.015625 8.984375 16.015625 16.015625 
L 16.015625 39.453125 
L 2.734375 39.453125 
L 2.734375 45.703125 
L 16.015625 45.703125 
L 16.015625 60.9375 
L 23.828125 60.9375 
L 23.828125 45.703125 
L 39.84375 45.703125 
L 39.84375 39.453125 
L 23.828125 39.453125 
L 23.828125 15.625 
Q 23.828125 12.5 25.390625 10.34375 
Q 26.953125 8.203125 31.25 8.203125 
Q 35.546875 8.203125 38.28125 8.984375 
Q 41.015625 9.765625 42.96875 10.9375 
z
" id="SimHei-74"/>
     <path d="M 44.921875 1.953125 
L 35.546875 1.953125 
Q 34.765625 2.734375 34.375 4.09375 
Q 33.984375 5.46875 33.984375 7.421875 
Q 31.25 4.296875 27.34375 2.734375 
Q 23.4375 1.171875 19.140625 1.171875 
Q 12.890625 1.171875 8.59375 4.296875 
Q 4.296875 7.421875 4.296875 13.28125 
Q 4.296875 19.140625 8.203125 22.65625 
Q 12.109375 26.171875 20.3125 27.34375 
Q 25.78125 28.125 29.875 29.296875 
Q 33.984375 30.46875 33.984375 32.421875 
Q 33.984375 34.765625 32.21875 37.109375 
Q 30.46875 39.453125 24.609375 39.453125 
Q 19.921875 39.453125 17.765625 37.6875 
Q 15.625 35.9375 14.84375 32.8125 
L 6.25 32.8125 
Q 7.03125 39.0625 11.90625 42.765625 
Q 16.796875 46.484375 24.609375 46.484375 
Q 33.203125 46.484375 37.5 42.578125 
Q 41.796875 38.671875 41.796875 31.640625 
L 41.796875 10.15625 
Q 41.796875 7.8125 42.578125 5.859375 
Q 43.359375 3.90625 44.921875 1.953125 
z
M 33.984375 16.40625 
L 33.984375 24.21875 
Q 31.640625 23.4375 29.484375 22.84375 
Q 27.34375 22.265625 22.265625 21.484375 
Q 16.40625 20.703125 14.640625 18.75 
Q 12.890625 16.796875 12.890625 14.0625 
Q 12.890625 11.71875 14.640625 9.953125 
Q 16.40625 8.203125 19.921875 8.203125 
Q 23.4375 8.203125 27.53125 10.15625 
Q 31.640625 12.109375 33.984375 16.40625 
z
" id="SimHei-61"/>
     <path d="M 44.53125 16.796875 
Q 43.75 9.765625 38.28125 5.46875 
Q 32.8125 1.171875 25.390625 1.171875 
Q 16.015625 1.171875 9.953125 7.21875 
Q 3.90625 13.28125 3.90625 23.828125 
Q 3.90625 34.375 9.953125 40.421875 
Q 16.015625 46.484375 25.390625 46.484375 
Q 33.59375 46.484375 38.859375 41.203125 
Q 44.140625 35.9375 44.140625 23.828125 
L 12.5 23.828125 
Q 12.5 15.234375 16.203125 11.71875 
Q 19.921875 8.203125 25.390625 8.203125 
Q 29.6875 8.203125 32.421875 10.34375 
Q 35.15625 12.5 35.9375 16.796875 
z
M 35.15625 30.078125 
Q 34.375 35.546875 31.640625 37.6875 
Q 28.90625 39.84375 24.609375 39.84375 
Q 20.703125 39.84375 17.578125 37.6875 
Q 14.453125 35.546875 12.890625 30.078125 
z
" id="SimHei-65"/>
     <path d="M 42.96875 14.0625 
Q 42.96875 7.8125 38.078125 4.484375 
Q 33.203125 1.171875 25.78125 1.171875 
Q 16.40625 1.171875 11.328125 4.875 
Q 6.25 8.59375 6.25 15.625 
L 14.0625 15.625 
Q 14.0625 10.9375 17.375 9.375 
Q 20.703125 7.8125 25.390625 7.8125 
Q 30.078125 7.8125 32.421875 9.5625 
Q 34.765625 11.328125 34.765625 14.0625 
Q 34.765625 16.015625 32.8125 17.96875 
Q 30.859375 19.921875 23.046875 21.09375 
Q 14.0625 22.265625 10.734375 25.578125 
Q 7.421875 28.90625 7.421875 34.375 
Q 7.421875 39.0625 11.90625 42.765625 
Q 16.40625 46.484375 25 46.484375 
Q 32.8125 46.484375 37.296875 42.96875 
Q 41.796875 39.453125 41.796875 33.59375 
L 33.984375 33.59375 
Q 33.984375 37.109375 31.4375 38.46875 
Q 28.90625 39.84375 25 39.84375 
Q 19.921875 39.84375 17.765625 38.078125 
Q 15.625 36.328125 15.625 33.984375 
Q 15.625 31.25 17.578125 29.6875 
Q 19.53125 28.125 25.78125 27.34375 
Q 35.9375 25.78125 39.453125 22.453125 
Q 42.96875 19.140625 42.96875 14.0625 
z
" id="SimHei-73"/>
    </defs>
    <g transform="translate(206.16 35.472)scale(0.12 -0.12)">
     <use xlink:href="#SimHei-55"/>
     <use x="50" xlink:href="#SimHei-4b"/>
     <use x="100" xlink:href="#SimHei-46"/>
     <use x="150" xlink:href="#SimHei-20"/>
     <use x="200" xlink:href="#SimHei-53"/>
     <use x="250" xlink:href="#SimHei-74"/>
     <use x="300" xlink:href="#SimHei-61"/>
     <use x="350" xlink:href="#SimHei-74"/>
     <use x="400" xlink:href="#SimHei-65"/>
     <use x="450" xlink:href="#SimHei-73"/>
    </g>
   </g>
  </g>
 </g>
 <defs>
  <clipPath id="p1f4f0e84ec">
   <rect height="266.112" width="357.12" x="57.6" y="41.472"/>
  </clipPath>
 </defs>
</svg>
