<?xml version="1.0" encoding="utf-8" standalone="no"?>
<!DOCTYPE svg PUBLIC "-//W3C//DTD SVG 1.1//EN"
  "http://www.w3.org/Graphics/SVG/1.1/DTD/svg11.dtd">
<!-- Created with matplotlib (http://matplotlib.org/) -->
<svg height="345.6pt" version="1.1" viewBox="0 0 460.8 345.6" width="460.8pt" xmlns="http://www.w3.org/2000/svg" xmlns:xlink="http://www.w3.org/1999/xlink">
 <defs>
  <style type="text/css">
*{stroke-linecap:butt;stroke-linejoin:round;}
  </style>
 </defs>
 <g id="figure_1">
  <g id="patch_1">
   <path d="M 0 345.6 
L 460.8 345.6 
L 460.8 0 
L 0 0 
z
" style="fill:#ffffff;"/>
  </g>
  <g id="axes_1">
   <g id="patch_2">
    <path d="M 57.6 307.584 
L 414.72 307.584 
L 414.72 41.472 
L 57.6 41.472 
z
" style="fill:#ffffff;"/>
   </g>
   <g id="patch_3">
    <path clip-path="url(#p9d8843e9b8)" d="M 73.832727 307.584 
L 97.805109 307.584 
L 97.805109 139.534272 
L 73.832727 139.534272 
z
" style="fill:#0000ff;opacity:0.7;"/>
   </g>
   <g id="patch_4">
    <path clip-path="url(#p9d8843e9b8)" d="M 142.325247 307.584 
L 166.297629 307.584 
L 166.297629 94.321843 
L 142.325247 94.321843 
z
" style="fill:#0000ff;opacity:0.7;"/>
   </g>
   <g id="patch_5">
    <path clip-path="url(#p9d8843e9b8)" d="M 210.817768 307.584 
L 234.79015 307.584 
L 234.79015 104.513933 
L 210.817768 104.513933 
z
" style="fill:#0000ff;opacity:0.7;"/>
   </g>
   <g id="patch_6">
    <path clip-path="url(#p9d8843e9b8)" d="M 279.310288 307.584 
L 303.28267 307.584 
L 303.28267 94.375066 
L 279.310288 94.375066 
z
" style="fill:#0000ff;opacity:0.7;"/>
   </g>
   <g id="patch_7">
    <path clip-path="url(#p9d8843e9b8)" d="M 347.802808 307.584 
L 371.77519 307.584 
L 371.77519 170.775821 
L 347.802808 170.775821 
z
" style="fill:#0000ff;opacity:0.7;"/>
   </g>
   <g id="patch_8">
    <path clip-path="url(#p9d8843e9b8)" d="M 100.54481 307.584 
L 124.517192 307.584 
L 124.517192 245.659738 
L 100.54481 245.659738 
z
" style="fill:#ff0000;opacity:0.7;"/>
   </g>
   <g id="patch_9">
    <path clip-path="url(#p9d8843e9b8)" d="M 169.03733 307.584 
L 193.009712 307.584 
L 193.009712 128.144678 
L 169.03733 128.144678 
z
" style="fill:#ff0000;opacity:0.7;"/>
   </g>
   <g id="patch_10">
    <path clip-path="url(#p9d8843e9b8)" d="M 237.52985 307.584 
L 261.502232 307.584 
L 261.502232 128.17129 
L 237.52985 128.17129 
z
" style="fill:#ff0000;opacity:0.7;"/>
   </g>
   <g id="patch_11">
    <path clip-path="url(#p9d8843e9b8)" d="M 306.022371 307.584 
L 329.994753 307.584 
L 329.994753 136.713485 
L 306.022371 136.713485 
z
" style="fill:#ff0000;opacity:0.7;"/>
   </g>
   <g id="patch_12">
    <path clip-path="url(#p9d8843e9b8)" d="M 374.514891 307.584 
L 398.487273 307.584 
L 398.487273 210.878899 
L 374.514891 210.878899 
z
" style="fill:#ff0000;opacity:0.7;"/>
   </g>
   <g id="matplotlib.axis_1">
    <g id="xtick_1">
     <g id="line2d_1">
      <defs>
       <path d="M 0 0 
L 0 3.5 
" id="m3d938b16b3" style="stroke:#000000;stroke-width:0.8;"/>
      </defs>
      <g>
       <use style="stroke:#000000;stroke-width:0.8;" x="97.805109" xlink:href="#m3d938b16b3" y="307.584"/>
      </g>
     </g>
     <g id="text_1">
      <!-- Dataset0000 -->
      <defs>
       <path d="M 45.703125 35.15625 
Q 45.703125 17.1875 38.078125 9.5625 
Q 30.46875 1.953125 17.578125 1.953125 
L 4.296875 1.953125 
L 4.296875 68.75 
L 17.578125 68.75 
Q 32.03125 68.75 38.859375 60.9375 
Q 45.703125 53.125 45.703125 35.15625 
z
M 36.328125 35.15625 
Q 36.328125 49.609375 31.640625 55.46875 
Q 26.953125 61.328125 17.578125 61.328125 
L 13.28125 61.328125 
L 13.28125 9.375 
L 17.578125 9.375 
Q 26.953125 9.375 31.640625 15.03125 
Q 36.328125 20.703125 36.328125 35.15625 
z
" id="SimHei-44"/>
       <path d="M 44.921875 1.953125 
L 35.546875 1.953125 
Q 34.765625 2.734375 34.375 4.09375 
Q 33.984375 5.46875 33.984375 7.421875 
Q 31.25 4.296875 27.34375 2.734375 
Q 23.4375 1.171875 19.140625 1.171875 
Q 12.890625 1.171875 8.59375 4.296875 
Q 4.296875 7.421875 4.296875 13.28125 
Q 4.296875 19.140625 8.203125 22.65625 
Q 12.109375 26.171875 20.3125 27.34375 
Q 25.78125 28.125 29.875 29.296875 
Q 33.984375 30.46875 33.984375 32.421875 
Q 33.984375 34.765625 32.21875 37.109375 
Q 30.46875 39.453125 24.609375 39.453125 
Q 19.921875 39.453125 17.765625 37.6875 
Q 15.625 35.9375 14.84375 32.8125 
L 6.25 32.8125 
Q 7.03125 39.0625 11.90625 42.765625 
Q 16.796875 46.484375 24.609375 46.484375 
Q 33.203125 46.484375 37.5 42.578125 
Q 41.796875 38.671875 41.796875 31.640625 
L 41.796875 10.15625 
Q 41.796875 7.8125 42.578125 5.859375 
Q 43.359375 3.90625 44.921875 1.953125 
z
M 33.984375 16.40625 
L 33.984375 24.21875 
Q 31.640625 23.4375 29.484375 22.84375 
Q 27.34375 22.265625 22.265625 21.484375 
Q 16.40625 20.703125 14.640625 18.75 
Q 12.890625 16.796875 12.890625 14.0625 
Q 12.890625 11.71875 14.640625 9.953125 
Q 16.40625 8.203125 19.921875 8.203125 
Q 23.4375 8.203125 27.53125 10.15625 
Q 31.640625 12.109375 33.984375 16.40625 
z
" id="SimHei-61"/>
       <path d="M 42.96875 3.125 
Q 41.015625 2.34375 38.46875 1.75 
Q 35.9375 1.171875 31.640625 1.171875 
Q 24.609375 1.171875 20.3125 5.078125 
Q 16.015625 8.984375 16.015625 16.015625 
L 16.015625 39.453125 
L 2.734375 39.453125 
L 2.734375 45.703125 
L 16.015625 45.703125 
L 16.015625 60.9375 
L 23.828125 60.9375 
L 23.828125 45.703125 
L 39.84375 45.703125 
L 39.84375 39.453125 
L 23.828125 39.453125 
L 23.828125 15.625 
Q 23.828125 12.5 25.390625 10.34375 
Q 26.953125 8.203125 31.25 8.203125 
Q 35.546875 8.203125 38.28125 8.984375 
Q 41.015625 9.765625 42.96875 10.9375 
z
" id="SimHei-74"/>
       <path d="M 42.96875 14.0625 
Q 42.96875 7.8125 38.078125 4.484375 
Q 33.203125 1.171875 25.78125 1.171875 
Q 16.40625 1.171875 11.328125 4.875 
Q 6.25 8.59375 6.25 15.625 
L 14.0625 15.625 
Q 14.0625 10.9375 17.375 9.375 
Q 20.703125 7.8125 25.390625 7.8125 
Q 30.078125 7.8125 32.421875 9.5625 
Q 34.765625 11.328125 34.765625 14.0625 
Q 34.765625 16.015625 32.8125 17.96875 
Q 30.859375 19.921875 23.046875 21.09375 
Q 14.0625 22.265625 10.734375 25.578125 
Q 7.421875 28.90625 7.421875 34.375 
Q 7.421875 39.0625 11.90625 42.765625 
Q 16.40625 46.484375 25 46.484375 
Q 32.8125 46.484375 37.296875 42.96875 
Q 41.796875 39.453125 41.796875 33.59375 
L 33.984375 33.59375 
Q 33.984375 37.109375 31.4375 38.46875 
Q 28.90625 39.84375 25 39.84375 
Q 19.921875 39.84375 17.765625 38.078125 
Q 15.625 36.328125 15.625 33.984375 
Q 15.625 31.25 17.578125 29.6875 
Q 19.53125 28.125 25.78125 27.34375 
Q 35.9375 25.78125 39.453125 22.453125 
Q 42.96875 19.140625 42.96875 14.0625 
z
" id="SimHei-73"/>
       <path d="M 44.53125 16.796875 
Q 43.75 9.765625 38.28125 5.46875 
Q 32.8125 1.171875 25.390625 1.171875 
Q 16.015625 1.171875 9.953125 7.21875 
Q 3.90625 13.28125 3.90625 23.828125 
Q 3.90625 34.375 9.953125 40.421875 
Q 16.015625 46.484375 25.390625 46.484375 
Q 33.59375 46.484375 38.859375 41.203125 
Q 44.140625 35.9375 44.140625 23.828125 
L 12.5 23.828125 
Q 12.5 15.234375 16.203125 11.71875 
Q 19.921875 8.203125 25.390625 8.203125 
Q 29.6875 8.203125 32.421875 10.34375 
Q 35.15625 12.5 35.9375 16.796875 
z
M 35.15625 30.078125 
Q 34.375 35.546875 31.640625 37.6875 
Q 28.90625 39.84375 24.609375 39.84375 
Q 20.703125 39.84375 17.578125 37.6875 
Q 14.453125 35.546875 12.890625 30.078125 
z
" id="SimHei-65"/>
       <path d="M 3.125 29.296875 
Q 3.90625 50 6.4375 56.046875 
Q 8.984375 62.109375 13.671875 66.015625 
Q 18.359375 69.921875 25.1875 69.921875 
Q 32.03125 69.921875 37.109375 64.25 
Q 42.1875 58.59375 43.75 50 
Q 45.3125 41.40625 44.71875 30.265625 
Q 44.140625 19.140625 40.8125 12.109375 
Q 37.5 5.078125 30.859375 2.34375 
Q 24.21875 -0.390625 17.578125 2.921875 
Q 10.9375 6.25 8.203125 11.71875 
Q 5.46875 17.1875 4.296875 23.234375 
Q 3.125 29.296875 3.90625 50 
z
M 12.890625 52.734375 
Q 10.546875 31.25 12.5 22.84375 
Q 14.453125 14.453125 18.9375 10.9375 
Q 23.4375 7.421875 28.125 9.5625 
Q 32.8125 11.71875 34.953125 18.15625 
Q 37.109375 24.609375 37.109375 32.21875 
Q 37.109375 39.84375 36.515625 46.09375 
Q 35.9375 52.34375 33 57.421875 
Q 30.078125 62.5 25.1875 62.6875 
Q 20.3125 62.890625 16.59375 57.8125 
Q 12.890625 52.734375 10.546875 31.25 
z
" id="SimHei-30"/>
      </defs>
      <g transform="translate(70.305109 321.459)scale(0.1 -0.1)">
       <use xlink:href="#SimHei-44"/>
       <use x="50" xlink:href="#SimHei-61"/>
       <use x="100" xlink:href="#SimHei-74"/>
       <use x="150" xlink:href="#SimHei-61"/>
       <use x="200" xlink:href="#SimHei-73"/>
       <use x="250" xlink:href="#SimHei-65"/>
       <use x="300" xlink:href="#SimHei-74"/>
       <use x="350" xlink:href="#SimHei-30"/>
       <use x="400" xlink:href="#SimHei-30"/>
       <use x="450" xlink:href="#SimHei-30"/>
       <use x="500" xlink:href="#SimHei-30"/>
      </g>
     </g>
    </g>
    <g id="xtick_2">
     <g id="line2d_2">
      <g>
       <use style="stroke:#000000;stroke-width:0.8;" x="166.297629" xlink:href="#m3d938b16b3" y="307.584"/>
      </g>
     </g>
     <g id="text_2">
      <!-- Dataset0003 -->
      <defs>
       <path d="M 3.90625 19.140625 
L 10.9375 20.3125 
Q 12.5 15.234375 16.015625 11.90625 
Q 19.53125 8.59375 24.796875 8.78125 
Q 30.078125 8.984375 33.203125 13.078125 
Q 36.328125 17.1875 35.9375 22.453125 
Q 35.546875 27.734375 31.828125 30.65625 
Q 28.125 33.59375 19.921875 34.765625 
L 19.921875 39.84375 
Q 28.125 40.625 31.828125 44.140625 
Q 35.546875 47.65625 35.15625 53.3125 
Q 34.765625 58.984375 30.078125 61.515625 
Q 25.390625 64.0625 20.109375 62.109375 
Q 14.84375 60.15625 11.71875 51.171875 
L 4.6875 52.34375 
Q 7.03125 59.375 11.125 64.0625 
Q 15.234375 68.75 22.265625 69.53125 
Q 29.296875 70.3125 34.5625 67.765625 
Q 39.84375 65.234375 41.984375 59.953125 
Q 44.140625 54.6875 42.578125 48.4375 
Q 41.015625 42.1875 33.59375 37.5 
Q 39.0625 35.15625 41.984375 30.46875 
Q 44.921875 25.78125 43.9375 18.15625 
Q 42.96875 10.546875 37.109375 5.859375 
Q 31.25 1.171875 23.828125 1.359375 
Q 16.40625 1.5625 10.9375 6.046875 
Q 5.46875 10.546875 3.90625 19.140625 
z
" id="SimHei-33"/>
      </defs>
      <g transform="translate(138.797629 321.459)scale(0.1 -0.1)">
       <use xlink:href="#SimHei-44"/>
       <use x="50" xlink:href="#SimHei-61"/>
       <use x="100" xlink:href="#SimHei-74"/>
       <use x="150" xlink:href="#SimHei-61"/>
       <use x="200" xlink:href="#SimHei-73"/>
       <use x="250" xlink:href="#SimHei-65"/>
       <use x="300" xlink:href="#SimHei-74"/>
       <use x="350" xlink:href="#SimHei-30"/>
       <use x="400" xlink:href="#SimHei-30"/>
       <use x="450" xlink:href="#SimHei-30"/>
       <use x="500" xlink:href="#SimHei-33"/>
      </g>
     </g>
    </g>
    <g id="xtick_3">
     <g id="line2d_3">
      <g>
       <use style="stroke:#000000;stroke-width:0.8;" x="234.79015" xlink:href="#m3d938b16b3" y="307.584"/>
      </g>
     </g>
     <g id="text_3">
      <!-- Dataset0005 -->
      <defs>
       <path d="M 8.59375 20.703125 
Q 11.328125 10.15625 17.96875 8.984375 
Q 24.609375 7.8125 28.703125 10.34375 
Q 32.8125 12.890625 34.5625 16.984375 
Q 36.328125 21.09375 36.125 26.171875 
Q 35.9375 31.25 33.390625 34.765625 
Q 30.859375 38.28125 26.953125 39.453125 
Q 23.046875 40.625 18.15625 39.453125 
Q 13.28125 38.28125 10.15625 33.984375 
L 3.515625 34.765625 
Q 4.296875 37.109375 10.9375 68.359375 
L 41.796875 68.359375 
L 41.796875 61.328125 
L 16.796875 61.328125 
Q 14.84375 50.78125 12.890625 44.53125 
Q 18.75 47.265625 23.828125 47.0625 
Q 28.90625 46.875 33.59375 44.71875 
Q 38.28125 42.578125 40.421875 38.859375 
Q 42.578125 35.15625 43.546875 31.4375 
Q 44.53125 27.734375 44.328125 23.4375 
Q 44.140625 19.140625 42.578125 14.640625 
Q 41.015625 10.15625 37.890625 7.21875 
Q 34.765625 4.296875 30.265625 2.53125 
Q 25.78125 0.78125 19.921875 1.171875 
Q 14.0625 1.5625 8.78125 5.46875 
Q 3.515625 9.375 1.5625 18.75 
z
" id="SimHei-35"/>
      </defs>
      <g transform="translate(207.29015 321.459)scale(0.1 -0.1)">
       <use xlink:href="#SimHei-44"/>
       <use x="50" xlink:href="#SimHei-61"/>
       <use x="100" xlink:href="#SimHei-74"/>
       <use x="150" xlink:href="#SimHei-61"/>
       <use x="200" xlink:href="#SimHei-73"/>
       <use x="250" xlink:href="#SimHei-65"/>
       <use x="300" xlink:href="#SimHei-74"/>
       <use x="350" xlink:href="#SimHei-30"/>
       <use x="400" xlink:href="#SimHei-30"/>
       <use x="450" xlink:href="#SimHei-30"/>
       <use x="500" xlink:href="#SimHei-35"/>
      </g>
     </g>
    </g>
    <g id="xtick_4">
     <g id="line2d_4">
      <g>
       <use style="stroke:#000000;stroke-width:0.8;" x="303.28267" xlink:href="#m3d938b16b3" y="307.584"/>
      </g>
     </g>
     <g id="text_4">
      <!-- Dataset0010 -->
      <defs>
       <path d="M 21.875 56.25 
Q 16.796875 51.171875 8.984375 46.484375 
L 8.984375 53.90625 
Q 18.75 60.546875 25 69.53125 
L 29.6875 69.53125 
L 29.6875 2.34375 
L 21.875 2.34375 
z
" id="SimHei-31"/>
      </defs>
      <g transform="translate(275.78267 321.459)scale(0.1 -0.1)">
       <use xlink:href="#SimHei-44"/>
       <use x="50" xlink:href="#SimHei-61"/>
       <use x="100" xlink:href="#SimHei-74"/>
       <use x="150" xlink:href="#SimHei-61"/>
       <use x="200" xlink:href="#SimHei-73"/>
       <use x="250" xlink:href="#SimHei-65"/>
       <use x="300" xlink:href="#SimHei-74"/>
       <use x="350" xlink:href="#SimHei-30"/>
       <use x="400" xlink:href="#SimHei-30"/>
       <use x="450" xlink:href="#SimHei-31"/>
       <use x="500" xlink:href="#SimHei-30"/>
      </g>
     </g>
    </g>
    <g id="xtick_5">
     <g id="line2d_5">
      <g>
       <use style="stroke:#000000;stroke-width:0.8;" x="371.77519" xlink:href="#m3d938b16b3" y="307.584"/>
      </g>
     </g>
     <g id="text_5">
      <!-- Dataset0018 -->
      <defs>
       <path d="M 2.734375 16.796875 
Q 2.734375 26.171875 5.078125 30.65625 
Q 7.421875 35.15625 12.890625 37.890625 
Q 8.203125 40.625 6.640625 43.9375 
Q 5.078125 47.265625 4.875 51.5625 
Q 4.6875 55.859375 6.046875 58.984375 
Q 7.421875 62.109375 10.15625 64.84375 
Q 12.890625 67.578125 16.203125 68.546875 
Q 19.53125 69.53125 23.4375 69.53125 
Q 27.34375 69.53125 30.46875 68.75 
Q 33.59375 67.96875 37.109375 65.421875 
Q 40.625 62.890625 42.1875 58.203125 
Q 43.75 53.515625 41.984375 47.265625 
Q 40.234375 41.015625 32.8125 37.5 
Q 39.453125 35.546875 42.1875 31.4375 
Q 44.921875 27.34375 44.921875 21.484375 
Q 44.921875 15.625 43.15625 12.109375 
Q 41.40625 8.59375 39.25 6.25 
Q 37.109375 3.90625 33.390625 2.53125 
Q 29.6875 1.171875 24.015625 1.171875 
Q 18.359375 1.171875 14.25 2.53125 
Q 10.15625 3.90625 7.421875 6.640625 
Q 4.6875 9.375 3.703125 13.078125 
Q 2.734375 16.796875 2.734375 26.171875 
z
M 10.9375 26.5625 
Q 10.546875 17.1875 12.296875 13.671875 
Q 14.0625 10.15625 18.75 9.171875 
Q 23.4375 8.203125 28.515625 9.375 
Q 33.59375 10.546875 35.546875 14.84375 
Q 37.5 19.140625 36.90625 23.4375 
Q 36.328125 27.734375 32.03125 30.65625 
Q 27.734375 33.59375 22.65625 33.203125 
Q 17.578125 32.8125 14.25 29.6875 
Q 10.9375 26.5625 10.546875 17.1875 
z
M 12.109375 56.25 
Q 12.109375 48.4375 14.84375 44.921875 
Q 17.578125 41.40625 23.4375 41.40625 
Q 29.296875 41.40625 32.21875 44.921875 
Q 35.15625 48.4375 34.953125 53.3125 
Q 34.765625 58.203125 31.4375 60.546875 
Q 28.125 62.890625 22.453125 62.5 
Q 16.796875 62.109375 14.453125 59.171875 
Q 12.109375 56.25 12.109375 48.4375 
z
" id="SimHei-38"/>
      </defs>
      <g transform="translate(344.27519 321.459)scale(0.1 -0.1)">
       <use xlink:href="#SimHei-44"/>
       <use x="50" xlink:href="#SimHei-61"/>
       <use x="100" xlink:href="#SimHei-74"/>
       <use x="150" xlink:href="#SimHei-61"/>
       <use x="200" xlink:href="#SimHei-73"/>
       <use x="250" xlink:href="#SimHei-65"/>
       <use x="300" xlink:href="#SimHei-74"/>
       <use x="350" xlink:href="#SimHei-30"/>
       <use x="400" xlink:href="#SimHei-30"/>
       <use x="450" xlink:href="#SimHei-31"/>
       <use x="500" xlink:href="#SimHei-38"/>
      </g>
     </g>
    </g>
   </g>
   <g id="matplotlib.axis_2">
    <g id="ytick_1">
     <g id="line2d_6">
      <defs>
       <path d="M 0 0 
L -3.5 0 
" id="me26f7e887b" style="stroke:#000000;stroke-width:0.8;"/>
      </defs>
      <g>
       <use style="stroke:#000000;stroke-width:0.8;" x="57.6" xlink:href="#me26f7e887b" y="307.584"/>
      </g>
     </g>
     <g id="text_6">
      <!-- 0% -->
      <defs>
       <path d="M 21.875 51.953125 
Q 21.875 40.625 18.546875 37.5 
Q 15.234375 34.375 12.109375 34.375 
Q 8.984375 34.375 5.65625 37.5 
Q 2.34375 40.625 2.34375 51.953125 
Q 2.34375 63.28125 5.65625 66.40625 
Q 8.984375 69.53125 12.109375 69.53125 
Q 15.234375 69.53125 18.546875 66.40625 
Q 21.875 63.28125 21.875 51.953125 
z
M 41.015625 68.359375 
L 10.9375 1.171875 
L 7.8125 2.34375 
L 37.890625 69.53125 
z
M 46.484375 18.75 
Q 46.484375 7.421875 43.15625 4.296875 
Q 39.84375 1.171875 36.71875 1.171875 
Q 33.59375 1.171875 30.265625 4.296875 
Q 26.953125 7.421875 26.953125 18.75 
Q 26.953125 30.078125 30.265625 33.203125 
Q 33.59375 36.328125 36.71875 36.328125 
Q 39.84375 36.328125 43.15625 33.203125 
Q 46.484375 30.078125 46.484375 18.75 
z
M 15.625 51.953125 
Q 15.625 58.984375 14.84375 61.328125 
Q 14.0625 63.671875 12.109375 63.671875 
Q 10.15625 63.671875 9.375 61.328125 
Q 8.59375 58.984375 8.59375 51.953125 
Q 8.59375 44.921875 9.375 42.578125 
Q 10.15625 40.234375 12.109375 40.234375 
Q 14.0625 40.234375 14.84375 42.578125 
Q 15.625 44.921875 15.625 51.953125 
z
M 40.234375 18.75 
Q 40.234375 25.78125 39.453125 28.125 
Q 38.671875 30.46875 36.71875 30.46875 
Q 34.765625 30.46875 33.984375 28.125 
Q 33.203125 25.78125 33.203125 18.75 
Q 33.203125 11.71875 33.984375 9.375 
Q 34.765625 7.03125 36.71875 7.03125 
Q 38.671875 7.03125 39.453125 9.375 
Q 40.234375 11.71875 40.234375 18.75 
z
" id="SimHei-25"/>
      </defs>
      <g transform="translate(40.6 311.0215)scale(0.1 -0.1)">
       <use xlink:href="#SimHei-30"/>
       <use x="50" xlink:href="#SimHei-25"/>
      </g>
     </g>
    </g>
    <g id="ytick_2">
     <g id="line2d_7">
      <g>
       <use style="stroke:#000000;stroke-width:0.8;" x="57.6" xlink:href="#me26f7e887b" y="241.056"/>
      </g>
     </g>
     <g id="text_7">
      <!-- 25% -->
      <defs>
       <path d="M 4.6875 3.90625 
Q 5.078125 9.765625 10.15625 14.453125 
Q 15.234375 19.140625 23.046875 29.09375 
Q 30.859375 39.0625 33.203125 44.53125 
Q 35.546875 50 34.953125 53.90625 
Q 34.375 57.8125 31.25 60.34375 
Q 28.125 62.890625 24.015625 62.5 
Q 19.921875 62.109375 16.203125 59.375 
Q 12.5 56.640625 10.546875 51.171875 
L 3.125 52.34375 
Q 6.25 61.328125 11.125 65.421875 
Q 16.015625 69.53125 22.65625 69.921875 
Q 26.5625 70.3125 29.6875 69.71875 
Q 32.8125 69.140625 36.125 66.984375 
Q 39.453125 64.84375 41.59375 60.546875 
Q 43.75 56.25 43.15625 50.1875 
Q 42.578125 44.140625 37.109375 35.734375 
Q 31.640625 27.34375 16.015625 9.375 
L 44.140625 9.375 
L 44.140625 2.34375 
L 4.6875 2.34375 
z
" id="SimHei-32"/>
      </defs>
      <g transform="translate(35.6 244.4935)scale(0.1 -0.1)">
       <use xlink:href="#SimHei-32"/>
       <use x="50" xlink:href="#SimHei-35"/>
       <use x="100" xlink:href="#SimHei-25"/>
      </g>
     </g>
    </g>
    <g id="ytick_3">
     <g id="line2d_8">
      <g>
       <use style="stroke:#000000;stroke-width:0.8;" x="57.6" xlink:href="#me26f7e887b" y="174.528"/>
      </g>
     </g>
     <g id="text_8">
      <!-- 50% -->
      <g transform="translate(35.6 177.9655)scale(0.1 -0.1)">
       <use xlink:href="#SimHei-35"/>
       <use x="50" xlink:href="#SimHei-30"/>
       <use x="100" xlink:href="#SimHei-25"/>
      </g>
     </g>
    </g>
    <g id="ytick_4">
     <g id="line2d_9">
      <g>
       <use style="stroke:#000000;stroke-width:0.8;" x="57.6" xlink:href="#me26f7e887b" y="108"/>
      </g>
     </g>
     <g id="text_9">
      <!-- 75% -->
      <defs>
       <path d="M 13.28125 2.34375 
Q 20.3125 32.03125 37.890625 61.328125 
L 4.296875 61.328125 
L 4.296875 68.359375 
L 46.09375 68.359375 
L 46.09375 61.71875 
Q 27.734375 32.03125 21.875 2.34375 
L 13.28125 2.34375 
z
" id="SimHei-37"/>
      </defs>
      <g transform="translate(35.6 111.4375)scale(0.1 -0.1)">
       <use xlink:href="#SimHei-37"/>
       <use x="50" xlink:href="#SimHei-35"/>
       <use x="100" xlink:href="#SimHei-25"/>
      </g>
     </g>
    </g>
    <g id="ytick_5">
     <g id="line2d_10">
      <g>
       <use style="stroke:#000000;stroke-width:0.8;" x="57.6" xlink:href="#me26f7e887b" y="41.472"/>
      </g>
     </g>
     <g id="text_10">
      <!-- 100% -->
      <g transform="translate(30.6 44.9095)scale(0.1 -0.1)">
       <use xlink:href="#SimHei-31"/>
       <use x="50" xlink:href="#SimHei-30"/>
       <use x="100" xlink:href="#SimHei-30"/>
       <use x="150" xlink:href="#SimHei-25"/>
      </g>
     </g>
    </g>
   </g>
   <g id="patch_13">
    <path d="M 57.6 307.584 
L 57.6 41.472 
" style="fill:none;stroke:#000000;stroke-linecap:square;stroke-linejoin:miter;stroke-width:0.8;"/>
   </g>
   <g id="patch_14">
    <path d="M 414.72 307.584 
L 414.72 41.472 
" style="fill:none;stroke:#000000;stroke-linecap:square;stroke-linejoin:miter;stroke-width:0.8;"/>
   </g>
   <g id="patch_15">
    <path d="M 57.6 307.584 
L 414.72 307.584 
" style="fill:none;stroke:#000000;stroke-linecap:square;stroke-linejoin:miter;stroke-width:0.8;"/>
   </g>
   <g id="patch_16">
    <path d="M 57.6 41.472 
L 414.72 41.472 
" style="fill:none;stroke:#000000;stroke-linecap:square;stroke-linejoin:miter;stroke-width:0.8;"/>
   </g>
   <g id="text_11">
    <!-- 63.15% -->
    <defs>
     <path d="M 3.515625 19.53125 
Q 4.296875 30.859375 6.046875 34.765625 
Q 7.8125 38.671875 11.328125 44.53125 
L 27.34375 69.53125 
L 36.328125 69.53125 
L 19.921875 43.75 
Q 30.46875 46.484375 36.71875 42.96875 
Q 42.96875 39.453125 45.109375 34.953125 
Q 47.265625 30.46875 47.453125 25.1875 
Q 47.65625 19.921875 45.890625 14.84375 
Q 44.140625 9.765625 39.640625 5.65625 
Q 35.15625 1.5625 27.140625 1.171875 
Q 19.140625 0.78125 13.46875 4.09375 
Q 7.8125 7.421875 5.65625 13.46875 
Q 3.515625 19.53125 4.296875 30.859375 
z
M 12.5 16.015625 
Q 19.53125 8.59375 25.390625 8.203125 
Q 31.25 7.8125 35.15625 12.109375 
Q 39.0625 16.40625 39.0625 24.609375 
Q 39.0625 32.8125 34.171875 35.9375 
Q 29.296875 39.0625 23.234375 38.28125 
Q 17.1875 37.5 14.453125 32.421875 
Q 11.71875 27.34375 12.109375 21.671875 
Q 12.5 16.015625 19.53125 8.59375 
z
" id="SimHei-36"/>
     <path d="M 16.796875 1.953125 
L 7.8125 1.953125 
L 7.8125 10.546875 
L 16.796875 10.546875 
z
" id="SimHei-2e"/>
    </defs>
    <g transform="translate(75.54504 137.853775)scale(0.1 -0.1)">
     <use xlink:href="#SimHei-36"/>
     <use x="50" xlink:href="#SimHei-33"/>
     <use x="100" xlink:href="#SimHei-2e"/>
     <use x="150" xlink:href="#SimHei-31"/>
     <use x="200" xlink:href="#SimHei-35"/>
     <use x="250" xlink:href="#SimHei-25"/>
    </g>
   </g>
   <g id="text_12">
    <!-- 80.14% -->
    <defs>
     <path d="M 31.25 17.1875 
L 1.171875 17.1875 
L 1.171875 23.828125 
L 32.8125 69.53125 
L 38.671875 69.53125 
L 38.671875 23.828125 
L 48.046875 23.828125 
L 48.046875 17.1875 
L 38.671875 17.1875 
L 38.671875 2.34375 
L 31.25 2.34375 
z
M 31.25 23.828125 
L 31.25 54.6875 
L 9.375 23.828125 
z
" id="SimHei-34"/>
    </defs>
    <g transform="translate(144.03756 92.189222)scale(0.1 -0.1)">
     <use xlink:href="#SimHei-38"/>
     <use x="50" xlink:href="#SimHei-30"/>
     <use x="100" xlink:href="#SimHei-2e"/>
     <use x="150" xlink:href="#SimHei-31"/>
     <use x="200" xlink:href="#SimHei-34"/>
     <use x="250" xlink:href="#SimHei-25"/>
    </g>
   </g>
   <g id="text_13">
    <!-- 76.31% -->
    <g transform="translate(212.530081 102.483232)scale(0.1 -0.1)">
     <use xlink:href="#SimHei-37"/>
     <use x="50" xlink:href="#SimHei-36"/>
     <use x="100" xlink:href="#SimHei-2e"/>
     <use x="150" xlink:href="#SimHei-33"/>
     <use x="200" xlink:href="#SimHei-31"/>
     <use x="250" xlink:href="#SimHei-25"/>
    </g>
   </g>
   <g id="text_14">
    <!-- 80.12% -->
    <g transform="translate(281.022601 92.242976)scale(0.1 -0.1)">
     <use xlink:href="#SimHei-38"/>
     <use x="50" xlink:href="#SimHei-30"/>
     <use x="100" xlink:href="#SimHei-2e"/>
     <use x="150" xlink:href="#SimHei-31"/>
     <use x="200" xlink:href="#SimHei-32"/>
     <use x="250" xlink:href="#SimHei-25"/>
    </g>
   </g>
   <g id="text_15">
    <!-- 51.41% -->
    <g transform="translate(349.515121 169.407739)scale(0.1 -0.1)">
     <use xlink:href="#SimHei-35"/>
     <use x="50" xlink:href="#SimHei-31"/>
     <use x="100" xlink:href="#SimHei-2e"/>
     <use x="150" xlink:href="#SimHei-34"/>
     <use x="200" xlink:href="#SimHei-31"/>
     <use x="250" xlink:href="#SimHei-25"/>
    </g>
   </g>
   <g id="text_16">
    <!-- 23.27% -->
    <g transform="translate(102.257123 245.040495)scale(0.1 -0.1)">
     <use xlink:href="#SimHei-32"/>
     <use x="50" xlink:href="#SimHei-33"/>
     <use x="100" xlink:href="#SimHei-2e"/>
     <use x="150" xlink:href="#SimHei-32"/>
     <use x="200" xlink:href="#SimHei-37"/>
     <use x="250" xlink:href="#SimHei-25"/>
    </g>
   </g>
   <g id="text_17">
    <!-- 67.43% -->
    <g transform="translate(170.749643 126.350285)scale(0.1 -0.1)">
     <use xlink:href="#SimHei-36"/>
     <use x="50" xlink:href="#SimHei-37"/>
     <use x="100" xlink:href="#SimHei-2e"/>
     <use x="150" xlink:href="#SimHei-34"/>
     <use x="200" xlink:href="#SimHei-33"/>
     <use x="250" xlink:href="#SimHei-25"/>
    </g>
   </g>
   <g id="text_18">
    <!-- 67.42% -->
    <g transform="translate(239.242163 126.377162)scale(0.1 -0.1)">
     <use xlink:href="#SimHei-36"/>
     <use x="50" xlink:href="#SimHei-37"/>
     <use x="100" xlink:href="#SimHei-2e"/>
     <use x="150" xlink:href="#SimHei-34"/>
     <use x="200" xlink:href="#SimHei-32"/>
     <use x="250" xlink:href="#SimHei-25"/>
    </g>
   </g>
   <g id="text_19">
    <!-- 64.21% -->
    <g transform="translate(307.734684 135.00478)scale(0.1 -0.1)">
     <use xlink:href="#SimHei-36"/>
     <use x="50" xlink:href="#SimHei-34"/>
     <use x="100" xlink:href="#SimHei-2e"/>
     <use x="150" xlink:href="#SimHei-32"/>
     <use x="200" xlink:href="#SimHei-31"/>
     <use x="250" xlink:href="#SimHei-25"/>
    </g>
   </g>
   <g id="text_20">
    <!-- 36.34% -->
    <g transform="translate(376.227204 209.911848)scale(0.1 -0.1)">
     <use xlink:href="#SimHei-33"/>
     <use x="50" xlink:href="#SimHei-36"/>
     <use x="100" xlink:href="#SimHei-2e"/>
     <use x="150" xlink:href="#SimHei-33"/>
     <use x="200" xlink:href="#SimHei-34"/>
     <use x="250" xlink:href="#SimHei-25"/>
    </g>
   </g>
   <g id="text_21">
    <!-- CLEAR MOT指标 -->
    <defs>
     <path d="M 46.484375 28.515625 
Q 46.09375 13.671875 40.234375 7.421875 
Q 34.375 1.171875 26.171875 1.171875 
Q 16.796875 1.171875 10.15625 8.78125 
Q 3.515625 16.40625 3.515625 33.203125 
Q 3.515625 51.5625 9.953125 60.546875 
Q 16.40625 69.53125 26.5625 69.53125 
Q 35.15625 69.53125 40.8125 63.078125 
Q 46.484375 56.640625 46.09375 44.921875 
L 37.5 44.921875 
Q 37.5 53.515625 34.765625 57.8125 
Q 32.03125 62.109375 26.5625 62.109375 
Q 20.3125 62.109375 16.59375 55.65625 
Q 12.890625 49.21875 12.890625 33.984375 
Q 12.890625 19.921875 16.59375 14.25 
Q 20.3125 8.59375 26.171875 8.59375 
Q 30.46875 8.59375 33.984375 12.6875 
Q 37.5 16.796875 37.5 28.515625 
z
" id="SimHei-43"/>
     <path d="M 45.3125 1.953125 
L 4.6875 1.953125 
L 4.6875 68.75 
L 13.671875 68.75 
L 13.671875 9.375 
L 45.3125 9.375 
z
" id="SimHei-4c"/>
     <path d="M 45.3125 1.953125 
L 5.46875 1.953125 
L 5.46875 68.75 
L 43.359375 68.75 
L 43.359375 61.328125 
L 14.453125 61.328125 
L 14.453125 40.625 
L 41.015625 40.625 
L 41.015625 33.203125 
L 14.453125 33.203125 
L 14.453125 9.375 
L 45.3125 9.375 
z
" id="SimHei-45"/>
     <path d="M 48.046875 1.953125 
L 38.671875 1.953125 
L 33.203125 22.65625 
L 16.015625 22.65625 
L 10.546875 1.953125 
L 1.171875 1.953125 
L 20.703125 69.53125 
L 28.515625 69.53125 
z
M 31.25 30.078125 
L 25 53.90625 
L 24.21875 53.90625 
L 17.96875 30.078125 
z
" id="SimHei-41"/>
     <path d="M 46.875 1.953125 
L 37.5 1.953125 
L 23.4375 30.859375 
L 13.28125 30.859375 
L 13.28125 1.953125 
L 4.296875 1.953125 
L 4.296875 68.75 
L 23.828125 68.75 
Q 33.203125 68.75 39.0625 64.25 
Q 44.921875 59.765625 44.921875 49.609375 
Q 44.921875 41.796875 41.015625 37.5 
Q 37.109375 33.203125 32.03125 32.03125 
z
M 35.9375 49.609375 
Q 35.9375 55.078125 32.609375 58.203125 
Q 29.296875 61.328125 21.875 61.328125 
L 13.28125 61.328125 
L 13.28125 38.28125 
L 24.21875 38.28125 
Q 28.90625 38.28125 32.421875 40.8125 
Q 35.9375 43.359375 35.9375 49.609375 
z
" id="SimHei-52"/>
     <path id="SimHei-20"/>
     <path d="M 45.703125 1.953125 
L 37.890625 1.953125 
L 37.890625 49.609375 
L 37.109375 49.609375 
L 27.734375 1.953125 
L 21.484375 1.953125 
L 12.109375 49.609375 
L 11.328125 49.609375 
L 11.328125 1.953125 
L 3.515625 1.953125 
L 3.515625 68.75 
L 15.625 68.75 
L 24.21875 24.609375 
L 25 24.609375 
L 33.59375 68.75 
L 45.703125 68.75 
z
" id="SimHei-4d"/>
     <path d="M 46.09375 35.546875 
Q 46.09375 17.1875 40.421875 9.171875 
Q 34.765625 1.171875 24.609375 1.171875 
Q 14.453125 1.171875 8.59375 9.171875 
Q 2.734375 17.1875 2.734375 35.546875 
Q 2.734375 53.90625 8.59375 61.71875 
Q 14.453125 69.53125 24.609375 69.53125 
Q 34.765625 69.53125 40.421875 61.71875 
Q 46.09375 53.90625 46.09375 35.546875 
z
M 36.71875 35.546875 
Q 36.71875 51.953125 33.203125 57.03125 
Q 29.6875 62.109375 24.609375 62.109375 
Q 19.53125 62.109375 15.8125 57.03125 
Q 12.109375 51.953125 12.109375 35.546875 
Q 12.109375 19.140625 15.8125 13.859375 
Q 19.53125 8.59375 24.609375 8.59375 
Q 29.6875 8.59375 33.203125 13.859375 
Q 36.71875 19.140625 36.71875 35.546875 
z
" id="SimHei-4f"/>
     <path d="M 44.53125 61.328125 
L 28.90625 61.328125 
L 28.90625 1.953125 
L 19.921875 1.953125 
L 19.921875 61.328125 
L 4.296875 61.328125 
L 4.296875 68.75 
L 44.53125 68.75 
z
" id="SimHei-54"/>
     <path d="M 87.890625 34.765625 
Q 87.5 30.078125 87.5 21.09375 
L 87.5 4.6875 
Q 87.5 -3.515625 87.890625 -8.203125 
L 80.078125 -8.203125 
L 80.078125 -1.953125 
L 51.5625 -1.953125 
L 51.5625 -9.765625 
L 43.75 -9.765625 
Q 44.140625 -4.6875 44.140625 4.6875 
L 44.140625 21.09375 
Q 44.140625 30.078125 43.75 34.765625 
L 87.890625 34.765625 
z
M 7.8125 0.390625 
Q 16.796875 -0.390625 18.359375 0.578125 
Q 19.921875 1.5625 19.921875 4.296875 
L 19.921875 26.171875 
Q 16.40625 25 14.453125 24.015625 
Q 12.5 23.046875 7.421875 19.921875 
Q 6.25 23.828125 3.515625 28.125 
Q 9.765625 29.6875 12.890625 30.859375 
Q 16.015625 32.03125 19.921875 33.203125 
L 19.921875 51.5625 
L 17.1875 51.5625 
Q 12.109375 51.5625 7.03125 51.171875 
L 7.03125 58.203125 
Q 11.71875 57.8125 17.1875 57.8125 
L 19.921875 57.8125 
L 19.921875 69.53125 
Q 19.921875 75 19.53125 80.078125 
L 27.734375 80.078125 
Q 27.34375 75.78125 27.34375 69.53125 
L 27.34375 57.8125 
Q 32.421875 57.8125 37.890625 58.203125 
L 37.890625 51.171875 
Q 32.03125 51.5625 27.34375 51.5625 
L 27.34375 36.328125 
Q 28.90625 36.71875 31.640625 37.890625 
L 37.109375 40.234375 
Q 36.71875 35.9375 37.109375 32.8125 
Q 34.765625 32.03125 32.21875 31.046875 
Q 29.6875 30.078125 27.34375 28.90625 
L 27.34375 1.5625 
Q 26.953125 -3.125 24.609375 -5.265625 
Q 22.265625 -7.421875 10.546875 -8.203125 
Q 9.765625 -3.90625 7.8125 0.390625 
z
M 51.953125 78.515625 
Q 51.5625 73.046875 51.5625 64.453125 
Q 64.453125 66.796875 70.5 68.9375 
Q 76.5625 71.09375 81.640625 73.828125 
Q 83.203125 69.921875 87.109375 66.40625 
Q 85.15625 66.015625 81.828125 65.234375 
Q 78.515625 64.453125 73.828125 63.28125 
Q 69.140625 62.109375 63.078125 60.734375 
Q 57.03125 59.375 51.5625 58.203125 
L 51.5625 49.609375 
Q 51.171875 45.703125 57.8125 45.703125 
L 76.953125 45.703125 
Q 82.8125 45.703125 84.171875 48.234375 
Q 85.546875 50.78125 86.71875 56.25 
Q 89.84375 53.125 94.53125 51.5625 
Q 91.015625 42.578125 89.0625 41.203125 
Q 87.109375 39.84375 82.421875 39.453125 
L 52.34375 39.453125 
Q 47.65625 39.453125 45.890625 41.984375 
Q 44.140625 44.53125 44.140625 46.484375 
L 44.140625 64.453125 
Q 44.140625 74.609375 43.75 78.515625 
z
M 80.078125 4.296875 
L 80.078125 13.671875 
L 51.5625 13.671875 
L 51.5625 4.296875 
z
M 80.078125 19.53125 
L 80.078125 28.515625 
L 51.5625 28.515625 
L 51.5625 19.53125 
z
" id="SimHei-6307"/>
     <path d="M 19.921875 68.75 
Q 19.921875 75 19.53125 80.859375 
L 27.34375 80.859375 
Q 26.953125 75.390625 26.953125 68.75 
L 26.953125 59.375 
Q 33.203125 59.375 40.234375 59.765625 
L 40.234375 52.34375 
Q 33.203125 52.734375 26.953125 52.734375 
L 26.953125 39.453125 
Q 29.6875 41.40625 32.421875 43.75 
Q 37.5 35.546875 41.40625 27.734375 
Q 37.109375 25.78125 33.984375 23.4375 
Q 31.640625 31.25 26.953125 37.890625 
L 26.953125 7.421875 
Q 26.953125 -0.78125 27.34375 -8.984375 
L 19.53125 -8.984375 
Q 19.921875 -0.390625 19.921875 7.421875 
L 19.921875 32.8125 
Q 16.015625 21.875 7.8125 11.71875 
Q 5.46875 14.84375 1.953125 17.578125 
Q 8.59375 24.21875 12.6875 34.171875 
Q 16.796875 44.140625 17.96875 52.734375 
Q 10.546875 52.734375 5.078125 51.953125 
L 5.078125 59.765625 
Q 12.5 59.375 19.921875 59.375 
z
M 80.859375 48.828125 
Q 88.671875 48.828125 94.53125 49.21875 
L 94.53125 41.796875 
Q 88.671875 42.1875 82.421875 42.1875 
L 70.3125 42.1875 
L 70.3125 2.734375 
Q 70.3125 -3.515625 66.796875 -5.46875 
Q 63.28125 -7.421875 54.296875 -8.59375 
Q 53.515625 -3.90625 51.171875 0.390625 
Q 58.984375 0.390625 60.9375 0.96875 
Q 62.890625 1.5625 62.890625 5.46875 
L 62.890625 42.1875 
L 53.125 42.1875 
Q 43.359375 42.1875 39.0625 41.40625 
L 39.0625 49.21875 
Q 44.140625 48.828125 53.125 48.828125 
z
M 76.5625 74.609375 
Q 84.765625 74.609375 89.84375 75 
L 89.84375 67.1875 
Q 82.421875 67.96875 74.21875 67.96875 
L 55.078125 67.96875 
Q 48.828125 67.96875 42.96875 67.1875 
L 42.96875 75 
Q 48.4375 74.609375 55.078125 74.609375 
z
M 82.421875 31.640625 
Q 91.015625 18.359375 96.875 7.8125 
Q 92.578125 5.859375 88.28125 3.125 
Q 83.984375 14.453125 75.390625 26.953125 
Q 79.296875 28.90625 82.421875 31.640625 
z
M 56.25 27.734375 
Q 54.6875 25.390625 50.390625 15.234375 
Q 46.09375 5.078125 43.75 0.78125 
Q 40.234375 2.734375 35.9375 4.296875 
Q 41.015625 12.109375 43.546875 18.546875 
Q 46.09375 25 47.65625 31.25 
Q 51.953125 29.296875 56.25 27.734375 
z
" id="SimHei-6807"/>
    </defs>
    <g transform="translate(197.16 35.472)scale(0.12 -0.12)">
     <use xlink:href="#SimHei-43"/>
     <use x="50" xlink:href="#SimHei-4c"/>
     <use x="100" xlink:href="#SimHei-45"/>
     <use x="150" xlink:href="#SimHei-41"/>
     <use x="200" xlink:href="#SimHei-52"/>
     <use x="250" xlink:href="#SimHei-20"/>
     <use x="300" xlink:href="#SimHei-4d"/>
     <use x="350" xlink:href="#SimHei-4f"/>
     <use x="400" xlink:href="#SimHei-54"/>
     <use x="450" xlink:href="#SimHei-6307"/>
     <use x="550" xlink:href="#SimHei-6807"/>
    </g>
   </g>
   <g id="legend_1">
    <g id="patch_17">
     <path d="M 176.16 342.1396 
L 296.16 342.1396 
Q 298.16 342.1396 298.16 340.1396 
L 298.16 327.8896 
Q 298.16 325.8896 296.16 325.8896 
L 176.16 325.8896 
Q 174.16 325.8896 174.16 327.8896 
L 174.16 340.1396 
Q 174.16 342.1396 176.16 342.1396 
z
" style="fill:#ffffff;opacity:0.8;stroke:#cccccc;stroke-linejoin:miter;"/>
    </g>
    <g id="patch_18">
     <path d="M 178.16 336.8896 
L 198.16 336.8896 
L 198.16 329.8896 
L 178.16 329.8896 
z
" style="fill:#0000ff;opacity:0.7;"/>
    </g>
    <g id="text_22">
     <!-- MOTP -->
     <defs>
      <path d="M 46.09375 48.4375 
Q 46.09375 39.0625 40.625 33.59375 
Q 35.15625 28.125 25.390625 28.125 
L 14.0625 28.125 
L 14.0625 1.953125 
L 5.078125 1.953125 
L 5.078125 68.75 
L 25.390625 68.75 
Q 35.15625 68.75 40.625 63.28125 
Q 46.09375 57.8125 46.09375 48.4375 
z
M 37.109375 48.4375 
Q 37.109375 55.859375 33.59375 58.59375 
Q 30.078125 61.328125 23.046875 61.328125 
L 14.0625 61.328125 
L 14.0625 35.546875 
L 23.046875 35.546875 
Q 30.078125 35.546875 33.59375 38.28125 
Q 37.109375 41.015625 37.109375 48.4375 
z
" id="SimHei-50"/>
     </defs>
     <g transform="translate(206.16 336.8896)scale(0.1 -0.1)">
      <use xlink:href="#SimHei-4d"/>
      <use x="50" xlink:href="#SimHei-4f"/>
      <use x="100" xlink:href="#SimHei-54"/>
      <use x="150" xlink:href="#SimHei-50"/>
     </g>
    </g>
    <g id="patch_19">
     <path d="M 246.16 336.8896 
L 266.16 336.8896 
L 266.16 329.8896 
L 246.16 329.8896 
z
" style="fill:#ff0000;opacity:0.7;"/>
    </g>
    <g id="text_23">
     <!-- MOTA -->
     <g transform="translate(274.16 336.8896)scale(0.1 -0.1)">
      <use xlink:href="#SimHei-4d"/>
      <use x="50" xlink:href="#SimHei-4f"/>
      <use x="100" xlink:href="#SimHei-54"/>
      <use x="150" xlink:href="#SimHei-41"/>
     </g>
    </g>
   </g>
  </g>
 </g>
 <defs>
  <clipPath id="p9d8843e9b8">
   <rect height="266.112" width="357.12" x="57.6" y="41.472"/>
  </clipPath>
 </defs>
</svg>
