<?xml version="1.0" encoding="utf-8" standalone="no"?>
<!DOCTYPE svg PUBLIC "-//W3C//DTD SVG 1.1//EN"
  "http://www.w3.org/Graphics/SVG/1.1/DTD/svg11.dtd">
<!-- Created with matplotlib (http://matplotlib.org/) -->
<svg height="345.6pt" version="1.1" viewBox="0 0 460.8 345.6" width="460.8pt" xmlns="http://www.w3.org/2000/svg" xmlns:xlink="http://www.w3.org/1999/xlink">
 <defs>
  <style type="text/css">
*{stroke-linecap:butt;stroke-linejoin:round;}
  </style>
 </defs>
 <g id="figure_1">
  <g id="patch_1">
   <path d="M 0 345.6 
L 460.8 345.6 
L 460.8 0 
L 0 0 
z
" style="fill:#ffffff;"/>
  </g>
  <g id="axes_1">
   <g id="patch_2">
    <path d="M 57.6 307.584 
L 414.72 307.584 
L 414.72 41.472 
L 57.6 41.472 
z
" style="fill:#ffffff;"/>
   </g>
   <g id="matplotlib.axis_1">
    <g id="xtick_1">
     <g id="line2d_1">
      <path clip-path="url(#p6b01815e25)" d="M 65.926654 307.584 
L 65.926654 41.472 
" style="fill:none;stroke:#b0b0b0;stroke-dasharray:5.12,1.28,0.8,1.28;stroke-dashoffset:0;stroke-width:0.8;"/>
     </g>
     <g id="line2d_2">
      <defs>
       <path d="M 0 0 
L 0 3.5 
" id="m6d2b9970aa" style="stroke:#000000;stroke-width:0.8;"/>
      </defs>
      <g>
       <use style="stroke:#000000;stroke-width:0.8;" x="65.926654" xlink:href="#m6d2b9970aa" y="307.584"/>
      </g>
     </g>
     <g id="text_1">
      <!-- 0 -->
      <defs>
       <path d="M 3.125 29.296875 
Q 3.90625 50 6.4375 56.046875 
Q 8.984375 62.109375 13.671875 66.015625 
Q 18.359375 69.921875 25.1875 69.921875 
Q 32.03125 69.921875 37.109375 64.25 
Q 42.1875 58.59375 43.75 50 
Q 45.3125 41.40625 44.71875 30.265625 
Q 44.140625 19.140625 40.8125 12.109375 
Q 37.5 5.078125 30.859375 2.34375 
Q 24.21875 -0.390625 17.578125 2.921875 
Q 10.9375 6.25 8.203125 11.71875 
Q 5.46875 17.1875 4.296875 23.234375 
Q 3.125 29.296875 3.90625 50 
z
M 12.890625 52.734375 
Q 10.546875 31.25 12.5 22.84375 
Q 14.453125 14.453125 18.9375 10.9375 
Q 23.4375 7.421875 28.125 9.5625 
Q 32.8125 11.71875 34.953125 18.15625 
Q 37.109375 24.609375 37.109375 32.21875 
Q 37.109375 39.84375 36.515625 46.09375 
Q 35.9375 52.34375 33 57.421875 
Q 30.078125 62.5 25.1875 62.6875 
Q 20.3125 62.890625 16.59375 57.8125 
Q 12.890625 52.734375 10.546875 31.25 
z
" id="SimHei-30"/>
      </defs>
      <g transform="translate(63.426654 321.459)scale(0.1 -0.1)">
       <use xlink:href="#SimHei-30"/>
      </g>
     </g>
    </g>
    <g id="xtick_2">
     <g id="line2d_3">
      <path clip-path="url(#p6b01815e25)" d="M 119.709463 307.584 
L 119.709463 41.472 
" style="fill:none;stroke:#b0b0b0;stroke-dasharray:5.12,1.28,0.8,1.28;stroke-dashoffset:0;stroke-width:0.8;"/>
     </g>
     <g id="line2d_4">
      <g>
       <use style="stroke:#000000;stroke-width:0.8;" x="119.709463" xlink:href="#m6d2b9970aa" y="307.584"/>
      </g>
     </g>
     <g id="text_2">
      <!-- 5 -->
      <defs>
       <path d="M 8.59375 20.703125 
Q 11.328125 10.15625 17.96875 8.984375 
Q 24.609375 7.8125 28.703125 10.34375 
Q 32.8125 12.890625 34.5625 16.984375 
Q 36.328125 21.09375 36.125 26.171875 
Q 35.9375 31.25 33.390625 34.765625 
Q 30.859375 38.28125 26.953125 39.453125 
Q 23.046875 40.625 18.15625 39.453125 
Q 13.28125 38.28125 10.15625 33.984375 
L 3.515625 34.765625 
Q 4.296875 37.109375 10.9375 68.359375 
L 41.796875 68.359375 
L 41.796875 61.328125 
L 16.796875 61.328125 
Q 14.84375 50.78125 12.890625 44.53125 
Q 18.75 47.265625 23.828125 47.0625 
Q 28.90625 46.875 33.59375 44.71875 
Q 38.28125 42.578125 40.421875 38.859375 
Q 42.578125 35.15625 43.546875 31.4375 
Q 44.53125 27.734375 44.328125 23.4375 
Q 44.140625 19.140625 42.578125 14.640625 
Q 41.015625 10.15625 37.890625 7.21875 
Q 34.765625 4.296875 30.265625 2.53125 
Q 25.78125 0.78125 19.921875 1.171875 
Q 14.0625 1.5625 8.78125 5.46875 
Q 3.515625 9.375 1.5625 18.75 
z
" id="SimHei-35"/>
      </defs>
      <g transform="translate(117.209463 321.459)scale(0.1 -0.1)">
       <use xlink:href="#SimHei-35"/>
      </g>
     </g>
    </g>
    <g id="xtick_3">
     <g id="line2d_5">
      <path clip-path="url(#p6b01815e25)" d="M 173.492271 307.584 
L 173.492271 41.472 
" style="fill:none;stroke:#b0b0b0;stroke-dasharray:5.12,1.28,0.8,1.28;stroke-dashoffset:0;stroke-width:0.8;"/>
     </g>
     <g id="line2d_6">
      <g>
       <use style="stroke:#000000;stroke-width:0.8;" x="173.492271" xlink:href="#m6d2b9970aa" y="307.584"/>
      </g>
     </g>
     <g id="text_3">
      <!-- 10 -->
      <defs>
       <path d="M 21.875 56.25 
Q 16.796875 51.171875 8.984375 46.484375 
L 8.984375 53.90625 
Q 18.75 60.546875 25 69.53125 
L 29.6875 69.53125 
L 29.6875 2.34375 
L 21.875 2.34375 
z
" id="SimHei-31"/>
      </defs>
      <g transform="translate(168.492271 321.459)scale(0.1 -0.1)">
       <use xlink:href="#SimHei-31"/>
       <use x="50" xlink:href="#SimHei-30"/>
      </g>
     </g>
    </g>
    <g id="xtick_4">
     <g id="line2d_7">
      <path clip-path="url(#p6b01815e25)" d="M 227.27508 307.584 
L 227.27508 41.472 
" style="fill:none;stroke:#b0b0b0;stroke-dasharray:5.12,1.28,0.8,1.28;stroke-dashoffset:0;stroke-width:0.8;"/>
     </g>
     <g id="line2d_8">
      <g>
       <use style="stroke:#000000;stroke-width:0.8;" x="227.27508" xlink:href="#m6d2b9970aa" y="307.584"/>
      </g>
     </g>
     <g id="text_4">
      <!-- 15 -->
      <g transform="translate(222.27508 321.459)scale(0.1 -0.1)">
       <use xlink:href="#SimHei-31"/>
       <use x="50" xlink:href="#SimHei-35"/>
      </g>
     </g>
    </g>
    <g id="xtick_5">
     <g id="line2d_9">
      <path clip-path="url(#p6b01815e25)" d="M 281.057889 307.584 
L 281.057889 41.472 
" style="fill:none;stroke:#b0b0b0;stroke-dasharray:5.12,1.28,0.8,1.28;stroke-dashoffset:0;stroke-width:0.8;"/>
     </g>
     <g id="line2d_10">
      <g>
       <use style="stroke:#000000;stroke-width:0.8;" x="281.057889" xlink:href="#m6d2b9970aa" y="307.584"/>
      </g>
     </g>
     <g id="text_5">
      <!-- 20 -->
      <defs>
       <path d="M 4.6875 3.90625 
Q 5.078125 9.765625 10.15625 14.453125 
Q 15.234375 19.140625 23.046875 29.09375 
Q 30.859375 39.0625 33.203125 44.53125 
Q 35.546875 50 34.953125 53.90625 
Q 34.375 57.8125 31.25 60.34375 
Q 28.125 62.890625 24.015625 62.5 
Q 19.921875 62.109375 16.203125 59.375 
Q 12.5 56.640625 10.546875 51.171875 
L 3.125 52.34375 
Q 6.25 61.328125 11.125 65.421875 
Q 16.015625 69.53125 22.65625 69.921875 
Q 26.5625 70.3125 29.6875 69.71875 
Q 32.8125 69.140625 36.125 66.984375 
Q 39.453125 64.84375 41.59375 60.546875 
Q 43.75 56.25 43.15625 50.1875 
Q 42.578125 44.140625 37.109375 35.734375 
Q 31.640625 27.34375 16.015625 9.375 
L 44.140625 9.375 
L 44.140625 2.34375 
L 4.6875 2.34375 
z
" id="SimHei-32"/>
      </defs>
      <g transform="translate(276.057889 321.459)scale(0.1 -0.1)">
       <use xlink:href="#SimHei-32"/>
       <use x="50" xlink:href="#SimHei-30"/>
      </g>
     </g>
    </g>
    <g id="xtick_6">
     <g id="line2d_11">
      <path clip-path="url(#p6b01815e25)" d="M 334.840697 307.584 
L 334.840697 41.472 
" style="fill:none;stroke:#b0b0b0;stroke-dasharray:5.12,1.28,0.8,1.28;stroke-dashoffset:0;stroke-width:0.8;"/>
     </g>
     <g id="line2d_12">
      <g>
       <use style="stroke:#000000;stroke-width:0.8;" x="334.840697" xlink:href="#m6d2b9970aa" y="307.584"/>
      </g>
     </g>
     <g id="text_6">
      <!-- 25 -->
      <g transform="translate(329.840697 321.459)scale(0.1 -0.1)">
       <use xlink:href="#SimHei-32"/>
       <use x="50" xlink:href="#SimHei-35"/>
      </g>
     </g>
    </g>
    <g id="xtick_7">
     <g id="line2d_13">
      <path clip-path="url(#p6b01815e25)" d="M 388.623506 307.584 
L 388.623506 41.472 
" style="fill:none;stroke:#b0b0b0;stroke-dasharray:5.12,1.28,0.8,1.28;stroke-dashoffset:0;stroke-width:0.8;"/>
     </g>
     <g id="line2d_14">
      <g>
       <use style="stroke:#000000;stroke-width:0.8;" x="388.623506" xlink:href="#m6d2b9970aa" y="307.584"/>
      </g>
     </g>
     <g id="text_7">
      <!-- 30 -->
      <defs>
       <path d="M 3.90625 19.140625 
L 10.9375 20.3125 
Q 12.5 15.234375 16.015625 11.90625 
Q 19.53125 8.59375 24.796875 8.78125 
Q 30.078125 8.984375 33.203125 13.078125 
Q 36.328125 17.1875 35.9375 22.453125 
Q 35.546875 27.734375 31.828125 30.65625 
Q 28.125 33.59375 19.921875 34.765625 
L 19.921875 39.84375 
Q 28.125 40.625 31.828125 44.140625 
Q 35.546875 47.65625 35.15625 53.3125 
Q 34.765625 58.984375 30.078125 61.515625 
Q 25.390625 64.0625 20.109375 62.109375 
Q 14.84375 60.15625 11.71875 51.171875 
L 4.6875 52.34375 
Q 7.03125 59.375 11.125 64.0625 
Q 15.234375 68.75 22.265625 69.53125 
Q 29.296875 70.3125 34.5625 67.765625 
Q 39.84375 65.234375 41.984375 59.953125 
Q 44.140625 54.6875 42.578125 48.4375 
Q 41.015625 42.1875 33.59375 37.5 
Q 39.0625 35.15625 41.984375 30.46875 
Q 44.921875 25.78125 43.9375 18.15625 
Q 42.96875 10.546875 37.109375 5.859375 
Q 31.25 1.171875 23.828125 1.359375 
Q 16.40625 1.5625 10.9375 6.046875 
Q 5.46875 10.546875 3.90625 19.140625 
z
" id="SimHei-33"/>
      </defs>
      <g transform="translate(383.623506 321.459)scale(0.1 -0.1)">
       <use xlink:href="#SimHei-33"/>
       <use x="50" xlink:href="#SimHei-30"/>
      </g>
     </g>
    </g>
    <g id="text_8">
     <!-- X Position [m] -->
     <defs>
      <path d="M 6.296875 72.90625 
L 16.890625 72.90625 
L 35.015625 45.796875 
L 53.21875 72.90625 
L 63.8125 72.90625 
L 40.375 37.890625 
L 65.375 0 
L 54.78125 0 
L 34.28125 31 
L 13.625 0 
L 2.984375 0 
L 29 38.921875 
z
" id="DejaVuSans-58"/>
      <path id="DejaVuSans-20"/>
      <path d="M 19.671875 64.796875 
L 19.671875 37.40625 
L 32.078125 37.40625 
Q 38.96875 37.40625 42.71875 40.96875 
Q 46.484375 44.53125 46.484375 51.125 
Q 46.484375 57.671875 42.71875 61.234375 
Q 38.96875 64.796875 32.078125 64.796875 
z
M 9.8125 72.90625 
L 32.078125 72.90625 
Q 44.34375 72.90625 50.609375 67.359375 
Q 56.890625 61.8125 56.890625 51.125 
Q 56.890625 40.328125 50.609375 34.8125 
Q 44.34375 29.296875 32.078125 29.296875 
L 19.671875 29.296875 
L 19.671875 0 
L 9.8125 0 
z
" id="DejaVuSans-50"/>
      <path d="M 30.609375 48.390625 
Q 23.390625 48.390625 19.1875 42.75 
Q 14.984375 37.109375 14.984375 27.296875 
Q 14.984375 17.484375 19.15625 11.84375 
Q 23.34375 6.203125 30.609375 6.203125 
Q 37.796875 6.203125 41.984375 11.859375 
Q 46.1875 17.53125 46.1875 27.296875 
Q 46.1875 37.015625 41.984375 42.703125 
Q 37.796875 48.390625 30.609375 48.390625 
z
M 30.609375 56 
Q 42.328125 56 49.015625 48.375 
Q 55.71875 40.765625 55.71875 27.296875 
Q 55.71875 13.875 49.015625 6.21875 
Q 42.328125 -1.421875 30.609375 -1.421875 
Q 18.84375 -1.421875 12.171875 6.21875 
Q 5.515625 13.875 5.515625 27.296875 
Q 5.515625 40.765625 12.171875 48.375 
Q 18.84375 56 30.609375 56 
z
" id="DejaVuSans-6f"/>
      <path d="M 44.28125 53.078125 
L 44.28125 44.578125 
Q 40.484375 46.53125 36.375 47.5 
Q 32.28125 48.484375 27.875 48.484375 
Q 21.1875 48.484375 17.84375 46.4375 
Q 14.5 44.390625 14.5 40.28125 
Q 14.5 37.15625 16.890625 35.375 
Q 19.28125 33.59375 26.515625 31.984375 
L 29.59375 31.296875 
Q 39.15625 29.25 43.1875 25.515625 
Q 47.21875 21.78125 47.21875 15.09375 
Q 47.21875 7.46875 41.1875 3.015625 
Q 35.15625 -1.421875 24.609375 -1.421875 
Q 20.21875 -1.421875 15.453125 -0.5625 
Q 10.6875 0.296875 5.421875 2 
L 5.421875 11.28125 
Q 10.40625 8.6875 15.234375 7.390625 
Q 20.0625 6.109375 24.8125 6.109375 
Q 31.15625 6.109375 34.5625 8.28125 
Q 37.984375 10.453125 37.984375 14.40625 
Q 37.984375 18.0625 35.515625 20.015625 
Q 33.0625 21.96875 24.703125 23.78125 
L 21.578125 24.515625 
Q 13.234375 26.265625 9.515625 29.90625 
Q 5.8125 33.546875 5.8125 39.890625 
Q 5.8125 47.609375 11.28125 51.796875 
Q 16.75 56 26.8125 56 
Q 31.78125 56 36.171875 55.265625 
Q 40.578125 54.546875 44.28125 53.078125 
z
" id="DejaVuSans-73"/>
      <path d="M 9.421875 54.6875 
L 18.40625 54.6875 
L 18.40625 0 
L 9.421875 0 
z
M 9.421875 75.984375 
L 18.40625 75.984375 
L 18.40625 64.59375 
L 9.421875 64.59375 
z
" id="DejaVuSans-69"/>
      <path d="M 18.3125 70.21875 
L 18.3125 54.6875 
L 36.8125 54.6875 
L 36.8125 47.703125 
L 18.3125 47.703125 
L 18.3125 18.015625 
Q 18.3125 11.328125 20.140625 9.421875 
Q 21.96875 7.515625 27.59375 7.515625 
L 36.8125 7.515625 
L 36.8125 0 
L 27.59375 0 
Q 17.1875 0 13.234375 3.875 
Q 9.28125 7.765625 9.28125 18.015625 
L 9.28125 47.703125 
L 2.6875 47.703125 
L 2.6875 54.6875 
L 9.28125 54.6875 
L 9.28125 70.21875 
z
" id="DejaVuSans-74"/>
      <path d="M 54.890625 33.015625 
L 54.890625 0 
L 45.90625 0 
L 45.90625 32.71875 
Q 45.90625 40.484375 42.875 44.328125 
Q 39.84375 48.1875 33.796875 48.1875 
Q 26.515625 48.1875 22.3125 43.546875 
Q 18.109375 38.921875 18.109375 30.90625 
L 18.109375 0 
L 9.078125 0 
L 9.078125 54.6875 
L 18.109375 54.6875 
L 18.109375 46.1875 
Q 21.34375 51.125 25.703125 53.5625 
Q 30.078125 56 35.796875 56 
Q 45.21875 56 50.046875 50.171875 
Q 54.890625 44.34375 54.890625 33.015625 
z
" id="DejaVuSans-6e"/>
      <path d="M 8.59375 75.984375 
L 29.296875 75.984375 
L 29.296875 69 
L 17.578125 69 
L 17.578125 -6.203125 
L 29.296875 -6.203125 
L 29.296875 -13.1875 
L 8.59375 -13.1875 
z
" id="DejaVuSans-5b"/>
      <path d="M 52 44.1875 
Q 55.375 50.25 60.0625 53.125 
Q 64.75 56 71.09375 56 
Q 79.640625 56 84.28125 50.015625 
Q 88.921875 44.046875 88.921875 33.015625 
L 88.921875 0 
L 79.890625 0 
L 79.890625 32.71875 
Q 79.890625 40.578125 77.09375 44.375 
Q 74.3125 48.1875 68.609375 48.1875 
Q 61.625 48.1875 57.5625 43.546875 
Q 53.515625 38.921875 53.515625 30.90625 
L 53.515625 0 
L 44.484375 0 
L 44.484375 32.71875 
Q 44.484375 40.625 41.703125 44.40625 
Q 38.921875 48.1875 33.109375 48.1875 
Q 26.21875 48.1875 22.15625 43.53125 
Q 18.109375 38.875 18.109375 30.90625 
L 18.109375 0 
L 9.078125 0 
L 9.078125 54.6875 
L 18.109375 54.6875 
L 18.109375 46.1875 
Q 21.1875 51.21875 25.484375 53.609375 
Q 29.78125 56 35.6875 56 
Q 41.65625 56 45.828125 52.96875 
Q 50 49.953125 52 44.1875 
z
" id="DejaVuSans-6d"/>
      <path d="M 30.421875 75.984375 
L 30.421875 -13.1875 
L 9.71875 -13.1875 
L 9.71875 -6.203125 
L 21.390625 -6.203125 
L 21.390625 69 
L 9.71875 69 
L 9.71875 75.984375 
z
" id="DejaVuSans-5d"/>
     </defs>
     <g transform="translate(190.636641 336.586969)scale(0.13 -0.13)">
      <use xlink:href="#DejaVuSans-58"/>
      <use x="68.505859" xlink:href="#DejaVuSans-20"/>
      <use x="100.292969" xlink:href="#DejaVuSans-50"/>
      <use x="160.548828" xlink:href="#DejaVuSans-6f"/>
      <use x="221.730469" xlink:href="#DejaVuSans-73"/>
      <use x="273.830078" xlink:href="#DejaVuSans-69"/>
      <use x="301.613281" xlink:href="#DejaVuSans-74"/>
      <use x="340.822266" xlink:href="#DejaVuSans-69"/>
      <use x="368.605469" xlink:href="#DejaVuSans-6f"/>
      <use x="429.787109" xlink:href="#DejaVuSans-6e"/>
      <use x="493.166016" xlink:href="#DejaVuSans-20"/>
      <use x="524.953125" xlink:href="#DejaVuSans-5b"/>
      <use x="563.966797" xlink:href="#DejaVuSans-6d"/>
      <use x="661.378906" xlink:href="#DejaVuSans-5d"/>
     </g>
    </g>
   </g>
   <g id="matplotlib.axis_2">
    <g id="ytick_1">
     <g id="line2d_15">
      <path clip-path="url(#p6b01815e25)" d="M 57.6 305.541859 
L 414.72 305.541859 
" style="fill:none;stroke:#b0b0b0;stroke-dasharray:5.12,1.28,0.8,1.28;stroke-dashoffset:0;stroke-width:0.8;"/>
     </g>
     <g id="line2d_16">
      <defs>
       <path d="M 0 0 
L -3.5 0 
" id="mc3489954da" style="stroke:#000000;stroke-width:0.8;"/>
      </defs>
      <g>
       <use style="stroke:#000000;stroke-width:0.8;" x="57.6" xlink:href="#mc3489954da" y="305.541859"/>
      </g>
     </g>
     <g id="text_9">
      <!-- -70 -->
      <defs>
       <path d="M 46.484375 33.203125 
L 1.953125 33.203125 
L 1.953125 39.453125 
L 46.484375 39.453125 
z
" id="SimHei-2d"/>
       <path d="M 13.28125 2.34375 
Q 20.3125 32.03125 37.890625 61.328125 
L 4.296875 61.328125 
L 4.296875 68.359375 
L 46.09375 68.359375 
L 46.09375 61.71875 
Q 27.734375 32.03125 21.875 2.34375 
L 13.28125 2.34375 
z
" id="SimHei-37"/>
      </defs>
      <g transform="translate(35.6 308.979359)scale(0.1 -0.1)">
       <use xlink:href="#SimHei-2d"/>
       <use x="50" xlink:href="#SimHei-37"/>
       <use x="100" xlink:href="#SimHei-30"/>
      </g>
     </g>
    </g>
    <g id="ytick_2">
     <g id="line2d_17">
      <path clip-path="url(#p6b01815e25)" d="M 57.6 265.834674 
L 414.72 265.834674 
" style="fill:none;stroke:#b0b0b0;stroke-dasharray:5.12,1.28,0.8,1.28;stroke-dashoffset:0;stroke-width:0.8;"/>
     </g>
     <g id="line2d_18">
      <g>
       <use style="stroke:#000000;stroke-width:0.8;" x="57.6" xlink:href="#mc3489954da" y="265.834674"/>
      </g>
     </g>
     <g id="text_10">
      <!-- -60 -->
      <defs>
       <path d="M 3.515625 19.53125 
Q 4.296875 30.859375 6.046875 34.765625 
Q 7.8125 38.671875 11.328125 44.53125 
L 27.34375 69.53125 
L 36.328125 69.53125 
L 19.921875 43.75 
Q 30.46875 46.484375 36.71875 42.96875 
Q 42.96875 39.453125 45.109375 34.953125 
Q 47.265625 30.46875 47.453125 25.1875 
Q 47.65625 19.921875 45.890625 14.84375 
Q 44.140625 9.765625 39.640625 5.65625 
Q 35.15625 1.5625 27.140625 1.171875 
Q 19.140625 0.78125 13.46875 4.09375 
Q 7.8125 7.421875 5.65625 13.46875 
Q 3.515625 19.53125 4.296875 30.859375 
z
M 12.5 16.015625 
Q 19.53125 8.59375 25.390625 8.203125 
Q 31.25 7.8125 35.15625 12.109375 
Q 39.0625 16.40625 39.0625 24.609375 
Q 39.0625 32.8125 34.171875 35.9375 
Q 29.296875 39.0625 23.234375 38.28125 
Q 17.1875 37.5 14.453125 32.421875 
Q 11.71875 27.34375 12.109375 21.671875 
Q 12.5 16.015625 19.53125 8.59375 
z
" id="SimHei-36"/>
      </defs>
      <g transform="translate(35.6 269.272174)scale(0.1 -0.1)">
       <use xlink:href="#SimHei-2d"/>
       <use x="50" xlink:href="#SimHei-36"/>
       <use x="100" xlink:href="#SimHei-30"/>
      </g>
     </g>
    </g>
    <g id="ytick_3">
     <g id="line2d_19">
      <path clip-path="url(#p6b01815e25)" d="M 57.6 226.127488 
L 414.72 226.127488 
" style="fill:none;stroke:#b0b0b0;stroke-dasharray:5.12,1.28,0.8,1.28;stroke-dashoffset:0;stroke-width:0.8;"/>
     </g>
     <g id="line2d_20">
      <g>
       <use style="stroke:#000000;stroke-width:0.8;" x="57.6" xlink:href="#mc3489954da" y="226.127488"/>
      </g>
     </g>
     <g id="text_11">
      <!-- -50 -->
      <g transform="translate(35.6 229.564988)scale(0.1 -0.1)">
       <use xlink:href="#SimHei-2d"/>
       <use x="50" xlink:href="#SimHei-35"/>
       <use x="100" xlink:href="#SimHei-30"/>
      </g>
     </g>
    </g>
    <g id="ytick_4">
     <g id="line2d_21">
      <path clip-path="url(#p6b01815e25)" d="M 57.6 186.420302 
L 414.72 186.420302 
" style="fill:none;stroke:#b0b0b0;stroke-dasharray:5.12,1.28,0.8,1.28;stroke-dashoffset:0;stroke-width:0.8;"/>
     </g>
     <g id="line2d_22">
      <g>
       <use style="stroke:#000000;stroke-width:0.8;" x="57.6" xlink:href="#mc3489954da" y="186.420302"/>
      </g>
     </g>
     <g id="text_12">
      <!-- -40 -->
      <defs>
       <path d="M 31.25 17.1875 
L 1.171875 17.1875 
L 1.171875 23.828125 
L 32.8125 69.53125 
L 38.671875 69.53125 
L 38.671875 23.828125 
L 48.046875 23.828125 
L 48.046875 17.1875 
L 38.671875 17.1875 
L 38.671875 2.34375 
L 31.25 2.34375 
z
M 31.25 23.828125 
L 31.25 54.6875 
L 9.375 23.828125 
z
" id="SimHei-34"/>
      </defs>
      <g transform="translate(35.6 189.857802)scale(0.1 -0.1)">
       <use xlink:href="#SimHei-2d"/>
       <use x="50" xlink:href="#SimHei-34"/>
       <use x="100" xlink:href="#SimHei-30"/>
      </g>
     </g>
    </g>
    <g id="ytick_5">
     <g id="line2d_23">
      <path clip-path="url(#p6b01815e25)" d="M 57.6 146.713116 
L 414.72 146.713116 
" style="fill:none;stroke:#b0b0b0;stroke-dasharray:5.12,1.28,0.8,1.28;stroke-dashoffset:0;stroke-width:0.8;"/>
     </g>
     <g id="line2d_24">
      <g>
       <use style="stroke:#000000;stroke-width:0.8;" x="57.6" xlink:href="#mc3489954da" y="146.713116"/>
      </g>
     </g>
     <g id="text_13">
      <!-- -30 -->
      <g transform="translate(35.6 150.150616)scale(0.1 -0.1)">
       <use xlink:href="#SimHei-2d"/>
       <use x="50" xlink:href="#SimHei-33"/>
       <use x="100" xlink:href="#SimHei-30"/>
      </g>
     </g>
    </g>
    <g id="ytick_6">
     <g id="line2d_25">
      <path clip-path="url(#p6b01815e25)" d="M 57.6 107.005931 
L 414.72 107.005931 
" style="fill:none;stroke:#b0b0b0;stroke-dasharray:5.12,1.28,0.8,1.28;stroke-dashoffset:0;stroke-width:0.8;"/>
     </g>
     <g id="line2d_26">
      <g>
       <use style="stroke:#000000;stroke-width:0.8;" x="57.6" xlink:href="#mc3489954da" y="107.005931"/>
      </g>
     </g>
     <g id="text_14">
      <!-- -20 -->
      <g transform="translate(35.6 110.443431)scale(0.1 -0.1)">
       <use xlink:href="#SimHei-2d"/>
       <use x="50" xlink:href="#SimHei-32"/>
       <use x="100" xlink:href="#SimHei-30"/>
      </g>
     </g>
    </g>
    <g id="ytick_7">
     <g id="line2d_27">
      <path clip-path="url(#p6b01815e25)" d="M 57.6 67.298745 
L 414.72 67.298745 
" style="fill:none;stroke:#b0b0b0;stroke-dasharray:5.12,1.28,0.8,1.28;stroke-dashoffset:0;stroke-width:0.8;"/>
     </g>
     <g id="line2d_28">
      <g>
       <use style="stroke:#000000;stroke-width:0.8;" x="57.6" xlink:href="#mc3489954da" y="67.298745"/>
      </g>
     </g>
     <g id="text_15">
      <!-- -10 -->
      <g transform="translate(35.6 70.736245)scale(0.1 -0.1)">
       <use xlink:href="#SimHei-2d"/>
       <use x="50" xlink:href="#SimHei-31"/>
       <use x="100" xlink:href="#SimHei-30"/>
      </g>
     </g>
    </g>
    <g id="text_16">
     <!-- Y Position [m] -->
     <defs>
      <path d="M -0.203125 72.90625 
L 10.40625 72.90625 
L 30.609375 42.921875 
L 50.6875 72.90625 
L 61.28125 72.90625 
L 35.5 34.71875 
L 35.5 0 
L 25.59375 0 
L 25.59375 34.71875 
z
" id="DejaVuSans-59"/>
     </defs>
     <g transform="translate(28.896406 219.568938)rotate(-90)scale(0.13 -0.13)">
      <use xlink:href="#DejaVuSans-59"/>
      <use x="61.083984" xlink:href="#DejaVuSans-20"/>
      <use x="92.871094" xlink:href="#DejaVuSans-50"/>
      <use x="153.126953" xlink:href="#DejaVuSans-6f"/>
      <use x="214.308594" xlink:href="#DejaVuSans-73"/>
      <use x="266.408203" xlink:href="#DejaVuSans-69"/>
      <use x="294.191406" xlink:href="#DejaVuSans-74"/>
      <use x="333.400391" xlink:href="#DejaVuSans-69"/>
      <use x="361.183594" xlink:href="#DejaVuSans-6f"/>
      <use x="422.365234" xlink:href="#DejaVuSans-6e"/>
      <use x="485.744141" xlink:href="#DejaVuSans-20"/>
      <use x="517.53125" xlink:href="#DejaVuSans-5b"/>
      <use x="556.544922" xlink:href="#DejaVuSans-6d"/>
      <use x="653.957031" xlink:href="#DejaVuSans-5d"/>
     </g>
    </g>
   </g>
   <g id="line2d_29">
    <path clip-path="url(#p6b01815e25)" d="M 73.832727 53.568 
L 74.897627 54.822747 
L 76.231441 56.204557 
L 78.199891 57.403714 
L 84.406427 60.75103 
L 86.342609 61.874743 
L 91.527271 64.475564 
L 99.078378 68.343044 
L 105.112809 70.888274 
L 111.233292 73.501007 
L 114.5248 74.735901 
L 126.120374 78.234104 
L 133.725263 80.350497 
L 142.384295 82.288207 
L 155.657892 84.936677 
L 173.933291 87.898833 
L 192.316254 90.499653 
L 215.475132 93.672258 
L 224.854854 94.645084 
L 233.180432 95.95145 
L 241.936274 97.027515 
L 246.066793 97.460323 
L 258.587431 99.425829 
L 267.074358 100.533659 
L 283.112392 103.996126 
L 286.522222 105.119839 
L 290.254749 106.056929 
L 299.957167 109.011143 
L 306.249756 111.441223 
L 313.047903 114.216756 
L 325.417949 119.978268 
L 327.902715 121.348166 
L 332.571063 124.346059 
L 335.61517 125.819195 
L 338.368849 127.276449 
L 343.40292 130.472877 
L 345.586502 132.104843 
L 348.383208 133.756662 
L 353.148365 136.965002 
L 355.342704 138.759767 
L 357.311155 140.522766 
L 359.45171 142.218263 
L 363.367099 145.871324 
L 365.088149 147.733591 
L 368.347387 151.64872 
L 369.724227 153.58643 
L 373.316918 159.816488 
L 374.198956 162.103622 
L 375.446718 166.435676 
L 375.855467 168.659278 
L 376.006059 171.10127 
L 375.737145 173.209721 
L 375.285369 175.552445 
L 374.607706 179.952002 
L 373.973069 182.409876 
L 372.101427 186.837228 
L 368.895971 193.901136 
L 368.218308 196.069148 
L 364.561077 205.257391 
L 364.58259 207.508788 
L 364.464268 209.756215 
L 363.098185 216.772475 
L 363.646769 219.218438 
L 364.345946 221.446011 
L 364.894531 223.737115 
L 365.088149 226.258522 
L 365.389332 228.617128 
L 366.282127 230.777199 
L 366.927521 233.191396 
L 367.949394 235.458677 
L 371.197876 240.390309 
L 372.305802 242.649648 
L 373.693398 244.964577 
L 374.726028 247.343037 
L 376.081355 249.959741 
L 377.899214 252.350113 
L 378.770495 254.470477 
L 380.061283 256.872762 
L 380.921807 259.084452 
L 382.018977 261.347762 
L 383.374304 263.833432 
L 384.353151 266.096741 
L 388.042651 273.240064 
L 389.397978 275.554993 
L 391.603073 280.482654 
L 393.894221 285.497672 
L 394.787015 287.951576 
L 397.228755 292.791882 
L 398.487273 295.488 
L 398.487273 295.488 
" style="fill:none;stroke:#ff0000;stroke-linecap:square;stroke-width:1.5;"/>
    <defs>
     <path d="M 0 -3 
L -0.673542 -0.927051 
L -2.85317 -0.927051 
L -1.089814 0.354102 
L -1.763356 2.427051 
L -0 1.145898 
L 1.763356 2.427051 
L 1.089814 0.354102 
L 2.85317 -0.927051 
L 0.673542 -0.927051 
z
" id="m75c0f67744" style="stroke:#ff0000;stroke-linejoin:bevel;"/>
    </defs>
    <g clip-path="url(#p6b01815e25)">
     <use style="fill:#ff0000;stroke:#ff0000;stroke-linejoin:bevel;" x="73.832727" xlink:href="#m75c0f67744" y="53.568"/>
     <use style="fill:#ff0000;stroke:#ff0000;stroke-linejoin:bevel;" x="74.897627" xlink:href="#m75c0f67744" y="54.822747"/>
     <use style="fill:#ff0000;stroke:#ff0000;stroke-linejoin:bevel;" x="76.231441" xlink:href="#m75c0f67744" y="56.204557"/>
     <use style="fill:#ff0000;stroke:#ff0000;stroke-linejoin:bevel;" x="78.199891" xlink:href="#m75c0f67744" y="57.403714"/>
     <use style="fill:#ff0000;stroke:#ff0000;stroke-linejoin:bevel;" x="80.243638" xlink:href="#m75c0f67744" y="58.48772"/>
     <use style="fill:#ff0000;stroke:#ff0000;stroke-linejoin:bevel;" x="82.502516" xlink:href="#m75c0f67744" y="59.698789"/>
     <use style="fill:#ff0000;stroke:#ff0000;stroke-linejoin:bevel;" x="84.406427" xlink:href="#m75c0f67744" y="60.75103"/>
     <use style="fill:#ff0000;stroke:#ff0000;stroke-linejoin:bevel;" x="86.342609" xlink:href="#m75c0f67744" y="61.874743"/>
     <use style="fill:#ff0000;stroke:#ff0000;stroke-linejoin:bevel;" x="89.064019" xlink:href="#m75c0f67744" y="63.200963"/>
     <use style="fill:#ff0000;stroke:#ff0000;stroke-linejoin:bevel;" x="91.527271" xlink:href="#m75c0f67744" y="64.475564"/>
     <use style="fill:#ff0000;stroke:#ff0000;stroke-linejoin:bevel;" x="93.925985" xlink:href="#m75c0f67744" y="65.730311"/>
     <use style="fill:#ff0000;stroke:#ff0000;stroke-linejoin:bevel;" x="96.486046" xlink:href="#m75c0f67744" y="67.124033"/>
     <use style="fill:#ff0000;stroke:#ff0000;stroke-linejoin:bevel;" x="99.078378" xlink:href="#m75c0f67744" y="68.343044"/>
     <use style="fill:#ff0000;stroke:#ff0000;stroke-linejoin:bevel;" x="102.014919" xlink:href="#m75c0f67744" y="69.542201"/>
     <use style="fill:#ff0000;stroke:#ff0000;stroke-linejoin:bevel;" x="105.112809" xlink:href="#m75c0f67744" y="70.888274"/>
     <use style="fill:#ff0000;stroke:#ff0000;stroke-linejoin:bevel;" x="108.08162" xlink:href="#m75c0f67744" y="72.202582"/>
     <use style="fill:#ff0000;stroke:#ff0000;stroke-linejoin:bevel;" x="111.233292" xlink:href="#m75c0f67744" y="73.501007"/>
     <use style="fill:#ff0000;stroke:#ff0000;stroke-linejoin:bevel;" x="114.5248" xlink:href="#m75c0f67744" y="74.735901"/>
     <use style="fill:#ff0000;stroke:#ff0000;stroke-linejoin:bevel;" x="118.547754" xlink:href="#m75c0f67744" y="75.962853"/>
     <use style="fill:#ff0000;stroke:#ff0000;stroke-linejoin:bevel;" x="122.194229" xlink:href="#m75c0f67744" y="77.062742"/>
     <use style="fill:#ff0000;stroke:#ff0000;stroke-linejoin:bevel;" x="126.120374" xlink:href="#m75c0f67744" y="78.234104"/>
     <use style="fill:#ff0000;stroke:#ff0000;stroke-linejoin:bevel;" x="129.874414" xlink:href="#m75c0f67744" y="79.282374"/>
     <use style="fill:#ff0000;stroke:#ff0000;stroke-linejoin:bevel;" x="133.725263" xlink:href="#m75c0f67744" y="80.350497"/>
     <use style="fill:#ff0000;stroke:#ff0000;stroke-linejoin:bevel;" x="137.931078" xlink:href="#m75c0f67744" y="81.323323"/>
     <use style="fill:#ff0000;stroke:#ff0000;stroke-linejoin:bevel;" x="142.384295" xlink:href="#m75c0f67744" y="82.288207"/>
     <use style="fill:#ff0000;stroke:#ff0000;stroke-linejoin:bevel;" x="146.590111" xlink:href="#m75c0f67744" y="83.149853"/>
     <use style="fill:#ff0000;stroke:#ff0000;stroke-linejoin:bevel;" x="150.903492" xlink:href="#m75c0f67744" y="84.023411"/>
     <use style="fill:#ff0000;stroke:#ff0000;stroke-linejoin:bevel;" x="155.657892" xlink:href="#m75c0f67744" y="84.936677"/>
     <use style="fill:#ff0000;stroke:#ff0000;stroke-linejoin:bevel;" x="160.057326" xlink:href="#m75c0f67744" y="85.67523"/>
     <use style="fill:#ff0000;stroke:#ff0000;stroke-linejoin:bevel;" x="164.757943" xlink:href="#m75c0f67744" y="86.481286"/>
     <use style="fill:#ff0000;stroke:#ff0000;stroke-linejoin:bevel;" x="169.286456" xlink:href="#m75c0f67744" y="87.188074"/>
     <use style="fill:#ff0000;stroke:#ff0000;stroke-linejoin:bevel;" x="173.933291" xlink:href="#m75c0f67744" y="87.898833"/>
     <use style="fill:#ff0000;stroke:#ff0000;stroke-linejoin:bevel;" x="178.623151" xlink:href="#m75c0f67744" y="88.585767"/>
     <use style="fill:#ff0000;stroke:#ff0000;stroke-linejoin:bevel;" x="183.280743" xlink:href="#m75c0f67744" y="89.272701"/>
     <use style="fill:#ff0000;stroke:#ff0000;stroke-linejoin:bevel;" x="187.723203" xlink:href="#m75c0f67744" y="89.868309"/>
     <use style="fill:#ff0000;stroke:#ff0000;stroke-linejoin:bevel;" x="192.316254" xlink:href="#m75c0f67744" y="90.499653"/>
     <use style="fill:#ff0000;stroke:#ff0000;stroke-linejoin:bevel;" x="197.447134" xlink:href="#m75c0f67744" y="91.214383"/>
     <use style="fill:#ff0000;stroke:#ff0000;stroke-linejoin:bevel;" x="202.266074" xlink:href="#m75c0f67744" y="91.825873"/>
     <use style="fill:#ff0000;stroke:#ff0000;stroke-linejoin:bevel;" x="206.385837" xlink:href="#m75c0f67744" y="92.445306"/>
     <use style="fill:#ff0000;stroke:#ff0000;stroke-linejoin:bevel;" x="211.086455" xlink:href="#m75c0f67744" y="93.108416"/>
     <use style="fill:#ff0000;stroke:#ff0000;stroke-linejoin:bevel;" x="215.475132" xlink:href="#m75c0f67744" y="93.672258"/>
     <use style="fill:#ff0000;stroke:#ff0000;stroke-linejoin:bevel;" x="219.896079" xlink:href="#m75c0f67744" y="94.164627"/>
     <use style="fill:#ff0000;stroke:#ff0000;stroke-linejoin:bevel;" x="224.854854" xlink:href="#m75c0f67744" y="94.645084"/>
     <use style="fill:#ff0000;stroke:#ff0000;stroke-linejoin:bevel;" x="228.985373" xlink:href="#m75c0f67744" y="95.308194"/>
     <use style="fill:#ff0000;stroke:#ff0000;stroke-linejoin:bevel;" x="233.180432" xlink:href="#m75c0f67744" y="95.95145"/>
     <use style="fill:#ff0000;stroke:#ff0000;stroke-linejoin:bevel;" x="237.805754" xlink:href="#m75c0f67744" y="96.551029"/>
     <use style="fill:#ff0000;stroke:#ff0000;stroke-linejoin:bevel;" x="241.936274" xlink:href="#m75c0f67744" y="97.027515"/>
     <use style="fill:#ff0000;stroke:#ff0000;stroke-linejoin:bevel;" x="246.066793" xlink:href="#m75c0f67744" y="97.460323"/>
     <use style="fill:#ff0000;stroke:#ff0000;stroke-linejoin:bevel;" x="250.563036" xlink:href="#m75c0f67744" y="98.186965"/>
     <use style="fill:#ff0000;stroke:#ff0000;stroke-linejoin:bevel;" x="254.58599" xlink:href="#m75c0f67744" y="98.842133"/>
     <use style="fill:#ff0000;stroke:#ff0000;stroke-linejoin:bevel;" x="258.587431" xlink:href="#m75c0f67744" y="99.425829"/>
     <use style="fill:#ff0000;stroke:#ff0000;stroke-linejoin:bevel;" x="263.062161" xlink:href="#m75c0f67744" y="99.969817"/>
     <use style="fill:#ff0000;stroke:#ff0000;stroke-linejoin:bevel;" x="267.074358" xlink:href="#m75c0f67744" y="100.533659"/>
     <use style="fill:#ff0000;stroke:#ff0000;stroke-linejoin:bevel;" x="271.04353" xlink:href="#m75c0f67744" y="101.415159"/>
     <use style="fill:#ff0000;stroke:#ff0000;stroke-linejoin:bevel;" x="275.48599" xlink:href="#m75c0f67744" y="102.308571"/>
     <use style="fill:#ff0000;stroke:#ff0000;stroke-linejoin:bevel;" x="279.326082" xlink:href="#m75c0f67744" y="103.162275"/>
     <use style="fill:#ff0000;stroke:#ff0000;stroke-linejoin:bevel;" x="283.112392" xlink:href="#m75c0f67744" y="103.996126"/>
     <use style="fill:#ff0000;stroke:#ff0000;stroke-linejoin:bevel;" x="286.522222" xlink:href="#m75c0f67744" y="105.119839"/>
     <use style="fill:#ff0000;stroke:#ff0000;stroke-linejoin:bevel;" x="290.254749" xlink:href="#m75c0f67744" y="106.056929"/>
     <use style="fill:#ff0000;stroke:#ff0000;stroke-linejoin:bevel;" x="293.460204" xlink:href="#m75c0f67744" y="107.049609"/>
     <use style="fill:#ff0000;stroke:#ff0000;stroke-linejoin:bevel;" x="296.558094" xlink:href="#m75c0f67744" y="107.99464"/>
     <use style="fill:#ff0000;stroke:#ff0000;stroke-linejoin:bevel;" x="299.957167" xlink:href="#m75c0f67744" y="109.011143"/>
     <use style="fill:#ff0000;stroke:#ff0000;stroke-linejoin:bevel;" x="302.861439" xlink:href="#m75c0f67744" y="110.091179"/>
     <use style="fill:#ff0000;stroke:#ff0000;stroke-linejoin:bevel;" x="306.249756" xlink:href="#m75c0f67744" y="111.441223"/>
     <use style="fill:#ff0000;stroke:#ff0000;stroke-linejoin:bevel;" x="309.896231" xlink:href="#m75c0f67744" y="112.954067"/>
     <use style="fill:#ff0000;stroke:#ff0000;stroke-linejoin:bevel;" x="313.047903" xlink:href="#m75c0f67744" y="114.216756"/>
     <use style="fill:#ff0000;stroke:#ff0000;stroke-linejoin:bevel;" x="316.135036" xlink:href="#m75c0f67744" y="115.666068"/>
     <use style="fill:#ff0000;stroke:#ff0000;stroke-linejoin:bevel;" x="319.394274" xlink:href="#m75c0f67744" y="117.22656"/>
     <use style="fill:#ff0000;stroke:#ff0000;stroke-linejoin:bevel;" x="322.363086" xlink:href="#m75c0f67744" y="118.560722"/>
     <use style="fill:#ff0000;stroke:#ff0000;stroke-linejoin:bevel;" x="325.417949" xlink:href="#m75c0f67744" y="119.978268"/>
     <use style="fill:#ff0000;stroke:#ff0000;stroke-linejoin:bevel;" x="327.902715" xlink:href="#m75c0f67744" y="121.348166"/>
     <use style="fill:#ff0000;stroke:#ff0000;stroke-linejoin:bevel;" x="330.204619" xlink:href="#m75c0f67744" y="122.781596"/>
     <use style="fill:#ff0000;stroke:#ff0000;stroke-linejoin:bevel;" x="332.571063" xlink:href="#m75c0f67744" y="124.346059"/>
     <use style="fill:#ff0000;stroke:#ff0000;stroke-linejoin:bevel;" x="335.61517" xlink:href="#m75c0f67744" y="125.819195"/>
     <use style="fill:#ff0000;stroke:#ff0000;stroke-linejoin:bevel;" x="338.368849" xlink:href="#m75c0f67744" y="127.276449"/>
     <use style="fill:#ff0000;stroke:#ff0000;stroke-linejoin:bevel;" x="341.047233" xlink:href="#m75c0f67744" y="128.936209"/>
     <use style="fill:#ff0000;stroke:#ff0000;stroke-linejoin:bevel;" x="343.40292" xlink:href="#m75c0f67744" y="130.472877"/>
     <use style="fill:#ff0000;stroke:#ff0000;stroke-linejoin:bevel;" x="345.586502" xlink:href="#m75c0f67744" y="132.104843"/>
     <use style="fill:#ff0000;stroke:#ff0000;stroke-linejoin:bevel;" x="348.383208" xlink:href="#m75c0f67744" y="133.756662"/>
     <use style="fill:#ff0000;stroke:#ff0000;stroke-linejoin:bevel;" x="350.824948" xlink:href="#m75c0f67744" y="135.340978"/>
     <use style="fill:#ff0000;stroke:#ff0000;stroke-linejoin:bevel;" x="353.148365" xlink:href="#m75c0f67744" y="136.965002"/>
     <use style="fill:#ff0000;stroke:#ff0000;stroke-linejoin:bevel;" x="355.342704" xlink:href="#m75c0f67744" y="138.759767"/>
     <use style="fill:#ff0000;stroke:#ff0000;stroke-linejoin:bevel;" x="357.311155" xlink:href="#m75c0f67744" y="140.522766"/>
     <use style="fill:#ff0000;stroke:#ff0000;stroke-linejoin:bevel;" x="359.45171" xlink:href="#m75c0f67744" y="142.218263"/>
     <use style="fill:#ff0000;stroke:#ff0000;stroke-linejoin:bevel;" x="361.495457" xlink:href="#m75c0f67744" y="144.120237"/>
     <use style="fill:#ff0000;stroke:#ff0000;stroke-linejoin:bevel;" x="363.367099" xlink:href="#m75c0f67744" y="145.871324"/>
     <use style="fill:#ff0000;stroke:#ff0000;stroke-linejoin:bevel;" x="365.088149" xlink:href="#m75c0f67744" y="147.733591"/>
     <use style="fill:#ff0000;stroke:#ff0000;stroke-linejoin:bevel;" x="366.787685" xlink:href="#m75c0f67744" y="149.77454"/>
     <use style="fill:#ff0000;stroke:#ff0000;stroke-linejoin:bevel;" x="368.347387" xlink:href="#m75c0f67744" y="151.64872"/>
     <use style="fill:#ff0000;stroke:#ff0000;stroke-linejoin:bevel;" x="369.724227" xlink:href="#m75c0f67744" y="153.58643"/>
     <use style="fill:#ff0000;stroke:#ff0000;stroke-linejoin:bevel;" x="370.982744" xlink:href="#m75c0f67744" y="155.734589"/>
     <use style="fill:#ff0000;stroke:#ff0000;stroke-linejoin:bevel;" x="372.241262" xlink:href="#m75c0f67744" y="157.755685"/>
     <use style="fill:#ff0000;stroke:#ff0000;stroke-linejoin:bevel;" x="373.316918" xlink:href="#m75c0f67744" y="159.816488"/>
     <use style="fill:#ff0000;stroke:#ff0000;stroke-linejoin:bevel;" x="374.198956" xlink:href="#m75c0f67744" y="162.103622"/>
     <use style="fill:#ff0000;stroke:#ff0000;stroke-linejoin:bevel;" x="374.855107" xlink:href="#m75c0f67744" y="164.271634"/>
     <use style="fill:#ff0000;stroke:#ff0000;stroke-linejoin:bevel;" x="375.446718" xlink:href="#m75c0f67744" y="166.435676"/>
     <use style="fill:#ff0000;stroke:#ff0000;stroke-linejoin:bevel;" x="375.855467" xlink:href="#m75c0f67744" y="168.659278"/>
     <use style="fill:#ff0000;stroke:#ff0000;stroke-linejoin:bevel;" x="376.006059" xlink:href="#m75c0f67744" y="171.10127"/>
     <use style="fill:#ff0000;stroke:#ff0000;stroke-linejoin:bevel;" x="375.737145" xlink:href="#m75c0f67744" y="173.209721"/>
     <use style="fill:#ff0000;stroke:#ff0000;stroke-linejoin:bevel;" x="375.285369" xlink:href="#m75c0f67744" y="175.552445"/>
     <use style="fill:#ff0000;stroke:#ff0000;stroke-linejoin:bevel;" x="374.994942" xlink:href="#m75c0f67744" y="177.73237"/>
     <use style="fill:#ff0000;stroke:#ff0000;stroke-linejoin:bevel;" x="374.607706" xlink:href="#m75c0f67744" y="179.952002"/>
     <use style="fill:#ff0000;stroke:#ff0000;stroke-linejoin:bevel;" x="373.973069" xlink:href="#m75c0f67744" y="182.409876"/>
     <use style="fill:#ff0000;stroke:#ff0000;stroke-linejoin:bevel;" x="373.101787" xlink:href="#m75c0f67744" y="184.609654"/>
     <use style="fill:#ff0000;stroke:#ff0000;stroke-linejoin:bevel;" x="372.101427" xlink:href="#m75c0f67744" y="186.837228"/>
     <use style="fill:#ff0000;stroke:#ff0000;stroke-linejoin:bevel;" x="370.961231" xlink:href="#m75c0f67744" y="189.307015"/>
     <use style="fill:#ff0000;stroke:#ff0000;stroke-linejoin:bevel;" x="369.960871" xlink:href="#m75c0f67744" y="191.594148"/>
     <use style="fill:#ff0000;stroke:#ff0000;stroke-linejoin:bevel;" x="368.895971" xlink:href="#m75c0f67744" y="193.901136"/>
     <use style="fill:#ff0000;stroke:#ff0000;stroke-linejoin:bevel;" x="368.218308" xlink:href="#m75c0f67744" y="196.069148"/>
     <use style="fill:#ff0000;stroke:#ff0000;stroke-linejoin:bevel;" x="367.250218" xlink:href="#m75c0f67744" y="198.451579"/>
     <use style="fill:#ff0000;stroke:#ff0000;stroke-linejoin:bevel;" x="366.411206" xlink:href="#m75c0f67744" y="200.623562"/>
     <use style="fill:#ff0000;stroke:#ff0000;stroke-linejoin:bevel;" x="365.367819" xlink:href="#m75c0f67744" y="203.04173"/>
     <use style="fill:#ff0000;stroke:#ff0000;stroke-linejoin:bevel;" x="364.561077" xlink:href="#m75c0f67744" y="205.257391"/>
     <use style="fill:#ff0000;stroke:#ff0000;stroke-linejoin:bevel;" x="364.58259" xlink:href="#m75c0f67744" y="207.508788"/>
     <use style="fill:#ff0000;stroke:#ff0000;stroke-linejoin:bevel;" x="364.464268" xlink:href="#m75c0f67744" y="209.756215"/>
     <use style="fill:#ff0000;stroke:#ff0000;stroke-linejoin:bevel;" x="363.95871" xlink:href="#m75c0f67744" y="212.206149"/>
     <use style="fill:#ff0000;stroke:#ff0000;stroke-linejoin:bevel;" x="363.592987" xlink:href="#m75c0f67744" y="214.493282"/>
     <use style="fill:#ff0000;stroke:#ff0000;stroke-linejoin:bevel;" x="363.098185" xlink:href="#m75c0f67744" y="216.772475"/>
     <use style="fill:#ff0000;stroke:#ff0000;stroke-linejoin:bevel;" x="363.646769" xlink:href="#m75c0f67744" y="219.218438"/>
     <use style="fill:#ff0000;stroke:#ff0000;stroke-linejoin:bevel;" x="364.345946" xlink:href="#m75c0f67744" y="221.446011"/>
     <use style="fill:#ff0000;stroke:#ff0000;stroke-linejoin:bevel;" x="364.894531" xlink:href="#m75c0f67744" y="223.737115"/>
     <use style="fill:#ff0000;stroke:#ff0000;stroke-linejoin:bevel;" x="365.088149" xlink:href="#m75c0f67744" y="226.258522"/>
     <use style="fill:#ff0000;stroke:#ff0000;stroke-linejoin:bevel;" x="365.389332" xlink:href="#m75c0f67744" y="228.617128"/>
     <use style="fill:#ff0000;stroke:#ff0000;stroke-linejoin:bevel;" x="366.282127" xlink:href="#m75c0f67744" y="230.777199"/>
     <use style="fill:#ff0000;stroke:#ff0000;stroke-linejoin:bevel;" x="366.927521" xlink:href="#m75c0f67744" y="233.191396"/>
     <use style="fill:#ff0000;stroke:#ff0000;stroke-linejoin:bevel;" x="367.949394" xlink:href="#m75c0f67744" y="235.458677"/>
     <use style="fill:#ff0000;stroke:#ff0000;stroke-linejoin:bevel;" x="369.455313" xlink:href="#m75c0f67744" y="237.773605"/>
     <use style="fill:#ff0000;stroke:#ff0000;stroke-linejoin:bevel;" x="371.197876" xlink:href="#m75c0f67744" y="240.390309"/>
     <use style="fill:#ff0000;stroke:#ff0000;stroke-linejoin:bevel;" x="372.305802" xlink:href="#m75c0f67744" y="242.649648"/>
     <use style="fill:#ff0000;stroke:#ff0000;stroke-linejoin:bevel;" x="373.693398" xlink:href="#m75c0f67744" y="244.964577"/>
     <use style="fill:#ff0000;stroke:#ff0000;stroke-linejoin:bevel;" x="374.726028" xlink:href="#m75c0f67744" y="247.343037"/>
     <use style="fill:#ff0000;stroke:#ff0000;stroke-linejoin:bevel;" x="376.081355" xlink:href="#m75c0f67744" y="249.959741"/>
     <use style="fill:#ff0000;stroke:#ff0000;stroke-linejoin:bevel;" x="377.899214" xlink:href="#m75c0f67744" y="252.350113"/>
     <use style="fill:#ff0000;stroke:#ff0000;stroke-linejoin:bevel;" x="378.770495" xlink:href="#m75c0f67744" y="254.470477"/>
     <use style="fill:#ff0000;stroke:#ff0000;stroke-linejoin:bevel;" x="380.061283" xlink:href="#m75c0f67744" y="256.872762"/>
     <use style="fill:#ff0000;stroke:#ff0000;stroke-linejoin:bevel;" x="380.921807" xlink:href="#m75c0f67744" y="259.084452"/>
     <use style="fill:#ff0000;stroke:#ff0000;stroke-linejoin:bevel;" x="382.018977" xlink:href="#m75c0f67744" y="261.347762"/>
     <use style="fill:#ff0000;stroke:#ff0000;stroke-linejoin:bevel;" x="383.374304" xlink:href="#m75c0f67744" y="263.833432"/>
     <use style="fill:#ff0000;stroke:#ff0000;stroke-linejoin:bevel;" x="384.353151" xlink:href="#m75c0f67744" y="266.096741"/>
     <use style="fill:#ff0000;stroke:#ff0000;stroke-linejoin:bevel;" x="385.493346" xlink:href="#m75c0f67744" y="268.375934"/>
     <use style="fill:#ff0000;stroke:#ff0000;stroke-linejoin:bevel;" x="386.85943" xlink:href="#m75c0f67744" y="270.913223"/>
     <use style="fill:#ff0000;stroke:#ff0000;stroke-linejoin:bevel;" x="388.042651" xlink:href="#m75c0f67744" y="273.240064"/>
     <use style="fill:#ff0000;stroke:#ff0000;stroke-linejoin:bevel;" x="389.397978" xlink:href="#m75c0f67744" y="275.554993"/>
     <use style="fill:#ff0000;stroke:#ff0000;stroke-linejoin:bevel;" x="390.387582" xlink:href="#m75c0f67744" y="277.889775"/>
     <use style="fill:#ff0000;stroke:#ff0000;stroke-linejoin:bevel;" x="391.603073" xlink:href="#m75c0f67744" y="280.482654"/>
     <use style="fill:#ff0000;stroke:#ff0000;stroke-linejoin:bevel;" x="392.667973" xlink:href="#m75c0f67744" y="282.857144"/>
     <use style="fill:#ff0000;stroke:#ff0000;stroke-linejoin:bevel;" x="393.894221" xlink:href="#m75c0f67744" y="285.497672"/>
     <use style="fill:#ff0000;stroke:#ff0000;stroke-linejoin:bevel;" x="394.787015" xlink:href="#m75c0f67744" y="287.951576"/>
     <use style="fill:#ff0000;stroke:#ff0000;stroke-linejoin:bevel;" x="396.05629" xlink:href="#m75c0f67744" y="290.357832"/>
     <use style="fill:#ff0000;stroke:#ff0000;stroke-linejoin:bevel;" x="397.228755" xlink:href="#m75c0f67744" y="292.791882"/>
     <use style="fill:#ff0000;stroke:#ff0000;stroke-linejoin:bevel;" x="398.487273" xlink:href="#m75c0f67744" y="295.488"/>
    </g>
   </g>
   <g id="line2d_30">
    <path clip-path="url(#p6b01815e25)" d="M 73.832727 53.568 
L 74.876114 54.798923 
L 76.177658 55.966314 
L 79.781106 58.479779 
L 81.910905 59.70276 
L 93.839932 65.635014 
L 98.884759 68.2676 
L 114.438748 74.716047 
L 121.957584 77.074654 
L 129.799118 79.274432 
L 137.866539 81.319352 
L 146.493302 83.149853 
L 155.367465 84.837409 
L 169.168134 87.084836 
L 183.269986 89.086078 
L 220.670551 93.989915 
L 229.835142 95.117599 
L 264.094791 99.942022 
L 272.205238 101.252359 
L 280.175851 102.8605 
L 284.0267 103.726117 
L 291.265866 105.723389 
L 297.934934 107.843752 
L 304.130713 110.047501 
L 310.046822 112.572878 
L 315.812339 115.296791 
L 326.999164 121.165513 
L 331.990208 124.191201 
L 342.327264 130.353756 
L 354.546718 138.493729 
L 358.924639 141.940313 
L 363.001376 145.513959 
L 364.862261 147.348431 
L 368.207552 151.160321 
L 369.6812 153.105973 
L 372.176723 157.148165 
L 373.252379 159.212938 
L 374.15593 161.345214 
L 374.87662 163.509256 
L 375.457474 165.697122 
L 375.866223 167.912783 
L 376.081355 170.199917 
L 376.016815 172.467197 
L 375.694118 174.774185 
L 374.704515 179.348452 
L 374.016095 181.683235 
L 373.166326 183.994193 
L 372.165966 186.29721 
L 366.475745 197.994947 
L 363.58223 204.995324 
L 363.033645 207.330106 
L 362.495817 212.011583 
L 362.151607 216.68909 
L 362.345225 219.055638 
L 362.86154 221.394391 
L 364.9268 228.434475 
L 366.701633 233.076245 
L 367.745019 235.391174 
L 369.05732 237.694191 
L 375.177804 247.073028 
L 376.59767 249.479284 
L 378.189641 251.893481 
L 380.911051 256.634519 
L 384.267098 263.706369 
L 388.419131 273.148737 
L 390.61347 277.865951 
L 393.797412 285.140307 
L 395.862672 290.075911 
L 398.110793 295.055192 
L 398.110793 295.055192 
" style="fill:none;stroke:#0000ff;stroke-linecap:square;stroke-width:1.5;"/>
   </g>
   <g id="patch_3">
    <path d="M 57.6 307.584 
L 57.6 41.472 
" style="fill:none;stroke:#000000;stroke-linecap:square;stroke-linejoin:miter;stroke-width:0.8;"/>
   </g>
   <g id="patch_4">
    <path d="M 414.72 307.584 
L 414.72 41.472 
" style="fill:none;stroke:#000000;stroke-linecap:square;stroke-linejoin:miter;stroke-width:0.8;"/>
   </g>
   <g id="patch_5">
    <path d="M 57.6 307.584 
L 414.72 307.584 
" style="fill:none;stroke:#000000;stroke-linecap:square;stroke-linejoin:miter;stroke-width:0.8;"/>
   </g>
   <g id="patch_6">
    <path d="M 57.6 41.472 
L 414.72 41.472 
" style="fill:none;stroke:#000000;stroke-linecap:square;stroke-linejoin:miter;stroke-width:0.8;"/>
   </g>
   <g id="legend_1">
    <g id="patch_7">
     <path d="M 318.72 93.222 
L 404.22 93.222 
Q 407.22 93.222 407.22 90.222 
L 407.22 51.972 
Q 407.22 48.972 404.22 48.972 
L 318.72 48.972 
Q 315.72 48.972 315.72 51.972 
L 315.72 90.222 
Q 315.72 93.222 318.72 93.222 
z
" style="fill:#ffffff;opacity:0.8;stroke:#cccccc;stroke-linejoin:miter;"/>
    </g>
    <g id="line2d_31">
     <path d="M 321.72 60.222 
L 351.72 60.222 
" style="fill:none;stroke:#ff0000;stroke-linecap:square;stroke-width:1.5;"/>
    </g>
    <g id="line2d_32">
     <g>
      <use style="fill:#ff0000;stroke:#ff0000;stroke-linejoin:bevel;" x="336.72" xlink:href="#m75c0f67744" y="60.222"/>
     </g>
    </g>
    <g id="text_17">
     <!-- GT -->
     <defs>
      <path d="M 44.53125 1.171875 
L 37.890625 1.171875 
L 36.71875 6.640625 
Q 35.15625 4.296875 31.828125 2.734375 
Q 28.515625 1.171875 24.609375 1.171875 
Q 16.40625 1.171875 9.953125 8.78125 
Q 3.515625 16.40625 3.515625 33.203125 
Q 3.515625 51.5625 9.375 60.546875 
Q 15.234375 69.53125 25.390625 69.53125 
Q 34.375 69.53125 39.453125 62.890625 
Q 44.53125 56.25 44.53125 45.703125 
L 35.9375 45.703125 
Q 35.9375 53.90625 33.203125 58 
Q 30.46875 62.109375 25.390625 62.109375 
Q 19.140625 62.109375 16.015625 55.65625 
Q 12.890625 49.21875 12.890625 33.984375 
Q 12.890625 19.53125 16.796875 14.0625 
Q 20.703125 8.59375 25.78125 8.59375 
Q 30.859375 8.59375 33.78125 12.296875 
Q 36.71875 16.015625 36.71875 23.828125 
L 36.71875 28.125 
L 24.609375 28.125 
L 24.609375 35.546875 
L 44.53125 35.546875 
z
" id="SimHei-47"/>
      <path d="M 44.53125 61.328125 
L 28.90625 61.328125 
L 28.90625 1.953125 
L 19.921875 1.953125 
L 19.921875 61.328125 
L 4.296875 61.328125 
L 4.296875 68.75 
L 44.53125 68.75 
z
" id="SimHei-54"/>
     </defs>
     <g transform="translate(363.72 65.472)scale(0.15 -0.15)">
      <use xlink:href="#SimHei-47"/>
      <use x="50" xlink:href="#SimHei-54"/>
     </g>
    </g>
    <g id="line2d_33">
     <path d="M 321.72 80.097 
L 351.72 80.097 
" style="fill:none;stroke:#0000ff;stroke-linecap:square;stroke-width:1.5;"/>
    </g>
    <g id="line2d_34"/>
    <g id="text_18">
     <!-- Track -->
     <defs>
      <path d="M 39.0625 37.890625 
Q 31.640625 39.0625 26.5625 35.734375 
Q 21.484375 32.421875 17.96875 24.21875 
L 17.96875 1.953125 
L 10.15625 1.953125 
L 10.15625 45.703125 
L 17.96875 45.703125 
L 17.96875 34.375 
Q 21.484375 40.625 26.75 43.546875 
Q 32.03125 46.484375 39.0625 46.484375 
z
" id="SimHei-72"/>
      <path d="M 44.921875 1.953125 
L 35.546875 1.953125 
Q 34.765625 2.734375 34.375 4.09375 
Q 33.984375 5.46875 33.984375 7.421875 
Q 31.25 4.296875 27.34375 2.734375 
Q 23.4375 1.171875 19.140625 1.171875 
Q 12.890625 1.171875 8.59375 4.296875 
Q 4.296875 7.421875 4.296875 13.28125 
Q 4.296875 19.140625 8.203125 22.65625 
Q 12.109375 26.171875 20.3125 27.34375 
Q 25.78125 28.125 29.875 29.296875 
Q 33.984375 30.46875 33.984375 32.421875 
Q 33.984375 34.765625 32.21875 37.109375 
Q 30.46875 39.453125 24.609375 39.453125 
Q 19.921875 39.453125 17.765625 37.6875 
Q 15.625 35.9375 14.84375 32.8125 
L 6.25 32.8125 
Q 7.03125 39.0625 11.90625 42.765625 
Q 16.796875 46.484375 24.609375 46.484375 
Q 33.203125 46.484375 37.5 42.578125 
Q 41.796875 38.671875 41.796875 31.640625 
L 41.796875 10.15625 
Q 41.796875 7.8125 42.578125 5.859375 
Q 43.359375 3.90625 44.921875 1.953125 
z
M 33.984375 16.40625 
L 33.984375 24.21875 
Q 31.640625 23.4375 29.484375 22.84375 
Q 27.34375 22.265625 22.265625 21.484375 
Q 16.40625 20.703125 14.640625 18.75 
Q 12.890625 16.796875 12.890625 14.0625 
Q 12.890625 11.71875 14.640625 9.953125 
Q 16.40625 8.203125 19.921875 8.203125 
Q 23.4375 8.203125 27.53125 10.15625 
Q 31.640625 12.109375 33.984375 16.40625 
z
" id="SimHei-61"/>
      <path d="M 44.53125 19.53125 
Q 44.53125 11.328125 38.859375 6.25 
Q 33.203125 1.171875 24.609375 1.171875 
Q 16.015625 1.171875 9.765625 7.21875 
Q 3.515625 13.28125 3.515625 23.828125 
Q 3.515625 34.375 9.765625 40.421875 
Q 16.015625 46.484375 24.609375 46.484375 
Q 33.203125 46.484375 38.28125 41.984375 
Q 43.359375 37.5 43.359375 31.25 
L 34.765625 31.25 
Q 34.375 35.9375 31.4375 37.6875 
Q 28.515625 39.453125 24.609375 39.453125 
Q 19.921875 39.453125 16.015625 35.734375 
Q 12.109375 32.03125 12.109375 23.828125 
Q 12.109375 15.625 16.015625 11.90625 
Q 19.921875 8.203125 24.609375 8.203125 
Q 29.6875 8.203125 32.8125 10.9375 
Q 35.9375 13.671875 35.9375 19.53125 
z
" id="SimHei-63"/>
      <path d="M 45.703125 1.953125 
L 36.71875 1.953125 
L 22.65625 25.78125 
L 13.671875 17.1875 
L 13.671875 1.953125 
L 5.859375 1.953125 
L 5.859375 68.75 
L 13.671875 68.75 
L 13.671875 26.171875 
L 33.203125 45.703125 
L 42.96875 45.703125 
L 27.734375 30.859375 
z
" id="SimHei-6b"/>
     </defs>
     <g transform="translate(363.72 85.347)scale(0.15 -0.15)">
      <use xlink:href="#SimHei-54"/>
      <use x="50" xlink:href="#SimHei-72"/>
      <use x="100" xlink:href="#SimHei-61"/>
      <use x="150" xlink:href="#SimHei-63"/>
      <use x="200" xlink:href="#SimHei-6b"/>
     </g>
    </g>
   </g>
  </g>
 </g>
 <defs>
  <clipPath id="p6b01815e25">
   <rect height="266.112" width="357.12" x="57.6" y="41.472"/>
  </clipPath>
 </defs>
</svg>
