<?xml version="1.0" encoding="utf-8" standalone="no"?>
<!DOCTYPE svg PUBLIC "-//W3C//DTD SVG 1.1//EN"
  "http://www.w3.org/Graphics/SVG/1.1/DTD/svg11.dtd">
<!-- Created with matplotlib (http://matplotlib.org/) -->
<svg height="345.6pt" version="1.1" viewBox="0 0 460.8 345.6" width="460.8pt" xmlns="http://www.w3.org/2000/svg" xmlns:xlink="http://www.w3.org/1999/xlink">
 <defs>
  <style type="text/css">
*{stroke-linecap:butt;stroke-linejoin:round;}
  </style>
 </defs>
 <g id="figure_1">
  <g id="patch_1">
   <path d="M 0 345.6 
L 460.8 345.6 
L 460.8 0 
L 0 0 
z
" style="fill:#ffffff;"/>
  </g>
  <g id="axes_1">
   <g id="patch_2">
    <path d="M 57.6 307.584 
L 414.72 307.584 
L 414.72 41.472 
L 57.6 41.472 
z
" style="fill:#ffffff;"/>
   </g>
   <g id="matplotlib.axis_1">
    <g id="xtick_1">
     <g id="line2d_1">
      <path clip-path="url(#p23855fcda9)" d="M 73.832727 307.584 
L 73.832727 41.472 
" style="fill:none;stroke:#808080;stroke-dasharray:2.96,1.28;stroke-dashoffset:0;stroke-width:0.8;"/>
     </g>
     <g id="line2d_2">
      <defs>
       <path d="M 0 0 
L 0 3.5 
" id="m8968de3361" style="stroke:#000000;stroke-width:0.8;"/>
      </defs>
      <g>
       <use style="stroke:#000000;stroke-width:0.8;" x="73.832727" xlink:href="#m8968de3361" y="307.584"/>
      </g>
     </g>
     <g id="text_1">
      <!-- 0 -->
      <defs>
       <path d="M 3.125 29.296875 
Q 3.90625 50 6.4375 56.046875 
Q 8.984375 62.109375 13.671875 66.015625 
Q 18.359375 69.921875 25.1875 69.921875 
Q 32.03125 69.921875 37.109375 64.25 
Q 42.1875 58.59375 43.75 50 
Q 45.3125 41.40625 44.71875 30.265625 
Q 44.140625 19.140625 40.8125 12.109375 
Q 37.5 5.078125 30.859375 2.34375 
Q 24.21875 -0.390625 17.578125 2.921875 
Q 10.9375 6.25 8.203125 11.71875 
Q 5.46875 17.1875 4.296875 23.234375 
Q 3.125 29.296875 3.90625 50 
z
M 12.890625 52.734375 
Q 10.546875 31.25 12.5 22.84375 
Q 14.453125 14.453125 18.9375 10.9375 
Q 23.4375 7.421875 28.125 9.5625 
Q 32.8125 11.71875 34.953125 18.15625 
Q 37.109375 24.609375 37.109375 32.21875 
Q 37.109375 39.84375 36.515625 46.09375 
Q 35.9375 52.34375 33 57.421875 
Q 30.078125 62.5 25.1875 62.6875 
Q 20.3125 62.890625 16.59375 57.8125 
Q 12.890625 52.734375 10.546875 31.25 
z
" id="SimHei-30"/>
      </defs>
      <g transform="translate(71.332727 321.459)scale(0.1 -0.1)">
       <use xlink:href="#SimHei-30"/>
      </g>
     </g>
    </g>
    <g id="xtick_2">
     <g id="line2d_3">
      <path clip-path="url(#p23855fcda9)" d="M 117.12 307.584 
L 117.12 41.472 
" style="fill:none;stroke:#808080;stroke-dasharray:2.96,1.28;stroke-dashoffset:0;stroke-width:0.8;"/>
     </g>
     <g id="line2d_4">
      <g>
       <use style="stroke:#000000;stroke-width:0.8;" x="117.12" xlink:href="#m8968de3361" y="307.584"/>
      </g>
     </g>
     <g id="text_2">
      <!-- 20 -->
      <defs>
       <path d="M 4.6875 3.90625 
Q 5.078125 9.765625 10.15625 14.453125 
Q 15.234375 19.140625 23.046875 29.09375 
Q 30.859375 39.0625 33.203125 44.53125 
Q 35.546875 50 34.953125 53.90625 
Q 34.375 57.8125 31.25 60.34375 
Q 28.125 62.890625 24.015625 62.5 
Q 19.921875 62.109375 16.203125 59.375 
Q 12.5 56.640625 10.546875 51.171875 
L 3.125 52.34375 
Q 6.25 61.328125 11.125 65.421875 
Q 16.015625 69.53125 22.65625 69.921875 
Q 26.5625 70.3125 29.6875 69.71875 
Q 32.8125 69.140625 36.125 66.984375 
Q 39.453125 64.84375 41.59375 60.546875 
Q 43.75 56.25 43.15625 50.1875 
Q 42.578125 44.140625 37.109375 35.734375 
Q 31.640625 27.34375 16.015625 9.375 
L 44.140625 9.375 
L 44.140625 2.34375 
L 4.6875 2.34375 
z
" id="SimHei-32"/>
      </defs>
      <g transform="translate(112.12 321.459)scale(0.1 -0.1)">
       <use xlink:href="#SimHei-32"/>
       <use x="50" xlink:href="#SimHei-30"/>
      </g>
     </g>
    </g>
    <g id="xtick_3">
     <g id="line2d_5">
      <path clip-path="url(#p23855fcda9)" d="M 160.407273 307.584 
L 160.407273 41.472 
" style="fill:none;stroke:#808080;stroke-dasharray:2.96,1.28;stroke-dashoffset:0;stroke-width:0.8;"/>
     </g>
     <g id="line2d_6">
      <g>
       <use style="stroke:#000000;stroke-width:0.8;" x="160.407273" xlink:href="#m8968de3361" y="307.584"/>
      </g>
     </g>
     <g id="text_3">
      <!-- 40 -->
      <defs>
       <path d="M 31.25 17.1875 
L 1.171875 17.1875 
L 1.171875 23.828125 
L 32.8125 69.53125 
L 38.671875 69.53125 
L 38.671875 23.828125 
L 48.046875 23.828125 
L 48.046875 17.1875 
L 38.671875 17.1875 
L 38.671875 2.34375 
L 31.25 2.34375 
z
M 31.25 23.828125 
L 31.25 54.6875 
L 9.375 23.828125 
z
" id="SimHei-34"/>
      </defs>
      <g transform="translate(155.407273 321.459)scale(0.1 -0.1)">
       <use xlink:href="#SimHei-34"/>
       <use x="50" xlink:href="#SimHei-30"/>
      </g>
     </g>
    </g>
    <g id="xtick_4">
     <g id="line2d_7">
      <path clip-path="url(#p23855fcda9)" d="M 203.694545 307.584 
L 203.694545 41.472 
" style="fill:none;stroke:#808080;stroke-dasharray:2.96,1.28;stroke-dashoffset:0;stroke-width:0.8;"/>
     </g>
     <g id="line2d_8">
      <g>
       <use style="stroke:#000000;stroke-width:0.8;" x="203.694545" xlink:href="#m8968de3361" y="307.584"/>
      </g>
     </g>
     <g id="text_4">
      <!-- 60 -->
      <defs>
       <path d="M 3.515625 19.53125 
Q 4.296875 30.859375 6.046875 34.765625 
Q 7.8125 38.671875 11.328125 44.53125 
L 27.34375 69.53125 
L 36.328125 69.53125 
L 19.921875 43.75 
Q 30.46875 46.484375 36.71875 42.96875 
Q 42.96875 39.453125 45.109375 34.953125 
Q 47.265625 30.46875 47.453125 25.1875 
Q 47.65625 19.921875 45.890625 14.84375 
Q 44.140625 9.765625 39.640625 5.65625 
Q 35.15625 1.5625 27.140625 1.171875 
Q 19.140625 0.78125 13.46875 4.09375 
Q 7.8125 7.421875 5.65625 13.46875 
Q 3.515625 19.53125 4.296875 30.859375 
z
M 12.5 16.015625 
Q 19.53125 8.59375 25.390625 8.203125 
Q 31.25 7.8125 35.15625 12.109375 
Q 39.0625 16.40625 39.0625 24.609375 
Q 39.0625 32.8125 34.171875 35.9375 
Q 29.296875 39.0625 23.234375 38.28125 
Q 17.1875 37.5 14.453125 32.421875 
Q 11.71875 27.34375 12.109375 21.671875 
Q 12.5 16.015625 19.53125 8.59375 
z
" id="SimHei-36"/>
      </defs>
      <g transform="translate(198.694545 321.459)scale(0.1 -0.1)">
       <use xlink:href="#SimHei-36"/>
       <use x="50" xlink:href="#SimHei-30"/>
      </g>
     </g>
    </g>
    <g id="xtick_5">
     <g id="line2d_9">
      <path clip-path="url(#p23855fcda9)" d="M 246.981818 307.584 
L 246.981818 41.472 
" style="fill:none;stroke:#808080;stroke-dasharray:2.96,1.28;stroke-dashoffset:0;stroke-width:0.8;"/>
     </g>
     <g id="line2d_10">
      <g>
       <use style="stroke:#000000;stroke-width:0.8;" x="246.981818" xlink:href="#m8968de3361" y="307.584"/>
      </g>
     </g>
     <g id="text_5">
      <!-- 80 -->
      <defs>
       <path d="M 2.734375 16.796875 
Q 2.734375 26.171875 5.078125 30.65625 
Q 7.421875 35.15625 12.890625 37.890625 
Q 8.203125 40.625 6.640625 43.9375 
Q 5.078125 47.265625 4.875 51.5625 
Q 4.6875 55.859375 6.046875 58.984375 
Q 7.421875 62.109375 10.15625 64.84375 
Q 12.890625 67.578125 16.203125 68.546875 
Q 19.53125 69.53125 23.4375 69.53125 
Q 27.34375 69.53125 30.46875 68.75 
Q 33.59375 67.96875 37.109375 65.421875 
Q 40.625 62.890625 42.1875 58.203125 
Q 43.75 53.515625 41.984375 47.265625 
Q 40.234375 41.015625 32.8125 37.5 
Q 39.453125 35.546875 42.1875 31.4375 
Q 44.921875 27.34375 44.921875 21.484375 
Q 44.921875 15.625 43.15625 12.109375 
Q 41.40625 8.59375 39.25 6.25 
Q 37.109375 3.90625 33.390625 2.53125 
Q 29.6875 1.171875 24.015625 1.171875 
Q 18.359375 1.171875 14.25 2.53125 
Q 10.15625 3.90625 7.421875 6.640625 
Q 4.6875 9.375 3.703125 13.078125 
Q 2.734375 16.796875 2.734375 26.171875 
z
M 10.9375 26.5625 
Q 10.546875 17.1875 12.296875 13.671875 
Q 14.0625 10.15625 18.75 9.171875 
Q 23.4375 8.203125 28.515625 9.375 
Q 33.59375 10.546875 35.546875 14.84375 
Q 37.5 19.140625 36.90625 23.4375 
Q 36.328125 27.734375 32.03125 30.65625 
Q 27.734375 33.59375 22.65625 33.203125 
Q 17.578125 32.8125 14.25 29.6875 
Q 10.9375 26.5625 10.546875 17.1875 
z
M 12.109375 56.25 
Q 12.109375 48.4375 14.84375 44.921875 
Q 17.578125 41.40625 23.4375 41.40625 
Q 29.296875 41.40625 32.21875 44.921875 
Q 35.15625 48.4375 34.953125 53.3125 
Q 34.765625 58.203125 31.4375 60.546875 
Q 28.125 62.890625 22.453125 62.5 
Q 16.796875 62.109375 14.453125 59.171875 
Q 12.109375 56.25 12.109375 48.4375 
z
" id="SimHei-38"/>
      </defs>
      <g transform="translate(241.981818 321.459)scale(0.1 -0.1)">
       <use xlink:href="#SimHei-38"/>
       <use x="50" xlink:href="#SimHei-30"/>
      </g>
     </g>
    </g>
    <g id="xtick_6">
     <g id="line2d_11">
      <path clip-path="url(#p23855fcda9)" d="M 290.269091 307.584 
L 290.269091 41.472 
" style="fill:none;stroke:#808080;stroke-dasharray:2.96,1.28;stroke-dashoffset:0;stroke-width:0.8;"/>
     </g>
     <g id="line2d_12">
      <g>
       <use style="stroke:#000000;stroke-width:0.8;" x="290.269091" xlink:href="#m8968de3361" y="307.584"/>
      </g>
     </g>
     <g id="text_6">
      <!-- 100 -->
      <defs>
       <path d="M 21.875 56.25 
Q 16.796875 51.171875 8.984375 46.484375 
L 8.984375 53.90625 
Q 18.75 60.546875 25 69.53125 
L 29.6875 69.53125 
L 29.6875 2.34375 
L 21.875 2.34375 
z
" id="SimHei-31"/>
      </defs>
      <g transform="translate(282.769091 321.459)scale(0.1 -0.1)">
       <use xlink:href="#SimHei-31"/>
       <use x="50" xlink:href="#SimHei-30"/>
       <use x="100" xlink:href="#SimHei-30"/>
      </g>
     </g>
    </g>
    <g id="xtick_7">
     <g id="line2d_13">
      <path clip-path="url(#p23855fcda9)" d="M 333.556364 307.584 
L 333.556364 41.472 
" style="fill:none;stroke:#808080;stroke-dasharray:2.96,1.28;stroke-dashoffset:0;stroke-width:0.8;"/>
     </g>
     <g id="line2d_14">
      <g>
       <use style="stroke:#000000;stroke-width:0.8;" x="333.556364" xlink:href="#m8968de3361" y="307.584"/>
      </g>
     </g>
     <g id="text_7">
      <!-- 120 -->
      <g transform="translate(326.056364 321.459)scale(0.1 -0.1)">
       <use xlink:href="#SimHei-31"/>
       <use x="50" xlink:href="#SimHei-32"/>
       <use x="100" xlink:href="#SimHei-30"/>
      </g>
     </g>
    </g>
    <g id="xtick_8">
     <g id="line2d_15">
      <path clip-path="url(#p23855fcda9)" d="M 376.843636 307.584 
L 376.843636 41.472 
" style="fill:none;stroke:#808080;stroke-dasharray:2.96,1.28;stroke-dashoffset:0;stroke-width:0.8;"/>
     </g>
     <g id="line2d_16">
      <g>
       <use style="stroke:#000000;stroke-width:0.8;" x="376.843636" xlink:href="#m8968de3361" y="307.584"/>
      </g>
     </g>
     <g id="text_8">
      <!-- 140 -->
      <g transform="translate(369.343636 321.459)scale(0.1 -0.1)">
       <use xlink:href="#SimHei-31"/>
       <use x="50" xlink:href="#SimHei-34"/>
       <use x="100" xlink:href="#SimHei-30"/>
      </g>
     </g>
    </g>
    <g id="text_9">
     <!-- Frames -->
     <defs>
      <path d="M 45.703125 61.328125 
L 13.671875 61.328125 
L 13.671875 39.453125 
L 37.890625 39.453125 
L 37.890625 32.03125 
L 13.671875 32.03125 
L 13.671875 1.953125 
L 4.6875 1.953125 
L 4.6875 68.75 
L 45.703125 68.75 
z
" id="SimHei-46"/>
      <path d="M 39.0625 37.890625 
Q 31.640625 39.0625 26.5625 35.734375 
Q 21.484375 32.421875 17.96875 24.21875 
L 17.96875 1.953125 
L 10.15625 1.953125 
L 10.15625 45.703125 
L 17.96875 45.703125 
L 17.96875 34.375 
Q 21.484375 40.625 26.75 43.546875 
Q 32.03125 46.484375 39.0625 46.484375 
z
" id="SimHei-72"/>
      <path d="M 44.921875 1.953125 
L 35.546875 1.953125 
Q 34.765625 2.734375 34.375 4.09375 
Q 33.984375 5.46875 33.984375 7.421875 
Q 31.25 4.296875 27.34375 2.734375 
Q 23.4375 1.171875 19.140625 1.171875 
Q 12.890625 1.171875 8.59375 4.296875 
Q 4.296875 7.421875 4.296875 13.28125 
Q 4.296875 19.140625 8.203125 22.65625 
Q 12.109375 26.171875 20.3125 27.34375 
Q 25.78125 28.125 29.875 29.296875 
Q 33.984375 30.46875 33.984375 32.421875 
Q 33.984375 34.765625 32.21875 37.109375 
Q 30.46875 39.453125 24.609375 39.453125 
Q 19.921875 39.453125 17.765625 37.6875 
Q 15.625 35.9375 14.84375 32.8125 
L 6.25 32.8125 
Q 7.03125 39.0625 11.90625 42.765625 
Q 16.796875 46.484375 24.609375 46.484375 
Q 33.203125 46.484375 37.5 42.578125 
Q 41.796875 38.671875 41.796875 31.640625 
L 41.796875 10.15625 
Q 41.796875 7.8125 42.578125 5.859375 
Q 43.359375 3.90625 44.921875 1.953125 
z
M 33.984375 16.40625 
L 33.984375 24.21875 
Q 31.640625 23.4375 29.484375 22.84375 
Q 27.34375 22.265625 22.265625 21.484375 
Q 16.40625 20.703125 14.640625 18.75 
Q 12.890625 16.796875 12.890625 14.0625 
Q 12.890625 11.71875 14.640625 9.953125 
Q 16.40625 8.203125 19.921875 8.203125 
Q 23.4375 8.203125 27.53125 10.15625 
Q 31.640625 12.109375 33.984375 16.40625 
z
" id="SimHei-61"/>
      <path d="M 47.65625 1.953125 
L 39.84375 1.953125 
L 39.84375 33.59375 
Q 39.84375 35.9375 39.0625 37.5 
Q 38.28125 39.0625 35.9375 39.0625 
Q 33.203125 39.0625 30.859375 36.125 
Q 28.515625 33.203125 28.515625 28.515625 
L 28.515625 1.953125 
L 20.703125 1.953125 
L 20.703125 33.59375 
Q 20.703125 35.9375 19.921875 37.5 
Q 19.140625 39.0625 16.796875 39.0625 
Q 14.0625 39.0625 11.71875 36.125 
Q 9.375 33.203125 9.375 28.515625 
L 9.375 1.953125 
L 1.5625 1.953125 
L 1.5625 45.703125 
L 9.375 45.703125 
L 9.375 39.84375 
Q 11.328125 42.96875 14.0625 44.71875 
Q 16.796875 46.484375 19.921875 46.484375 
Q 23.046875 46.484375 25.1875 44.71875 
Q 27.34375 42.96875 28.125 39.84375 
Q 30.078125 42.96875 32.609375 44.71875 
Q 35.15625 46.484375 38.28125 46.484375 
Q 42.96875 46.484375 45.3125 43.9375 
Q 47.65625 41.40625 47.65625 36.71875 
z
" id="SimHei-6d"/>
      <path d="M 44.53125 16.796875 
Q 43.75 9.765625 38.28125 5.46875 
Q 32.8125 1.171875 25.390625 1.171875 
Q 16.015625 1.171875 9.953125 7.21875 
Q 3.90625 13.28125 3.90625 23.828125 
Q 3.90625 34.375 9.953125 40.421875 
Q 16.015625 46.484375 25.390625 46.484375 
Q 33.59375 46.484375 38.859375 41.203125 
Q 44.140625 35.9375 44.140625 23.828125 
L 12.5 23.828125 
Q 12.5 15.234375 16.203125 11.71875 
Q 19.921875 8.203125 25.390625 8.203125 
Q 29.6875 8.203125 32.421875 10.34375 
Q 35.15625 12.5 35.9375 16.796875 
z
M 35.15625 30.078125 
Q 34.375 35.546875 31.640625 37.6875 
Q 28.90625 39.84375 24.609375 39.84375 
Q 20.703125 39.84375 17.578125 37.6875 
Q 14.453125 35.546875 12.890625 30.078125 
z
" id="SimHei-65"/>
      <path d="M 42.96875 14.0625 
Q 42.96875 7.8125 38.078125 4.484375 
Q 33.203125 1.171875 25.78125 1.171875 
Q 16.40625 1.171875 11.328125 4.875 
Q 6.25 8.59375 6.25 15.625 
L 14.0625 15.625 
Q 14.0625 10.9375 17.375 9.375 
Q 20.703125 7.8125 25.390625 7.8125 
Q 30.078125 7.8125 32.421875 9.5625 
Q 34.765625 11.328125 34.765625 14.0625 
Q 34.765625 16.015625 32.8125 17.96875 
Q 30.859375 19.921875 23.046875 21.09375 
Q 14.0625 22.265625 10.734375 25.578125 
Q 7.421875 28.90625 7.421875 34.375 
Q 7.421875 39.0625 11.90625 42.765625 
Q 16.40625 46.484375 25 46.484375 
Q 32.8125 46.484375 37.296875 42.96875 
Q 41.796875 39.453125 41.796875 33.59375 
L 33.984375 33.59375 
Q 33.984375 37.109375 31.4375 38.46875 
Q 28.90625 39.84375 25 39.84375 
Q 19.921875 39.84375 17.765625 38.078125 
Q 15.625 36.328125 15.625 33.984375 
Q 15.625 31.25 17.578125 29.6875 
Q 19.53125 28.125 25.78125 27.34375 
Q 35.9375 25.78125 39.453125 22.453125 
Q 42.96875 19.140625 42.96875 14.0625 
z
" id="SimHei-73"/>
     </defs>
     <g transform="translate(216.66 335.6465)scale(0.13 -0.13)">
      <use xlink:href="#SimHei-46"/>
      <use x="50" xlink:href="#SimHei-72"/>
      <use x="100" xlink:href="#SimHei-61"/>
      <use x="150" xlink:href="#SimHei-6d"/>
      <use x="200" xlink:href="#SimHei-65"/>
      <use x="250" xlink:href="#SimHei-73"/>
     </g>
    </g>
   </g>
   <g id="matplotlib.axis_2">
    <g id="ytick_1">
     <g id="line2d_17">
      <path clip-path="url(#p23855fcda9)" d="M 57.6 295.488 
L 414.72 295.488 
" style="fill:none;stroke:#808080;stroke-dasharray:2.96,1.28;stroke-dashoffset:0;stroke-width:0.8;"/>
     </g>
     <g id="line2d_18">
      <defs>
       <path d="M 0 0 
L -3.5 0 
" id="m1f59316b68" style="stroke:#000000;stroke-width:0.8;"/>
      </defs>
      <g>
       <use style="stroke:#000000;stroke-width:0.8;" x="57.6" xlink:href="#m1f59316b68" y="295.488"/>
      </g>
     </g>
     <g id="text_10">
      <!-- 0 -->
      <g transform="translate(45.6 298.9255)scale(0.1 -0.1)">
       <use xlink:href="#SimHei-30"/>
      </g>
     </g>
    </g>
    <g id="ytick_2">
     <g id="line2d_19">
      <path clip-path="url(#p23855fcda9)" d="M 57.6 260.41495 
L 414.72 260.41495 
" style="fill:none;stroke:#808080;stroke-dasharray:2.96,1.28;stroke-dashoffset:0;stroke-width:0.8;"/>
     </g>
     <g id="line2d_20">
      <g>
       <use style="stroke:#000000;stroke-width:0.8;" x="57.6" xlink:href="#m1f59316b68" y="260.41495"/>
      </g>
     </g>
     <g id="text_11">
      <!-- 1 -->
      <g transform="translate(45.6 263.85245)scale(0.1 -0.1)">
       <use xlink:href="#SimHei-31"/>
      </g>
     </g>
    </g>
    <g id="ytick_3">
     <g id="line2d_21">
      <path clip-path="url(#p23855fcda9)" d="M 57.6 225.341901 
L 414.72 225.341901 
" style="fill:none;stroke:#808080;stroke-dasharray:2.96,1.28;stroke-dashoffset:0;stroke-width:0.8;"/>
     </g>
     <g id="line2d_22">
      <g>
       <use style="stroke:#000000;stroke-width:0.8;" x="57.6" xlink:href="#m1f59316b68" y="225.341901"/>
      </g>
     </g>
     <g id="text_12">
      <!-- 2 -->
      <g transform="translate(45.6 228.779401)scale(0.1 -0.1)">
       <use xlink:href="#SimHei-32"/>
      </g>
     </g>
    </g>
    <g id="ytick_4">
     <g id="line2d_23">
      <path clip-path="url(#p23855fcda9)" d="M 57.6 190.268851 
L 414.72 190.268851 
" style="fill:none;stroke:#808080;stroke-dasharray:2.96,1.28;stroke-dashoffset:0;stroke-width:0.8;"/>
     </g>
     <g id="line2d_24">
      <g>
       <use style="stroke:#000000;stroke-width:0.8;" x="57.6" xlink:href="#m1f59316b68" y="190.268851"/>
      </g>
     </g>
     <g id="text_13">
      <!-- 3 -->
      <defs>
       <path d="M 3.90625 19.140625 
L 10.9375 20.3125 
Q 12.5 15.234375 16.015625 11.90625 
Q 19.53125 8.59375 24.796875 8.78125 
Q 30.078125 8.984375 33.203125 13.078125 
Q 36.328125 17.1875 35.9375 22.453125 
Q 35.546875 27.734375 31.828125 30.65625 
Q 28.125 33.59375 19.921875 34.765625 
L 19.921875 39.84375 
Q 28.125 40.625 31.828125 44.140625 
Q 35.546875 47.65625 35.15625 53.3125 
Q 34.765625 58.984375 30.078125 61.515625 
Q 25.390625 64.0625 20.109375 62.109375 
Q 14.84375 60.15625 11.71875 51.171875 
L 4.6875 52.34375 
Q 7.03125 59.375 11.125 64.0625 
Q 15.234375 68.75 22.265625 69.53125 
Q 29.296875 70.3125 34.5625 67.765625 
Q 39.84375 65.234375 41.984375 59.953125 
Q 44.140625 54.6875 42.578125 48.4375 
Q 41.015625 42.1875 33.59375 37.5 
Q 39.0625 35.15625 41.984375 30.46875 
Q 44.921875 25.78125 43.9375 18.15625 
Q 42.96875 10.546875 37.109375 5.859375 
Q 31.25 1.171875 23.828125 1.359375 
Q 16.40625 1.5625 10.9375 6.046875 
Q 5.46875 10.546875 3.90625 19.140625 
z
" id="SimHei-33"/>
      </defs>
      <g transform="translate(45.6 193.706351)scale(0.1 -0.1)">
       <use xlink:href="#SimHei-33"/>
      </g>
     </g>
    </g>
    <g id="ytick_5">
     <g id="line2d_25">
      <path clip-path="url(#p23855fcda9)" d="M 57.6 155.195801 
L 414.72 155.195801 
" style="fill:none;stroke:#808080;stroke-dasharray:2.96,1.28;stroke-dashoffset:0;stroke-width:0.8;"/>
     </g>
     <g id="line2d_26">
      <g>
       <use style="stroke:#000000;stroke-width:0.8;" x="57.6" xlink:href="#m1f59316b68" y="155.195801"/>
      </g>
     </g>
     <g id="text_14">
      <!-- 4 -->
      <g transform="translate(45.6 158.633301)scale(0.1 -0.1)">
       <use xlink:href="#SimHei-34"/>
      </g>
     </g>
    </g>
    <g id="ytick_6">
     <g id="line2d_27">
      <path clip-path="url(#p23855fcda9)" d="M 57.6 120.122752 
L 414.72 120.122752 
" style="fill:none;stroke:#808080;stroke-dasharray:2.96,1.28;stroke-dashoffset:0;stroke-width:0.8;"/>
     </g>
     <g id="line2d_28">
      <g>
       <use style="stroke:#000000;stroke-width:0.8;" x="57.6" xlink:href="#m1f59316b68" y="120.122752"/>
      </g>
     </g>
     <g id="text_15">
      <!-- 5 -->
      <defs>
       <path d="M 8.59375 20.703125 
Q 11.328125 10.15625 17.96875 8.984375 
Q 24.609375 7.8125 28.703125 10.34375 
Q 32.8125 12.890625 34.5625 16.984375 
Q 36.328125 21.09375 36.125 26.171875 
Q 35.9375 31.25 33.390625 34.765625 
Q 30.859375 38.28125 26.953125 39.453125 
Q 23.046875 40.625 18.15625 39.453125 
Q 13.28125 38.28125 10.15625 33.984375 
L 3.515625 34.765625 
Q 4.296875 37.109375 10.9375 68.359375 
L 41.796875 68.359375 
L 41.796875 61.328125 
L 16.796875 61.328125 
Q 14.84375 50.78125 12.890625 44.53125 
Q 18.75 47.265625 23.828125 47.0625 
Q 28.90625 46.875 33.59375 44.71875 
Q 38.28125 42.578125 40.421875 38.859375 
Q 42.578125 35.15625 43.546875 31.4375 
Q 44.53125 27.734375 44.328125 23.4375 
Q 44.140625 19.140625 42.578125 14.640625 
Q 41.015625 10.15625 37.890625 7.21875 
Q 34.765625 4.296875 30.265625 2.53125 
Q 25.78125 0.78125 19.921875 1.171875 
Q 14.0625 1.5625 8.78125 5.46875 
Q 3.515625 9.375 1.5625 18.75 
z
" id="SimHei-35"/>
      </defs>
      <g transform="translate(45.6 123.560252)scale(0.1 -0.1)">
       <use xlink:href="#SimHei-35"/>
      </g>
     </g>
    </g>
    <g id="ytick_7">
     <g id="line2d_29">
      <path clip-path="url(#p23855fcda9)" d="M 57.6 85.049702 
L 414.72 85.049702 
" style="fill:none;stroke:#808080;stroke-dasharray:2.96,1.28;stroke-dashoffset:0;stroke-width:0.8;"/>
     </g>
     <g id="line2d_30">
      <g>
       <use style="stroke:#000000;stroke-width:0.8;" x="57.6" xlink:href="#m1f59316b68" y="85.049702"/>
      </g>
     </g>
     <g id="text_16">
      <!-- 6 -->
      <g transform="translate(45.6 88.487202)scale(0.1 -0.1)">
       <use xlink:href="#SimHei-36"/>
      </g>
     </g>
    </g>
    <g id="ytick_8">
     <g id="line2d_31">
      <path clip-path="url(#p23855fcda9)" d="M 57.6 49.976652 
L 414.72 49.976652 
" style="fill:none;stroke:#808080;stroke-dasharray:2.96,1.28;stroke-dashoffset:0;stroke-width:0.8;"/>
     </g>
     <g id="line2d_32">
      <g>
       <use style="stroke:#000000;stroke-width:0.8;" x="57.6" xlink:href="#m1f59316b68" y="49.976652"/>
      </g>
     </g>
     <g id="text_17">
      <!-- 7 -->
      <defs>
       <path d="M 13.28125 2.34375 
Q 20.3125 32.03125 37.890625 61.328125 
L 4.296875 61.328125 
L 4.296875 68.359375 
L 46.09375 68.359375 
L 46.09375 61.71875 
Q 27.734375 32.03125 21.875 2.34375 
L 13.28125 2.34375 
z
" id="SimHei-37"/>
      </defs>
      <g transform="translate(45.6 53.414152)scale(0.1 -0.1)">
       <use xlink:href="#SimHei-37"/>
      </g>
     </g>
    </g>
    <g id="text_18">
     <!-- Velocity [m/s] -->
     <defs>
      <path d="M 47.65625 68.75 
L 28.125 1.171875 
L 20.3125 1.171875 
L 0.78125 68.75 
L 10.15625 68.75 
L 23.828125 17.578125 
L 24.609375 17.578125 
L 38.28125 68.75 
z
" id="SimHei-56"/>
      <path d="M 28.515625 1.953125 
L 20.703125 1.953125 
L 20.703125 68.75 
L 28.515625 68.75 
z
" id="SimHei-6c"/>
      <path d="M 45.703125 23.828125 
Q 45.703125 13.671875 39.453125 7.421875 
Q 33.203125 1.171875 24.609375 1.171875 
Q 16.015625 1.171875 9.765625 7.421875 
Q 3.515625 13.671875 3.515625 23.828125 
Q 3.515625 33.984375 9.765625 40.234375 
Q 16.015625 46.484375 24.609375 46.484375 
Q 33.203125 46.484375 39.453125 40.234375 
Q 45.703125 33.984375 45.703125 23.828125 
z
M 37.109375 23.828125 
Q 37.109375 31.640625 33.203125 35.546875 
Q 29.296875 39.453125 24.609375 39.453125 
Q 19.921875 39.453125 16.015625 35.546875 
Q 12.109375 31.640625 12.109375 23.828125 
Q 12.109375 16.015625 16.015625 12.109375 
Q 19.921875 8.203125 24.609375 8.203125 
Q 29.296875 8.203125 33.203125 12.109375 
Q 37.109375 16.015625 37.109375 23.828125 
z
" id="SimHei-6f"/>
      <path d="M 44.53125 19.53125 
Q 44.53125 11.328125 38.859375 6.25 
Q 33.203125 1.171875 24.609375 1.171875 
Q 16.015625 1.171875 9.765625 7.21875 
Q 3.515625 13.28125 3.515625 23.828125 
Q 3.515625 34.375 9.765625 40.421875 
Q 16.015625 46.484375 24.609375 46.484375 
Q 33.203125 46.484375 38.28125 41.984375 
Q 43.359375 37.5 43.359375 31.25 
L 34.765625 31.25 
Q 34.375 35.9375 31.4375 37.6875 
Q 28.515625 39.453125 24.609375 39.453125 
Q 19.921875 39.453125 16.015625 35.734375 
Q 12.109375 32.03125 12.109375 23.828125 
Q 12.109375 15.625 16.015625 11.90625 
Q 19.921875 8.203125 24.609375 8.203125 
Q 29.6875 8.203125 32.8125 10.9375 
Q 35.9375 13.671875 35.9375 19.53125 
z
" id="SimHei-63"/>
      <path d="M 28.125 58.203125 
L 20.3125 58.203125 
L 20.3125 68.359375 
L 28.125 68.359375 
z
M 28.125 1.953125 
L 20.3125 1.953125 
L 20.3125 45.703125 
L 28.125 45.703125 
z
" id="SimHei-69"/>
      <path d="M 42.96875 3.125 
Q 41.015625 2.34375 38.46875 1.75 
Q 35.9375 1.171875 31.640625 1.171875 
Q 24.609375 1.171875 20.3125 5.078125 
Q 16.015625 8.984375 16.015625 16.015625 
L 16.015625 39.453125 
L 2.734375 39.453125 
L 2.734375 45.703125 
L 16.015625 45.703125 
L 16.015625 60.9375 
L 23.828125 60.9375 
L 23.828125 45.703125 
L 39.84375 45.703125 
L 39.84375 39.453125 
L 23.828125 39.453125 
L 23.828125 15.625 
Q 23.828125 12.5 25.390625 10.34375 
Q 26.953125 8.203125 31.25 8.203125 
Q 35.546875 8.203125 38.28125 8.984375 
Q 41.015625 9.765625 42.96875 10.9375 
z
" id="SimHei-74"/>
      <path d="M 45.3125 45.703125 
L 27.34375 -1.5625 
Q 25.78125 -7.03125 22.65625 -9.765625 
Q 19.53125 -12.5 14.84375 -12.5 
Q 12.890625 -12.5 11.125 -12.296875 
Q 9.375 -12.109375 7.8125 -11.328125 
L 7.8125 -3.515625 
Q 9.375 -4.296875 10.9375 -4.6875 
Q 12.5 -5.078125 13.671875 -5.078125 
Q 16.796875 -5.078125 17.96875 -4.09375 
Q 19.140625 -3.125 20.3125 0.390625 
L 3.125 45.703125 
L 11.71875 45.703125 
L 24.21875 11.328125 
L 24.609375 11.328125 
L 36.71875 45.703125 
z
" id="SimHei-79"/>
      <path id="SimHei-20"/>
      <path d="M 44.140625 -8.203125 
L 19.53125 -8.203125 
L 19.53125 78.90625 
L 44.140625 78.90625 
L 44.140625 72.65625 
L 26.171875 72.65625 
L 26.171875 -1.953125 
L 44.140625 -1.953125 
z
" id="SimHei-5b"/>
      <path d="M 46.875 71.09375 
L 5.46875 -2.734375 
L 1.5625 -0.390625 
L 42.96875 73.4375 
z
" id="SimHei-2f"/>
      <path d="M 29.296875 -8.203125 
L 4.6875 -8.203125 
L 4.6875 -1.953125 
L 22.65625 -1.953125 
L 22.65625 72.65625 
L 4.6875 72.65625 
L 4.6875 78.90625 
L 29.296875 78.90625 
z
" id="SimHei-5d"/>
     </defs>
     <g transform="translate(39.975 220.028)rotate(-90)scale(0.13 -0.13)">
      <use xlink:href="#SimHei-56"/>
      <use x="50" xlink:href="#SimHei-65"/>
      <use x="100" xlink:href="#SimHei-6c"/>
      <use x="150" xlink:href="#SimHei-6f"/>
      <use x="200" xlink:href="#SimHei-63"/>
      <use x="250" xlink:href="#SimHei-69"/>
      <use x="300" xlink:href="#SimHei-74"/>
      <use x="350" xlink:href="#SimHei-79"/>
      <use x="400" xlink:href="#SimHei-20"/>
      <use x="450" xlink:href="#SimHei-5b"/>
      <use x="500" xlink:href="#SimHei-6d"/>
      <use x="550" xlink:href="#SimHei-2f"/>
      <use x="600" xlink:href="#SimHei-73"/>
      <use x="650" xlink:href="#SimHei-5d"/>
     </g>
    </g>
   </g>
   <g id="line2d_33">
    <path clip-path="url(#p23855fcda9)" d="M 73.832727 295.488 
L 75.997091 285.281743 
L 78.161455 203.316025 
L 80.325818 178.589525 
L 82.490182 171.469696 
L 84.654545 166.138593 
L 86.818909 163.858845 
L 88.983273 161.824608 
L 91.147636 157.931499 
L 93.312 154.809998 
L 95.476364 152.389957 
L 97.640727 149.478894 
L 101.969455 145.094763 
L 104.133818 142.113554 
L 106.298182 140.149463 
L 108.462545 138.85176 
L 110.626909 138.290591 
L 112.791273 136.642158 
L 114.955636 136.045916 
L 117.12 135.204163 
L 119.284364 135.028798 
L 123.613091 134.853432 
L 125.777455 134.432556 
L 130.106182 134.187044 
L 132.270545 133.696022 
L 145.256727 132.222954 
L 149.585455 132.468465 
L 153.914182 131.942369 
L 158.242909 132.398319 
L 160.407273 132.854269 
L 162.571636 133.485583 
L 164.736 133.836314 
L 166.900364 134.502702 
L 169.064727 135.379528 
L 171.229091 136.080989 
L 173.393455 137.063035 
L 175.557818 138.290591 
L 177.722182 139.202491 
L 179.886545 140.254682 
L 182.050909 141.447166 
L 188.544 144.358229 
L 192.872727 145.305201 
L 199.365818 147.058854 
L 201.530182 147.795388 
L 205.858909 149.654259 
L 208.023273 150.601232 
L 210.187636 150.987035 
L 214.516364 149.864698 
L 216.680727 148.952798 
L 221.009455 146.32232 
L 223.173818 145.05969 
L 225.338182 144.147791 
L 229.666909 142.885161 
L 240.488727 139.097271 
L 244.817455 137.378692 
L 246.981818 136.607085 
L 253.474909 133.801241 
L 255.639273 132.64383 
L 259.968 130.609593 
L 264.296727 127.979115 
L 266.461091 126.786631 
L 272.954182 122.121915 
L 281.611636 114.405844 
L 283.776 112.05595 
L 290.269091 106.339043 
L 292.433455 104.760756 
L 294.597818 102.831738 
L 296.762182 101.218378 
L 298.926545 99.780383 
L 303.255273 96.483516 
L 305.419636 95.045521 
L 309.748364 93.151576 
L 311.912727 92.590408 
L 314.077091 91.853874 
L 316.241455 91.46807 
L 318.405818 91.432997 
L 320.570182 91.608362 
L 324.898909 91.397924 
L 327.063273 91.397924 
L 329.227636 91.187486 
L 333.556364 91.362851 
L 337.885091 90.486025 
L 340.049455 90.415878 
L 342.213818 90.100221 
L 346.542545 89.644271 
L 348.706909 88.697299 
L 353.035636 87.399596 
L 355.2 86.838427 
L 359.528727 84.663898 
L 363.857455 83.99751 
L 366.021818 84.10273 
L 368.186182 84.418387 
L 370.350545 84.348241 
L 374.679273 84.804191 
L 379.008 84.45346 
L 383.336727 84.348241 
L 387.665455 83.401269 
L 391.994182 81.542397 
L 396.322909 80.104402 
L 398.487273 78.911918 
L 398.487273 78.911918 
" style="fill:none;stroke:#1f77b4;stroke-linecap:square;stroke-width:1.5;"/>
   </g>
   <g id="line2d_34">
    <path clip-path="url(#p23855fcda9)" d="M 73.832727 295.488 
L 75.997091 179.417749 
L 78.161455 165.848501 
L 80.325818 171.680209 
L 82.490182 178.843872 
L 84.654545 165.668565 
L 86.818909 183.612291 
L 88.983273 177.934091 
L 91.147636 148.534662 
L 93.312 157.155314 
L 95.476364 159.772887 
L 97.640727 146.912892 
L 99.805091 158.505536 
L 101.969455 152.848217 
L 104.133818 139.285914 
L 106.298182 144.505563 
L 108.462545 141.353282 
L 110.626909 142.605113 
L 112.791273 125.065623 
L 114.955636 142.007065 
L 117.12 130.944491 
L 119.284364 141.986761 
L 121.448727 138.431794 
L 123.613091 133.633474 
L 125.777455 127.082618 
L 127.941818 138.868853 
L 130.106182 134.902447 
L 132.270545 120.753344 
L 134.434909 137.943414 
L 136.599273 126.606439 
L 138.763636 135.179053 
L 140.928 131.263634 
L 143.092364 130.878691 
L 145.256727 132.258645 
L 147.421091 141.22374 
L 149.585455 135.698828 
L 151.749818 116.834665 
L 153.914182 129.061745 
L 156.078545 150.560845 
L 158.242909 131.306802 
L 160.407273 143.986911 
L 162.571636 145.200422 
L 164.736 127.979715 
L 166.900364 148.778915 
L 169.064727 147.296327 
L 171.229091 135.593295 
L 173.393455 154.548635 
L 175.557818 155.320882 
L 177.722182 135.460459 
L 179.886545 152.207839 
L 182.050909 155.132479 
L 184.215273 141.809918 
L 186.379636 155.440525 
L 188.544 144.75854 
L 190.708364 130.362413 
L 192.872727 149.235817 
L 195.037091 151.8089 
L 197.201455 146.450345 
L 199.365818 148.195763 
L 201.530182 159.194275 
L 203.694545 164.368813 
L 205.858909 153.057116 
L 208.023273 160.930246 
L 210.187636 133.076856 
L 212.352 116.655149 
L 214.516364 143.744208 
L 218.845091 121.30874 
L 221.009455 143.236242 
L 223.173818 135.486328 
L 225.338182 149.822234 
L 227.502545 148.344867 
L 229.666909 137.02285 
L 231.831273 132.032267 
L 233.995636 138.596453 
L 236.16 124.596356 
L 238.324364 139.696594 
L 240.488727 134.721634 
L 242.653091 123.392042 
L 244.817455 134.408556 
L 246.981818 133.349536 
L 249.146182 121.367244 
L 251.310545 127.243548 
L 253.474909 130.113972 
L 255.639273 114.913345 
L 257.803636 129.019525 
L 259.968 121.797847 
L 262.132364 107.072037 
L 264.296727 122.154251 
L 266.461091 118.727873 
L 268.625455 100.910212 
L 270.789818 112.316564 
L 272.954182 110.205998 
L 275.118545 91.447675 
L 277.282909 102.761713 
L 279.447273 103.452133 
L 281.611636 98.553345 
L 283.776 79.861695 
L 285.940364 108.845613 
L 288.104727 88.467998 
L 290.269091 102.571587 
L 292.433455 99.100571 
L 294.597818 77.443251 
L 296.762182 98.866927 
L 298.926545 95.995136 
L 301.090909 74.195627 
L 303.255273 90.78048 
L 305.419636 88.88908 
L 307.584 102.674278 
L 309.748364 82.880254 
L 311.912727 101.703096 
L 314.077091 79.029174 
L 316.241455 98.248387 
L 318.405818 96.537001 
L 320.570182 96.83456 
L 322.734545 78.414593 
L 324.898909 93.084997 
L 327.063273 93.576022 
L 329.227636 78.718248 
L 331.392 97.382884 
L 333.556364 92.285672 
L 335.720727 72.9826 
L 337.885091 86.82007 
L 340.049455 102.326325 
L 342.213818 81.261962 
L 344.378182 92.350169 
L 346.542545 85.205926 
L 348.706909 57.729591 
L 350.871273 92.818954 
L 353.035636 85.814203 
L 355.2 82.941692 
L 357.364364 59.932568 
L 359.528727 76.45688 
L 361.693091 105.945998 
L 363.857455 79.067183 
L 366.021818 97.954343 
L 368.186182 92.75876 
L 370.350545 71.515994 
L 372.514909 92.643167 
L 374.679273 91.173702 
L 376.843636 67.010348 
L 379.008 86.085479 
L 381.172364 86.565907 
L 383.336727 86.704426 
L 385.501091 62.611059 
L 387.665455 83.215058 
L 389.829818 58.679163 
L 391.994182 76.702086 
L 394.158545 79.224977 
L 396.322909 77.202396 
L 398.487273 53.568 
L 398.487273 53.568 
" style="fill:none;stroke:#ff7f0e;stroke-linecap:square;stroke-width:1.5;"/>
   </g>
   <g id="patch_3">
    <path d="M 57.6 307.584 
L 57.6 41.472 
" style="fill:none;stroke:#000000;stroke-linecap:square;stroke-linejoin:miter;stroke-width:0.8;"/>
   </g>
   <g id="patch_4">
    <path d="M 414.72 307.584 
L 414.72 41.472 
" style="fill:none;stroke:#000000;stroke-linecap:square;stroke-linejoin:miter;stroke-width:0.8;"/>
   </g>
   <g id="patch_5">
    <path d="M 57.6 307.584 
L 414.72 307.584 
" style="fill:none;stroke:#000000;stroke-linecap:square;stroke-linejoin:miter;stroke-width:0.8;"/>
   </g>
   <g id="patch_6">
    <path d="M 57.6 41.472 
L 414.72 41.472 
" style="fill:none;stroke:#000000;stroke-linecap:square;stroke-linejoin:miter;stroke-width:0.8;"/>
   </g>
   <g id="legend_1">
    <g id="patch_7">
     <path d="M 66.7 70.508719 
L 268.2 70.508719 
Q 270.8 70.508719 270.8 67.908719 
L 270.8 50.572 
Q 270.8 47.972 268.2 47.972 
L 66.7 47.972 
Q 64.1 47.972 64.1 50.572 
L 64.1 67.908719 
Q 64.1 70.508719 66.7 70.508719 
z
" style="fill:#ffffff;opacity:0.8;stroke:#cccccc;stroke-linejoin:miter;"/>
    </g>
    <g id="line2d_35">
     <path d="M 69.3 59.133719 
L 95.3 59.133719 
" style="fill:none;stroke:#1f77b4;stroke-linecap:square;stroke-width:1.5;"/>
    </g>
    <g id="line2d_36"/>
    <g id="text_19">
     <!-- UKF输出 -->
     <defs>
      <path d="M 44.921875 21.484375 
Q 44.921875 12.109375 40.03125 6.640625 
Q 35.15625 1.171875 24.609375 1.171875 
Q 14.0625 1.171875 9.171875 6.640625 
Q 4.296875 12.109375 4.296875 21.484375 
L 4.296875 68.75 
L 13.28125 68.75 
L 13.28125 21.484375 
Q 13.28125 14.84375 16.40625 11.71875 
Q 19.53125 8.59375 24.609375 8.59375 
Q 29.6875 8.59375 32.8125 11.71875 
Q 35.9375 14.84375 35.9375 21.484375 
L 35.9375 68.75 
L 44.921875 68.75 
z
" id="SimHei-55"/>
      <path d="M 47.65625 1.953125 
L 37.5 1.953125 
L 19.53125 35.15625 
L 13.28125 26.953125 
L 13.28125 1.953125 
L 4.296875 1.953125 
L 4.296875 68.75 
L 13.28125 68.75 
L 13.28125 39.84375 
L 35.546875 68.75 
L 46.09375 68.75 
L 25.390625 42.578125 
z
" id="SimHei-4b"/>
      <path d="M 50.390625 57.03125 
Q 42.578125 48.4375 39.84375 46.09375 
L 64.0625 46.09375 
Q 63.671875 41.796875 63.671875 35.546875 
L 63.671875 -1.5625 
Q 64.0625 -5.078125 61.90625 -6.640625 
Q 59.765625 -8.203125 54.296875 -9.375 
Q 53.125 -5.46875 50.390625 -1.5625 
Q 57.03125 -1.5625 57.03125 0.390625 
L 57.03125 10.546875 
L 46.484375 10.546875 
L 46.484375 -8.984375 
L 39.453125 -8.984375 
Q 39.84375 -1.953125 39.84375 5.078125 
L 39.84375 32.421875 
Q 39.84375 39.0625 39.453125 45.703125 
L 37.109375 43.75 
Q 34.375 46.875 30.46875 48.4375 
Q 40.234375 55.078125 47.265625 63.859375 
Q 54.296875 72.65625 58.984375 82.8125 
Q 63.671875 80.46875 67.578125 79.6875 
L 66.015625 77.734375 
Q 73.4375 67.578125 81.640625 62.109375 
Q 89.84375 56.640625 96.875 54.296875 
Q 93.359375 51.171875 91.015625 47.265625 
Q 82.421875 51.5625 76.171875 57.03125 
L 76.171875 52.34375 
L 50.390625 52.34375 
z
M 34.765625 12.890625 
Q 30.859375 12.109375 26.953125 10.546875 
Q 26.953125 -1.5625 27.34375 -10.15625 
L 19.921875 -10.15625 
Q 20.3125 -1.5625 20.3125 8.984375 
Q 11.328125 6.640625 7.421875 5.078125 
Q 6.25 8.984375 3.90625 12.890625 
Q 10.15625 13.671875 20.3125 16.015625 
L 20.3125 30.859375 
Q 10.9375 30.078125 6.25 28.125 
L 3.515625 34.765625 
Q 6.640625 36.71875 9.375 44.53125 
Q 12.109375 52.34375 13.671875 59.765625 
Q 9.765625 59.765625 5.46875 59.375 
L 5.46875 66.40625 
Q 10.546875 66.015625 14.84375 66.015625 
Q 16.40625 73.4375 16.796875 80.859375 
Q 21.875 79.296875 26.171875 78.515625 
Q 23.828125 75.78125 21.875 66.015625 
Q 30.078125 66.015625 35.9375 66.40625 
L 35.9375 59.375 
Q 28.90625 59.765625 20.703125 59.765625 
Q 16.796875 45.3125 12.890625 36.328125 
L 20.3125 37.109375 
Q 20.3125 42.1875 19.921875 48.828125 
L 27.34375 48.828125 
Q 26.953125 45.3125 26.953125 37.890625 
L 33.59375 38.671875 
L 33.59375 32.421875 
L 26.953125 31.640625 
L 26.953125 17.578125 
L 34.765625 19.53125 
L 34.765625 12.890625 
z
M 90.234375 45.703125 
Q 89.84375 39.453125 89.84375 33.59375 
L 89.84375 -1.5625 
Q 89.84375 -5.859375 87.890625 -7.421875 
Q 85.9375 -8.984375 78.125 -10.546875 
Q 77.34375 -7.03125 74.21875 -2.734375 
Q 82.8125 -3.125 83.203125 0 
L 83.203125 32.8125 
Q 83.203125 39.0625 82.8125 45.703125 
L 90.234375 45.703125 
z
M 77.734375 42.1875 
Q 77.34375 37.5 77.34375 31.25 
L 77.34375 14.0625 
Q 77.34375 6.640625 77.734375 1.953125 
L 69.921875 1.953125 
Q 70.3125 7.8125 70.3125 13.671875 
L 70.3125 31.25 
Q 70.3125 36.71875 69.921875 42.1875 
L 77.734375 42.1875 
z
M 74.21875 58.59375 
Q 69.53125 62.890625 62.109375 73.046875 
Q 55.859375 63.671875 51.5625 58.59375 
L 74.21875 58.59375 
z
M 57.03125 31.25 
L 57.03125 40.234375 
L 46.484375 40.234375 
L 46.484375 31.25 
z
M 57.03125 16.796875 
L 57.03125 25.390625 
L 46.484375 25.390625 
L 46.484375 16.796875 
z
" id="SimHei-8f93"/>
      <path d="M 23.046875 71.09375 
Q 22.65625 66.015625 22.65625 61.71875 
L 22.65625 46.09375 
L 45.703125 46.09375 
L 45.703125 69.140625 
Q 45.703125 74.609375 45.3125 80.078125 
L 53.515625 80.078125 
Q 53.125 75.390625 53.125 69.140625 
L 53.125 46.09375 
L 76.5625 46.09375 
L 76.5625 60.546875 
Q 76.5625 66.796875 76.171875 70.703125 
L 84.375 70.703125 
Q 83.984375 66.796875 83.984375 60.15625 
L 83.984375 49.609375 
Q 83.984375 43.359375 84.375 39.453125 
L 53.125 39.453125 
L 53.125 3.515625 
L 80.078125 3.515625 
L 80.078125 19.921875 
Q 80.078125 25.78125 79.6875 30.078125 
L 87.890625 30.078125 
Q 87.5 25.78125 87.5 20.3125 
L 87.5 2.734375 
Q 87.5 -5.078125 87.890625 -10.15625 
L 80.078125 -10.15625 
L 80.078125 -3.125 
L 10.546875 -3.125 
Q 10.9375 1.5625 10.9375 8.203125 
L 10.9375 19.921875 
Q 10.9375 26.5625 10.546875 30.46875 
L 18.75 30.46875 
Q 18.359375 26.5625 18.359375 19.921875 
L 18.359375 3.515625 
L 45.703125 3.515625 
L 45.703125 39.453125 
L 14.84375 39.453125 
Q 15.234375 43.359375 15.234375 49.21875 
L 15.234375 61.328125 
Q 15.234375 66.40625 14.84375 71.09375 
L 23.046875 71.09375 
z
" id="SimHei-51fa"/>
     </defs>
     <g transform="translate(105.7 63.683719)scale(0.13 -0.13)">
      <use xlink:href="#SimHei-55"/>
      <use x="50" xlink:href="#SimHei-4b"/>
      <use x="100" xlink:href="#SimHei-46"/>
      <use x="150" xlink:href="#SimHei-8f93"/>
      <use x="250" xlink:href="#SimHei-51fa"/>
     </g>
    </g>
    <g id="line2d_37">
     <path d="M 177.2 59.133719 
L 203.2 59.133719 
" style="fill:none;stroke:#ff7f0e;stroke-linecap:square;stroke-width:1.5;"/>
    </g>
    <g id="line2d_38"/>
    <g id="text_20">
     <!-- 直接计算 -->
     <defs>
      <path d="M 55.46875 78.515625 
Q 54.296875 76.171875 53.125 70.703125 
L 75.390625 70.703125 
Q 81.640625 70.703125 90.234375 71.09375 
L 90.234375 64.0625 
Q 82.03125 64.453125 75.390625 64.453125 
L 52.34375 64.453125 
Q 51.5625 58.984375 51.171875 55.078125 
L 79.6875 55.078125 
Q 79.296875 48.046875 79.296875 39.453125 
L 79.296875 1.5625 
L 82.8125 1.5625 
Q 88.28125 1.5625 95.3125 1.953125 
L 95.3125 -5.46875 
Q 88.671875 -5.078125 82.8125 -5.078125 
L 19.140625 -5.078125 
Q 12.5 -5.078125 5.078125 -5.46875 
L 5.078125 1.953125 
Q 12.890625 1.5625 19.140625 1.5625 
L 21.484375 1.5625 
L 21.484375 39.453125 
Q 21.484375 49.609375 21.09375 55.078125 
L 43.359375 55.078125 
Q 44.140625 59.765625 44.53125 64.453125 
L 24.21875 64.453125 
Q 16.796875 64.453125 9.375 64.0625 
L 9.375 71.09375 
Q 16.796875 70.703125 23.828125 70.703125 
L 44.921875 70.703125 
Q 45.3125 75 44.921875 79.296875 
Q 51.171875 78.515625 55.46875 78.515625 
z
M 71.875 15.234375 
L 71.875 22.65625 
L 28.90625 22.65625 
L 28.90625 15.234375 
z
M 71.875 1.5625 
L 71.875 8.984375 
L 28.90625 8.984375 
L 28.90625 1.5625 
z
M 71.875 41.40625 
L 71.875 48.828125 
L 28.90625 48.828125 
L 28.90625 41.40625 
z
M 71.875 28.515625 
L 71.875 35.546875 
L 28.90625 35.546875 
L 28.90625 28.515625 
z
" id="SimHei-76f4"/>
      <path d="M 66.015625 35.546875 
Q 64.84375 34.375 62.5 29.6875 
L 87.5 29.6875 
Q 94.53125 30.078125 96.09375 30.078125 
L 96.09375 23.046875 
Q 93.359375 23.4375 88.28125 23.4375 
L 81.640625 23.4375 
Q 78.125 14.453125 73.4375 7.8125 
Q 85.546875 1.953125 94.53125 -2.734375 
Q 93.359375 -3.90625 88.671875 -9.765625 
Q 82.421875 -5.078125 68.359375 2.34375 
Q 62.890625 -2.34375 55.65625 -5.265625 
Q 48.4375 -8.203125 38.28125 -10.15625 
Q 37.890625 -7.03125 34.765625 -3.125 
Q 41.015625 -2.34375 48.046875 -0.578125 
Q 55.078125 1.171875 61.328125 5.46875 
Q 57.8125 7.03125 44.921875 12.5 
Q 47.265625 16.015625 51.171875 23.4375 
L 44.921875 23.4375 
Q 38.671875 23.4375 35.9375 23.046875 
L 35.9375 30.46875 
Q 37.890625 30.078125 44.53125 29.6875 
L 53.90625 29.6875 
Q 56.640625 36.328125 57.03125 39.0625 
Q 63.671875 36.328125 66.015625 35.546875 
z
M 18.359375 61.71875 
L 18.359375 73.4375 
Q 18.359375 75.78125 17.578125 80.078125 
L 26.171875 80.078125 
Q 25.390625 75.78125 25.390625 73.4375 
L 25.390625 61.71875 
Q 29.296875 61.71875 35.15625 62.109375 
L 35.15625 54.6875 
Q 29.296875 55.078125 25.390625 55.078125 
L 25.390625 36.71875 
Q 27.34375 37.890625 34.375 41.015625 
Q 34.375 35.9375 34.765625 33.59375 
Q 27.734375 30.46875 25.390625 29.296875 
L 25.390625 1.171875 
Q 25.390625 -4.296875 22.265625 -6.640625 
Q 19.140625 -8.984375 10.15625 -9.765625 
Q 10.15625 -7.03125 7.03125 -0.390625 
Q 14.84375 -1.5625 16.40625 -0.390625 
Q 17.96875 0.78125 18.359375 4.296875 
L 18.359375 26.5625 
Q 15.234375 25.390625 7.03125 20.703125 
Q 5.078125 26.5625 3.515625 29.296875 
Q 13.28125 31.640625 18.359375 33.984375 
L 18.359375 55.078125 
L 15.625 55.078125 
Q 10.15625 55.078125 4.6875 54.6875 
L 4.6875 62.5 
Q 10.546875 61.71875 15.625 61.71875 
z
M 74.609375 64.0625 
Q 81.25 60.546875 83.59375 59.765625 
Q 81.25 57.8125 76.953125 46.09375 
L 84.765625 46.09375 
Q 91.015625 46.484375 92.96875 46.875 
L 92.96875 39.453125 
Q 90.234375 39.84375 85.546875 39.84375 
L 47.265625 39.84375 
Q 44.53125 39.84375 38.28125 39.453125 
L 38.28125 46.875 
Q 44.140625 46.484375 46.484375 46.09375 
L 69.53125 46.09375 
Q 73.4375 56.640625 74.609375 64.0625 
z
M 61.71875 71.484375 
Q 60.15625 78.125 58.984375 80.46875 
Q 64.453125 81.640625 67.1875 82.421875 
L 70.3125 71.484375 
L 83.59375 71.484375 
Q 89.0625 71.875 92.96875 71.875 
L 92.96875 64.84375 
Q 88.671875 65.234375 83.984375 65.234375 
L 49.609375 65.234375 
Q 43.359375 65.234375 39.0625 64.84375 
L 39.0625 71.875 
Q 42.96875 71.484375 48.4375 71.484375 
z
M 54.296875 15.625 
Q 63.28125 12.5 67.1875 10.15625 
Q 72.265625 17.578125 74.21875 23.4375 
L 59.375 23.4375 
Q 55.859375 18.359375 54.296875 15.625 
z
M 53.515625 61.71875 
Q 58.203125 53.90625 60.15625 50 
Q 53.90625 48.046875 52.34375 46.875 
Q 49.21875 54.296875 46.484375 57.8125 
Q 50.78125 59.765625 53.515625 61.71875 
z
" id="SimHei-63a5"/>
      <path d="M 61.328125 48.4375 
L 61.328125 67.96875 
Q 61.328125 75.78125 60.9375 80.078125 
L 69.140625 80.078125 
Q 68.75 75 68.75 71.09375 
L 68.75 48.4375 
L 84.765625 48.4375 
Q 89.453125 48.4375 94.921875 48.828125 
L 94.921875 41.40625 
Q 89.0625 41.796875 85.15625 41.796875 
L 68.75 41.796875 
L 68.75 2.734375 
Q 68.75 -1.953125 69.140625 -8.59375 
L 60.9375 -8.59375 
Q 61.328125 -1.953125 61.328125 2.34375 
L 61.328125 41.796875 
L 46.09375 41.796875 
Q 40.234375 41.796875 34.375 41.40625 
L 34.375 48.828125 
Q 40.234375 48.4375 45.3125 48.4375 
z
M 27.734375 49.21875 
Q 27.34375 41.796875 27.34375 33.59375 
L 27.34375 9.765625 
Q 33.984375 16.40625 37.890625 21.875 
Q 40.234375 18.75 43.359375 15.625 
L 32.421875 4.6875 
Q 27.34375 -0.390625 22.65625 -5.46875 
Q 19.921875 -1.953125 17.578125 0.78125 
Q 20.3125 3.90625 19.921875 10.15625 
L 19.921875 42.578125 
Q 9.375 42.578125 4.296875 42.1875 
L 4.296875 49.609375 
Q 10.546875 49.21875 12.890625 49.21875 
z
M 17.96875 78.90625 
Q 23.046875 73.828125 33.984375 62.5 
Q 30.46875 59.375 27.34375 56.640625 
Q 22.265625 64.0625 12.109375 74.21875 
Q 14.84375 76.171875 17.96875 78.90625 
z
" id="SimHei-8ba1"/>
      <path d="M 80.859375 57.03125 
Q 80.46875 50 80.46875 39.0625 
Q 80.46875 28.125 80.859375 20.703125 
L 71.484375 20.703125 
L 71.484375 13.671875 
L 82.03125 13.671875 
Q 88.28125 13.671875 96.09375 14.0625 
L 96.09375 7.421875 
Q 88.28125 7.8125 82.03125 7.8125 
L 71.484375 7.8125 
Q 71.484375 -1.171875 71.875 -9.765625 
L 63.28125 -9.765625 
Q 63.671875 -1.171875 63.671875 7.8125 
L 41.40625 7.8125 
Q 38.671875 1.5625 33.203125 -2.734375 
Q 27.734375 -7.03125 16.796875 -10.546875 
Q 14.453125 -6.640625 10.9375 -3.90625 
Q 19.53125 -2.34375 25 0.578125 
Q 30.46875 3.515625 33.203125 7.8125 
L 19.140625 7.8125 
Q 12.5 7.8125 4.6875 7.421875 
L 4.6875 14.0625 
Q 12.890625 13.671875 19.140625 13.671875 
L 34.375 13.671875 
Q 35.15625 16.796875 35.15625 20.703125 
L 19.53125 20.703125 
Q 19.921875 27.734375 19.921875 38.671875 
Q 19.921875 50 19.53125 57.03125 
L 80.859375 57.03125 
z
M 28.515625 79.6875 
Q 25.390625 76.5625 23.046875 73.828125 
L 37.890625 73.828125 
Q 42.96875 73.828125 49.609375 74.21875 
L 49.609375 67.578125 
Q 42.96875 67.96875 34.375 67.96875 
Q 35.15625 65.234375 36.71875 60.546875 
Q 32.421875 60.15625 28.515625 58.59375 
Q 27.34375 63.671875 26.171875 67.96875 
L 18.75 67.96875 
Q 16.796875 64.453125 12.109375 58.984375 
Q 8.203125 61.328125 3.90625 62.5 
Q 7.8125 66.015625 11.90625 70.890625 
Q 16.015625 75.78125 19.921875 82.8125 
Q 23.4375 80.859375 28.515625 79.6875 
z
M 70.703125 79.6875 
Q 67.578125 77.34375 65.234375 73.828125 
L 81.640625 73.828125 
Q 85.9375 73.828125 92.96875 74.21875 
L 92.96875 67.578125 
Q 86.71875 67.96875 77.734375 67.96875 
L 80.859375 61.71875 
Q 76.953125 61.328125 72.65625 59.765625 
Q 71.484375 64.0625 70.3125 67.96875 
L 60.9375 67.96875 
Q 57.8125 62.890625 55.078125 58.984375 
Q 50.78125 61.71875 47.265625 62.5 
Q 51.953125 67.1875 55.46875 72.0625 
Q 58.984375 76.953125 60.9375 82.421875 
Q 65.234375 80.859375 70.703125 79.6875 
z
M 72.65625 26.171875 
L 72.65625 31.25 
L 27.734375 31.25 
L 27.734375 26.171875 
z
M 72.65625 36.71875 
L 72.65625 41.40625 
L 27.734375 41.40625 
L 27.734375 36.71875 
z
M 72.65625 46.875 
L 72.65625 51.5625 
L 27.734375 51.5625 
L 27.734375 46.875 
z
M 63.671875 13.671875 
L 63.671875 20.703125 
L 42.578125 20.703125 
Q 42.578125 16.796875 42.1875 13.671875 
z
" id="SimHei-7b97"/>
     </defs>
     <g transform="translate(213.6 63.683719)scale(0.13 -0.13)">
      <use xlink:href="#SimHei-76f4"/>
      <use x="100" xlink:href="#SimHei-63a5"/>
      <use x="200" xlink:href="#SimHei-8ba1"/>
      <use x="300" xlink:href="#SimHei-7b97"/>
     </g>
    </g>
   </g>
  </g>
 </g>
 <defs>
  <clipPath id="p23855fcda9">
   <rect height="266.112" width="357.12" x="57.6" y="41.472"/>
  </clipPath>
 </defs>
</svg>
