<?xml version="1.0" encoding="utf-8" standalone="no"?>
<!DOCTYPE svg PUBLIC "-//W3C//DTD SVG 1.1//EN"
  "http://www.w3.org/Graphics/SVG/1.1/DTD/svg11.dtd">
<!-- Created with matplotlib (http://matplotlib.org/) -->
<svg height="345.6pt" version="1.1" viewBox="0 0 460.8 345.6" width="460.8pt" xmlns="http://www.w3.org/2000/svg" xmlns:xlink="http://www.w3.org/1999/xlink">
 <defs>
  <style type="text/css">
*{stroke-linecap:butt;stroke-linejoin:round;}
  </style>
 </defs>
 <g id="figure_1">
  <g id="patch_1">
   <path d="M 0 345.6 
L 460.8 345.6 
L 460.8 0 
L 0 0 
z
" style="fill:#ffffff;"/>
  </g>
  <g id="axes_1">
   <g id="patch_2">
    <path d="M 57.6 307.584 
L 414.72 307.584 
L 414.72 41.472 
L 57.6 41.472 
z
" style="fill:#ffffff;"/>
   </g>
   <g id="matplotlib.axis_1">
    <g id="xtick_1">
     <g id="line2d_1">
      <path clip-path="url(#pdd8c50cb5b)" d="M 73.832727 307.584 
L 73.832727 41.472 
" style="fill:none;stroke:#b0b0b0;stroke-dasharray:5.12,1.28,0.8,1.28;stroke-dashoffset:0;stroke-width:0.8;"/>
     </g>
     <g id="line2d_2">
      <defs>
       <path d="M 0 0 
L 0 3.5 
" id="m87887fb988" style="stroke:#000000;stroke-width:0.8;"/>
      </defs>
      <g>
       <use style="stroke:#000000;stroke-width:0.8;" x="73.832727" xlink:href="#m87887fb988" y="307.584"/>
      </g>
     </g>
     <g id="text_1">
      <!-- 0 -->
      <defs>
       <path d="M 3.125 29.296875 
Q 3.90625 50 6.4375 56.046875 
Q 8.984375 62.109375 13.671875 66.015625 
Q 18.359375 69.921875 25.1875 69.921875 
Q 32.03125 69.921875 37.109375 64.25 
Q 42.1875 58.59375 43.75 50 
Q 45.3125 41.40625 44.71875 30.265625 
Q 44.140625 19.140625 40.8125 12.109375 
Q 37.5 5.078125 30.859375 2.34375 
Q 24.21875 -0.390625 17.578125 2.921875 
Q 10.9375 6.25 8.203125 11.71875 
Q 5.46875 17.1875 4.296875 23.234375 
Q 3.125 29.296875 3.90625 50 
z
M 12.890625 52.734375 
Q 10.546875 31.25 12.5 22.84375 
Q 14.453125 14.453125 18.9375 10.9375 
Q 23.4375 7.421875 28.125 9.5625 
Q 32.8125 11.71875 34.953125 18.15625 
Q 37.109375 24.609375 37.109375 32.21875 
Q 37.109375 39.84375 36.515625 46.09375 
Q 35.9375 52.34375 33 57.421875 
Q 30.078125 62.5 25.1875 62.6875 
Q 20.3125 62.890625 16.59375 57.8125 
Q 12.890625 52.734375 10.546875 31.25 
z
" id="SimHei-30"/>
      </defs>
      <g transform="translate(71.332727 321.459)scale(0.1 -0.1)">
       <use xlink:href="#SimHei-30"/>
      </g>
     </g>
    </g>
    <g id="xtick_2">
     <g id="line2d_3">
      <path clip-path="url(#pdd8c50cb5b)" d="M 117.12 307.584 
L 117.12 41.472 
" style="fill:none;stroke:#b0b0b0;stroke-dasharray:5.12,1.28,0.8,1.28;stroke-dashoffset:0;stroke-width:0.8;"/>
     </g>
     <g id="line2d_4">
      <g>
       <use style="stroke:#000000;stroke-width:0.8;" x="117.12" xlink:href="#m87887fb988" y="307.584"/>
      </g>
     </g>
     <g id="text_2">
      <!-- 20 -->
      <defs>
       <path d="M 4.6875 3.90625 
Q 5.078125 9.765625 10.15625 14.453125 
Q 15.234375 19.140625 23.046875 29.09375 
Q 30.859375 39.0625 33.203125 44.53125 
Q 35.546875 50 34.953125 53.90625 
Q 34.375 57.8125 31.25 60.34375 
Q 28.125 62.890625 24.015625 62.5 
Q 19.921875 62.109375 16.203125 59.375 
Q 12.5 56.640625 10.546875 51.171875 
L 3.125 52.34375 
Q 6.25 61.328125 11.125 65.421875 
Q 16.015625 69.53125 22.65625 69.921875 
Q 26.5625 70.3125 29.6875 69.71875 
Q 32.8125 69.140625 36.125 66.984375 
Q 39.453125 64.84375 41.59375 60.546875 
Q 43.75 56.25 43.15625 50.1875 
Q 42.578125 44.140625 37.109375 35.734375 
Q 31.640625 27.34375 16.015625 9.375 
L 44.140625 9.375 
L 44.140625 2.34375 
L 4.6875 2.34375 
z
" id="SimHei-32"/>
      </defs>
      <g transform="translate(112.12 321.459)scale(0.1 -0.1)">
       <use xlink:href="#SimHei-32"/>
       <use x="50" xlink:href="#SimHei-30"/>
      </g>
     </g>
    </g>
    <g id="xtick_3">
     <g id="line2d_5">
      <path clip-path="url(#pdd8c50cb5b)" d="M 160.407273 307.584 
L 160.407273 41.472 
" style="fill:none;stroke:#b0b0b0;stroke-dasharray:5.12,1.28,0.8,1.28;stroke-dashoffset:0;stroke-width:0.8;"/>
     </g>
     <g id="line2d_6">
      <g>
       <use style="stroke:#000000;stroke-width:0.8;" x="160.407273" xlink:href="#m87887fb988" y="307.584"/>
      </g>
     </g>
     <g id="text_3">
      <!-- 40 -->
      <defs>
       <path d="M 31.25 17.1875 
L 1.171875 17.1875 
L 1.171875 23.828125 
L 32.8125 69.53125 
L 38.671875 69.53125 
L 38.671875 23.828125 
L 48.046875 23.828125 
L 48.046875 17.1875 
L 38.671875 17.1875 
L 38.671875 2.34375 
L 31.25 2.34375 
z
M 31.25 23.828125 
L 31.25 54.6875 
L 9.375 23.828125 
z
" id="SimHei-34"/>
      </defs>
      <g transform="translate(155.407273 321.459)scale(0.1 -0.1)">
       <use xlink:href="#SimHei-34"/>
       <use x="50" xlink:href="#SimHei-30"/>
      </g>
     </g>
    </g>
    <g id="xtick_4">
     <g id="line2d_7">
      <path clip-path="url(#pdd8c50cb5b)" d="M 203.694545 307.584 
L 203.694545 41.472 
" style="fill:none;stroke:#b0b0b0;stroke-dasharray:5.12,1.28,0.8,1.28;stroke-dashoffset:0;stroke-width:0.8;"/>
     </g>
     <g id="line2d_8">
      <g>
       <use style="stroke:#000000;stroke-width:0.8;" x="203.694545" xlink:href="#m87887fb988" y="307.584"/>
      </g>
     </g>
     <g id="text_4">
      <!-- 60 -->
      <defs>
       <path d="M 3.515625 19.53125 
Q 4.296875 30.859375 6.046875 34.765625 
Q 7.8125 38.671875 11.328125 44.53125 
L 27.34375 69.53125 
L 36.328125 69.53125 
L 19.921875 43.75 
Q 30.46875 46.484375 36.71875 42.96875 
Q 42.96875 39.453125 45.109375 34.953125 
Q 47.265625 30.46875 47.453125 25.1875 
Q 47.65625 19.921875 45.890625 14.84375 
Q 44.140625 9.765625 39.640625 5.65625 
Q 35.15625 1.5625 27.140625 1.171875 
Q 19.140625 0.78125 13.46875 4.09375 
Q 7.8125 7.421875 5.65625 13.46875 
Q 3.515625 19.53125 4.296875 30.859375 
z
M 12.5 16.015625 
Q 19.53125 8.59375 25.390625 8.203125 
Q 31.25 7.8125 35.15625 12.109375 
Q 39.0625 16.40625 39.0625 24.609375 
Q 39.0625 32.8125 34.171875 35.9375 
Q 29.296875 39.0625 23.234375 38.28125 
Q 17.1875 37.5 14.453125 32.421875 
Q 11.71875 27.34375 12.109375 21.671875 
Q 12.5 16.015625 19.53125 8.59375 
z
" id="SimHei-36"/>
      </defs>
      <g transform="translate(198.694545 321.459)scale(0.1 -0.1)">
       <use xlink:href="#SimHei-36"/>
       <use x="50" xlink:href="#SimHei-30"/>
      </g>
     </g>
    </g>
    <g id="xtick_5">
     <g id="line2d_9">
      <path clip-path="url(#pdd8c50cb5b)" d="M 246.981818 307.584 
L 246.981818 41.472 
" style="fill:none;stroke:#b0b0b0;stroke-dasharray:5.12,1.28,0.8,1.28;stroke-dashoffset:0;stroke-width:0.8;"/>
     </g>
     <g id="line2d_10">
      <g>
       <use style="stroke:#000000;stroke-width:0.8;" x="246.981818" xlink:href="#m87887fb988" y="307.584"/>
      </g>
     </g>
     <g id="text_5">
      <!-- 80 -->
      <defs>
       <path d="M 2.734375 16.796875 
Q 2.734375 26.171875 5.078125 30.65625 
Q 7.421875 35.15625 12.890625 37.890625 
Q 8.203125 40.625 6.640625 43.9375 
Q 5.078125 47.265625 4.875 51.5625 
Q 4.6875 55.859375 6.046875 58.984375 
Q 7.421875 62.109375 10.15625 64.84375 
Q 12.890625 67.578125 16.203125 68.546875 
Q 19.53125 69.53125 23.4375 69.53125 
Q 27.34375 69.53125 30.46875 68.75 
Q 33.59375 67.96875 37.109375 65.421875 
Q 40.625 62.890625 42.1875 58.203125 
Q 43.75 53.515625 41.984375 47.265625 
Q 40.234375 41.015625 32.8125 37.5 
Q 39.453125 35.546875 42.1875 31.4375 
Q 44.921875 27.34375 44.921875 21.484375 
Q 44.921875 15.625 43.15625 12.109375 
Q 41.40625 8.59375 39.25 6.25 
Q 37.109375 3.90625 33.390625 2.53125 
Q 29.6875 1.171875 24.015625 1.171875 
Q 18.359375 1.171875 14.25 2.53125 
Q 10.15625 3.90625 7.421875 6.640625 
Q 4.6875 9.375 3.703125 13.078125 
Q 2.734375 16.796875 2.734375 26.171875 
z
M 10.9375 26.5625 
Q 10.546875 17.1875 12.296875 13.671875 
Q 14.0625 10.15625 18.75 9.171875 
Q 23.4375 8.203125 28.515625 9.375 
Q 33.59375 10.546875 35.546875 14.84375 
Q 37.5 19.140625 36.90625 23.4375 
Q 36.328125 27.734375 32.03125 30.65625 
Q 27.734375 33.59375 22.65625 33.203125 
Q 17.578125 32.8125 14.25 29.6875 
Q 10.9375 26.5625 10.546875 17.1875 
z
M 12.109375 56.25 
Q 12.109375 48.4375 14.84375 44.921875 
Q 17.578125 41.40625 23.4375 41.40625 
Q 29.296875 41.40625 32.21875 44.921875 
Q 35.15625 48.4375 34.953125 53.3125 
Q 34.765625 58.203125 31.4375 60.546875 
Q 28.125 62.890625 22.453125 62.5 
Q 16.796875 62.109375 14.453125 59.171875 
Q 12.109375 56.25 12.109375 48.4375 
z
" id="SimHei-38"/>
      </defs>
      <g transform="translate(241.981818 321.459)scale(0.1 -0.1)">
       <use xlink:href="#SimHei-38"/>
       <use x="50" xlink:href="#SimHei-30"/>
      </g>
     </g>
    </g>
    <g id="xtick_6">
     <g id="line2d_11">
      <path clip-path="url(#pdd8c50cb5b)" d="M 290.269091 307.584 
L 290.269091 41.472 
" style="fill:none;stroke:#b0b0b0;stroke-dasharray:5.12,1.28,0.8,1.28;stroke-dashoffset:0;stroke-width:0.8;"/>
     </g>
     <g id="line2d_12">
      <g>
       <use style="stroke:#000000;stroke-width:0.8;" x="290.269091" xlink:href="#m87887fb988" y="307.584"/>
      </g>
     </g>
     <g id="text_6">
      <!-- 100 -->
      <defs>
       <path d="M 21.875 56.25 
Q 16.796875 51.171875 8.984375 46.484375 
L 8.984375 53.90625 
Q 18.75 60.546875 25 69.53125 
L 29.6875 69.53125 
L 29.6875 2.34375 
L 21.875 2.34375 
z
" id="SimHei-31"/>
      </defs>
      <g transform="translate(282.769091 321.459)scale(0.1 -0.1)">
       <use xlink:href="#SimHei-31"/>
       <use x="50" xlink:href="#SimHei-30"/>
       <use x="100" xlink:href="#SimHei-30"/>
      </g>
     </g>
    </g>
    <g id="xtick_7">
     <g id="line2d_13">
      <path clip-path="url(#pdd8c50cb5b)" d="M 333.556364 307.584 
L 333.556364 41.472 
" style="fill:none;stroke:#b0b0b0;stroke-dasharray:5.12,1.28,0.8,1.28;stroke-dashoffset:0;stroke-width:0.8;"/>
     </g>
     <g id="line2d_14">
      <g>
       <use style="stroke:#000000;stroke-width:0.8;" x="333.556364" xlink:href="#m87887fb988" y="307.584"/>
      </g>
     </g>
     <g id="text_7">
      <!-- 120 -->
      <g transform="translate(326.056364 321.459)scale(0.1 -0.1)">
       <use xlink:href="#SimHei-31"/>
       <use x="50" xlink:href="#SimHei-32"/>
       <use x="100" xlink:href="#SimHei-30"/>
      </g>
     </g>
    </g>
    <g id="xtick_8">
     <g id="line2d_15">
      <path clip-path="url(#pdd8c50cb5b)" d="M 376.843636 307.584 
L 376.843636 41.472 
" style="fill:none;stroke:#b0b0b0;stroke-dasharray:5.12,1.28,0.8,1.28;stroke-dashoffset:0;stroke-width:0.8;"/>
     </g>
     <g id="line2d_16">
      <g>
       <use style="stroke:#000000;stroke-width:0.8;" x="376.843636" xlink:href="#m87887fb988" y="307.584"/>
      </g>
     </g>
     <g id="text_8">
      <!-- 140 -->
      <g transform="translate(369.343636 321.459)scale(0.1 -0.1)">
       <use xlink:href="#SimHei-31"/>
       <use x="50" xlink:href="#SimHei-34"/>
       <use x="100" xlink:href="#SimHei-30"/>
      </g>
     </g>
    </g>
    <g id="text_9">
     <!-- Frames -->
     <defs>
      <path d="M 9.8125 72.90625 
L 51.703125 72.90625 
L 51.703125 64.59375 
L 19.671875 64.59375 
L 19.671875 43.109375 
L 48.578125 43.109375 
L 48.578125 34.8125 
L 19.671875 34.8125 
L 19.671875 0 
L 9.8125 0 
z
" id="DejaVuSans-46"/>
      <path d="M 41.109375 46.296875 
Q 39.59375 47.171875 37.8125 47.578125 
Q 36.03125 48 33.890625 48 
Q 26.265625 48 22.1875 43.046875 
Q 18.109375 38.09375 18.109375 28.8125 
L 18.109375 0 
L 9.078125 0 
L 9.078125 54.6875 
L 18.109375 54.6875 
L 18.109375 46.1875 
Q 20.953125 51.171875 25.484375 53.578125 
Q 30.03125 56 36.53125 56 
Q 37.453125 56 38.578125 55.875 
Q 39.703125 55.765625 41.0625 55.515625 
z
" id="DejaVuSans-72"/>
      <path d="M 34.28125 27.484375 
Q 23.390625 27.484375 19.1875 25 
Q 14.984375 22.515625 14.984375 16.5 
Q 14.984375 11.71875 18.140625 8.90625 
Q 21.296875 6.109375 26.703125 6.109375 
Q 34.1875 6.109375 38.703125 11.40625 
Q 43.21875 16.703125 43.21875 25.484375 
L 43.21875 27.484375 
z
M 52.203125 31.203125 
L 52.203125 0 
L 43.21875 0 
L 43.21875 8.296875 
Q 40.140625 3.328125 35.546875 0.953125 
Q 30.953125 -1.421875 24.3125 -1.421875 
Q 15.921875 -1.421875 10.953125 3.296875 
Q 6 8.015625 6 15.921875 
Q 6 25.140625 12.171875 29.828125 
Q 18.359375 34.515625 30.609375 34.515625 
L 43.21875 34.515625 
L 43.21875 35.40625 
Q 43.21875 41.609375 39.140625 45 
Q 35.0625 48.390625 27.6875 48.390625 
Q 23 48.390625 18.546875 47.265625 
Q 14.109375 46.140625 10.015625 43.890625 
L 10.015625 52.203125 
Q 14.9375 54.109375 19.578125 55.046875 
Q 24.21875 56 28.609375 56 
Q 40.484375 56 46.34375 49.84375 
Q 52.203125 43.703125 52.203125 31.203125 
z
" id="DejaVuSans-61"/>
      <path d="M 52 44.1875 
Q 55.375 50.25 60.0625 53.125 
Q 64.75 56 71.09375 56 
Q 79.640625 56 84.28125 50.015625 
Q 88.921875 44.046875 88.921875 33.015625 
L 88.921875 0 
L 79.890625 0 
L 79.890625 32.71875 
Q 79.890625 40.578125 77.09375 44.375 
Q 74.3125 48.1875 68.609375 48.1875 
Q 61.625 48.1875 57.5625 43.546875 
Q 53.515625 38.921875 53.515625 30.90625 
L 53.515625 0 
L 44.484375 0 
L 44.484375 32.71875 
Q 44.484375 40.625 41.703125 44.40625 
Q 38.921875 48.1875 33.109375 48.1875 
Q 26.21875 48.1875 22.15625 43.53125 
Q 18.109375 38.875 18.109375 30.90625 
L 18.109375 0 
L 9.078125 0 
L 9.078125 54.6875 
L 18.109375 54.6875 
L 18.109375 46.1875 
Q 21.1875 51.21875 25.484375 53.609375 
Q 29.78125 56 35.6875 56 
Q 41.65625 56 45.828125 52.96875 
Q 50 49.953125 52 44.1875 
z
" id="DejaVuSans-6d"/>
      <path d="M 56.203125 29.59375 
L 56.203125 25.203125 
L 14.890625 25.203125 
Q 15.484375 15.921875 20.484375 11.0625 
Q 25.484375 6.203125 34.421875 6.203125 
Q 39.59375 6.203125 44.453125 7.46875 
Q 49.3125 8.734375 54.109375 11.28125 
L 54.109375 2.78125 
Q 49.265625 0.734375 44.1875 -0.34375 
Q 39.109375 -1.421875 33.890625 -1.421875 
Q 20.796875 -1.421875 13.15625 6.1875 
Q 5.515625 13.8125 5.515625 26.8125 
Q 5.515625 40.234375 12.765625 48.109375 
Q 20.015625 56 32.328125 56 
Q 43.359375 56 49.78125 48.890625 
Q 56.203125 41.796875 56.203125 29.59375 
z
M 47.21875 32.234375 
Q 47.125 39.59375 43.09375 43.984375 
Q 39.0625 48.390625 32.421875 48.390625 
Q 24.90625 48.390625 20.390625 44.140625 
Q 15.875 39.890625 15.1875 32.171875 
z
" id="DejaVuSans-65"/>
      <path d="M 44.28125 53.078125 
L 44.28125 44.578125 
Q 40.484375 46.53125 36.375 47.5 
Q 32.28125 48.484375 27.875 48.484375 
Q 21.1875 48.484375 17.84375 46.4375 
Q 14.5 44.390625 14.5 40.28125 
Q 14.5 37.15625 16.890625 35.375 
Q 19.28125 33.59375 26.515625 31.984375 
L 29.59375 31.296875 
Q 39.15625 29.25 43.1875 25.515625 
Q 47.21875 21.78125 47.21875 15.09375 
Q 47.21875 7.46875 41.1875 3.015625 
Q 35.15625 -1.421875 24.609375 -1.421875 
Q 20.21875 -1.421875 15.453125 -0.5625 
Q 10.6875 0.296875 5.421875 2 
L 5.421875 11.28125 
Q 10.40625 8.6875 15.234375 7.390625 
Q 20.0625 6.109375 24.8125 6.109375 
Q 31.15625 6.109375 34.5625 8.28125 
Q 37.984375 10.453125 37.984375 14.40625 
Q 37.984375 18.0625 35.515625 20.015625 
Q 33.0625 21.96875 24.703125 23.78125 
L 21.578125 24.515625 
Q 13.234375 26.265625 9.515625 29.90625 
Q 5.8125 33.546875 5.8125 39.890625 
Q 5.8125 47.609375 11.28125 51.796875 
Q 16.75 56 26.8125 56 
Q 31.78125 56 36.171875 55.265625 
Q 40.578125 54.546875 44.28125 53.078125 
z
" id="DejaVuSans-73"/>
     </defs>
     <g transform="translate(212.056172 336.586969)scale(0.13 -0.13)">
      <use xlink:href="#DejaVuSans-46"/>
      <use x="57.410156" xlink:href="#DejaVuSans-72"/>
      <use x="98.523438" xlink:href="#DejaVuSans-61"/>
      <use x="159.802734" xlink:href="#DejaVuSans-6d"/>
      <use x="257.214844" xlink:href="#DejaVuSans-65"/>
      <use x="318.738281" xlink:href="#DejaVuSans-73"/>
     </g>
    </g>
   </g>
   <g id="matplotlib.axis_2">
    <g id="ytick_1">
     <g id="line2d_17">
      <path clip-path="url(#pdd8c50cb5b)" d="M 57.6 292.386462 
L 414.72 292.386462 
" style="fill:none;stroke:#b0b0b0;stroke-dasharray:5.12,1.28,0.8,1.28;stroke-dashoffset:0;stroke-width:0.8;"/>
     </g>
     <g id="line2d_18">
      <defs>
       <path d="M 0 0 
L -3.5 0 
" id="m85f28b27d2" style="stroke:#000000;stroke-width:0.8;"/>
      </defs>
      <g>
       <use style="stroke:#000000;stroke-width:0.8;" x="57.6" xlink:href="#m85f28b27d2" y="292.386462"/>
      </g>
     </g>
     <g id="text_10">
      <!-- -1.8 -->
      <defs>
       <path d="M 46.484375 33.203125 
L 1.953125 33.203125 
L 1.953125 39.453125 
L 46.484375 39.453125 
z
" id="SimHei-2d"/>
       <path d="M 16.796875 1.953125 
L 7.8125 1.953125 
L 7.8125 10.546875 
L 16.796875 10.546875 
z
" id="SimHei-2e"/>
      </defs>
      <g transform="translate(30.6 295.823962)scale(0.1 -0.1)">
       <use xlink:href="#SimHei-2d"/>
       <use x="50" xlink:href="#SimHei-31"/>
       <use x="100" xlink:href="#SimHei-2e"/>
       <use x="150" xlink:href="#SimHei-38"/>
      </g>
     </g>
    </g>
    <g id="ytick_2">
     <g id="line2d_19">
      <path clip-path="url(#pdd8c50cb5b)" d="M 57.6 261.371077 
L 414.72 261.371077 
" style="fill:none;stroke:#b0b0b0;stroke-dasharray:5.12,1.28,0.8,1.28;stroke-dashoffset:0;stroke-width:0.8;"/>
     </g>
     <g id="line2d_20">
      <g>
       <use style="stroke:#000000;stroke-width:0.8;" x="57.6" xlink:href="#m85f28b27d2" y="261.371077"/>
      </g>
     </g>
     <g id="text_11">
      <!-- -1.6 -->
      <g transform="translate(30.6 264.808577)scale(0.1 -0.1)">
       <use xlink:href="#SimHei-2d"/>
       <use x="50" xlink:href="#SimHei-31"/>
       <use x="100" xlink:href="#SimHei-2e"/>
       <use x="150" xlink:href="#SimHei-36"/>
      </g>
     </g>
    </g>
    <g id="ytick_3">
     <g id="line2d_21">
      <path clip-path="url(#pdd8c50cb5b)" d="M 57.6 230.355692 
L 414.72 230.355692 
" style="fill:none;stroke:#b0b0b0;stroke-dasharray:5.12,1.28,0.8,1.28;stroke-dashoffset:0;stroke-width:0.8;"/>
     </g>
     <g id="line2d_22">
      <g>
       <use style="stroke:#000000;stroke-width:0.8;" x="57.6" xlink:href="#m85f28b27d2" y="230.355692"/>
      </g>
     </g>
     <g id="text_12">
      <!-- -1.4 -->
      <g transform="translate(30.6 233.793192)scale(0.1 -0.1)">
       <use xlink:href="#SimHei-2d"/>
       <use x="50" xlink:href="#SimHei-31"/>
       <use x="100" xlink:href="#SimHei-2e"/>
       <use x="150" xlink:href="#SimHei-34"/>
      </g>
     </g>
    </g>
    <g id="ytick_4">
     <g id="line2d_23">
      <path clip-path="url(#pdd8c50cb5b)" d="M 57.6 199.340308 
L 414.72 199.340308 
" style="fill:none;stroke:#b0b0b0;stroke-dasharray:5.12,1.28,0.8,1.28;stroke-dashoffset:0;stroke-width:0.8;"/>
     </g>
     <g id="line2d_24">
      <g>
       <use style="stroke:#000000;stroke-width:0.8;" x="57.6" xlink:href="#m85f28b27d2" y="199.340308"/>
      </g>
     </g>
     <g id="text_13">
      <!-- -1.2 -->
      <g transform="translate(30.6 202.777808)scale(0.1 -0.1)">
       <use xlink:href="#SimHei-2d"/>
       <use x="50" xlink:href="#SimHei-31"/>
       <use x="100" xlink:href="#SimHei-2e"/>
       <use x="150" xlink:href="#SimHei-32"/>
      </g>
     </g>
    </g>
    <g id="ytick_5">
     <g id="line2d_25">
      <path clip-path="url(#pdd8c50cb5b)" d="M 57.6 168.324923 
L 414.72 168.324923 
" style="fill:none;stroke:#b0b0b0;stroke-dasharray:5.12,1.28,0.8,1.28;stroke-dashoffset:0;stroke-width:0.8;"/>
     </g>
     <g id="line2d_26">
      <g>
       <use style="stroke:#000000;stroke-width:0.8;" x="57.6" xlink:href="#m85f28b27d2" y="168.324923"/>
      </g>
     </g>
     <g id="text_14">
      <!-- -1.0 -->
      <g transform="translate(30.6 171.762423)scale(0.1 -0.1)">
       <use xlink:href="#SimHei-2d"/>
       <use x="50" xlink:href="#SimHei-31"/>
       <use x="100" xlink:href="#SimHei-2e"/>
       <use x="150" xlink:href="#SimHei-30"/>
      </g>
     </g>
    </g>
    <g id="ytick_6">
     <g id="line2d_27">
      <path clip-path="url(#pdd8c50cb5b)" d="M 57.6 137.309538 
L 414.72 137.309538 
" style="fill:none;stroke:#b0b0b0;stroke-dasharray:5.12,1.28,0.8,1.28;stroke-dashoffset:0;stroke-width:0.8;"/>
     </g>
     <g id="line2d_28">
      <g>
       <use style="stroke:#000000;stroke-width:0.8;" x="57.6" xlink:href="#m85f28b27d2" y="137.309538"/>
      </g>
     </g>
     <g id="text_15">
      <!-- -0.8 -->
      <g transform="translate(30.6 140.747038)scale(0.1 -0.1)">
       <use xlink:href="#SimHei-2d"/>
       <use x="50" xlink:href="#SimHei-30"/>
       <use x="100" xlink:href="#SimHei-2e"/>
       <use x="150" xlink:href="#SimHei-38"/>
      </g>
     </g>
    </g>
    <g id="ytick_7">
     <g id="line2d_29">
      <path clip-path="url(#pdd8c50cb5b)" d="M 57.6 106.294154 
L 414.72 106.294154 
" style="fill:none;stroke:#b0b0b0;stroke-dasharray:5.12,1.28,0.8,1.28;stroke-dashoffset:0;stroke-width:0.8;"/>
     </g>
     <g id="line2d_30">
      <g>
       <use style="stroke:#000000;stroke-width:0.8;" x="57.6" xlink:href="#m85f28b27d2" y="106.294154"/>
      </g>
     </g>
     <g id="text_16">
      <!-- -0.6 -->
      <g transform="translate(30.6 109.731654)scale(0.1 -0.1)">
       <use xlink:href="#SimHei-2d"/>
       <use x="50" xlink:href="#SimHei-30"/>
       <use x="100" xlink:href="#SimHei-2e"/>
       <use x="150" xlink:href="#SimHei-36"/>
      </g>
     </g>
    </g>
    <g id="ytick_8">
     <g id="line2d_31">
      <path clip-path="url(#pdd8c50cb5b)" d="M 57.6 75.278769 
L 414.72 75.278769 
" style="fill:none;stroke:#b0b0b0;stroke-dasharray:5.12,1.28,0.8,1.28;stroke-dashoffset:0;stroke-width:0.8;"/>
     </g>
     <g id="line2d_32">
      <g>
       <use style="stroke:#000000;stroke-width:0.8;" x="57.6" xlink:href="#m85f28b27d2" y="75.278769"/>
      </g>
     </g>
     <g id="text_17">
      <!-- -0.4 -->
      <g transform="translate(30.6 78.716269)scale(0.1 -0.1)">
       <use xlink:href="#SimHei-2d"/>
       <use x="50" xlink:href="#SimHei-30"/>
       <use x="100" xlink:href="#SimHei-2e"/>
       <use x="150" xlink:href="#SimHei-34"/>
      </g>
     </g>
    </g>
    <g id="ytick_9">
     <g id="line2d_33">
      <path clip-path="url(#pdd8c50cb5b)" d="M 57.6 44.263385 
L 414.72 44.263385 
" style="fill:none;stroke:#b0b0b0;stroke-dasharray:5.12,1.28,0.8,1.28;stroke-dashoffset:0;stroke-width:0.8;"/>
     </g>
     <g id="line2d_34">
      <g>
       <use style="stroke:#000000;stroke-width:0.8;" x="57.6" xlink:href="#m85f28b27d2" y="44.263385"/>
      </g>
     </g>
     <g id="text_18">
      <!-- -0.2 -->
      <g transform="translate(30.6 47.700885)scale(0.1 -0.1)">
       <use xlink:href="#SimHei-2d"/>
       <use x="50" xlink:href="#SimHei-30"/>
       <use x="100" xlink:href="#SimHei-2e"/>
       <use x="150" xlink:href="#SimHei-32"/>
      </g>
     </g>
    </g>
    <g id="text_19">
     <!-- Yaw [rad] -->
     <defs>
      <path d="M -0.203125 72.90625 
L 10.40625 72.90625 
L 30.609375 42.921875 
L 50.6875 72.90625 
L 61.28125 72.90625 
L 35.5 34.71875 
L 35.5 0 
L 25.59375 0 
L 25.59375 34.71875 
z
" id="DejaVuSans-59"/>
      <path d="M 4.203125 54.6875 
L 13.1875 54.6875 
L 24.421875 12.015625 
L 35.59375 54.6875 
L 46.1875 54.6875 
L 57.421875 12.015625 
L 68.609375 54.6875 
L 77.59375 54.6875 
L 63.28125 0 
L 52.6875 0 
L 40.921875 44.828125 
L 29.109375 0 
L 18.5 0 
z
" id="DejaVuSans-77"/>
      <path id="DejaVuSans-20"/>
      <path d="M 8.59375 75.984375 
L 29.296875 75.984375 
L 29.296875 69 
L 17.578125 69 
L 17.578125 -6.203125 
L 29.296875 -6.203125 
L 29.296875 -13.1875 
L 8.59375 -13.1875 
z
" id="DejaVuSans-5b"/>
      <path d="M 45.40625 46.390625 
L 45.40625 75.984375 
L 54.390625 75.984375 
L 54.390625 0 
L 45.40625 0 
L 45.40625 8.203125 
Q 42.578125 3.328125 38.25 0.953125 
Q 33.9375 -1.421875 27.875 -1.421875 
Q 17.96875 -1.421875 11.734375 6.484375 
Q 5.515625 14.40625 5.515625 27.296875 
Q 5.515625 40.1875 11.734375 48.09375 
Q 17.96875 56 27.875 56 
Q 33.9375 56 38.25 53.625 
Q 42.578125 51.265625 45.40625 46.390625 
z
M 14.796875 27.296875 
Q 14.796875 17.390625 18.875 11.75 
Q 22.953125 6.109375 30.078125 6.109375 
Q 37.203125 6.109375 41.296875 11.75 
Q 45.40625 17.390625 45.40625 27.296875 
Q 45.40625 37.203125 41.296875 42.84375 
Q 37.203125 48.484375 30.078125 48.484375 
Q 22.953125 48.484375 18.875 42.84375 
Q 14.796875 37.203125 14.796875 27.296875 
z
" id="DejaVuSans-64"/>
      <path d="M 30.421875 75.984375 
L 30.421875 -13.1875 
L 9.71875 -13.1875 
L 9.71875 -6.203125 
L 21.390625 -6.203125 
L 21.390625 69 
L 9.71875 69 
L 9.71875 75.984375 
z
" id="DejaVuSans-5d"/>
     </defs>
     <g transform="translate(23.896406 205.703625)rotate(-90)scale(0.13 -0.13)">
      <use xlink:href="#DejaVuSans-59"/>
      <use x="60.880859" xlink:href="#DejaVuSans-61"/>
      <use x="122.160156" xlink:href="#DejaVuSans-77"/>
      <use x="203.947266" xlink:href="#DejaVuSans-20"/>
      <use x="235.734375" xlink:href="#DejaVuSans-5b"/>
      <use x="274.748047" xlink:href="#DejaVuSans-72"/>
      <use x="315.861328" xlink:href="#DejaVuSans-61"/>
      <use x="377.140625" xlink:href="#DejaVuSans-64"/>
      <use x="440.617188" xlink:href="#DejaVuSans-5d"/>
     </g>
    </g>
   </g>
   <g id="line2d_35">
    <path clip-path="url(#pdd8c50cb5b)" d="M 73.832727 185.538462 
L 75.997091 185.383385 
L 78.161455 184.918154 
L 88.983273 157.159385 
L 93.312 152.662154 
L 99.805091 146.148923 
L 114.955636 104.743385 
L 121.448727 86.444308 
L 123.613091 84.893538 
L 125.777455 82.877538 
L 130.106182 79.776 
L 132.270545 77.915077 
L 134.434909 78.070154 
L 136.599273 77.915077 
L 143.092364 77.915077 
L 145.256727 78.070154 
L 147.421091 78.070154 
L 149.585455 78.225231 
L 151.749818 77.915077 
L 153.914182 77.915077 
L 156.078545 76.519385 
L 158.242909 74.503385 
L 160.407273 72.952615 
L 162.571636 71.246769 
L 164.736 69.075692 
L 166.900364 68.765538 
L 169.064727 68.300308 
L 171.229091 67.68 
L 175.557818 67.059692 
L 177.722182 67.835077 
L 179.886545 68.920615 
L 182.050909 70.316308 
L 184.215273 71.246769 
L 186.379636 72.797538 
L 192.872727 100.556308 
L 195.037091 110.481231 
L 197.201455 114.823385 
L 199.365818 118.855385 
L 201.530182 123.352615 
L 205.858909 133.122462 
L 208.023273 138.395077 
L 210.187636 142.116923 
L 214.516364 150.646154 
L 216.680727 155.298462 
L 218.845091 160.416 
L 221.009455 162.276923 
L 223.173818 164.448 
L 227.502545 169.565538 
L 229.666909 172.667077 
L 231.831273 175.303385 
L 233.995636 178.249846 
L 236.16 181.661538 
L 242.653091 190.345846 
L 246.981818 195.153231 
L 249.146182 198.099692 
L 251.310545 200.736 
L 253.474909 202.441846 
L 255.639273 204.457846 
L 259.968 207.869538 
L 262.132364 209.730462 
L 266.461091 216.088615 
L 268.625455 219.500308 
L 272.954182 225.548308 
L 275.118545 230.510769 
L 279.447273 239.660308 
L 281.611636 244.312615 
L 283.776 249.275077 
L 285.940364 253.927385 
L 288.104727 259.044923 
L 292.433455 267.729231 
L 294.597818 272.536615 
L 303.255273 286.028308 
L 305.419636 289.129846 
L 314.077091 278.584615 
L 316.241455 275.483077 
L 320.570182 270.675692 
L 324.898909 266.178462 
L 327.063273 263.697231 
L 329.227636 260.750769 
L 333.556364 254.237538 
L 335.720727 251.291077 
L 337.885091 248.034462 
L 340.049455 246.793846 
L 342.213818 245.708308 
L 344.378182 244.002462 
L 346.542545 241.831385 
L 348.706909 239.195077 
L 350.871273 239.04 
L 353.035636 238.574769 
L 355.2 237.644308 
L 357.364364 236.248615 
L 359.528727 234.387692 
L 361.693091 235.008 
L 363.857455 235.163077 
L 366.021818 235.163077 
L 368.186182 234.852923 
L 370.350545 234.387692 
L 372.514909 233.147077 
L 376.843636 230.355692 
L 381.172364 227.874462 
L 383.336727 227.564308 
L 385.501091 227.099077 
L 387.665455 226.788923 
L 389.829818 226.633846 
L 391.994182 226.633846 
L 396.322909 229.735385 
L 398.487273 231.441231 
L 398.487273 231.441231 
" style="fill:none;stroke:#ff0000;stroke-linecap:square;stroke-width:1.5;"/>
    <defs>
     <path d="M 0 1.5 
C 0.397805 1.5 0.77937 1.341951 1.06066 1.06066 
C 1.341951 0.77937 1.5 0.397805 1.5 0 
C 1.5 -0.397805 1.341951 -0.77937 1.06066 -1.06066 
C 0.77937 -1.341951 0.397805 -1.5 0 -1.5 
C -0.397805 -1.5 -0.77937 -1.341951 -1.06066 -1.06066 
C -1.341951 -0.77937 -1.5 -0.397805 -1.5 0 
C -1.5 0.397805 -1.341951 0.77937 -1.06066 1.06066 
C -0.77937 1.341951 -0.397805 1.5 0 1.5 
z
" id="mcd660933d3" style="stroke:#ff0000;"/>
    </defs>
    <g clip-path="url(#pdd8c50cb5b)">
     <use style="fill:#ff0000;stroke:#ff0000;" x="73.832727" xlink:href="#mcd660933d3" y="185.538462"/>
     <use style="fill:#ff0000;stroke:#ff0000;" x="75.997091" xlink:href="#mcd660933d3" y="185.383385"/>
     <use style="fill:#ff0000;stroke:#ff0000;" x="78.161455" xlink:href="#mcd660933d3" y="184.918154"/>
     <use style="fill:#ff0000;stroke:#ff0000;" x="80.325818" xlink:href="#mcd660933d3" y="179.335385"/>
     <use style="fill:#ff0000;stroke:#ff0000;" x="82.490182" xlink:href="#mcd660933d3" y="173.752615"/>
     <use style="fill:#ff0000;stroke:#ff0000;" x="84.654545" xlink:href="#mcd660933d3" y="168.014769"/>
     <use style="fill:#ff0000;stroke:#ff0000;" x="86.818909" xlink:href="#mcd660933d3" y="162.587077"/>
     <use style="fill:#ff0000;stroke:#ff0000;" x="88.983273" xlink:href="#mcd660933d3" y="157.159385"/>
     <use style="fill:#ff0000;stroke:#ff0000;" x="91.147636" xlink:href="#mcd660933d3" y="154.833231"/>
     <use style="fill:#ff0000;stroke:#ff0000;" x="93.312" xlink:href="#mcd660933d3" y="152.662154"/>
     <use style="fill:#ff0000;stroke:#ff0000;" x="95.476364" xlink:href="#mcd660933d3" y="150.491077"/>
     <use style="fill:#ff0000;stroke:#ff0000;" x="97.640727" xlink:href="#mcd660933d3" y="148.32"/>
     <use style="fill:#ff0000;stroke:#ff0000;" x="99.805091" xlink:href="#mcd660933d3" y="146.148923"/>
     <use style="fill:#ff0000;stroke:#ff0000;" x="101.969455" xlink:href="#mcd660933d3" y="140.256"/>
     <use style="fill:#ff0000;stroke:#ff0000;" x="104.133818" xlink:href="#mcd660933d3" y="134.363077"/>
     <use style="fill:#ff0000;stroke:#ff0000;" x="106.298182" xlink:href="#mcd660933d3" y="128.625231"/>
     <use style="fill:#ff0000;stroke:#ff0000;" x="108.462545" xlink:href="#mcd660933d3" y="122.887385"/>
     <use style="fill:#ff0000;stroke:#ff0000;" x="110.626909" xlink:href="#mcd660933d3" y="116.994462"/>
     <use style="fill:#ff0000;stroke:#ff0000;" x="112.791273" xlink:href="#mcd660933d3" y="110.791385"/>
     <use style="fill:#ff0000;stroke:#ff0000;" x="114.955636" xlink:href="#mcd660933d3" y="104.743385"/>
     <use style="fill:#ff0000;stroke:#ff0000;" x="117.12" xlink:href="#mcd660933d3" y="98.540308"/>
     <use style="fill:#ff0000;stroke:#ff0000;" x="119.284364" xlink:href="#mcd660933d3" y="92.492308"/>
     <use style="fill:#ff0000;stroke:#ff0000;" x="121.448727" xlink:href="#mcd660933d3" y="86.444308"/>
     <use style="fill:#ff0000;stroke:#ff0000;" x="123.613091" xlink:href="#mcd660933d3" y="84.893538"/>
     <use style="fill:#ff0000;stroke:#ff0000;" x="125.777455" xlink:href="#mcd660933d3" y="82.877538"/>
     <use style="fill:#ff0000;stroke:#ff0000;" x="127.941818" xlink:href="#mcd660933d3" y="81.326769"/>
     <use style="fill:#ff0000;stroke:#ff0000;" x="130.106182" xlink:href="#mcd660933d3" y="79.776"/>
     <use style="fill:#ff0000;stroke:#ff0000;" x="132.270545" xlink:href="#mcd660933d3" y="77.915077"/>
     <use style="fill:#ff0000;stroke:#ff0000;" x="134.434909" xlink:href="#mcd660933d3" y="78.070154"/>
     <use style="fill:#ff0000;stroke:#ff0000;" x="136.599273" xlink:href="#mcd660933d3" y="77.915077"/>
     <use style="fill:#ff0000;stroke:#ff0000;" x="138.763636" xlink:href="#mcd660933d3" y="77.915077"/>
     <use style="fill:#ff0000;stroke:#ff0000;" x="140.928" xlink:href="#mcd660933d3" y="77.915077"/>
     <use style="fill:#ff0000;stroke:#ff0000;" x="143.092364" xlink:href="#mcd660933d3" y="77.915077"/>
     <use style="fill:#ff0000;stroke:#ff0000;" x="145.256727" xlink:href="#mcd660933d3" y="78.070154"/>
     <use style="fill:#ff0000;stroke:#ff0000;" x="147.421091" xlink:href="#mcd660933d3" y="78.070154"/>
     <use style="fill:#ff0000;stroke:#ff0000;" x="149.585455" xlink:href="#mcd660933d3" y="78.225231"/>
     <use style="fill:#ff0000;stroke:#ff0000;" x="151.749818" xlink:href="#mcd660933d3" y="77.915077"/>
     <use style="fill:#ff0000;stroke:#ff0000;" x="153.914182" xlink:href="#mcd660933d3" y="77.915077"/>
     <use style="fill:#ff0000;stroke:#ff0000;" x="156.078545" xlink:href="#mcd660933d3" y="76.519385"/>
     <use style="fill:#ff0000;stroke:#ff0000;" x="158.242909" xlink:href="#mcd660933d3" y="74.503385"/>
     <use style="fill:#ff0000;stroke:#ff0000;" x="160.407273" xlink:href="#mcd660933d3" y="72.952615"/>
     <use style="fill:#ff0000;stroke:#ff0000;" x="162.571636" xlink:href="#mcd660933d3" y="71.246769"/>
     <use style="fill:#ff0000;stroke:#ff0000;" x="164.736" xlink:href="#mcd660933d3" y="69.075692"/>
     <use style="fill:#ff0000;stroke:#ff0000;" x="166.900364" xlink:href="#mcd660933d3" y="68.765538"/>
     <use style="fill:#ff0000;stroke:#ff0000;" x="169.064727" xlink:href="#mcd660933d3" y="68.300308"/>
     <use style="fill:#ff0000;stroke:#ff0000;" x="171.229091" xlink:href="#mcd660933d3" y="67.68"/>
     <use style="fill:#ff0000;stroke:#ff0000;" x="173.393455" xlink:href="#mcd660933d3" y="67.369846"/>
     <use style="fill:#ff0000;stroke:#ff0000;" x="175.557818" xlink:href="#mcd660933d3" y="67.059692"/>
     <use style="fill:#ff0000;stroke:#ff0000;" x="177.722182" xlink:href="#mcd660933d3" y="67.835077"/>
     <use style="fill:#ff0000;stroke:#ff0000;" x="179.886545" xlink:href="#mcd660933d3" y="68.920615"/>
     <use style="fill:#ff0000;stroke:#ff0000;" x="182.050909" xlink:href="#mcd660933d3" y="70.316308"/>
     <use style="fill:#ff0000;stroke:#ff0000;" x="184.215273" xlink:href="#mcd660933d3" y="71.246769"/>
     <use style="fill:#ff0000;stroke:#ff0000;" x="186.379636" xlink:href="#mcd660933d3" y="72.797538"/>
     <use style="fill:#ff0000;stroke:#ff0000;" x="188.544" xlink:href="#mcd660933d3" y="81.947077"/>
     <use style="fill:#ff0000;stroke:#ff0000;" x="190.708364" xlink:href="#mcd660933d3" y="90.941538"/>
     <use style="fill:#ff0000;stroke:#ff0000;" x="192.872727" xlink:href="#mcd660933d3" y="100.556308"/>
     <use style="fill:#ff0000;stroke:#ff0000;" x="195.037091" xlink:href="#mcd660933d3" y="110.481231"/>
     <use style="fill:#ff0000;stroke:#ff0000;" x="197.201455" xlink:href="#mcd660933d3" y="114.823385"/>
     <use style="fill:#ff0000;stroke:#ff0000;" x="199.365818" xlink:href="#mcd660933d3" y="118.855385"/>
     <use style="fill:#ff0000;stroke:#ff0000;" x="201.530182" xlink:href="#mcd660933d3" y="123.352615"/>
     <use style="fill:#ff0000;stroke:#ff0000;" x="203.694545" xlink:href="#mcd660933d3" y="128.16"/>
     <use style="fill:#ff0000;stroke:#ff0000;" x="205.858909" xlink:href="#mcd660933d3" y="133.122462"/>
     <use style="fill:#ff0000;stroke:#ff0000;" x="208.023273" xlink:href="#mcd660933d3" y="138.395077"/>
     <use style="fill:#ff0000;stroke:#ff0000;" x="210.187636" xlink:href="#mcd660933d3" y="142.116923"/>
     <use style="fill:#ff0000;stroke:#ff0000;" x="212.352" xlink:href="#mcd660933d3" y="146.304"/>
     <use style="fill:#ff0000;stroke:#ff0000;" x="214.516364" xlink:href="#mcd660933d3" y="150.646154"/>
     <use style="fill:#ff0000;stroke:#ff0000;" x="216.680727" xlink:href="#mcd660933d3" y="155.298462"/>
     <use style="fill:#ff0000;stroke:#ff0000;" x="218.845091" xlink:href="#mcd660933d3" y="160.416"/>
     <use style="fill:#ff0000;stroke:#ff0000;" x="221.009455" xlink:href="#mcd660933d3" y="162.276923"/>
     <use style="fill:#ff0000;stroke:#ff0000;" x="223.173818" xlink:href="#mcd660933d3" y="164.448"/>
     <use style="fill:#ff0000;stroke:#ff0000;" x="225.338182" xlink:href="#mcd660933d3" y="166.929231"/>
     <use style="fill:#ff0000;stroke:#ff0000;" x="227.502545" xlink:href="#mcd660933d3" y="169.565538"/>
     <use style="fill:#ff0000;stroke:#ff0000;" x="229.666909" xlink:href="#mcd660933d3" y="172.667077"/>
     <use style="fill:#ff0000;stroke:#ff0000;" x="231.831273" xlink:href="#mcd660933d3" y="175.303385"/>
     <use style="fill:#ff0000;stroke:#ff0000;" x="233.995636" xlink:href="#mcd660933d3" y="178.249846"/>
     <use style="fill:#ff0000;stroke:#ff0000;" x="236.16" xlink:href="#mcd660933d3" y="181.661538"/>
     <use style="fill:#ff0000;stroke:#ff0000;" x="238.324364" xlink:href="#mcd660933d3" y="184.608"/>
     <use style="fill:#ff0000;stroke:#ff0000;" x="240.488727" xlink:href="#mcd660933d3" y="187.709538"/>
     <use style="fill:#ff0000;stroke:#ff0000;" x="242.653091" xlink:href="#mcd660933d3" y="190.345846"/>
     <use style="fill:#ff0000;stroke:#ff0000;" x="244.817455" xlink:href="#mcd660933d3" y="192.672"/>
     <use style="fill:#ff0000;stroke:#ff0000;" x="246.981818" xlink:href="#mcd660933d3" y="195.153231"/>
     <use style="fill:#ff0000;stroke:#ff0000;" x="249.146182" xlink:href="#mcd660933d3" y="198.099692"/>
     <use style="fill:#ff0000;stroke:#ff0000;" x="251.310545" xlink:href="#mcd660933d3" y="200.736"/>
     <use style="fill:#ff0000;stroke:#ff0000;" x="253.474909" xlink:href="#mcd660933d3" y="202.441846"/>
     <use style="fill:#ff0000;stroke:#ff0000;" x="255.639273" xlink:href="#mcd660933d3" y="204.457846"/>
     <use style="fill:#ff0000;stroke:#ff0000;" x="257.803636" xlink:href="#mcd660933d3" y="206.163692"/>
     <use style="fill:#ff0000;stroke:#ff0000;" x="259.968" xlink:href="#mcd660933d3" y="207.869538"/>
     <use style="fill:#ff0000;stroke:#ff0000;" x="262.132364" xlink:href="#mcd660933d3" y="209.730462"/>
     <use style="fill:#ff0000;stroke:#ff0000;" x="264.296727" xlink:href="#mcd660933d3" y="212.832"/>
     <use style="fill:#ff0000;stroke:#ff0000;" x="266.461091" xlink:href="#mcd660933d3" y="216.088615"/>
     <use style="fill:#ff0000;stroke:#ff0000;" x="268.625455" xlink:href="#mcd660933d3" y="219.500308"/>
     <use style="fill:#ff0000;stroke:#ff0000;" x="270.789818" xlink:href="#mcd660933d3" y="222.601846"/>
     <use style="fill:#ff0000;stroke:#ff0000;" x="272.954182" xlink:href="#mcd660933d3" y="225.548308"/>
     <use style="fill:#ff0000;stroke:#ff0000;" x="275.118545" xlink:href="#mcd660933d3" y="230.510769"/>
     <use style="fill:#ff0000;stroke:#ff0000;" x="277.282909" xlink:href="#mcd660933d3" y="235.008"/>
     <use style="fill:#ff0000;stroke:#ff0000;" x="279.447273" xlink:href="#mcd660933d3" y="239.660308"/>
     <use style="fill:#ff0000;stroke:#ff0000;" x="281.611636" xlink:href="#mcd660933d3" y="244.312615"/>
     <use style="fill:#ff0000;stroke:#ff0000;" x="283.776" xlink:href="#mcd660933d3" y="249.275077"/>
     <use style="fill:#ff0000;stroke:#ff0000;" x="285.940364" xlink:href="#mcd660933d3" y="253.927385"/>
     <use style="fill:#ff0000;stroke:#ff0000;" x="288.104727" xlink:href="#mcd660933d3" y="259.044923"/>
     <use style="fill:#ff0000;stroke:#ff0000;" x="290.269091" xlink:href="#mcd660933d3" y="263.387077"/>
     <use style="fill:#ff0000;stroke:#ff0000;" x="292.433455" xlink:href="#mcd660933d3" y="267.729231"/>
     <use style="fill:#ff0000;stroke:#ff0000;" x="294.597818" xlink:href="#mcd660933d3" y="272.536615"/>
     <use style="fill:#ff0000;stroke:#ff0000;" x="296.762182" xlink:href="#mcd660933d3" y="275.948308"/>
     <use style="fill:#ff0000;stroke:#ff0000;" x="298.926545" xlink:href="#mcd660933d3" y="279.36"/>
     <use style="fill:#ff0000;stroke:#ff0000;" x="301.090909" xlink:href="#mcd660933d3" y="282.926769"/>
     <use style="fill:#ff0000;stroke:#ff0000;" x="303.255273" xlink:href="#mcd660933d3" y="286.028308"/>
     <use style="fill:#ff0000;stroke:#ff0000;" x="305.419636" xlink:href="#mcd660933d3" y="289.129846"/>
     <use style="fill:#ff0000;stroke:#ff0000;" x="307.584" xlink:href="#mcd660933d3" y="286.493538"/>
     <use style="fill:#ff0000;stroke:#ff0000;" x="309.748364" xlink:href="#mcd660933d3" y="284.012308"/>
     <use style="fill:#ff0000;stroke:#ff0000;" x="311.912727" xlink:href="#mcd660933d3" y="281.220923"/>
     <use style="fill:#ff0000;stroke:#ff0000;" x="314.077091" xlink:href="#mcd660933d3" y="278.584615"/>
     <use style="fill:#ff0000;stroke:#ff0000;" x="316.241455" xlink:href="#mcd660933d3" y="275.483077"/>
     <use style="fill:#ff0000;stroke:#ff0000;" x="318.405818" xlink:href="#mcd660933d3" y="273.001846"/>
     <use style="fill:#ff0000;stroke:#ff0000;" x="320.570182" xlink:href="#mcd660933d3" y="270.675692"/>
     <use style="fill:#ff0000;stroke:#ff0000;" x="322.734545" xlink:href="#mcd660933d3" y="268.504615"/>
     <use style="fill:#ff0000;stroke:#ff0000;" x="324.898909" xlink:href="#mcd660933d3" y="266.178462"/>
     <use style="fill:#ff0000;stroke:#ff0000;" x="327.063273" xlink:href="#mcd660933d3" y="263.697231"/>
     <use style="fill:#ff0000;stroke:#ff0000;" x="329.227636" xlink:href="#mcd660933d3" y="260.750769"/>
     <use style="fill:#ff0000;stroke:#ff0000;" x="331.392" xlink:href="#mcd660933d3" y="257.494154"/>
     <use style="fill:#ff0000;stroke:#ff0000;" x="333.556364" xlink:href="#mcd660933d3" y="254.237538"/>
     <use style="fill:#ff0000;stroke:#ff0000;" x="335.720727" xlink:href="#mcd660933d3" y="251.291077"/>
     <use style="fill:#ff0000;stroke:#ff0000;" x="337.885091" xlink:href="#mcd660933d3" y="248.034462"/>
     <use style="fill:#ff0000;stroke:#ff0000;" x="340.049455" xlink:href="#mcd660933d3" y="246.793846"/>
     <use style="fill:#ff0000;stroke:#ff0000;" x="342.213818" xlink:href="#mcd660933d3" y="245.708308"/>
     <use style="fill:#ff0000;stroke:#ff0000;" x="344.378182" xlink:href="#mcd660933d3" y="244.002462"/>
     <use style="fill:#ff0000;stroke:#ff0000;" x="346.542545" xlink:href="#mcd660933d3" y="241.831385"/>
     <use style="fill:#ff0000;stroke:#ff0000;" x="348.706909" xlink:href="#mcd660933d3" y="239.195077"/>
     <use style="fill:#ff0000;stroke:#ff0000;" x="350.871273" xlink:href="#mcd660933d3" y="239.04"/>
     <use style="fill:#ff0000;stroke:#ff0000;" x="353.035636" xlink:href="#mcd660933d3" y="238.574769"/>
     <use style="fill:#ff0000;stroke:#ff0000;" x="355.2" xlink:href="#mcd660933d3" y="237.644308"/>
     <use style="fill:#ff0000;stroke:#ff0000;" x="357.364364" xlink:href="#mcd660933d3" y="236.248615"/>
     <use style="fill:#ff0000;stroke:#ff0000;" x="359.528727" xlink:href="#mcd660933d3" y="234.387692"/>
     <use style="fill:#ff0000;stroke:#ff0000;" x="361.693091" xlink:href="#mcd660933d3" y="235.008"/>
     <use style="fill:#ff0000;stroke:#ff0000;" x="363.857455" xlink:href="#mcd660933d3" y="235.163077"/>
     <use style="fill:#ff0000;stroke:#ff0000;" x="366.021818" xlink:href="#mcd660933d3" y="235.163077"/>
     <use style="fill:#ff0000;stroke:#ff0000;" x="368.186182" xlink:href="#mcd660933d3" y="234.852923"/>
     <use style="fill:#ff0000;stroke:#ff0000;" x="370.350545" xlink:href="#mcd660933d3" y="234.387692"/>
     <use style="fill:#ff0000;stroke:#ff0000;" x="372.514909" xlink:href="#mcd660933d3" y="233.147077"/>
     <use style="fill:#ff0000;stroke:#ff0000;" x="374.679273" xlink:href="#mcd660933d3" y="231.751385"/>
     <use style="fill:#ff0000;stroke:#ff0000;" x="376.843636" xlink:href="#mcd660933d3" y="230.355692"/>
     <use style="fill:#ff0000;stroke:#ff0000;" x="379.008" xlink:href="#mcd660933d3" y="229.115077"/>
     <use style="fill:#ff0000;stroke:#ff0000;" x="381.172364" xlink:href="#mcd660933d3" y="227.874462"/>
     <use style="fill:#ff0000;stroke:#ff0000;" x="383.336727" xlink:href="#mcd660933d3" y="227.564308"/>
     <use style="fill:#ff0000;stroke:#ff0000;" x="385.501091" xlink:href="#mcd660933d3" y="227.099077"/>
     <use style="fill:#ff0000;stroke:#ff0000;" x="387.665455" xlink:href="#mcd660933d3" y="226.788923"/>
     <use style="fill:#ff0000;stroke:#ff0000;" x="389.829818" xlink:href="#mcd660933d3" y="226.633846"/>
     <use style="fill:#ff0000;stroke:#ff0000;" x="391.994182" xlink:href="#mcd660933d3" y="226.633846"/>
     <use style="fill:#ff0000;stroke:#ff0000;" x="394.158545" xlink:href="#mcd660933d3" y="228.184615"/>
     <use style="fill:#ff0000;stroke:#ff0000;" x="396.322909" xlink:href="#mcd660933d3" y="229.735385"/>
     <use style="fill:#ff0000;stroke:#ff0000;" x="398.487273" xlink:href="#mcd660933d3" y="231.441231"/>
    </g>
   </g>
   <g id="line2d_36">
    <path clip-path="url(#pdd8c50cb5b)" d="M 73.832727 185.538462 
L 80.325818 185.538462 
L 82.490182 182.436923 
L 84.654545 172.977231 
L 86.818909 161.966769 
L 88.983273 157.004308 
L 91.147636 153.437538 
L 93.312 154.523077 
L 95.476364 158.244923 
L 97.640727 162.897231 
L 99.805091 157.004308 
L 101.969455 146.459077 
L 104.133818 143.357538 
L 106.298182 142.737231 
L 108.462545 141.496615 
L 110.626909 138.24 
L 114.955636 122.267077 
L 117.12 115.753846 
L 119.284364 110.326154 
L 121.448727 106.294154 
L 123.613091 101.176615 
L 127.941818 90.166154 
L 130.106182 85.358769 
L 134.434909 76.519385 
L 138.763636 68.920615 
L 140.928 65.508923 
L 143.092364 62.407385 
L 147.421091 57.6 
L 149.585455 55.739077 
L 151.749818 54.653538 
L 153.914182 53.723077 
L 156.078545 53.568 
L 160.407273 54.498462 
L 162.571636 54.653538 
L 164.736 54.033231 
L 166.900364 54.808615 
L 169.064727 56.359385 
L 171.229091 57.755077 
L 173.393455 58.685538 
L 175.557818 59.150769 
L 177.722182 60.546462 
L 182.050909 64.733538 
L 186.379636 67.524923 
L 188.544 70.626462 
L 190.708364 74.658462 
L 192.872727 79.310769 
L 195.037091 84.273231 
L 201.530182 104.898462 
L 205.858909 118.235077 
L 208.023273 124.903385 
L 210.187636 132.192 
L 212.352 140.100923 
L 218.845091 160.416 
L 221.009455 165.533538 
L 223.173818 169.565538 
L 227.502545 176.854154 
L 229.666909 180.886154 
L 231.831273 182.902154 
L 233.995636 183.987692 
L 236.16 184.763077 
L 238.324364 185.693538 
L 240.488727 187.089231 
L 242.653091 187.709538 
L 244.817455 187.864615 
L 246.981818 188.174769 
L 249.146182 189.105231 
L 251.310545 190.966154 
L 253.474909 192.516923 
L 257.803636 197.169231 
L 259.968 200.115692 
L 264.296727 207.249231 
L 266.461091 211.281231 
L 270.789818 220.430769 
L 272.954182 224.928 
L 279.447273 239.970462 
L 283.776 250.360615 
L 290.269091 267.729231 
L 294.597818 276.878769 
L 298.926545 285.408 
L 301.090909 289.129846 
L 303.255273 292.231385 
L 305.419636 294.402462 
L 307.584 295.332923 
L 309.748364 295.488 
L 311.912727 294.867692 
L 314.077091 293.937231 
L 316.241455 292.541538 
L 318.405818 288.974769 
L 322.734545 279.825231 
L 324.898909 275.483077 
L 327.063273 271.606154 
L 329.227636 266.333538 
L 333.556364 253.462154 
L 335.720727 248.189538 
L 337.885091 243.847385 
L 340.049455 239.195077 
L 344.378182 231.441231 
L 346.542545 226.944 
L 348.706909 221.981538 
L 350.871273 218.259692 
L 353.035636 215.313231 
L 355.2 213.762462 
L 357.364364 213.142154 
L 359.528727 212.056615 
L 361.693091 212.366769 
L 363.857455 213.297231 
L 366.021818 215.158154 
L 374.679273 223.687385 
L 376.843636 225.548308 
L 379.008 226.944 
L 381.172364 227.719385 
L 385.501091 229.890462 
L 389.829818 231.751385 
L 391.994182 232.836923 
L 394.158545 233.147077 
L 396.322909 233.302154 
L 398.487273 233.302154 
L 398.487273 233.302154 
" style="fill:none;stroke:#0000ff;stroke-dasharray:9.6,2.4,1.5,2.4;stroke-dashoffset:0;stroke-width:1.5;"/>
   </g>
   <g id="patch_3">
    <path d="M 57.6 307.584 
L 57.6 41.472 
" style="fill:none;stroke:#000000;stroke-linecap:square;stroke-linejoin:miter;stroke-width:0.8;"/>
   </g>
   <g id="patch_4">
    <path d="M 414.72 307.584 
L 414.72 41.472 
" style="fill:none;stroke:#000000;stroke-linecap:square;stroke-linejoin:miter;stroke-width:0.8;"/>
   </g>
   <g id="patch_5">
    <path d="M 57.6 307.584 
L 414.72 307.584 
" style="fill:none;stroke:#000000;stroke-linecap:square;stroke-linejoin:miter;stroke-width:0.8;"/>
   </g>
   <g id="patch_6">
    <path d="M 57.6 41.472 
L 414.72 41.472 
" style="fill:none;stroke:#000000;stroke-linecap:square;stroke-linejoin:miter;stroke-width:0.8;"/>
   </g>
   <g id="text_20">
    <!-- UKF States -->
    <defs>
     <path d="M 44.921875 21.484375 
Q 44.921875 12.109375 40.03125 6.640625 
Q 35.15625 1.171875 24.609375 1.171875 
Q 14.0625 1.171875 9.171875 6.640625 
Q 4.296875 12.109375 4.296875 21.484375 
L 4.296875 68.75 
L 13.28125 68.75 
L 13.28125 21.484375 
Q 13.28125 14.84375 16.40625 11.71875 
Q 19.53125 8.59375 24.609375 8.59375 
Q 29.6875 8.59375 32.8125 11.71875 
Q 35.9375 14.84375 35.9375 21.484375 
L 35.9375 68.75 
L 44.921875 68.75 
z
" id="SimHei-55"/>
     <path d="M 47.65625 1.953125 
L 37.5 1.953125 
L 19.53125 35.15625 
L 13.28125 26.953125 
L 13.28125 1.953125 
L 4.296875 1.953125 
L 4.296875 68.75 
L 13.28125 68.75 
L 13.28125 39.84375 
L 35.546875 68.75 
L 46.09375 68.75 
L 25.390625 42.578125 
z
" id="SimHei-4b"/>
     <path d="M 45.703125 61.328125 
L 13.671875 61.328125 
L 13.671875 39.453125 
L 37.890625 39.453125 
L 37.890625 32.03125 
L 13.671875 32.03125 
L 13.671875 1.953125 
L 4.6875 1.953125 
L 4.6875 68.75 
L 45.703125 68.75 
z
" id="SimHei-46"/>
     <path id="SimHei-20"/>
     <path d="M 45.3125 20.703125 
Q 45.3125 11.71875 39.640625 6.4375 
Q 33.984375 1.171875 24.21875 1.171875 
Q 14.453125 1.171875 8.984375 6.640625 
Q 3.515625 12.109375 3.515625 20.3125 
L 3.515625 23.046875 
L 12.5 23.046875 
L 12.5 20.703125 
Q 12.5 14.84375 16.015625 11.71875 
Q 19.53125 8.59375 24.21875 8.59375 
Q 30.46875 8.59375 33.390625 11.90625 
Q 36.328125 15.234375 36.328125 19.921875 
Q 36.328125 23.828125 32.8125 27.140625 
Q 29.296875 30.46875 22.65625 33.203125 
Q 13.28125 36.71875 9.171875 41.015625 
Q 5.078125 45.3125 5.078125 51.171875 
Q 5.078125 59.375 10.734375 64.453125 
Q 16.40625 69.53125 24.21875 69.53125 
Q 34.375 69.53125 38.859375 63.46875 
Q 43.359375 57.421875 43.359375 50.390625 
L 34.375 50.390625 
Q 34.765625 54.6875 32.03125 58.203125 
Q 29.296875 61.71875 24.21875 61.71875 
Q 19.53125 61.71875 16.796875 59.171875 
Q 14.0625 56.640625 14.0625 52.34375 
Q 14.0625 48.828125 16.203125 46.28125 
Q 18.359375 43.75 27.34375 40.234375 
Q 35.9375 36.71875 40.625 31.828125 
Q 45.3125 26.953125 45.3125 20.703125 
z
" id="SimHei-53"/>
     <path d="M 42.96875 3.125 
Q 41.015625 2.34375 38.46875 1.75 
Q 35.9375 1.171875 31.640625 1.171875 
Q 24.609375 1.171875 20.3125 5.078125 
Q 16.015625 8.984375 16.015625 16.015625 
L 16.015625 39.453125 
L 2.734375 39.453125 
L 2.734375 45.703125 
L 16.015625 45.703125 
L 16.015625 60.9375 
L 23.828125 60.9375 
L 23.828125 45.703125 
L 39.84375 45.703125 
L 39.84375 39.453125 
L 23.828125 39.453125 
L 23.828125 15.625 
Q 23.828125 12.5 25.390625 10.34375 
Q 26.953125 8.203125 31.25 8.203125 
Q 35.546875 8.203125 38.28125 8.984375 
Q 41.015625 9.765625 42.96875 10.9375 
z
" id="SimHei-74"/>
     <path d="M 44.921875 1.953125 
L 35.546875 1.953125 
Q 34.765625 2.734375 34.375 4.09375 
Q 33.984375 5.46875 33.984375 7.421875 
Q 31.25 4.296875 27.34375 2.734375 
Q 23.4375 1.171875 19.140625 1.171875 
Q 12.890625 1.171875 8.59375 4.296875 
Q 4.296875 7.421875 4.296875 13.28125 
Q 4.296875 19.140625 8.203125 22.65625 
Q 12.109375 26.171875 20.3125 27.34375 
Q 25.78125 28.125 29.875 29.296875 
Q 33.984375 30.46875 33.984375 32.421875 
Q 33.984375 34.765625 32.21875 37.109375 
Q 30.46875 39.453125 24.609375 39.453125 
Q 19.921875 39.453125 17.765625 37.6875 
Q 15.625 35.9375 14.84375 32.8125 
L 6.25 32.8125 
Q 7.03125 39.0625 11.90625 42.765625 
Q 16.796875 46.484375 24.609375 46.484375 
Q 33.203125 46.484375 37.5 42.578125 
Q 41.796875 38.671875 41.796875 31.640625 
L 41.796875 10.15625 
Q 41.796875 7.8125 42.578125 5.859375 
Q 43.359375 3.90625 44.921875 1.953125 
z
M 33.984375 16.40625 
L 33.984375 24.21875 
Q 31.640625 23.4375 29.484375 22.84375 
Q 27.34375 22.265625 22.265625 21.484375 
Q 16.40625 20.703125 14.640625 18.75 
Q 12.890625 16.796875 12.890625 14.0625 
Q 12.890625 11.71875 14.640625 9.953125 
Q 16.40625 8.203125 19.921875 8.203125 
Q 23.4375 8.203125 27.53125 10.15625 
Q 31.640625 12.109375 33.984375 16.40625 
z
" id="SimHei-61"/>
     <path d="M 44.53125 16.796875 
Q 43.75 9.765625 38.28125 5.46875 
Q 32.8125 1.171875 25.390625 1.171875 
Q 16.015625 1.171875 9.953125 7.21875 
Q 3.90625 13.28125 3.90625 23.828125 
Q 3.90625 34.375 9.953125 40.421875 
Q 16.015625 46.484375 25.390625 46.484375 
Q 33.59375 46.484375 38.859375 41.203125 
Q 44.140625 35.9375 44.140625 23.828125 
L 12.5 23.828125 
Q 12.5 15.234375 16.203125 11.71875 
Q 19.921875 8.203125 25.390625 8.203125 
Q 29.6875 8.203125 32.421875 10.34375 
Q 35.15625 12.5 35.9375 16.796875 
z
M 35.15625 30.078125 
Q 34.375 35.546875 31.640625 37.6875 
Q 28.90625 39.84375 24.609375 39.84375 
Q 20.703125 39.84375 17.578125 37.6875 
Q 14.453125 35.546875 12.890625 30.078125 
z
" id="SimHei-65"/>
     <path d="M 42.96875 14.0625 
Q 42.96875 7.8125 38.078125 4.484375 
Q 33.203125 1.171875 25.78125 1.171875 
Q 16.40625 1.171875 11.328125 4.875 
Q 6.25 8.59375 6.25 15.625 
L 14.0625 15.625 
Q 14.0625 10.9375 17.375 9.375 
Q 20.703125 7.8125 25.390625 7.8125 
Q 30.078125 7.8125 32.421875 9.5625 
Q 34.765625 11.328125 34.765625 14.0625 
Q 34.765625 16.015625 32.8125 17.96875 
Q 30.859375 19.921875 23.046875 21.09375 
Q 14.0625 22.265625 10.734375 25.578125 
Q 7.421875 28.90625 7.421875 34.375 
Q 7.421875 39.0625 11.90625 42.765625 
Q 16.40625 46.484375 25 46.484375 
Q 32.8125 46.484375 37.296875 42.96875 
Q 41.796875 39.453125 41.796875 33.59375 
L 33.984375 33.59375 
Q 33.984375 37.109375 31.4375 38.46875 
Q 28.90625 39.84375 25 39.84375 
Q 19.921875 39.84375 17.765625 38.078125 
Q 15.625 36.328125 15.625 33.984375 
Q 15.625 31.25 17.578125 29.6875 
Q 19.53125 28.125 25.78125 27.34375 
Q 35.9375 25.78125 39.453125 22.453125 
Q 42.96875 19.140625 42.96875 14.0625 
z
" id="SimHei-73"/>
    </defs>
    <g transform="translate(206.16 35.472)scale(0.12 -0.12)">
     <use xlink:href="#SimHei-55"/>
     <use x="50" xlink:href="#SimHei-4b"/>
     <use x="100" xlink:href="#SimHei-46"/>
     <use x="150" xlink:href="#SimHei-20"/>
     <use x="200" xlink:href="#SimHei-53"/>
     <use x="250" xlink:href="#SimHei-74"/>
     <use x="300" xlink:href="#SimHei-61"/>
     <use x="350" xlink:href="#SimHei-74"/>
     <use x="400" xlink:href="#SimHei-65"/>
     <use x="450" xlink:href="#SimHei-73"/>
    </g>
   </g>
   <g id="legend_1">
    <g id="patch_7">
     <path d="M 318.72 93.222 
L 404.22 93.222 
Q 407.22 93.222 407.22 90.222 
L 407.22 51.972 
Q 407.22 48.972 404.22 48.972 
L 318.72 48.972 
Q 315.72 48.972 315.72 51.972 
L 315.72 90.222 
Q 315.72 93.222 318.72 93.222 
z
" style="fill:#ffffff;opacity:0.8;stroke:#cccccc;stroke-linejoin:miter;"/>
    </g>
    <g id="line2d_37">
     <path d="M 321.72 60.222 
L 351.72 60.222 
" style="fill:none;stroke:#ff0000;stroke-linecap:square;stroke-width:1.5;"/>
    </g>
    <g id="line2d_38">
     <g>
      <use style="fill:#ff0000;stroke:#ff0000;" x="336.72" xlink:href="#mcd660933d3" y="60.222"/>
     </g>
    </g>
    <g id="text_21">
     <!-- GT -->
     <defs>
      <path d="M 44.53125 1.171875 
L 37.890625 1.171875 
L 36.71875 6.640625 
Q 35.15625 4.296875 31.828125 2.734375 
Q 28.515625 1.171875 24.609375 1.171875 
Q 16.40625 1.171875 9.953125 8.78125 
Q 3.515625 16.40625 3.515625 33.203125 
Q 3.515625 51.5625 9.375 60.546875 
Q 15.234375 69.53125 25.390625 69.53125 
Q 34.375 69.53125 39.453125 62.890625 
Q 44.53125 56.25 44.53125 45.703125 
L 35.9375 45.703125 
Q 35.9375 53.90625 33.203125 58 
Q 30.46875 62.109375 25.390625 62.109375 
Q 19.140625 62.109375 16.015625 55.65625 
Q 12.890625 49.21875 12.890625 33.984375 
Q 12.890625 19.53125 16.796875 14.0625 
Q 20.703125 8.59375 25.78125 8.59375 
Q 30.859375 8.59375 33.78125 12.296875 
Q 36.71875 16.015625 36.71875 23.828125 
L 36.71875 28.125 
L 24.609375 28.125 
L 24.609375 35.546875 
L 44.53125 35.546875 
z
" id="SimHei-47"/>
      <path d="M 44.53125 61.328125 
L 28.90625 61.328125 
L 28.90625 1.953125 
L 19.921875 1.953125 
L 19.921875 61.328125 
L 4.296875 61.328125 
L 4.296875 68.75 
L 44.53125 68.75 
z
" id="SimHei-54"/>
     </defs>
     <g transform="translate(363.72 65.472)scale(0.15 -0.15)">
      <use xlink:href="#SimHei-47"/>
      <use x="50" xlink:href="#SimHei-54"/>
     </g>
    </g>
    <g id="line2d_39">
     <path d="M 321.72 80.097 
L 351.72 80.097 
" style="fill:none;stroke:#0000ff;stroke-dasharray:9.6,2.4,1.5,2.4;stroke-dashoffset:0;stroke-width:1.5;"/>
    </g>
    <g id="line2d_40"/>
    <g id="text_22">
     <!-- Track -->
     <defs>
      <path d="M 39.0625 37.890625 
Q 31.640625 39.0625 26.5625 35.734375 
Q 21.484375 32.421875 17.96875 24.21875 
L 17.96875 1.953125 
L 10.15625 1.953125 
L 10.15625 45.703125 
L 17.96875 45.703125 
L 17.96875 34.375 
Q 21.484375 40.625 26.75 43.546875 
Q 32.03125 46.484375 39.0625 46.484375 
z
" id="SimHei-72"/>
      <path d="M 44.53125 19.53125 
Q 44.53125 11.328125 38.859375 6.25 
Q 33.203125 1.171875 24.609375 1.171875 
Q 16.015625 1.171875 9.765625 7.21875 
Q 3.515625 13.28125 3.515625 23.828125 
Q 3.515625 34.375 9.765625 40.421875 
Q 16.015625 46.484375 24.609375 46.484375 
Q 33.203125 46.484375 38.28125 41.984375 
Q 43.359375 37.5 43.359375 31.25 
L 34.765625 31.25 
Q 34.375 35.9375 31.4375 37.6875 
Q 28.515625 39.453125 24.609375 39.453125 
Q 19.921875 39.453125 16.015625 35.734375 
Q 12.109375 32.03125 12.109375 23.828125 
Q 12.109375 15.625 16.015625 11.90625 
Q 19.921875 8.203125 24.609375 8.203125 
Q 29.6875 8.203125 32.8125 10.9375 
Q 35.9375 13.671875 35.9375 19.53125 
z
" id="SimHei-63"/>
      <path d="M 45.703125 1.953125 
L 36.71875 1.953125 
L 22.65625 25.78125 
L 13.671875 17.1875 
L 13.671875 1.953125 
L 5.859375 1.953125 
L 5.859375 68.75 
L 13.671875 68.75 
L 13.671875 26.171875 
L 33.203125 45.703125 
L 42.96875 45.703125 
L 27.734375 30.859375 
z
" id="SimHei-6b"/>
     </defs>
     <g transform="translate(363.72 85.347)scale(0.15 -0.15)">
      <use xlink:href="#SimHei-54"/>
      <use x="50" xlink:href="#SimHei-72"/>
      <use x="100" xlink:href="#SimHei-61"/>
      <use x="150" xlink:href="#SimHei-63"/>
      <use x="200" xlink:href="#SimHei-6b"/>
     </g>
    </g>
   </g>
  </g>
 </g>
 <defs>
  <clipPath id="pdd8c50cb5b">
   <rect height="266.112" width="357.12" x="57.6" y="41.472"/>
  </clipPath>
 </defs>
</svg>
