<?xml version="1.0" encoding="utf-8" standalone="no"?>
<!DOCTYPE svg PUBLIC "-//W3C//DTD SVG 1.1//EN"
  "http://www.w3.org/Graphics/SVG/1.1/DTD/svg11.dtd">
<!-- Created with matplotlib (http://matplotlib.org/) -->
<svg height="345.6pt" version="1.1" viewBox="0 0 460.8 345.6" width="460.8pt" xmlns="http://www.w3.org/2000/svg" xmlns:xlink="http://www.w3.org/1999/xlink">
 <defs>
  <style type="text/css">
*{stroke-linecap:butt;stroke-linejoin:round;}
  </style>
 </defs>
 <g id="figure_1">
  <g id="patch_1">
   <path d="M 0 345.6 
L 460.8 345.6 
L 460.8 0 
L 0 0 
z
" style="fill:#ffffff;"/>
  </g>
  <g id="axes_1">
   <g id="patch_2">
    <path d="M 57.6 307.584 
L 414.72 307.584 
L 414.72 41.472 
L 57.6 41.472 
z
" style="fill:#ffffff;"/>
   </g>
   <g id="matplotlib.axis_1">
    <g id="xtick_1">
     <g id="line2d_1">
      <path clip-path="url(#p5192fc53c7)" d="M 65.926654 307.584 
L 65.926654 41.472 
" style="fill:none;stroke:#b0b0b0;stroke-linecap:square;stroke-width:0.8;"/>
     </g>
     <g id="line2d_2">
      <defs>
       <path d="M 0 0 
L 0 3.5 
" id="ma1c9f2baad" style="stroke:#000000;stroke-width:0.8;"/>
      </defs>
      <g>
       <use style="stroke:#000000;stroke-width:0.8;" x="65.926654" xlink:href="#ma1c9f2baad" y="307.584"/>
      </g>
     </g>
     <g id="text_1">
      <!-- 0 -->
      <defs>
       <path d="M 3.125 29.296875 
Q 3.90625 50 6.4375 56.046875 
Q 8.984375 62.109375 13.671875 66.015625 
Q 18.359375 69.921875 25.1875 69.921875 
Q 32.03125 69.921875 37.109375 64.25 
Q 42.1875 58.59375 43.75 50 
Q 45.3125 41.40625 44.71875 30.265625 
Q 44.140625 19.140625 40.8125 12.109375 
Q 37.5 5.078125 30.859375 2.34375 
Q 24.21875 -0.390625 17.578125 2.921875 
Q 10.9375 6.25 8.203125 11.71875 
Q 5.46875 17.1875 4.296875 23.234375 
Q 3.125 29.296875 3.90625 50 
z
M 12.890625 52.734375 
Q 10.546875 31.25 12.5 22.84375 
Q 14.453125 14.453125 18.9375 10.9375 
Q 23.4375 7.421875 28.125 9.5625 
Q 32.8125 11.71875 34.953125 18.15625 
Q 37.109375 24.609375 37.109375 32.21875 
Q 37.109375 39.84375 36.515625 46.09375 
Q 35.9375 52.34375 33 57.421875 
Q 30.078125 62.5 25.1875 62.6875 
Q 20.3125 62.890625 16.59375 57.8125 
Q 12.890625 52.734375 10.546875 31.25 
z
" id="SimHei-30"/>
      </defs>
      <g transform="translate(63.426654 321.459)scale(0.1 -0.1)">
       <use xlink:href="#SimHei-30"/>
      </g>
     </g>
    </g>
    <g id="xtick_2">
     <g id="line2d_3">
      <path clip-path="url(#p5192fc53c7)" d="M 119.709463 307.584 
L 119.709463 41.472 
" style="fill:none;stroke:#b0b0b0;stroke-linecap:square;stroke-width:0.8;"/>
     </g>
     <g id="line2d_4">
      <g>
       <use style="stroke:#000000;stroke-width:0.8;" x="119.709463" xlink:href="#ma1c9f2baad" y="307.584"/>
      </g>
     </g>
     <g id="text_2">
      <!-- 5 -->
      <defs>
       <path d="M 8.59375 20.703125 
Q 11.328125 10.15625 17.96875 8.984375 
Q 24.609375 7.8125 28.703125 10.34375 
Q 32.8125 12.890625 34.5625 16.984375 
Q 36.328125 21.09375 36.125 26.171875 
Q 35.9375 31.25 33.390625 34.765625 
Q 30.859375 38.28125 26.953125 39.453125 
Q 23.046875 40.625 18.15625 39.453125 
Q 13.28125 38.28125 10.15625 33.984375 
L 3.515625 34.765625 
Q 4.296875 37.109375 10.9375 68.359375 
L 41.796875 68.359375 
L 41.796875 61.328125 
L 16.796875 61.328125 
Q 14.84375 50.78125 12.890625 44.53125 
Q 18.75 47.265625 23.828125 47.0625 
Q 28.90625 46.875 33.59375 44.71875 
Q 38.28125 42.578125 40.421875 38.859375 
Q 42.578125 35.15625 43.546875 31.4375 
Q 44.53125 27.734375 44.328125 23.4375 
Q 44.140625 19.140625 42.578125 14.640625 
Q 41.015625 10.15625 37.890625 7.21875 
Q 34.765625 4.296875 30.265625 2.53125 
Q 25.78125 0.78125 19.921875 1.171875 
Q 14.0625 1.5625 8.78125 5.46875 
Q 3.515625 9.375 1.5625 18.75 
z
" id="SimHei-35"/>
      </defs>
      <g transform="translate(117.209463 321.459)scale(0.1 -0.1)">
       <use xlink:href="#SimHei-35"/>
      </g>
     </g>
    </g>
    <g id="xtick_3">
     <g id="line2d_5">
      <path clip-path="url(#p5192fc53c7)" d="M 173.492271 307.584 
L 173.492271 41.472 
" style="fill:none;stroke:#b0b0b0;stroke-linecap:square;stroke-width:0.8;"/>
     </g>
     <g id="line2d_6">
      <g>
       <use style="stroke:#000000;stroke-width:0.8;" x="173.492271" xlink:href="#ma1c9f2baad" y="307.584"/>
      </g>
     </g>
     <g id="text_3">
      <!-- 10 -->
      <defs>
       <path d="M 21.875 56.25 
Q 16.796875 51.171875 8.984375 46.484375 
L 8.984375 53.90625 
Q 18.75 60.546875 25 69.53125 
L 29.6875 69.53125 
L 29.6875 2.34375 
L 21.875 2.34375 
z
" id="SimHei-31"/>
      </defs>
      <g transform="translate(168.492271 321.459)scale(0.1 -0.1)">
       <use xlink:href="#SimHei-31"/>
       <use x="50" xlink:href="#SimHei-30"/>
      </g>
     </g>
    </g>
    <g id="xtick_4">
     <g id="line2d_7">
      <path clip-path="url(#p5192fc53c7)" d="M 227.27508 307.584 
L 227.27508 41.472 
" style="fill:none;stroke:#b0b0b0;stroke-linecap:square;stroke-width:0.8;"/>
     </g>
     <g id="line2d_8">
      <g>
       <use style="stroke:#000000;stroke-width:0.8;" x="227.27508" xlink:href="#ma1c9f2baad" y="307.584"/>
      </g>
     </g>
     <g id="text_4">
      <!-- 15 -->
      <g transform="translate(222.27508 321.459)scale(0.1 -0.1)">
       <use xlink:href="#SimHei-31"/>
       <use x="50" xlink:href="#SimHei-35"/>
      </g>
     </g>
    </g>
    <g id="xtick_5">
     <g id="line2d_9">
      <path clip-path="url(#p5192fc53c7)" d="M 281.057889 307.584 
L 281.057889 41.472 
" style="fill:none;stroke:#b0b0b0;stroke-linecap:square;stroke-width:0.8;"/>
     </g>
     <g id="line2d_10">
      <g>
       <use style="stroke:#000000;stroke-width:0.8;" x="281.057889" xlink:href="#ma1c9f2baad" y="307.584"/>
      </g>
     </g>
     <g id="text_5">
      <!-- 20 -->
      <defs>
       <path d="M 4.6875 3.90625 
Q 5.078125 9.765625 10.15625 14.453125 
Q 15.234375 19.140625 23.046875 29.09375 
Q 30.859375 39.0625 33.203125 44.53125 
Q 35.546875 50 34.953125 53.90625 
Q 34.375 57.8125 31.25 60.34375 
Q 28.125 62.890625 24.015625 62.5 
Q 19.921875 62.109375 16.203125 59.375 
Q 12.5 56.640625 10.546875 51.171875 
L 3.125 52.34375 
Q 6.25 61.328125 11.125 65.421875 
Q 16.015625 69.53125 22.65625 69.921875 
Q 26.5625 70.3125 29.6875 69.71875 
Q 32.8125 69.140625 36.125 66.984375 
Q 39.453125 64.84375 41.59375 60.546875 
Q 43.75 56.25 43.15625 50.1875 
Q 42.578125 44.140625 37.109375 35.734375 
Q 31.640625 27.34375 16.015625 9.375 
L 44.140625 9.375 
L 44.140625 2.34375 
L 4.6875 2.34375 
z
" id="SimHei-32"/>
      </defs>
      <g transform="translate(276.057889 321.459)scale(0.1 -0.1)">
       <use xlink:href="#SimHei-32"/>
       <use x="50" xlink:href="#SimHei-30"/>
      </g>
     </g>
    </g>
    <g id="xtick_6">
     <g id="line2d_11">
      <path clip-path="url(#p5192fc53c7)" d="M 334.840697 307.584 
L 334.840697 41.472 
" style="fill:none;stroke:#b0b0b0;stroke-linecap:square;stroke-width:0.8;"/>
     </g>
     <g id="line2d_12">
      <g>
       <use style="stroke:#000000;stroke-width:0.8;" x="334.840697" xlink:href="#ma1c9f2baad" y="307.584"/>
      </g>
     </g>
     <g id="text_6">
      <!-- 25 -->
      <g transform="translate(329.840697 321.459)scale(0.1 -0.1)">
       <use xlink:href="#SimHei-32"/>
       <use x="50" xlink:href="#SimHei-35"/>
      </g>
     </g>
    </g>
    <g id="xtick_7">
     <g id="line2d_13">
      <path clip-path="url(#p5192fc53c7)" d="M 388.623506 307.584 
L 388.623506 41.472 
" style="fill:none;stroke:#b0b0b0;stroke-linecap:square;stroke-width:0.8;"/>
     </g>
     <g id="line2d_14">
      <g>
       <use style="stroke:#000000;stroke-width:0.8;" x="388.623506" xlink:href="#ma1c9f2baad" y="307.584"/>
      </g>
     </g>
     <g id="text_7">
      <!-- 30 -->
      <defs>
       <path d="M 3.90625 19.140625 
L 10.9375 20.3125 
Q 12.5 15.234375 16.015625 11.90625 
Q 19.53125 8.59375 24.796875 8.78125 
Q 30.078125 8.984375 33.203125 13.078125 
Q 36.328125 17.1875 35.9375 22.453125 
Q 35.546875 27.734375 31.828125 30.65625 
Q 28.125 33.59375 19.921875 34.765625 
L 19.921875 39.84375 
Q 28.125 40.625 31.828125 44.140625 
Q 35.546875 47.65625 35.15625 53.3125 
Q 34.765625 58.984375 30.078125 61.515625 
Q 25.390625 64.0625 20.109375 62.109375 
Q 14.84375 60.15625 11.71875 51.171875 
L 4.6875 52.34375 
Q 7.03125 59.375 11.125 64.0625 
Q 15.234375 68.75 22.265625 69.53125 
Q 29.296875 70.3125 34.5625 67.765625 
Q 39.84375 65.234375 41.984375 59.953125 
Q 44.140625 54.6875 42.578125 48.4375 
Q 41.015625 42.1875 33.59375 37.5 
Q 39.0625 35.15625 41.984375 30.46875 
Q 44.921875 25.78125 43.9375 18.15625 
Q 42.96875 10.546875 37.109375 5.859375 
Q 31.25 1.171875 23.828125 1.359375 
Q 16.40625 1.5625 10.9375 6.046875 
Q 5.46875 10.546875 3.90625 19.140625 
z
" id="SimHei-33"/>
      </defs>
      <g transform="translate(383.623506 321.459)scale(0.1 -0.1)">
       <use xlink:href="#SimHei-33"/>
       <use x="50" xlink:href="#SimHei-30"/>
      </g>
     </g>
    </g>
    <g id="text_8">
     <!-- X Position [m] -->
     <defs>
      <path d="M 46.875 1.953125 
L 37.5 1.953125 
L 24.21875 29.296875 
L 10.9375 1.953125 
L 1.5625 1.953125 
L 19.921875 37.109375 
L 3.515625 68.75 
L 12.890625 68.75 
L 24.21875 44.53125 
L 35.546875 68.75 
L 44.921875 68.75 
L 28.515625 37.109375 
z
" id="SimHei-58"/>
      <path id="SimHei-20"/>
      <path d="M 46.09375 48.4375 
Q 46.09375 39.0625 40.625 33.59375 
Q 35.15625 28.125 25.390625 28.125 
L 14.0625 28.125 
L 14.0625 1.953125 
L 5.078125 1.953125 
L 5.078125 68.75 
L 25.390625 68.75 
Q 35.15625 68.75 40.625 63.28125 
Q 46.09375 57.8125 46.09375 48.4375 
z
M 37.109375 48.4375 
Q 37.109375 55.859375 33.59375 58.59375 
Q 30.078125 61.328125 23.046875 61.328125 
L 14.0625 61.328125 
L 14.0625 35.546875 
L 23.046875 35.546875 
Q 30.078125 35.546875 33.59375 38.28125 
Q 37.109375 41.015625 37.109375 48.4375 
z
" id="SimHei-50"/>
      <path d="M 45.703125 23.828125 
Q 45.703125 13.671875 39.453125 7.421875 
Q 33.203125 1.171875 24.609375 1.171875 
Q 16.015625 1.171875 9.765625 7.421875 
Q 3.515625 13.671875 3.515625 23.828125 
Q 3.515625 33.984375 9.765625 40.234375 
Q 16.015625 46.484375 24.609375 46.484375 
Q 33.203125 46.484375 39.453125 40.234375 
Q 45.703125 33.984375 45.703125 23.828125 
z
M 37.109375 23.828125 
Q 37.109375 31.640625 33.203125 35.546875 
Q 29.296875 39.453125 24.609375 39.453125 
Q 19.921875 39.453125 16.015625 35.546875 
Q 12.109375 31.640625 12.109375 23.828125 
Q 12.109375 16.015625 16.015625 12.109375 
Q 19.921875 8.203125 24.609375 8.203125 
Q 29.296875 8.203125 33.203125 12.109375 
Q 37.109375 16.015625 37.109375 23.828125 
z
" id="SimHei-6f"/>
      <path d="M 42.96875 14.0625 
Q 42.96875 7.8125 38.078125 4.484375 
Q 33.203125 1.171875 25.78125 1.171875 
Q 16.40625 1.171875 11.328125 4.875 
Q 6.25 8.59375 6.25 15.625 
L 14.0625 15.625 
Q 14.0625 10.9375 17.375 9.375 
Q 20.703125 7.8125 25.390625 7.8125 
Q 30.078125 7.8125 32.421875 9.5625 
Q 34.765625 11.328125 34.765625 14.0625 
Q 34.765625 16.015625 32.8125 17.96875 
Q 30.859375 19.921875 23.046875 21.09375 
Q 14.0625 22.265625 10.734375 25.578125 
Q 7.421875 28.90625 7.421875 34.375 
Q 7.421875 39.0625 11.90625 42.765625 
Q 16.40625 46.484375 25 46.484375 
Q 32.8125 46.484375 37.296875 42.96875 
Q 41.796875 39.453125 41.796875 33.59375 
L 33.984375 33.59375 
Q 33.984375 37.109375 31.4375 38.46875 
Q 28.90625 39.84375 25 39.84375 
Q 19.921875 39.84375 17.765625 38.078125 
Q 15.625 36.328125 15.625 33.984375 
Q 15.625 31.25 17.578125 29.6875 
Q 19.53125 28.125 25.78125 27.34375 
Q 35.9375 25.78125 39.453125 22.453125 
Q 42.96875 19.140625 42.96875 14.0625 
z
" id="SimHei-73"/>
      <path d="M 28.125 58.203125 
L 20.3125 58.203125 
L 20.3125 68.359375 
L 28.125 68.359375 
z
M 28.125 1.953125 
L 20.3125 1.953125 
L 20.3125 45.703125 
L 28.125 45.703125 
z
" id="SimHei-69"/>
      <path d="M 42.96875 3.125 
Q 41.015625 2.34375 38.46875 1.75 
Q 35.9375 1.171875 31.640625 1.171875 
Q 24.609375 1.171875 20.3125 5.078125 
Q 16.015625 8.984375 16.015625 16.015625 
L 16.015625 39.453125 
L 2.734375 39.453125 
L 2.734375 45.703125 
L 16.015625 45.703125 
L 16.015625 60.9375 
L 23.828125 60.9375 
L 23.828125 45.703125 
L 39.84375 45.703125 
L 39.84375 39.453125 
L 23.828125 39.453125 
L 23.828125 15.625 
Q 23.828125 12.5 25.390625 10.34375 
Q 26.953125 8.203125 31.25 8.203125 
Q 35.546875 8.203125 38.28125 8.984375 
Q 41.015625 9.765625 42.96875 10.9375 
z
" id="SimHei-74"/>
      <path d="M 43.75 1.953125 
L 35.9375 1.953125 
L 35.9375 30.078125 
Q 35.9375 34.765625 33.59375 37.5 
Q 31.25 40.234375 27.34375 40.234375 
Q 22.265625 40.234375 17.765625 34.953125 
Q 13.28125 29.6875 13.28125 21.875 
L 13.28125 1.953125 
L 5.46875 1.953125 
L 5.46875 45.703125 
L 13.28125 45.703125 
L 13.28125 37.5 
Q 16.40625 41.796875 20.109375 44.140625 
Q 23.828125 46.484375 29.6875 46.484375 
Q 36.71875 46.484375 40.234375 42.578125 
Q 43.75 38.671875 43.75 32.8125 
z
" id="SimHei-6e"/>
      <path d="M 44.140625 -8.203125 
L 19.53125 -8.203125 
L 19.53125 78.90625 
L 44.140625 78.90625 
L 44.140625 72.65625 
L 26.171875 72.65625 
L 26.171875 -1.953125 
L 44.140625 -1.953125 
z
" id="SimHei-5b"/>
      <path d="M 47.65625 1.953125 
L 39.84375 1.953125 
L 39.84375 33.59375 
Q 39.84375 35.9375 39.0625 37.5 
Q 38.28125 39.0625 35.9375 39.0625 
Q 33.203125 39.0625 30.859375 36.125 
Q 28.515625 33.203125 28.515625 28.515625 
L 28.515625 1.953125 
L 20.703125 1.953125 
L 20.703125 33.59375 
Q 20.703125 35.9375 19.921875 37.5 
Q 19.140625 39.0625 16.796875 39.0625 
Q 14.0625 39.0625 11.71875 36.125 
Q 9.375 33.203125 9.375 28.515625 
L 9.375 1.953125 
L 1.5625 1.953125 
L 1.5625 45.703125 
L 9.375 45.703125 
L 9.375 39.84375 
Q 11.328125 42.96875 14.0625 44.71875 
Q 16.796875 46.484375 19.921875 46.484375 
Q 23.046875 46.484375 25.1875 44.71875 
Q 27.34375 42.96875 28.125 39.84375 
Q 30.078125 42.96875 32.609375 44.71875 
Q 35.15625 46.484375 38.28125 46.484375 
Q 42.96875 46.484375 45.3125 43.9375 
Q 47.65625 41.40625 47.65625 36.71875 
z
" id="SimHei-6d"/>
      <path d="M 29.296875 -8.203125 
L 4.6875 -8.203125 
L 4.6875 -1.953125 
L 22.65625 -1.953125 
L 22.65625 72.65625 
L 4.6875 72.65625 
L 4.6875 78.90625 
L 29.296875 78.90625 
z
" id="SimHei-5d"/>
     </defs>
     <g transform="translate(190.66 336.408219)scale(0.13 -0.13)">
      <use xlink:href="#SimHei-58"/>
      <use x="50" xlink:href="#SimHei-20"/>
      <use x="100" xlink:href="#SimHei-50"/>
      <use x="150" xlink:href="#SimHei-6f"/>
      <use x="200" xlink:href="#SimHei-73"/>
      <use x="250" xlink:href="#SimHei-69"/>
      <use x="300" xlink:href="#SimHei-74"/>
      <use x="350" xlink:href="#SimHei-69"/>
      <use x="400" xlink:href="#SimHei-6f"/>
      <use x="450" xlink:href="#SimHei-6e"/>
      <use x="500" xlink:href="#SimHei-20"/>
      <use x="550" xlink:href="#SimHei-5b"/>
      <use x="600" xlink:href="#SimHei-6d"/>
      <use x="650" xlink:href="#SimHei-5d"/>
     </g>
    </g>
   </g>
   <g id="matplotlib.axis_2">
    <g id="ytick_1">
     <g id="line2d_15">
      <path clip-path="url(#p5192fc53c7)" d="M 57.6 305.541859 
L 414.72 305.541859 
" style="fill:none;stroke:#b0b0b0;stroke-linecap:square;stroke-width:0.8;"/>
     </g>
     <g id="line2d_16">
      <defs>
       <path d="M 0 0 
L -3.5 0 
" id="mbe81438e1d" style="stroke:#000000;stroke-width:0.8;"/>
      </defs>
      <g>
       <use style="stroke:#000000;stroke-width:0.8;" x="57.6" xlink:href="#mbe81438e1d" y="305.541859"/>
      </g>
     </g>
     <g id="text_9">
      <!-- -70 -->
      <defs>
       <path d="M 46.484375 33.203125 
L 1.953125 33.203125 
L 1.953125 39.453125 
L 46.484375 39.453125 
z
" id="SimHei-2d"/>
       <path d="M 13.28125 2.34375 
Q 20.3125 32.03125 37.890625 61.328125 
L 4.296875 61.328125 
L 4.296875 68.359375 
L 46.09375 68.359375 
L 46.09375 61.71875 
Q 27.734375 32.03125 21.875 2.34375 
L 13.28125 2.34375 
z
" id="SimHei-37"/>
      </defs>
      <g transform="translate(35.6 308.979359)scale(0.1 -0.1)">
       <use xlink:href="#SimHei-2d"/>
       <use x="50" xlink:href="#SimHei-37"/>
       <use x="100" xlink:href="#SimHei-30"/>
      </g>
     </g>
    </g>
    <g id="ytick_2">
     <g id="line2d_17">
      <path clip-path="url(#p5192fc53c7)" d="M 57.6 265.834674 
L 414.72 265.834674 
" style="fill:none;stroke:#b0b0b0;stroke-linecap:square;stroke-width:0.8;"/>
     </g>
     <g id="line2d_18">
      <g>
       <use style="stroke:#000000;stroke-width:0.8;" x="57.6" xlink:href="#mbe81438e1d" y="265.834674"/>
      </g>
     </g>
     <g id="text_10">
      <!-- -60 -->
      <defs>
       <path d="M 3.515625 19.53125 
Q 4.296875 30.859375 6.046875 34.765625 
Q 7.8125 38.671875 11.328125 44.53125 
L 27.34375 69.53125 
L 36.328125 69.53125 
L 19.921875 43.75 
Q 30.46875 46.484375 36.71875 42.96875 
Q 42.96875 39.453125 45.109375 34.953125 
Q 47.265625 30.46875 47.453125 25.1875 
Q 47.65625 19.921875 45.890625 14.84375 
Q 44.140625 9.765625 39.640625 5.65625 
Q 35.15625 1.5625 27.140625 1.171875 
Q 19.140625 0.78125 13.46875 4.09375 
Q 7.8125 7.421875 5.65625 13.46875 
Q 3.515625 19.53125 4.296875 30.859375 
z
M 12.5 16.015625 
Q 19.53125 8.59375 25.390625 8.203125 
Q 31.25 7.8125 35.15625 12.109375 
Q 39.0625 16.40625 39.0625 24.609375 
Q 39.0625 32.8125 34.171875 35.9375 
Q 29.296875 39.0625 23.234375 38.28125 
Q 17.1875 37.5 14.453125 32.421875 
Q 11.71875 27.34375 12.109375 21.671875 
Q 12.5 16.015625 19.53125 8.59375 
z
" id="SimHei-36"/>
      </defs>
      <g transform="translate(35.6 269.272174)scale(0.1 -0.1)">
       <use xlink:href="#SimHei-2d"/>
       <use x="50" xlink:href="#SimHei-36"/>
       <use x="100" xlink:href="#SimHei-30"/>
      </g>
     </g>
    </g>
    <g id="ytick_3">
     <g id="line2d_19">
      <path clip-path="url(#p5192fc53c7)" d="M 57.6 226.127488 
L 414.72 226.127488 
" style="fill:none;stroke:#b0b0b0;stroke-linecap:square;stroke-width:0.8;"/>
     </g>
     <g id="line2d_20">
      <g>
       <use style="stroke:#000000;stroke-width:0.8;" x="57.6" xlink:href="#mbe81438e1d" y="226.127488"/>
      </g>
     </g>
     <g id="text_11">
      <!-- -50 -->
      <g transform="translate(35.6 229.564988)scale(0.1 -0.1)">
       <use xlink:href="#SimHei-2d"/>
       <use x="50" xlink:href="#SimHei-35"/>
       <use x="100" xlink:href="#SimHei-30"/>
      </g>
     </g>
    </g>
    <g id="ytick_4">
     <g id="line2d_21">
      <path clip-path="url(#p5192fc53c7)" d="M 57.6 186.420302 
L 414.72 186.420302 
" style="fill:none;stroke:#b0b0b0;stroke-linecap:square;stroke-width:0.8;"/>
     </g>
     <g id="line2d_22">
      <g>
       <use style="stroke:#000000;stroke-width:0.8;" x="57.6" xlink:href="#mbe81438e1d" y="186.420302"/>
      </g>
     </g>
     <g id="text_12">
      <!-- -40 -->
      <defs>
       <path d="M 31.25 17.1875 
L 1.171875 17.1875 
L 1.171875 23.828125 
L 32.8125 69.53125 
L 38.671875 69.53125 
L 38.671875 23.828125 
L 48.046875 23.828125 
L 48.046875 17.1875 
L 38.671875 17.1875 
L 38.671875 2.34375 
L 31.25 2.34375 
z
M 31.25 23.828125 
L 31.25 54.6875 
L 9.375 23.828125 
z
" id="SimHei-34"/>
      </defs>
      <g transform="translate(35.6 189.857802)scale(0.1 -0.1)">
       <use xlink:href="#SimHei-2d"/>
       <use x="50" xlink:href="#SimHei-34"/>
       <use x="100" xlink:href="#SimHei-30"/>
      </g>
     </g>
    </g>
    <g id="ytick_5">
     <g id="line2d_23">
      <path clip-path="url(#p5192fc53c7)" d="M 57.6 146.713116 
L 414.72 146.713116 
" style="fill:none;stroke:#b0b0b0;stroke-linecap:square;stroke-width:0.8;"/>
     </g>
     <g id="line2d_24">
      <g>
       <use style="stroke:#000000;stroke-width:0.8;" x="57.6" xlink:href="#mbe81438e1d" y="146.713116"/>
      </g>
     </g>
     <g id="text_13">
      <!-- -30 -->
      <g transform="translate(35.6 150.150616)scale(0.1 -0.1)">
       <use xlink:href="#SimHei-2d"/>
       <use x="50" xlink:href="#SimHei-33"/>
       <use x="100" xlink:href="#SimHei-30"/>
      </g>
     </g>
    </g>
    <g id="ytick_6">
     <g id="line2d_25">
      <path clip-path="url(#p5192fc53c7)" d="M 57.6 107.005931 
L 414.72 107.005931 
" style="fill:none;stroke:#b0b0b0;stroke-linecap:square;stroke-width:0.8;"/>
     </g>
     <g id="line2d_26">
      <g>
       <use style="stroke:#000000;stroke-width:0.8;" x="57.6" xlink:href="#mbe81438e1d" y="107.005931"/>
      </g>
     </g>
     <g id="text_14">
      <!-- -20 -->
      <g transform="translate(35.6 110.443431)scale(0.1 -0.1)">
       <use xlink:href="#SimHei-2d"/>
       <use x="50" xlink:href="#SimHei-32"/>
       <use x="100" xlink:href="#SimHei-30"/>
      </g>
     </g>
    </g>
    <g id="ytick_7">
     <g id="line2d_27">
      <path clip-path="url(#p5192fc53c7)" d="M 57.6 67.298745 
L 414.72 67.298745 
" style="fill:none;stroke:#b0b0b0;stroke-linecap:square;stroke-width:0.8;"/>
     </g>
     <g id="line2d_28">
      <g>
       <use style="stroke:#000000;stroke-width:0.8;" x="57.6" xlink:href="#mbe81438e1d" y="67.298745"/>
      </g>
     </g>
     <g id="text_15">
      <!-- -10 -->
      <g transform="translate(35.6 70.736245)scale(0.1 -0.1)">
       <use xlink:href="#SimHei-2d"/>
       <use x="50" xlink:href="#SimHei-31"/>
       <use x="100" xlink:href="#SimHei-30"/>
      </g>
     </g>
    </g>
    <g id="text_16">
     <!-- Y Position [m] -->
     <defs>
      <path d="M 47.265625 68.75 
L 28.90625 32.03125 
L 28.90625 1.953125 
L 19.921875 1.953125 
L 19.921875 32.03125 
L 1.5625 68.75 
L 10.546875 68.75 
L 24.21875 40.234375 
L 24.609375 40.234375 
L 38.28125 68.75 
z
" id="SimHei-59"/>
     </defs>
     <g transform="translate(29.975 220.028)rotate(-90)scale(0.13 -0.13)">
      <use xlink:href="#SimHei-59"/>
      <use x="50" xlink:href="#SimHei-20"/>
      <use x="100" xlink:href="#SimHei-50"/>
      <use x="150" xlink:href="#SimHei-6f"/>
      <use x="200" xlink:href="#SimHei-73"/>
      <use x="250" xlink:href="#SimHei-69"/>
      <use x="300" xlink:href="#SimHei-74"/>
      <use x="350" xlink:href="#SimHei-69"/>
      <use x="400" xlink:href="#SimHei-6f"/>
      <use x="450" xlink:href="#SimHei-6e"/>
      <use x="500" xlink:href="#SimHei-20"/>
      <use x="550" xlink:href="#SimHei-5b"/>
      <use x="600" xlink:href="#SimHei-6d"/>
      <use x="650" xlink:href="#SimHei-5d"/>
     </g>
    </g>
   </g>
   <g id="line2d_29">
    <path clip-path="url(#p5192fc53c7)" d="M 73.832727 53.568 
L 74.897627 54.822747 
L 76.231441 56.204557 
L 78.199891 57.403714 
L 84.406427 60.75103 
L 86.342609 61.874743 
L 91.527271 64.475564 
L 99.078378 68.343044 
L 105.112809 70.888274 
L 111.233292 73.501007 
L 114.5248 74.735901 
L 126.120374 78.234104 
L 133.725263 80.350497 
L 142.384295 82.288207 
L 155.657892 84.936677 
L 173.933291 87.898833 
L 192.316254 90.499653 
L 215.475132 93.672258 
L 224.854854 94.645084 
L 233.180432 95.95145 
L 241.936274 97.027515 
L 246.066793 97.460323 
L 258.587431 99.425829 
L 267.074358 100.533659 
L 283.112392 103.996126 
L 286.522222 105.119839 
L 290.254749 106.056929 
L 299.957167 109.011143 
L 306.249756 111.441223 
L 313.047903 114.216756 
L 325.417949 119.978268 
L 327.902715 121.348166 
L 332.571063 124.346059 
L 335.61517 125.819195 
L 338.368849 127.276449 
L 343.40292 130.472877 
L 345.586502 132.104843 
L 348.383208 133.756662 
L 353.148365 136.965002 
L 355.342704 138.759767 
L 357.311155 140.522766 
L 359.45171 142.218263 
L 363.367099 145.871324 
L 365.088149 147.733591 
L 368.347387 151.64872 
L 369.724227 153.58643 
L 373.316918 159.816488 
L 374.198956 162.103622 
L 375.446718 166.435676 
L 375.855467 168.659278 
L 376.006059 171.10127 
L 375.737145 173.209721 
L 375.285369 175.552445 
L 374.607706 179.952002 
L 373.973069 182.409876 
L 372.101427 186.837228 
L 368.895971 193.901136 
L 368.218308 196.069148 
L 364.561077 205.257391 
L 364.58259 207.508788 
L 364.464268 209.756215 
L 363.098185 216.772475 
L 363.646769 219.218438 
L 364.345946 221.446011 
L 364.894531 223.737115 
L 365.088149 226.258522 
L 365.389332 228.617128 
L 366.282127 230.777199 
L 366.927521 233.191396 
L 367.949394 235.458677 
L 371.197876 240.390309 
L 372.305802 242.649648 
L 373.693398 244.964577 
L 374.726028 247.343037 
L 376.081355 249.959741 
L 377.899214 252.350113 
L 378.770495 254.470477 
L 380.061283 256.872762 
L 380.921807 259.084452 
L 382.018977 261.347762 
L 383.374304 263.833432 
L 384.353151 266.096741 
L 388.042651 273.240064 
L 389.397978 275.554993 
L 391.603073 280.482654 
L 393.894221 285.497672 
L 394.787015 287.951576 
L 397.228755 292.791882 
L 398.487273 295.488 
L 398.487273 295.488 
" style="fill:none;stroke:#ff0000;stroke-linecap:square;stroke-width:1.5;"/>
    <defs>
     <path d="M 0 -3 
L -0.673542 -0.927051 
L -2.85317 -0.927051 
L -1.089814 0.354102 
L -1.763356 2.427051 
L -0 1.145898 
L 1.763356 2.427051 
L 1.089814 0.354102 
L 2.85317 -0.927051 
L 0.673542 -0.927051 
z
" id="md64455b81b" style="stroke:#ff0000;stroke-linejoin:bevel;"/>
    </defs>
    <g clip-path="url(#p5192fc53c7)">
     <use style="fill:#ff0000;stroke:#ff0000;stroke-linejoin:bevel;" x="73.832727" xlink:href="#md64455b81b" y="53.568"/>
     <use style="fill:#ff0000;stroke:#ff0000;stroke-linejoin:bevel;" x="74.897627" xlink:href="#md64455b81b" y="54.822747"/>
     <use style="fill:#ff0000;stroke:#ff0000;stroke-linejoin:bevel;" x="76.231441" xlink:href="#md64455b81b" y="56.204557"/>
     <use style="fill:#ff0000;stroke:#ff0000;stroke-linejoin:bevel;" x="78.199891" xlink:href="#md64455b81b" y="57.403714"/>
     <use style="fill:#ff0000;stroke:#ff0000;stroke-linejoin:bevel;" x="80.243638" xlink:href="#md64455b81b" y="58.48772"/>
     <use style="fill:#ff0000;stroke:#ff0000;stroke-linejoin:bevel;" x="82.502516" xlink:href="#md64455b81b" y="59.698789"/>
     <use style="fill:#ff0000;stroke:#ff0000;stroke-linejoin:bevel;" x="84.406427" xlink:href="#md64455b81b" y="60.75103"/>
     <use style="fill:#ff0000;stroke:#ff0000;stroke-linejoin:bevel;" x="86.342609" xlink:href="#md64455b81b" y="61.874743"/>
     <use style="fill:#ff0000;stroke:#ff0000;stroke-linejoin:bevel;" x="89.064019" xlink:href="#md64455b81b" y="63.200963"/>
     <use style="fill:#ff0000;stroke:#ff0000;stroke-linejoin:bevel;" x="91.527271" xlink:href="#md64455b81b" y="64.475564"/>
     <use style="fill:#ff0000;stroke:#ff0000;stroke-linejoin:bevel;" x="93.925985" xlink:href="#md64455b81b" y="65.730311"/>
     <use style="fill:#ff0000;stroke:#ff0000;stroke-linejoin:bevel;" x="96.486046" xlink:href="#md64455b81b" y="67.124033"/>
     <use style="fill:#ff0000;stroke:#ff0000;stroke-linejoin:bevel;" x="99.078378" xlink:href="#md64455b81b" y="68.343044"/>
     <use style="fill:#ff0000;stroke:#ff0000;stroke-linejoin:bevel;" x="102.014919" xlink:href="#md64455b81b" y="69.542201"/>
     <use style="fill:#ff0000;stroke:#ff0000;stroke-linejoin:bevel;" x="105.112809" xlink:href="#md64455b81b" y="70.888274"/>
     <use style="fill:#ff0000;stroke:#ff0000;stroke-linejoin:bevel;" x="108.08162" xlink:href="#md64455b81b" y="72.202582"/>
     <use style="fill:#ff0000;stroke:#ff0000;stroke-linejoin:bevel;" x="111.233292" xlink:href="#md64455b81b" y="73.501007"/>
     <use style="fill:#ff0000;stroke:#ff0000;stroke-linejoin:bevel;" x="114.5248" xlink:href="#md64455b81b" y="74.735901"/>
     <use style="fill:#ff0000;stroke:#ff0000;stroke-linejoin:bevel;" x="118.547754" xlink:href="#md64455b81b" y="75.962853"/>
     <use style="fill:#ff0000;stroke:#ff0000;stroke-linejoin:bevel;" x="122.194229" xlink:href="#md64455b81b" y="77.062742"/>
     <use style="fill:#ff0000;stroke:#ff0000;stroke-linejoin:bevel;" x="126.120374" xlink:href="#md64455b81b" y="78.234104"/>
     <use style="fill:#ff0000;stroke:#ff0000;stroke-linejoin:bevel;" x="129.874414" xlink:href="#md64455b81b" y="79.282374"/>
     <use style="fill:#ff0000;stroke:#ff0000;stroke-linejoin:bevel;" x="133.725263" xlink:href="#md64455b81b" y="80.350497"/>
     <use style="fill:#ff0000;stroke:#ff0000;stroke-linejoin:bevel;" x="137.931078" xlink:href="#md64455b81b" y="81.323323"/>
     <use style="fill:#ff0000;stroke:#ff0000;stroke-linejoin:bevel;" x="142.384295" xlink:href="#md64455b81b" y="82.288207"/>
     <use style="fill:#ff0000;stroke:#ff0000;stroke-linejoin:bevel;" x="146.590111" xlink:href="#md64455b81b" y="83.149853"/>
     <use style="fill:#ff0000;stroke:#ff0000;stroke-linejoin:bevel;" x="150.903492" xlink:href="#md64455b81b" y="84.023411"/>
     <use style="fill:#ff0000;stroke:#ff0000;stroke-linejoin:bevel;" x="155.657892" xlink:href="#md64455b81b" y="84.936677"/>
     <use style="fill:#ff0000;stroke:#ff0000;stroke-linejoin:bevel;" x="160.057326" xlink:href="#md64455b81b" y="85.67523"/>
     <use style="fill:#ff0000;stroke:#ff0000;stroke-linejoin:bevel;" x="164.757943" xlink:href="#md64455b81b" y="86.481286"/>
     <use style="fill:#ff0000;stroke:#ff0000;stroke-linejoin:bevel;" x="169.286456" xlink:href="#md64455b81b" y="87.188074"/>
     <use style="fill:#ff0000;stroke:#ff0000;stroke-linejoin:bevel;" x="173.933291" xlink:href="#md64455b81b" y="87.898833"/>
     <use style="fill:#ff0000;stroke:#ff0000;stroke-linejoin:bevel;" x="178.623151" xlink:href="#md64455b81b" y="88.585767"/>
     <use style="fill:#ff0000;stroke:#ff0000;stroke-linejoin:bevel;" x="183.280743" xlink:href="#md64455b81b" y="89.272701"/>
     <use style="fill:#ff0000;stroke:#ff0000;stroke-linejoin:bevel;" x="187.723203" xlink:href="#md64455b81b" y="89.868309"/>
     <use style="fill:#ff0000;stroke:#ff0000;stroke-linejoin:bevel;" x="192.316254" xlink:href="#md64455b81b" y="90.499653"/>
     <use style="fill:#ff0000;stroke:#ff0000;stroke-linejoin:bevel;" x="197.447134" xlink:href="#md64455b81b" y="91.214383"/>
     <use style="fill:#ff0000;stroke:#ff0000;stroke-linejoin:bevel;" x="202.266074" xlink:href="#md64455b81b" y="91.825873"/>
     <use style="fill:#ff0000;stroke:#ff0000;stroke-linejoin:bevel;" x="206.385837" xlink:href="#md64455b81b" y="92.445306"/>
     <use style="fill:#ff0000;stroke:#ff0000;stroke-linejoin:bevel;" x="211.086455" xlink:href="#md64455b81b" y="93.108416"/>
     <use style="fill:#ff0000;stroke:#ff0000;stroke-linejoin:bevel;" x="215.475132" xlink:href="#md64455b81b" y="93.672258"/>
     <use style="fill:#ff0000;stroke:#ff0000;stroke-linejoin:bevel;" x="219.896079" xlink:href="#md64455b81b" y="94.164627"/>
     <use style="fill:#ff0000;stroke:#ff0000;stroke-linejoin:bevel;" x="224.854854" xlink:href="#md64455b81b" y="94.645084"/>
     <use style="fill:#ff0000;stroke:#ff0000;stroke-linejoin:bevel;" x="228.985373" xlink:href="#md64455b81b" y="95.308194"/>
     <use style="fill:#ff0000;stroke:#ff0000;stroke-linejoin:bevel;" x="233.180432" xlink:href="#md64455b81b" y="95.95145"/>
     <use style="fill:#ff0000;stroke:#ff0000;stroke-linejoin:bevel;" x="237.805754" xlink:href="#md64455b81b" y="96.551029"/>
     <use style="fill:#ff0000;stroke:#ff0000;stroke-linejoin:bevel;" x="241.936274" xlink:href="#md64455b81b" y="97.027515"/>
     <use style="fill:#ff0000;stroke:#ff0000;stroke-linejoin:bevel;" x="246.066793" xlink:href="#md64455b81b" y="97.460323"/>
     <use style="fill:#ff0000;stroke:#ff0000;stroke-linejoin:bevel;" x="250.563036" xlink:href="#md64455b81b" y="98.186965"/>
     <use style="fill:#ff0000;stroke:#ff0000;stroke-linejoin:bevel;" x="254.58599" xlink:href="#md64455b81b" y="98.842133"/>
     <use style="fill:#ff0000;stroke:#ff0000;stroke-linejoin:bevel;" x="258.587431" xlink:href="#md64455b81b" y="99.425829"/>
     <use style="fill:#ff0000;stroke:#ff0000;stroke-linejoin:bevel;" x="263.062161" xlink:href="#md64455b81b" y="99.969817"/>
     <use style="fill:#ff0000;stroke:#ff0000;stroke-linejoin:bevel;" x="267.074358" xlink:href="#md64455b81b" y="100.533659"/>
     <use style="fill:#ff0000;stroke:#ff0000;stroke-linejoin:bevel;" x="271.04353" xlink:href="#md64455b81b" y="101.415159"/>
     <use style="fill:#ff0000;stroke:#ff0000;stroke-linejoin:bevel;" x="275.48599" xlink:href="#md64455b81b" y="102.308571"/>
     <use style="fill:#ff0000;stroke:#ff0000;stroke-linejoin:bevel;" x="279.326082" xlink:href="#md64455b81b" y="103.162275"/>
     <use style="fill:#ff0000;stroke:#ff0000;stroke-linejoin:bevel;" x="283.112392" xlink:href="#md64455b81b" y="103.996126"/>
     <use style="fill:#ff0000;stroke:#ff0000;stroke-linejoin:bevel;" x="286.522222" xlink:href="#md64455b81b" y="105.119839"/>
     <use style="fill:#ff0000;stroke:#ff0000;stroke-linejoin:bevel;" x="290.254749" xlink:href="#md64455b81b" y="106.056929"/>
     <use style="fill:#ff0000;stroke:#ff0000;stroke-linejoin:bevel;" x="293.460204" xlink:href="#md64455b81b" y="107.049609"/>
     <use style="fill:#ff0000;stroke:#ff0000;stroke-linejoin:bevel;" x="296.558094" xlink:href="#md64455b81b" y="107.99464"/>
     <use style="fill:#ff0000;stroke:#ff0000;stroke-linejoin:bevel;" x="299.957167" xlink:href="#md64455b81b" y="109.011143"/>
     <use style="fill:#ff0000;stroke:#ff0000;stroke-linejoin:bevel;" x="302.861439" xlink:href="#md64455b81b" y="110.091179"/>
     <use style="fill:#ff0000;stroke:#ff0000;stroke-linejoin:bevel;" x="306.249756" xlink:href="#md64455b81b" y="111.441223"/>
     <use style="fill:#ff0000;stroke:#ff0000;stroke-linejoin:bevel;" x="309.896231" xlink:href="#md64455b81b" y="112.954067"/>
     <use style="fill:#ff0000;stroke:#ff0000;stroke-linejoin:bevel;" x="313.047903" xlink:href="#md64455b81b" y="114.216756"/>
     <use style="fill:#ff0000;stroke:#ff0000;stroke-linejoin:bevel;" x="316.135036" xlink:href="#md64455b81b" y="115.666068"/>
     <use style="fill:#ff0000;stroke:#ff0000;stroke-linejoin:bevel;" x="319.394274" xlink:href="#md64455b81b" y="117.22656"/>
     <use style="fill:#ff0000;stroke:#ff0000;stroke-linejoin:bevel;" x="322.363086" xlink:href="#md64455b81b" y="118.560722"/>
     <use style="fill:#ff0000;stroke:#ff0000;stroke-linejoin:bevel;" x="325.417949" xlink:href="#md64455b81b" y="119.978268"/>
     <use style="fill:#ff0000;stroke:#ff0000;stroke-linejoin:bevel;" x="327.902715" xlink:href="#md64455b81b" y="121.348166"/>
     <use style="fill:#ff0000;stroke:#ff0000;stroke-linejoin:bevel;" x="330.204619" xlink:href="#md64455b81b" y="122.781596"/>
     <use style="fill:#ff0000;stroke:#ff0000;stroke-linejoin:bevel;" x="332.571063" xlink:href="#md64455b81b" y="124.346059"/>
     <use style="fill:#ff0000;stroke:#ff0000;stroke-linejoin:bevel;" x="335.61517" xlink:href="#md64455b81b" y="125.819195"/>
     <use style="fill:#ff0000;stroke:#ff0000;stroke-linejoin:bevel;" x="338.368849" xlink:href="#md64455b81b" y="127.276449"/>
     <use style="fill:#ff0000;stroke:#ff0000;stroke-linejoin:bevel;" x="341.047233" xlink:href="#md64455b81b" y="128.936209"/>
     <use style="fill:#ff0000;stroke:#ff0000;stroke-linejoin:bevel;" x="343.40292" xlink:href="#md64455b81b" y="130.472877"/>
     <use style="fill:#ff0000;stroke:#ff0000;stroke-linejoin:bevel;" x="345.586502" xlink:href="#md64455b81b" y="132.104843"/>
     <use style="fill:#ff0000;stroke:#ff0000;stroke-linejoin:bevel;" x="348.383208" xlink:href="#md64455b81b" y="133.756662"/>
     <use style="fill:#ff0000;stroke:#ff0000;stroke-linejoin:bevel;" x="350.824948" xlink:href="#md64455b81b" y="135.340978"/>
     <use style="fill:#ff0000;stroke:#ff0000;stroke-linejoin:bevel;" x="353.148365" xlink:href="#md64455b81b" y="136.965002"/>
     <use style="fill:#ff0000;stroke:#ff0000;stroke-linejoin:bevel;" x="355.342704" xlink:href="#md64455b81b" y="138.759767"/>
     <use style="fill:#ff0000;stroke:#ff0000;stroke-linejoin:bevel;" x="357.311155" xlink:href="#md64455b81b" y="140.522766"/>
     <use style="fill:#ff0000;stroke:#ff0000;stroke-linejoin:bevel;" x="359.45171" xlink:href="#md64455b81b" y="142.218263"/>
     <use style="fill:#ff0000;stroke:#ff0000;stroke-linejoin:bevel;" x="361.495457" xlink:href="#md64455b81b" y="144.120237"/>
     <use style="fill:#ff0000;stroke:#ff0000;stroke-linejoin:bevel;" x="363.367099" xlink:href="#md64455b81b" y="145.871324"/>
     <use style="fill:#ff0000;stroke:#ff0000;stroke-linejoin:bevel;" x="365.088149" xlink:href="#md64455b81b" y="147.733591"/>
     <use style="fill:#ff0000;stroke:#ff0000;stroke-linejoin:bevel;" x="366.787685" xlink:href="#md64455b81b" y="149.77454"/>
     <use style="fill:#ff0000;stroke:#ff0000;stroke-linejoin:bevel;" x="368.347387" xlink:href="#md64455b81b" y="151.64872"/>
     <use style="fill:#ff0000;stroke:#ff0000;stroke-linejoin:bevel;" x="369.724227" xlink:href="#md64455b81b" y="153.58643"/>
     <use style="fill:#ff0000;stroke:#ff0000;stroke-linejoin:bevel;" x="370.982744" xlink:href="#md64455b81b" y="155.734589"/>
     <use style="fill:#ff0000;stroke:#ff0000;stroke-linejoin:bevel;" x="372.241262" xlink:href="#md64455b81b" y="157.755685"/>
     <use style="fill:#ff0000;stroke:#ff0000;stroke-linejoin:bevel;" x="373.316918" xlink:href="#md64455b81b" y="159.816488"/>
     <use style="fill:#ff0000;stroke:#ff0000;stroke-linejoin:bevel;" x="374.198956" xlink:href="#md64455b81b" y="162.103622"/>
     <use style="fill:#ff0000;stroke:#ff0000;stroke-linejoin:bevel;" x="374.855107" xlink:href="#md64455b81b" y="164.271634"/>
     <use style="fill:#ff0000;stroke:#ff0000;stroke-linejoin:bevel;" x="375.446718" xlink:href="#md64455b81b" y="166.435676"/>
     <use style="fill:#ff0000;stroke:#ff0000;stroke-linejoin:bevel;" x="375.855467" xlink:href="#md64455b81b" y="168.659278"/>
     <use style="fill:#ff0000;stroke:#ff0000;stroke-linejoin:bevel;" x="376.006059" xlink:href="#md64455b81b" y="171.10127"/>
     <use style="fill:#ff0000;stroke:#ff0000;stroke-linejoin:bevel;" x="375.737145" xlink:href="#md64455b81b" y="173.209721"/>
     <use style="fill:#ff0000;stroke:#ff0000;stroke-linejoin:bevel;" x="375.285369" xlink:href="#md64455b81b" y="175.552445"/>
     <use style="fill:#ff0000;stroke:#ff0000;stroke-linejoin:bevel;" x="374.994942" xlink:href="#md64455b81b" y="177.73237"/>
     <use style="fill:#ff0000;stroke:#ff0000;stroke-linejoin:bevel;" x="374.607706" xlink:href="#md64455b81b" y="179.952002"/>
     <use style="fill:#ff0000;stroke:#ff0000;stroke-linejoin:bevel;" x="373.973069" xlink:href="#md64455b81b" y="182.409876"/>
     <use style="fill:#ff0000;stroke:#ff0000;stroke-linejoin:bevel;" x="373.101787" xlink:href="#md64455b81b" y="184.609654"/>
     <use style="fill:#ff0000;stroke:#ff0000;stroke-linejoin:bevel;" x="372.101427" xlink:href="#md64455b81b" y="186.837228"/>
     <use style="fill:#ff0000;stroke:#ff0000;stroke-linejoin:bevel;" x="370.961231" xlink:href="#md64455b81b" y="189.307015"/>
     <use style="fill:#ff0000;stroke:#ff0000;stroke-linejoin:bevel;" x="369.960871" xlink:href="#md64455b81b" y="191.594148"/>
     <use style="fill:#ff0000;stroke:#ff0000;stroke-linejoin:bevel;" x="368.895971" xlink:href="#md64455b81b" y="193.901136"/>
     <use style="fill:#ff0000;stroke:#ff0000;stroke-linejoin:bevel;" x="368.218308" xlink:href="#md64455b81b" y="196.069148"/>
     <use style="fill:#ff0000;stroke:#ff0000;stroke-linejoin:bevel;" x="367.250218" xlink:href="#md64455b81b" y="198.451579"/>
     <use style="fill:#ff0000;stroke:#ff0000;stroke-linejoin:bevel;" x="366.411206" xlink:href="#md64455b81b" y="200.623562"/>
     <use style="fill:#ff0000;stroke:#ff0000;stroke-linejoin:bevel;" x="365.367819" xlink:href="#md64455b81b" y="203.04173"/>
     <use style="fill:#ff0000;stroke:#ff0000;stroke-linejoin:bevel;" x="364.561077" xlink:href="#md64455b81b" y="205.257391"/>
     <use style="fill:#ff0000;stroke:#ff0000;stroke-linejoin:bevel;" x="364.58259" xlink:href="#md64455b81b" y="207.508788"/>
     <use style="fill:#ff0000;stroke:#ff0000;stroke-linejoin:bevel;" x="364.464268" xlink:href="#md64455b81b" y="209.756215"/>
     <use style="fill:#ff0000;stroke:#ff0000;stroke-linejoin:bevel;" x="363.95871" xlink:href="#md64455b81b" y="212.206149"/>
     <use style="fill:#ff0000;stroke:#ff0000;stroke-linejoin:bevel;" x="363.592987" xlink:href="#md64455b81b" y="214.493282"/>
     <use style="fill:#ff0000;stroke:#ff0000;stroke-linejoin:bevel;" x="363.098185" xlink:href="#md64455b81b" y="216.772475"/>
     <use style="fill:#ff0000;stroke:#ff0000;stroke-linejoin:bevel;" x="363.646769" xlink:href="#md64455b81b" y="219.218438"/>
     <use style="fill:#ff0000;stroke:#ff0000;stroke-linejoin:bevel;" x="364.345946" xlink:href="#md64455b81b" y="221.446011"/>
     <use style="fill:#ff0000;stroke:#ff0000;stroke-linejoin:bevel;" x="364.894531" xlink:href="#md64455b81b" y="223.737115"/>
     <use style="fill:#ff0000;stroke:#ff0000;stroke-linejoin:bevel;" x="365.088149" xlink:href="#md64455b81b" y="226.258522"/>
     <use style="fill:#ff0000;stroke:#ff0000;stroke-linejoin:bevel;" x="365.389332" xlink:href="#md64455b81b" y="228.617128"/>
     <use style="fill:#ff0000;stroke:#ff0000;stroke-linejoin:bevel;" x="366.282127" xlink:href="#md64455b81b" y="230.777199"/>
     <use style="fill:#ff0000;stroke:#ff0000;stroke-linejoin:bevel;" x="366.927521" xlink:href="#md64455b81b" y="233.191396"/>
     <use style="fill:#ff0000;stroke:#ff0000;stroke-linejoin:bevel;" x="367.949394" xlink:href="#md64455b81b" y="235.458677"/>
     <use style="fill:#ff0000;stroke:#ff0000;stroke-linejoin:bevel;" x="369.455313" xlink:href="#md64455b81b" y="237.773605"/>
     <use style="fill:#ff0000;stroke:#ff0000;stroke-linejoin:bevel;" x="371.197876" xlink:href="#md64455b81b" y="240.390309"/>
     <use style="fill:#ff0000;stroke:#ff0000;stroke-linejoin:bevel;" x="372.305802" xlink:href="#md64455b81b" y="242.649648"/>
     <use style="fill:#ff0000;stroke:#ff0000;stroke-linejoin:bevel;" x="373.693398" xlink:href="#md64455b81b" y="244.964577"/>
     <use style="fill:#ff0000;stroke:#ff0000;stroke-linejoin:bevel;" x="374.726028" xlink:href="#md64455b81b" y="247.343037"/>
     <use style="fill:#ff0000;stroke:#ff0000;stroke-linejoin:bevel;" x="376.081355" xlink:href="#md64455b81b" y="249.959741"/>
     <use style="fill:#ff0000;stroke:#ff0000;stroke-linejoin:bevel;" x="377.899214" xlink:href="#md64455b81b" y="252.350113"/>
     <use style="fill:#ff0000;stroke:#ff0000;stroke-linejoin:bevel;" x="378.770495" xlink:href="#md64455b81b" y="254.470477"/>
     <use style="fill:#ff0000;stroke:#ff0000;stroke-linejoin:bevel;" x="380.061283" xlink:href="#md64455b81b" y="256.872762"/>
     <use style="fill:#ff0000;stroke:#ff0000;stroke-linejoin:bevel;" x="380.921807" xlink:href="#md64455b81b" y="259.084452"/>
     <use style="fill:#ff0000;stroke:#ff0000;stroke-linejoin:bevel;" x="382.018977" xlink:href="#md64455b81b" y="261.347762"/>
     <use style="fill:#ff0000;stroke:#ff0000;stroke-linejoin:bevel;" x="383.374304" xlink:href="#md64455b81b" y="263.833432"/>
     <use style="fill:#ff0000;stroke:#ff0000;stroke-linejoin:bevel;" x="384.353151" xlink:href="#md64455b81b" y="266.096741"/>
     <use style="fill:#ff0000;stroke:#ff0000;stroke-linejoin:bevel;" x="385.493346" xlink:href="#md64455b81b" y="268.375934"/>
     <use style="fill:#ff0000;stroke:#ff0000;stroke-linejoin:bevel;" x="386.85943" xlink:href="#md64455b81b" y="270.913223"/>
     <use style="fill:#ff0000;stroke:#ff0000;stroke-linejoin:bevel;" x="388.042651" xlink:href="#md64455b81b" y="273.240064"/>
     <use style="fill:#ff0000;stroke:#ff0000;stroke-linejoin:bevel;" x="389.397978" xlink:href="#md64455b81b" y="275.554993"/>
     <use style="fill:#ff0000;stroke:#ff0000;stroke-linejoin:bevel;" x="390.387582" xlink:href="#md64455b81b" y="277.889775"/>
     <use style="fill:#ff0000;stroke:#ff0000;stroke-linejoin:bevel;" x="391.603073" xlink:href="#md64455b81b" y="280.482654"/>
     <use style="fill:#ff0000;stroke:#ff0000;stroke-linejoin:bevel;" x="392.667973" xlink:href="#md64455b81b" y="282.857144"/>
     <use style="fill:#ff0000;stroke:#ff0000;stroke-linejoin:bevel;" x="393.894221" xlink:href="#md64455b81b" y="285.497672"/>
     <use style="fill:#ff0000;stroke:#ff0000;stroke-linejoin:bevel;" x="394.787015" xlink:href="#md64455b81b" y="287.951576"/>
     <use style="fill:#ff0000;stroke:#ff0000;stroke-linejoin:bevel;" x="396.05629" xlink:href="#md64455b81b" y="290.357832"/>
     <use style="fill:#ff0000;stroke:#ff0000;stroke-linejoin:bevel;" x="397.228755" xlink:href="#md64455b81b" y="292.791882"/>
     <use style="fill:#ff0000;stroke:#ff0000;stroke-linejoin:bevel;" x="398.487273" xlink:href="#md64455b81b" y="295.488"/>
    </g>
   </g>
   <g id="line2d_30">
    <path clip-path="url(#p5192fc53c7)" d="M 73.832727 53.568 
L 74.876114 54.798923 
L 76.177658 55.966314 
L 79.781106 58.479779 
L 81.910905 59.70276 
L 93.839932 65.635014 
L 98.884759 68.2676 
L 114.438748 74.716047 
L 121.957584 77.074654 
L 129.799118 79.274432 
L 137.866539 81.319352 
L 146.493302 83.149853 
L 155.367465 84.837409 
L 169.168134 87.084836 
L 183.269986 89.086078 
L 220.670551 93.989915 
L 229.835142 95.117599 
L 264.094791 99.942022 
L 272.205238 101.252359 
L 280.175851 102.8605 
L 284.0267 103.726117 
L 291.265866 105.723389 
L 297.934934 107.843752 
L 304.130713 110.047501 
L 310.046822 112.572878 
L 315.812339 115.296791 
L 326.999164 121.165513 
L 331.990208 124.191201 
L 342.327264 130.353756 
L 354.546718 138.493729 
L 358.924639 141.940313 
L 363.001376 145.513959 
L 364.862261 147.348431 
L 368.207552 151.160321 
L 369.6812 153.105973 
L 372.176723 157.148165 
L 373.252379 159.212938 
L 374.15593 161.345214 
L 374.87662 163.509256 
L 375.457474 165.697122 
L 375.866223 167.912783 
L 376.081355 170.199917 
L 376.016815 172.467197 
L 375.694118 174.774185 
L 374.704515 179.348452 
L 374.016095 181.683235 
L 373.166326 183.994193 
L 372.165966 186.29721 
L 366.475745 197.994947 
L 363.58223 204.995324 
L 363.033645 207.330106 
L 362.495817 212.011583 
L 362.151607 216.68909 
L 362.345225 219.055638 
L 362.86154 221.394391 
L 364.9268 228.434475 
L 366.701633 233.076245 
L 367.745019 235.391174 
L 369.05732 237.694191 
L 375.177804 247.073028 
L 376.59767 249.479284 
L 378.189641 251.893481 
L 380.911051 256.634519 
L 384.267098 263.706369 
L 388.419131 273.148737 
L 390.61347 277.865951 
L 393.797412 285.140307 
L 395.862672 290.075911 
L 398.110793 295.055192 
L 398.110793 295.055192 
" style="fill:none;stroke:#0000ff;stroke-linecap:square;stroke-width:1.5;"/>
    <defs>
     <path d="M -3 3 
L 3 -3 
M -3 -3 
L 3 3 
" id="m538de8645e" style="stroke:#0000ff;"/>
    </defs>
    <g clip-path="url(#p5192fc53c7)">
     <use style="fill:#0000ff;stroke:#0000ff;" x="73.832727" xlink:href="#m538de8645e" y="53.568"/>
     <use style="fill:#0000ff;stroke:#0000ff;" x="74.876114" xlink:href="#m538de8645e" y="54.798923"/>
     <use style="fill:#0000ff;stroke:#0000ff;" x="76.177658" xlink:href="#m538de8645e" y="55.966314"/>
     <use style="fill:#0000ff;stroke:#0000ff;" x="77.974004" xlink:href="#m538de8645e" y="57.284593"/>
     <use style="fill:#0000ff;stroke:#0000ff;" x="79.781106" xlink:href="#m538de8645e" y="58.479779"/>
     <use style="fill:#0000ff;stroke:#0000ff;" x="81.910905" xlink:href="#m538de8645e" y="59.70276"/>
     <use style="fill:#0000ff;stroke:#0000ff;" x="84.062217" xlink:href="#m538de8645e" y="60.762942"/>
     <use style="fill:#0000ff;stroke:#0000ff;" x="86.224286" xlink:href="#m538de8645e" y="61.839007"/>
     <use style="fill:#0000ff;stroke:#0000ff;" x="88.859644" xlink:href="#m538de8645e" y="63.101695"/>
     <use style="fill:#0000ff;stroke:#0000ff;" x="91.408949" xlink:href="#m538de8645e" y="64.372325"/>
     <use style="fill:#0000ff;stroke:#0000ff;" x="93.839932" xlink:href="#m538de8645e" y="65.635014"/>
     <use style="fill:#0000ff;stroke:#0000ff;" x="96.346211" xlink:href="#m538de8645e" y="67.004912"/>
     <use style="fill:#0000ff;stroke:#0000ff;" x="98.884759" xlink:href="#m538de8645e" y="68.2676"/>
     <use style="fill:#0000ff;stroke:#0000ff;" x="101.778275" xlink:href="#m538de8645e" y="69.48264"/>
     <use style="fill:#0000ff;stroke:#0000ff;" x="104.865408" xlink:href="#m538de8645e" y="70.785036"/>
     <use style="fill:#0000ff;stroke:#0000ff;" x="107.963298" xlink:href="#m538de8645e" y="72.115226"/>
     <use style="fill:#0000ff;stroke:#0000ff;" x="111.14724" xlink:href="#m538de8645e" y="73.441446"/>
     <use style="fill:#0000ff;stroke:#0000ff;" x="114.438748" xlink:href="#m538de8645e" y="74.716047"/>
     <use style="fill:#0000ff;stroke:#0000ff;" x="118.149762" xlink:href="#m538de8645e" y="75.931087"/>
     <use style="fill:#0000ff;stroke:#0000ff;" x="121.957584" xlink:href="#m538de8645e" y="77.074654"/>
     <use style="fill:#0000ff;stroke:#0000ff;" x="125.872973" xlink:href="#m538de8645e" y="78.198367"/>
     <use style="fill:#0000ff;stroke:#0000ff;" x="129.799118" xlink:href="#m538de8645e" y="79.274432"/>
     <use style="fill:#0000ff;stroke:#0000ff;" x="133.757533" xlink:href="#m538de8645e" y="80.326672"/>
     <use style="fill:#0000ff;stroke:#0000ff;" x="137.866539" xlink:href="#m538de8645e" y="81.319352"/>
     <use style="fill:#0000ff;stroke:#0000ff;" x="142.158407" xlink:href="#m538de8645e" y="82.260412"/>
     <use style="fill:#0000ff;stroke:#0000ff;" x="146.493302" xlink:href="#m538de8645e" y="83.149853"/>
     <use style="fill:#0000ff;stroke:#0000ff;" x="150.860466" xlink:href="#m538de8645e" y="83.999587"/>
     <use style="fill:#0000ff;stroke:#0000ff;" x="155.367465" xlink:href="#m538de8645e" y="84.837409"/>
     <use style="fill:#0000ff;stroke:#0000ff;" x="159.917491" xlink:href="#m538de8645e" y="85.611699"/>
     <use style="fill:#0000ff;stroke:#0000ff;" x="164.532056" xlink:href="#m538de8645e" y="86.370106"/>
     <use style="fill:#0000ff;stroke:#0000ff;" x="169.168134" xlink:href="#m538de8645e" y="87.084836"/>
     <use style="fill:#0000ff;stroke:#0000ff;" x="173.836481" xlink:href="#m538de8645e" y="87.77177"/>
     <use style="fill:#0000ff;stroke:#0000ff;" x="178.537099" xlink:href="#m538de8645e" y="88.43488"/>
     <use style="fill:#0000ff;stroke:#0000ff;" x="183.269986" xlink:href="#m538de8645e" y="89.086078"/>
     <use style="fill:#0000ff;stroke:#0000ff;" x="187.938334" xlink:href="#m538de8645e" y="89.70551"/>
     <use style="fill:#0000ff;stroke:#0000ff;" x="192.617438" xlink:href="#m538de8645e" y="90.31303"/>
     <use style="fill:#0000ff;stroke:#0000ff;" x="197.393352" xlink:href="#m538de8645e" y="90.936433"/>
     <use style="fill:#0000ff;stroke:#0000ff;" x="202.180022" xlink:href="#m538de8645e" y="91.543952"/>
     <use style="fill:#0000ff;stroke:#0000ff;" x="206.848369" xlink:href="#m538de8645e" y="92.163385"/>
     <use style="fill:#0000ff;stroke:#0000ff;" x="211.505961" xlink:href="#m538de8645e" y="92.794729"/>
     <use style="fill:#0000ff;stroke:#0000ff;" x="216.109769" xlink:href="#m538de8645e" y="93.41019"/>
     <use style="fill:#0000ff;stroke:#0000ff;" x="220.670551" xlink:href="#m538de8645e" y="93.989915"/>
     <use style="fill:#0000ff;stroke:#0000ff;" x="225.306629" xlink:href="#m538de8645e" y="94.529933"/>
     <use style="fill:#0000ff;stroke:#0000ff;" x="229.835142" xlink:href="#m538de8645e" y="95.117599"/>
     <use style="fill:#0000ff;stroke:#0000ff;" x="234.245332" xlink:href="#m538de8645e" y="95.72909"/>
     <use style="fill:#0000ff;stroke:#0000ff;" x="238.677035" xlink:href="#m538de8645e" y="96.344551"/>
     <use style="fill:#0000ff;stroke:#0000ff;" x="243.044199" xlink:href="#m538de8645e" y="96.928247"/>
     <use style="fill:#0000ff;stroke:#0000ff;" x="247.336068" xlink:href="#m538de8645e" y="97.472235"/>
     <use style="fill:#0000ff;stroke:#0000ff;" x="251.617179" xlink:href="#m538de8645e" y="98.071814"/>
     <use style="fill:#0000ff;stroke:#0000ff;" x="255.812238" xlink:href="#m538de8645e" y="98.703158"/>
     <use style="fill:#0000ff;stroke:#0000ff;" x="259.932001" xlink:href="#m538de8645e" y="99.334502"/>
     <use style="fill:#0000ff;stroke:#0000ff;" x="264.094791" xlink:href="#m538de8645e" y="99.942022"/>
     <use style="fill:#0000ff;stroke:#0000ff;" x="268.193041" xlink:href="#m538de8645e" y="100.549542"/>
     <use style="fill:#0000ff;stroke:#0000ff;" x="272.205238" xlink:href="#m538de8645e" y="101.252359"/>
     <use style="fill:#0000ff;stroke:#0000ff;" x="276.238949" xlink:href="#m538de8645e" y="102.03062"/>
     <use style="fill:#0000ff;stroke:#0000ff;" x="280.175851" xlink:href="#m538de8645e" y="102.8605"/>
     <use style="fill:#0000ff;stroke:#0000ff;" x="284.0267" xlink:href="#m538de8645e" y="103.726117"/>
     <use style="fill:#0000ff;stroke:#0000ff;" x="287.683931" xlink:href="#m538de8645e" y="104.714826"/>
     <use style="fill:#0000ff;stroke:#0000ff;" x="291.265866" xlink:href="#m538de8645e" y="105.723389"/>
     <use style="fill:#0000ff;stroke:#0000ff;" x="294.686452" xlink:href="#m538de8645e" y="106.7796"/>
     <use style="fill:#0000ff;stroke:#0000ff;" x="297.934934" xlink:href="#m538de8645e" y="107.843752"/>
     <use style="fill:#0000ff;stroke:#0000ff;" x="301.118876" xlink:href="#m538de8645e" y="108.927758"/>
     <use style="fill:#0000ff;stroke:#0000ff;" x="304.130713" xlink:href="#m538de8645e" y="110.047501"/>
     <use style="fill:#0000ff;stroke:#0000ff;" x="307.088768" xlink:href="#m538de8645e" y="111.254599"/>
     <use style="fill:#0000ff;stroke:#0000ff;" x="310.046822" xlink:href="#m538de8645e" y="112.572878"/>
     <use style="fill:#0000ff;stroke:#0000ff;" x="312.961851" xlink:href="#m538de8645e" y="113.903069"/>
     <use style="fill:#0000ff;stroke:#0000ff;" x="315.812339" xlink:href="#m538de8645e" y="115.296791"/>
     <use style="fill:#0000ff;stroke:#0000ff;" x="318.641315" xlink:href="#m538de8645e" y="116.761986"/>
     <use style="fill:#0000ff;stroke:#0000ff;" x="321.459534" xlink:href="#m538de8645e" y="118.21924"/>
     <use style="fill:#0000ff;stroke:#0000ff;" x="324.299267" xlink:href="#m538de8645e" y="119.688406"/>
     <use style="fill:#0000ff;stroke:#0000ff;" x="326.999164" xlink:href="#m538de8645e" y="121.165513"/>
     <use style="fill:#0000ff;stroke:#0000ff;" x="329.559225" xlink:href="#m538de8645e" y="122.658503"/>
     <use style="fill:#0000ff;stroke:#0000ff;" x="331.990208" xlink:href="#m538de8645e" y="124.191201"/>
     <use style="fill:#0000ff;stroke:#0000ff;" x="334.561026" xlink:href="#m538de8645e" y="125.715957"/>
     <use style="fill:#0000ff;stroke:#0000ff;" x="337.174871" xlink:href="#m538de8645e" y="127.232771"/>
     <use style="fill:#0000ff;stroke:#0000ff;" x="339.788715" xlink:href="#m538de8645e" y="128.785322"/>
     <use style="fill:#0000ff;stroke:#0000ff;" x="342.327264" xlink:href="#m538de8645e" y="130.353756"/>
     <use style="fill:#0000ff;stroke:#0000ff;" x="344.736734" xlink:href="#m538de8645e" y="131.953955"/>
     <use style="fill:#0000ff;stroke:#0000ff;" x="347.253769" xlink:href="#m538de8645e" y="133.570038"/>
     <use style="fill:#0000ff;stroke:#0000ff;" x="349.749292" xlink:href="#m538de8645e" y="135.18612"/>
     <use style="fill:#0000ff;stroke:#0000ff;" x="352.201788" xlink:href="#m538de8645e" y="136.814115"/>
     <use style="fill:#0000ff;stroke:#0000ff;" x="354.546718" xlink:href="#m538de8645e" y="138.493729"/>
     <use style="fill:#0000ff;stroke:#0000ff;" x="356.76257" xlink:href="#m538de8645e" y="140.21305"/>
     <use style="fill:#0000ff;stroke:#0000ff;" x="358.924639" xlink:href="#m538de8645e" y="141.940313"/>
     <use style="fill:#0000ff;stroke:#0000ff;" x="361.011412" xlink:href="#m538de8645e" y="143.723165"/>
     <use style="fill:#0000ff;stroke:#0000ff;" x="363.001376" xlink:href="#m538de8645e" y="145.513959"/>
     <use style="fill:#0000ff;stroke:#0000ff;" x="364.862261" xlink:href="#m538de8645e" y="147.348431"/>
     <use style="fill:#0000ff;stroke:#0000ff;" x="366.583311" xlink:href="#m538de8645e" y="149.246435"/>
     <use style="fill:#0000ff;stroke:#0000ff;" x="368.207552" xlink:href="#m538de8645e" y="151.160321"/>
     <use style="fill:#0000ff;stroke:#0000ff;" x="369.6812" xlink:href="#m538de8645e" y="153.105973"/>
     <use style="fill:#0000ff;stroke:#0000ff;" x="370.982744" xlink:href="#m538de8645e" y="155.111186"/>
     <use style="fill:#0000ff;stroke:#0000ff;" x="372.176723" xlink:href="#m538de8645e" y="157.148165"/>
     <use style="fill:#0000ff;stroke:#0000ff;" x="373.252379" xlink:href="#m538de8645e" y="159.212938"/>
     <use style="fill:#0000ff;stroke:#0000ff;" x="374.15593" xlink:href="#m538de8645e" y="161.345214"/>
     <use style="fill:#0000ff;stroke:#0000ff;" x="374.87662" xlink:href="#m538de8645e" y="163.509256"/>
     <use style="fill:#0000ff;stroke:#0000ff;" x="375.457474" xlink:href="#m538de8645e" y="165.697122"/>
     <use style="fill:#0000ff;stroke:#0000ff;" x="375.866223" xlink:href="#m538de8645e" y="167.912783"/>
     <use style="fill:#0000ff;stroke:#0000ff;" x="376.081355" xlink:href="#m538de8645e" y="170.199917"/>
     <use style="fill:#0000ff;stroke:#0000ff;" x="376.016815" xlink:href="#m538de8645e" y="172.467197"/>
     <use style="fill:#0000ff;stroke:#0000ff;" x="375.694118" xlink:href="#m538de8645e" y="174.774185"/>
     <use style="fill:#0000ff;stroke:#0000ff;" x="375.242343" xlink:href="#m538de8645e" y="177.065289"/>
     <use style="fill:#0000ff;stroke:#0000ff;" x="374.704515" xlink:href="#m538de8645e" y="179.348452"/>
     <use style="fill:#0000ff;stroke:#0000ff;" x="374.016095" xlink:href="#m538de8645e" y="181.683235"/>
     <use style="fill:#0000ff;stroke:#0000ff;" x="373.166326" xlink:href="#m538de8645e" y="183.994193"/>
     <use style="fill:#0000ff;stroke:#0000ff;" x="372.165966" xlink:href="#m538de8645e" y="186.29721"/>
     <use style="fill:#0000ff;stroke:#0000ff;" x="371.015014" xlink:href="#m538de8645e" y="188.639934"/>
     <use style="fill:#0000ff;stroke:#0000ff;" x="369.831792" xlink:href="#m538de8645e" y="190.982658"/>
     <use style="fill:#0000ff;stroke:#0000ff;" x="368.616301" xlink:href="#m538de8645e" y="193.329352"/>
     <use style="fill:#0000ff;stroke:#0000ff;" x="367.529888" xlink:href="#m538de8645e" y="195.648252"/>
     <use style="fill:#0000ff;stroke:#0000ff;" x="366.475745" xlink:href="#m538de8645e" y="197.994947"/>
     <use style="fill:#0000ff;stroke:#0000ff;" x="365.486141" xlink:href="#m538de8645e" y="200.317817"/>
     <use style="fill:#0000ff;stroke:#0000ff;" x="364.496538" xlink:href="#m538de8645e" y="202.664512"/>
     <use style="fill:#0000ff;stroke:#0000ff;" x="363.58223" xlink:href="#m538de8645e" y="204.995324"/>
     <use style="fill:#0000ff;stroke:#0000ff;" x="363.033645" xlink:href="#m538de8645e" y="207.330106"/>
     <use style="fill:#0000ff;stroke:#0000ff;" x="362.732462" xlink:href="#m538de8645e" y="209.656947"/>
     <use style="fill:#0000ff;stroke:#0000ff;" x="362.495817" xlink:href="#m538de8645e" y="212.011583"/>
     <use style="fill:#0000ff;stroke:#0000ff;" x="362.323712" xlink:href="#m538de8645e" y="214.358278"/>
     <use style="fill:#0000ff;stroke:#0000ff;" x="362.151607" xlink:href="#m538de8645e" y="216.68909"/>
     <use style="fill:#0000ff;stroke:#0000ff;" x="362.345225" xlink:href="#m538de8645e" y="219.055638"/>
     <use style="fill:#0000ff;stroke:#0000ff;" x="362.86154" xlink:href="#m538de8645e" y="221.394391"/>
     <use style="fill:#0000ff;stroke:#0000ff;" x="363.54996" xlink:href="#m538de8645e" y="223.721232"/>
     <use style="fill:#0000ff;stroke:#0000ff;" x="364.23838" xlink:href="#m538de8645e" y="226.079839"/>
     <use style="fill:#0000ff;stroke:#0000ff;" x="364.9268" xlink:href="#m538de8645e" y="228.434475"/>
     <use style="fill:#0000ff;stroke:#0000ff;" x="365.798082" xlink:href="#m538de8645e" y="230.749404"/>
     <use style="fill:#0000ff;stroke:#0000ff;" x="366.701633" xlink:href="#m538de8645e" y="233.076245"/>
     <use style="fill:#0000ff;stroke:#0000ff;" x="367.745019" xlink:href="#m538de8645e" y="235.391174"/>
     <use style="fill:#0000ff;stroke:#0000ff;" x="369.05732" xlink:href="#m538de8645e" y="237.694191"/>
     <use style="fill:#0000ff;stroke:#0000ff;" x="370.627778" xlink:href="#m538de8645e" y="240.056769"/>
     <use style="fill:#0000ff;stroke:#0000ff;" x="372.165966" xlink:href="#m538de8645e" y="242.395522"/>
     <use style="fill:#0000ff;stroke:#0000ff;" x="373.736424" xlink:href="#m538de8645e" y="244.726334"/>
     <use style="fill:#0000ff;stroke:#0000ff;" x="375.177804" xlink:href="#m538de8645e" y="247.073028"/>
     <use style="fill:#0000ff;stroke:#0000ff;" x="376.59767" xlink:href="#m538de8645e" y="249.479284"/>
     <use style="fill:#0000ff;stroke:#0000ff;" x="378.189641" xlink:href="#m538de8645e" y="251.893481"/>
     <use style="fill:#0000ff;stroke:#0000ff;" x="379.577237" xlink:href="#m538de8645e" y="254.256058"/>
     <use style="fill:#0000ff;stroke:#0000ff;" x="380.911051" xlink:href="#m538de8645e" y="256.634519"/>
     <use style="fill:#0000ff;stroke:#0000ff;" x="382.062003" xlink:href="#m538de8645e" y="258.989155"/>
     <use style="fill:#0000ff;stroke:#0000ff;" x="383.159172" xlink:href="#m538de8645e" y="261.33585"/>
     <use style="fill:#0000ff;stroke:#0000ff;" x="384.267098" xlink:href="#m538de8645e" y="263.706369"/>
     <use style="fill:#0000ff;stroke:#0000ff;" x="385.288972" xlink:href="#m538de8645e" y="266.057034"/>
     <use style="fill:#0000ff;stroke:#0000ff;" x="386.300088" xlink:href="#m538de8645e" y="268.399758"/>
     <use style="fill:#0000ff;stroke:#0000ff;" x="387.354231" xlink:href="#m538de8645e" y="270.782189"/>
     <use style="fill:#0000ff;stroke:#0000ff;" x="388.419131" xlink:href="#m538de8645e" y="273.148737"/>
     <use style="fill:#0000ff;stroke:#0000ff;" x="389.559327" xlink:href="#m538de8645e" y="275.511315"/>
     <use style="fill:#0000ff;stroke:#0000ff;" x="390.61347" xlink:href="#m538de8645e" y="277.865951"/>
     <use style="fill:#0000ff;stroke:#0000ff;" x="391.689126" xlink:href="#m538de8645e" y="280.272206"/>
     <use style="fill:#0000ff;stroke:#0000ff;" x="392.732512" xlink:href="#m538de8645e" y="282.682433"/>
     <use style="fill:#0000ff;stroke:#0000ff;" x="393.797412" xlink:href="#m538de8645e" y="285.140307"/>
     <use style="fill:#0000ff;stroke:#0000ff;" x="394.787015" xlink:href="#m538de8645e" y="287.610094"/>
     <use style="fill:#0000ff;stroke:#0000ff;" x="395.862672" xlink:href="#m538de8645e" y="290.075911"/>
     <use style="fill:#0000ff;stroke:#0000ff;" x="396.970598" xlink:href="#m538de8645e" y="292.537756"/>
     <use style="fill:#0000ff;stroke:#0000ff;" x="398.110793" xlink:href="#m538de8645e" y="295.055192"/>
    </g>
   </g>
   <g id="patch_3">
    <path d="M 57.6 307.584 
L 57.6 41.472 
" style="fill:none;stroke:#000000;stroke-linecap:square;stroke-linejoin:miter;stroke-width:0.8;"/>
   </g>
   <g id="patch_4">
    <path d="M 414.72 307.584 
L 414.72 41.472 
" style="fill:none;stroke:#000000;stroke-linecap:square;stroke-linejoin:miter;stroke-width:0.8;"/>
   </g>
   <g id="patch_5">
    <path d="M 57.6 307.584 
L 414.72 307.584 
" style="fill:none;stroke:#000000;stroke-linecap:square;stroke-linejoin:miter;stroke-width:0.8;"/>
   </g>
   <g id="patch_6">
    <path d="M 57.6 41.472 
L 414.72 41.472 
" style="fill:none;stroke:#000000;stroke-linecap:square;stroke-linejoin:miter;stroke-width:0.8;"/>
   </g>
   <g id="text_17">
    <!--  -->
    <defs>
     <path d="M 84.765625 35.546875 
Q 88.28125 31.640625 91.796875 29.6875 
Q 89.453125 28.125 84.953125 23.828125 
Q 80.46875 19.53125 75.78125 14.84375 
Q 78.90625 9.765625 84.953125 5.46875 
Q 91.015625 1.171875 96.484375 -0.78125 
Q 92.96875 -3.90625 90.625 -8.203125 
Q 81.640625 -3.125 76.5625 2.140625 
Q 71.484375 7.421875 68.546875 13.46875 
Q 65.625 19.53125 64.25 26.171875 
Q 62.890625 32.8125 62.109375 39.0625 
L 53.515625 39.0625 
L 53.515625 2.34375 
Q 57.421875 4.6875 63.671875 10.15625 
Q 65.625 5.078125 66.796875 3.515625 
Q 63.28125 1.171875 57.8125 -2.921875 
Q 52.34375 -7.03125 49.21875 -9.765625 
L 44.921875 -4.296875 
Q 47.265625 -2.34375 46.875 3.90625 
L 46.875 60.546875 
Q 46.875 70.703125 46.484375 78.90625 
L 86.71875 78.90625 
Q 86.328125 70.703125 86.328125 58.203125 
Q 86.328125 45.703125 86.71875 39.0625 
L 68.75 39.0625 
Q 69.140625 35.546875 69.921875 31.25 
Q 70.703125 26.953125 72.65625 21.09375 
Q 76.5625 24.609375 80.078125 28.90625 
Q 83.59375 33.203125 84.765625 35.546875 
z
M 42.1875 27.734375 
Q 36.328125 28.125 30.46875 28.125 
L 30.46875 8.59375 
Q 33.203125 8.984375 42.96875 12.109375 
Q 42.1875 8.984375 42.1875 5.46875 
Q 21.09375 -0.390625 16.40625 -1.75 
Q 11.71875 -3.125 7.03125 -5.46875 
Q 5.859375 -1.953125 3.515625 2.34375 
Q 5.46875 2.734375 10.15625 3.90625 
L 10.15625 28.90625 
Q 10.15625 33.203125 9.765625 38.671875 
L 17.1875 38.671875 
Q 16.796875 32.421875 16.796875 27.34375 
L 16.796875 5.078125 
Q 19.921875 5.859375 23.828125 6.640625 
L 23.828125 47.65625 
L 9.765625 47.65625 
Q 10.15625 57.03125 10.15625 64.0625 
Q 10.15625 71.484375 9.765625 77.734375 
L 40.625 77.734375 
Q 40.234375 70.3125 40.234375 62.890625 
Q 40.234375 55.46875 40.625 47.65625 
L 30.46875 47.65625 
L 30.46875 33.984375 
Q 36.328125 33.984375 42.1875 34.375 
z
M 33.59375 53.515625 
L 33.59375 71.875 
L 16.796875 71.875 
L 16.796875 53.515625 
z
M 79.296875 45.3125 
L 79.296875 56.25 
L 53.515625 56.25 
L 53.515625 45.3125 
z
M 79.296875 62.109375 
L 79.296875 72.65625 
L 53.515625 72.65625 
L 53.515625 62.109375 
z
" id="SimHei-8ddf"/>
     <path d="M 40.234375 6.25 
Q 20.3125 0 15.234375 -1.953125 
Q 10.15625 -3.90625 5.46875 -6.25 
Q 4.296875 -1.5625 3.125 2.734375 
L 8.203125 3.90625 
L 8.203125 29.296875 
Q 8.203125 34.375 7.8125 38.28125 
L 15.625 38.28125 
Q 15.234375 34.375 15.234375 27.734375 
L 15.234375 6.25 
L 22.265625 7.8125 
L 22.265625 48.4375 
L 8.59375 48.4375 
L 8.59375 63.28125 
Q 8.59375 70.703125 8.203125 76.953125 
L 38.28125 76.953125 
Q 37.890625 69.53125 37.890625 62.109375 
Q 37.890625 54.6875 38.28125 48.4375 
L 28.90625 48.4375 
L 28.90625 32.421875 
Q 31.640625 32.421875 38.671875 32.8125 
L 38.671875 25.390625 
Q 31.640625 25.78125 28.90625 25.78125 
L 28.90625 9.765625 
L 40.234375 12.890625 
L 40.234375 6.25 
z
M 55.46875 -1.171875 
Q 64.0625 -1.953125 64.0625 1.953125 
L 64.0625 28.125 
Q 50 28.125 42.96875 27.734375 
L 42.96875 34.765625 
Q 50 34.375 69.140625 34.375 
Q 88.671875 34.375 94.53125 34.765625 
L 94.53125 27.734375 
Q 88.671875 28.125 71.484375 28.125 
L 71.484375 1.5625 
Q 71.484375 -6.25 67.578125 -7.8125 
Q 63.671875 -9.375 57.421875 -9.765625 
Q 57.03125 -5.46875 55.46875 -1.171875 
z
M 68.359375 82.421875 
Q 71.09375 73.4375 72.265625 69.53125 
L 94.140625 69.53125 
Q 93.75 65.625 93.75 61.328125 
Q 93.75 57.03125 94.140625 53.90625 
L 86.328125 53.90625 
L 86.328125 63.28125 
L 49.609375 63.28125 
L 49.609375 53.90625 
L 42.578125 53.90625 
Q 42.96875 57.421875 42.96875 61.328125 
Q 42.96875 65.625 42.578125 69.53125 
L 63.671875 69.53125 
Q 63.28125 72.65625 60.15625 80.078125 
Q 64.84375 81.640625 68.359375 82.421875 
z
M 31.25 55.078125 
L 31.25 70.3125 
L 15.625 70.3125 
L 15.625 55.078125 
z
M 83.984375 43.359375 
Q 78.125 43.75 66.40625 43.75 
Q 54.6875 43.75 49.21875 43.359375 
L 49.21875 50.78125 
Q 54.6875 50.390625 66.40625 50.390625 
Q 78.125 50.390625 83.984375 50.78125 
z
M 57.8125 12.890625 
Q 55.078125 9.375 50.78125 3.90625 
Q 46.484375 -1.5625 41.40625 -7.421875 
Q 38.671875 -3.90625 35.546875 -1.5625 
Q 39.84375 1.953125 43.75 6.828125 
Q 47.65625 11.71875 51.171875 17.96875 
Q 54.296875 15.625 57.8125 12.890625 
z
M 82.03125 18.359375 
Q 93.75 4.6875 96.484375 0.78125 
Q 92.96875 -1.5625 90.625 -4.6875 
Q 80.46875 9.375 76.5625 12.890625 
Q 79.296875 16.015625 82.03125 18.359375 
z
" id="SimHei-8e2a"/>
     <path d="M 83.984375 76.5625 
Q 83.59375 65.234375 83.59375 55.078125 
L 83.59375 9.375 
Q 83.59375 3.515625 83.984375 -8.59375 
L 75.390625 -8.59375 
L 75.390625 -1.5625 
L 24.609375 -1.5625 
L 24.609375 -8.203125 
L 16.40625 -8.203125 
Q 16.796875 2.34375 16.796875 8.59375 
L 16.796875 55.078125 
Q 16.796875 67.96875 16.40625 76.5625 
L 83.984375 76.5625 
z
M 75.390625 4.6875 
L 75.390625 23.046875 
L 24.609375 23.046875 
L 24.609375 4.6875 
z
M 75.390625 29.296875 
L 75.390625 46.875 
L 24.609375 46.875 
L 24.609375 29.296875 
z
M 75.390625 53.125 
L 75.390625 70.3125 
L 24.609375 70.3125 
L 24.609375 53.125 
z
" id="SimHei-76ee"/>
     <path d="M 19.921875 68.75 
Q 19.921875 75 19.53125 80.859375 
L 27.34375 80.859375 
Q 26.953125 75.390625 26.953125 68.75 
L 26.953125 59.375 
Q 33.203125 59.375 40.234375 59.765625 
L 40.234375 52.34375 
Q 33.203125 52.734375 26.953125 52.734375 
L 26.953125 39.453125 
Q 29.6875 41.40625 32.421875 43.75 
Q 37.5 35.546875 41.40625 27.734375 
Q 37.109375 25.78125 33.984375 23.4375 
Q 31.640625 31.25 26.953125 37.890625 
L 26.953125 7.421875 
Q 26.953125 -0.78125 27.34375 -8.984375 
L 19.53125 -8.984375 
Q 19.921875 -0.390625 19.921875 7.421875 
L 19.921875 32.8125 
Q 16.015625 21.875 7.8125 11.71875 
Q 5.46875 14.84375 1.953125 17.578125 
Q 8.59375 24.21875 12.6875 34.171875 
Q 16.796875 44.140625 17.96875 52.734375 
Q 10.546875 52.734375 5.078125 51.953125 
L 5.078125 59.765625 
Q 12.5 59.375 19.921875 59.375 
z
M 80.859375 48.828125 
Q 88.671875 48.828125 94.53125 49.21875 
L 94.53125 41.796875 
Q 88.671875 42.1875 82.421875 42.1875 
L 70.3125 42.1875 
L 70.3125 2.734375 
Q 70.3125 -3.515625 66.796875 -5.46875 
Q 63.28125 -7.421875 54.296875 -8.59375 
Q 53.515625 -3.90625 51.171875 0.390625 
Q 58.984375 0.390625 60.9375 0.96875 
Q 62.890625 1.5625 62.890625 5.46875 
L 62.890625 42.1875 
L 53.125 42.1875 
Q 43.359375 42.1875 39.0625 41.40625 
L 39.0625 49.21875 
Q 44.140625 48.828125 53.125 48.828125 
z
M 76.5625 74.609375 
Q 84.765625 74.609375 89.84375 75 
L 89.84375 67.1875 
Q 82.421875 67.96875 74.21875 67.96875 
L 55.078125 67.96875 
Q 48.828125 67.96875 42.96875 67.1875 
L 42.96875 75 
Q 48.4375 74.609375 55.078125 74.609375 
z
M 82.421875 31.640625 
Q 91.015625 18.359375 96.875 7.8125 
Q 92.578125 5.859375 88.28125 3.125 
Q 83.984375 14.453125 75.390625 26.953125 
Q 79.296875 28.90625 82.421875 31.640625 
z
M 56.25 27.734375 
Q 54.6875 25.390625 50.390625 15.234375 
Q 46.09375 5.078125 43.75 0.78125 
Q 40.234375 2.734375 35.9375 4.296875 
Q 41.015625 12.109375 43.546875 18.546875 
Q 46.09375 25 47.65625 31.25 
Q 51.953125 29.296875 56.25 27.734375 
z
" id="SimHei-6807"/>
     <path d="M 33.203125 76.953125 
Q 30.46875 74.21875 25.390625 58.59375 
L 25.390625 8.984375 
Q 25.390625 -3.515625 25.78125 -10.15625 
L 17.1875 -10.15625 
Q 17.96875 -3.125 17.96875 8.59375 
L 17.96875 46.09375 
Q 12.109375 35.546875 8.59375 30.46875 
Q 5.859375 35.546875 3.125 37.890625 
Q 8.203125 43.359375 14.25 55.859375 
Q 20.3125 68.359375 23.4375 81.25 
Q 28.515625 78.125 33.203125 76.953125 
z
M 83.984375 47.265625 
Q 82.421875 44.921875 79.6875 35.15625 
Q 76.953125 25.390625 71.875 4.6875 
L 85.15625 4.6875 
Q 92.578125 4.6875 95.3125 5.078125 
L 95.3125 -2.734375 
Q 91.796875 -2.34375 85.15625 -2.34375 
L 45.3125 -2.34375 
Q 35.546875 -2.34375 32.03125 -2.734375 
L 32.03125 5.078125 
Q 35.546875 4.6875 44.53125 4.6875 
L 63.671875 4.6875 
Q 68.75 21.875 73.4375 49.609375 
Q 79.6875 48.046875 83.984375 47.265625 
z
M 82.03125 62.890625 
Q 89.0625 62.890625 92.578125 63.28125 
L 92.578125 55.859375 
Q 89.0625 56.25 81.640625 56.25 
L 46.875 56.25 
Q 41.40625 56.25 35.546875 55.859375 
L 35.546875 63.28125 
Q 41.796875 62.890625 46.875 62.890625 
z
M 47.65625 47.65625 
Q 54.6875 27.734375 58.59375 11.328125 
Q 53.90625 9.765625 50.78125 8.59375 
Q 48.828125 17.578125 46.28125 26.171875 
Q 43.75 34.765625 39.84375 44.921875 
Q 43.75 45.703125 47.65625 47.65625 
z
M 60.546875 81.25 
Q 65.234375 73.046875 68.75 67.1875 
Q 65.625 66.40625 60.546875 63.671875 
Q 57.8125 70.703125 53.125 77.34375 
Q 57.03125 78.90625 60.546875 81.25 
z
" id="SimHei-4f4d"/>
     <path d="M 56.25 57.03125 
Q 55.078125 54.296875 54.296875 51.953125 
L 74.21875 51.953125 
Q 79.6875 51.953125 88.671875 52.34375 
L 88.671875 45.703125 
Q 80.078125 46.09375 74.21875 46.09375 
L 53.125 46.09375 
L 52.34375 40.625 
L 78.125 40.625 
Q 77.734375 30.859375 77.734375 24.21875 
L 77.734375 -0.78125 
Q 87.109375 -0.78125 94.140625 -0.390625 
L 94.140625 -6.25 
Q 85.546875 -5.859375 78.125 -5.859375 
L 21.875 -5.859375 
Q 14.0625 -5.859375 6.25 -6.25 
L 6.25 -0.390625 
Q 14.453125 -0.78125 22.65625 -0.78125 
L 22.65625 24.21875 
Q 22.65625 30.859375 22.265625 40.625 
L 44.921875 40.625 
L 45.703125 46.09375 
L 25 46.09375 
Q 17.96875 46.09375 10.15625 45.703125 
L 10.15625 52.34375 
Q 17.96875 51.953125 25 51.953125 
L 46.484375 51.953125 
Q 46.875 55.078125 46.875 57.8125 
Q 50.78125 57.03125 56.25 57.03125 
z
M 87.109375 77.34375 
Q 86.71875 71.875 86.71875 67.1875 
Q 86.71875 62.5 87.109375 58.984375 
L 14.0625 58.984375 
Q 14.453125 63.671875 14.453125 67.578125 
Q 14.453125 71.875 14.0625 77.34375 
L 87.109375 77.34375 
z
M 71.484375 29.6875 
L 71.484375 35.15625 
L 28.90625 35.15625 
L 28.90625 29.6875 
z
M 71.484375 19.53125 
L 71.484375 24.609375 
L 28.90625 24.609375 
L 28.90625 19.53125 
z
M 71.484375 -0.78125 
L 71.484375 4.296875 
L 28.90625 4.296875 
L 28.90625 -0.78125 
z
M 71.484375 9.765625 
L 71.484375 13.671875 
L 28.90625 13.671875 
L 28.90625 9.765625 
z
M 57.8125 64.0625 
L 57.8125 72.265625 
L 42.1875 72.265625 
L 42.1875 64.0625 
z
M 79.296875 64.0625 
L 79.296875 72.265625 
L 64.0625 72.265625 
L 64.0625 64.0625 
z
M 36.71875 64.0625 
L 36.71875 72.265625 
L 21.875 72.265625 
L 21.875 64.0625 
z
" id="SimHei-7f6e"/>
     <path d="M 81.25 30.859375 
Q 77.34375 25 70.890625 17.765625 
Q 64.453125 10.546875 57.421875 5.859375 
Q 61.328125 3.515625 71.875 1.359375 
Q 82.421875 -0.78125 93.75 -1.171875 
Q 89.0625 -6.25 88.28125 -9.765625 
Q 75.78125 -8.203125 65.8125 -4.875 
Q 55.859375 -1.5625 50.390625 1.953125 
Q 43.75 -1.953125 33.59375 -5.078125 
Q 23.4375 -8.203125 10.9375 -10.546875 
Q 9.375 -6.640625 6.25 -2.734375 
Q 14.84375 -2.34375 26.359375 0.1875 
Q 37.890625 2.734375 44.140625 5.859375 
Q 35.546875 12.109375 26.171875 24.609375 
Q 21.09375 24.609375 15.625 24.21875 
L 15.625 31.25 
Q 22.65625 30.859375 32.421875 30.859375 
z
M 50.390625 82.421875 
Q 53.125 76.5625 55.46875 69.921875 
L 73.046875 69.921875 
Q 84.375 69.921875 93.359375 70.3125 
L 93.359375 62.890625 
Q 83.984375 63.28125 73.828125 63.28125 
L 64.453125 63.28125 
L 64.453125 46.09375 
Q 64.453125 39.84375 64.84375 33.59375 
L 56.25 33.59375 
Q 56.640625 39.84375 56.640625 46.09375 
L 56.640625 63.28125 
L 42.96875 63.28125 
L 42.96875 46.09375 
Q 42.96875 41.796875 43.359375 33.59375 
L 34.765625 33.59375 
Q 35.15625 41.796875 35.15625 46.09375 
L 35.15625 63.28125 
L 26.5625 63.28125 
Q 15.234375 63.28125 6.640625 62.890625 
L 6.640625 70.3125 
Q 14.84375 69.921875 26.5625 69.921875 
L 46.484375 69.921875 
Q 45.703125 73.046875 42.1875 80.078125 
Q 46.09375 80.46875 50.390625 82.421875 
z
M 34.375 24.609375 
Q 41.40625 15.234375 50.78125 9.375 
Q 60.15625 15.625 66.796875 24.609375 
L 34.375 24.609375 
z
M 75.78125 58.59375 
Q 83.984375 51.171875 92.96875 41.796875 
Q 89.84375 39.453125 85.9375 35.9375 
Q 79.296875 43.75 69.53125 53.125 
Q 73.046875 55.859375 75.78125 58.59375 
z
M 28.515625 54.6875 
Q 26.5625 52.734375 22.265625 47.265625 
Q 17.96875 41.796875 12.890625 35.9375 
Q 8.984375 38.671875 5.859375 40.625 
Q 15.234375 49.21875 20.3125 59.765625 
Q 23.828125 57.03125 28.515625 54.6875 
z
" id="SimHei-53d8"/>
     <path d="M 61.328125 78.515625 
Q 60.9375 76.5625 60.9375 68.75 
L 60.9375 41.015625 
Q 68.359375 47.265625 74.609375 53.90625 
Q 80.859375 60.546875 84.375 67.1875 
Q 87.5 64.0625 92.1875 61.328125 
Q 89.0625 57.8125 81.640625 50.1875 
Q 74.21875 42.578125 70.109375 39.25 
Q 66.015625 35.9375 60.9375 31.640625 
L 60.9375 7.03125 
Q 60.9375 0.78125 66.015625 0.78125 
L 81.25 0.78125 
Q 84.375 1.171875 85.34375 4.09375 
Q 86.328125 7.03125 87.109375 13.28125 
Q 90.625 10.15625 96.09375 9.375 
Q 93.75 -1.5625 91.015625 -3.90625 
Q 88.28125 -6.25 83.59375 -6.25 
L 61.71875 -6.25 
Q 53.515625 -6.25 53.125 3.125 
L 53.125 26.171875 
Q 50.390625 23.828125 46.28125 21.09375 
Q 42.1875 18.359375 37.109375 15.234375 
Q 34.765625 19.140625 31.640625 21.875 
Q 36.71875 24.21875 42.765625 27.921875 
Q 48.828125 31.640625 53.125 35.15625 
L 53.125 70.3125 
Q 53.125 75 52.734375 78.515625 
L 61.328125 78.515625 
z
M 37.5 75.78125 
Q 33.984375 71.09375 32.421875 67.765625 
Q 30.859375 64.453125 28.515625 58.984375 
L 28.515625 10.546875 
Q 28.515625 -1.171875 28.90625 -8.59375 
L 20.703125 -8.59375 
Q 21.09375 -1.953125 21.09375 10.15625 
L 21.09375 47.65625 
Q 17.578125 42.578125 15.03125 39.453125 
Q 12.5 36.328125 10.546875 33.984375 
Q 7.8125 37.109375 4.296875 39.453125 
Q 9.765625 44.53125 13.671875 50.1875 
Q 17.578125 55.859375 20.5 61.125 
Q 23.4375 66.40625 25.390625 71.484375 
Q 27.34375 76.5625 28.515625 79.6875 
Q 30.859375 77.734375 37.5 75.78125 
z
" id="SimHei-5316"/>
    </defs>
    <g transform="translate(188.16 35.472)scale(0.12 -0.12)">
     <use xlink:href="#SimHei-8ddf"/>
     <use x="100" xlink:href="#SimHei-8e2a"/>
     <use x="200" xlink:href="#SimHei-76ee"/>
     <use x="300" xlink:href="#SimHei-6807"/>
     <use x="400" xlink:href="#SimHei-4f4d"/>
     <use x="500" xlink:href="#SimHei-7f6e"/>
     <use x="600" xlink:href="#SimHei-53d8"/>
     <use x="700" xlink:href="#SimHei-5316"/>
    </g>
   </g>
   <g id="legend_1">
    <g id="patch_7">
     <path d="M 318.72 93.222 
L 404.22 93.222 
Q 407.22 93.222 407.22 90.222 
L 407.22 51.972 
Q 407.22 48.972 404.22 48.972 
L 318.72 48.972 
Q 315.72 48.972 315.72 51.972 
L 315.72 90.222 
Q 315.72 93.222 318.72 93.222 
z
" style="fill:#ffffff;opacity:0.8;stroke:#cccccc;stroke-linejoin:miter;"/>
    </g>
    <g id="line2d_31">
     <path d="M 321.72 60.222 
L 351.72 60.222 
" style="fill:none;stroke:#ff0000;stroke-linecap:square;stroke-width:1.5;"/>
    </g>
    <g id="line2d_32">
     <g>
      <use style="fill:#ff0000;stroke:#ff0000;stroke-linejoin:bevel;" x="336.72" xlink:href="#md64455b81b" y="60.222"/>
     </g>
    </g>
    <g id="text_18">
     <!-- GT -->
     <defs>
      <path d="M 44.53125 1.171875 
L 37.890625 1.171875 
L 36.71875 6.640625 
Q 35.15625 4.296875 31.828125 2.734375 
Q 28.515625 1.171875 24.609375 1.171875 
Q 16.40625 1.171875 9.953125 8.78125 
Q 3.515625 16.40625 3.515625 33.203125 
Q 3.515625 51.5625 9.375 60.546875 
Q 15.234375 69.53125 25.390625 69.53125 
Q 34.375 69.53125 39.453125 62.890625 
Q 44.53125 56.25 44.53125 45.703125 
L 35.9375 45.703125 
Q 35.9375 53.90625 33.203125 58 
Q 30.46875 62.109375 25.390625 62.109375 
Q 19.140625 62.109375 16.015625 55.65625 
Q 12.890625 49.21875 12.890625 33.984375 
Q 12.890625 19.53125 16.796875 14.0625 
Q 20.703125 8.59375 25.78125 8.59375 
Q 30.859375 8.59375 33.78125 12.296875 
Q 36.71875 16.015625 36.71875 23.828125 
L 36.71875 28.125 
L 24.609375 28.125 
L 24.609375 35.546875 
L 44.53125 35.546875 
z
" id="SimHei-47"/>
      <path d="M 44.53125 61.328125 
L 28.90625 61.328125 
L 28.90625 1.953125 
L 19.921875 1.953125 
L 19.921875 61.328125 
L 4.296875 61.328125 
L 4.296875 68.75 
L 44.53125 68.75 
z
" id="SimHei-54"/>
     </defs>
     <g transform="translate(363.72 65.472)scale(0.15 -0.15)">
      <use xlink:href="#SimHei-47"/>
      <use x="50" xlink:href="#SimHei-54"/>
     </g>
    </g>
    <g id="line2d_33">
     <path d="M 321.72 80.097 
L 351.72 80.097 
" style="fill:none;stroke:#0000ff;stroke-linecap:square;stroke-width:1.5;"/>
    </g>
    <g id="line2d_34">
     <g>
      <use style="fill:#0000ff;stroke:#0000ff;" x="336.72" xlink:href="#m538de8645e" y="80.097"/>
     </g>
    </g>
    <g id="text_19">
     <!-- Track -->
     <defs>
      <path d="M 39.0625 37.890625 
Q 31.640625 39.0625 26.5625 35.734375 
Q 21.484375 32.421875 17.96875 24.21875 
L 17.96875 1.953125 
L 10.15625 1.953125 
L 10.15625 45.703125 
L 17.96875 45.703125 
L 17.96875 34.375 
Q 21.484375 40.625 26.75 43.546875 
Q 32.03125 46.484375 39.0625 46.484375 
z
" id="SimHei-72"/>
      <path d="M 44.921875 1.953125 
L 35.546875 1.953125 
Q 34.765625 2.734375 34.375 4.09375 
Q 33.984375 5.46875 33.984375 7.421875 
Q 31.25 4.296875 27.34375 2.734375 
Q 23.4375 1.171875 19.140625 1.171875 
Q 12.890625 1.171875 8.59375 4.296875 
Q 4.296875 7.421875 4.296875 13.28125 
Q 4.296875 19.140625 8.203125 22.65625 
Q 12.109375 26.171875 20.3125 27.34375 
Q 25.78125 28.125 29.875 29.296875 
Q 33.984375 30.46875 33.984375 32.421875 
Q 33.984375 34.765625 32.21875 37.109375 
Q 30.46875 39.453125 24.609375 39.453125 
Q 19.921875 39.453125 17.765625 37.6875 
Q 15.625 35.9375 14.84375 32.8125 
L 6.25 32.8125 
Q 7.03125 39.0625 11.90625 42.765625 
Q 16.796875 46.484375 24.609375 46.484375 
Q 33.203125 46.484375 37.5 42.578125 
Q 41.796875 38.671875 41.796875 31.640625 
L 41.796875 10.15625 
Q 41.796875 7.8125 42.578125 5.859375 
Q 43.359375 3.90625 44.921875 1.953125 
z
M 33.984375 16.40625 
L 33.984375 24.21875 
Q 31.640625 23.4375 29.484375 22.84375 
Q 27.34375 22.265625 22.265625 21.484375 
Q 16.40625 20.703125 14.640625 18.75 
Q 12.890625 16.796875 12.890625 14.0625 
Q 12.890625 11.71875 14.640625 9.953125 
Q 16.40625 8.203125 19.921875 8.203125 
Q 23.4375 8.203125 27.53125 10.15625 
Q 31.640625 12.109375 33.984375 16.40625 
z
" id="SimHei-61"/>
      <path d="M 44.53125 19.53125 
Q 44.53125 11.328125 38.859375 6.25 
Q 33.203125 1.171875 24.609375 1.171875 
Q 16.015625 1.171875 9.765625 7.21875 
Q 3.515625 13.28125 3.515625 23.828125 
Q 3.515625 34.375 9.765625 40.421875 
Q 16.015625 46.484375 24.609375 46.484375 
Q 33.203125 46.484375 38.28125 41.984375 
Q 43.359375 37.5 43.359375 31.25 
L 34.765625 31.25 
Q 34.375 35.9375 31.4375 37.6875 
Q 28.515625 39.453125 24.609375 39.453125 
Q 19.921875 39.453125 16.015625 35.734375 
Q 12.109375 32.03125 12.109375 23.828125 
Q 12.109375 15.625 16.015625 11.90625 
Q 19.921875 8.203125 24.609375 8.203125 
Q 29.6875 8.203125 32.8125 10.9375 
Q 35.9375 13.671875 35.9375 19.53125 
z
" id="SimHei-63"/>
      <path d="M 45.703125 1.953125 
L 36.71875 1.953125 
L 22.65625 25.78125 
L 13.671875 17.1875 
L 13.671875 1.953125 
L 5.859375 1.953125 
L 5.859375 68.75 
L 13.671875 68.75 
L 13.671875 26.171875 
L 33.203125 45.703125 
L 42.96875 45.703125 
L 27.734375 30.859375 
z
" id="SimHei-6b"/>
     </defs>
     <g transform="translate(363.72 85.347)scale(0.15 -0.15)">
      <use xlink:href="#SimHei-54"/>
      <use x="50" xlink:href="#SimHei-72"/>
      <use x="100" xlink:href="#SimHei-61"/>
      <use x="150" xlink:href="#SimHei-63"/>
      <use x="200" xlink:href="#SimHei-6b"/>
     </g>
    </g>
   </g>
  </g>
 </g>
 <defs>
  <clipPath id="p5192fc53c7">
   <rect height="266.112" width="357.12" x="57.6" y="41.472"/>
  </clipPath>
 </defs>
</svg>
